<svg width="20" height="20" viewBox="0 0 20 20" fill="none" xmlns="http://www.w3.org/2000/svg">
  <path
    d="M12.0835 12.5C12.4132 12.5 12.7354 12.4023 13.0095 12.2191C13.2836 12.036 13.4972 11.7757 13.6233 11.4711C13.7495 11.1666 13.7825 10.8315 13.7182 10.5082C13.6539 10.1849 13.4951 9.88791 13.2621 9.65483C13.029 9.42174 12.732 9.263 12.4087 9.1987C12.0854 9.13439 11.7503 9.16739 11.4457 9.29354C11.1412 9.41968 10.8809 9.63331 10.6978 9.90739C10.5146 10.1815 10.4169 10.5037 10.4169 10.8333L8.83355 11.5583C8.56144 11.379 8.24275 11.2834 7.91688 11.2833C7.47485 11.2833 7.05093 11.4589 6.73837 11.7715C6.42581 12.0841 6.25021 12.508 6.25021 12.95C6.25021 13.392 6.42581 13.816 6.73837 14.1285C7.05093 14.4411 7.47485 14.6167 7.91688 14.6167C8.18535 14.6168 8.44935 14.5479 8.68355 14.4167L10.4335 15.25C10.4757 15.6142 10.6368 15.9543 10.8919 16.2177C11.1469 16.4811 11.4817 16.653 11.8444 16.7068C12.207 16.7607 12.5773 16.6934 12.8979 16.5155C13.2184 16.3376 13.4714 16.059 13.6176 15.7228C13.7638 15.3866 13.795 15.0115 13.7065 14.6557C13.6179 14.3 13.4146 13.9833 13.1278 13.7548C12.8411 13.5263 12.4871 13.3988 12.1205 13.3919C11.7539 13.385 11.3953 13.4991 11.1002 13.7167L9.64188 13.05L11.2335 12.3167C11.4957 12.4519 11.789 12.5152 12.0835 12.5ZM15.3502 6.01667C14.841 4.84667 13.9623 3.8759 12.8486 3.25311C11.7349 2.63032 10.4478 2.38986 9.18435 2.5686C7.92094 2.74733 6.75098 3.33538 5.85376 4.24265C4.95653 5.14992 4.38154 6.32635 4.21688 7.59167C3.51873 7.76171 2.89421 8.15281 2.43642 8.70667C1.97863 9.26052 1.71206 9.94749 1.67646 10.6652C1.64086 11.3828 1.83812 12.0928 2.23885 12.6893C2.63958 13.2857 3.22232 13.7367 3.90021 13.975C3.98664 14.0016 4.07645 14.0157 4.16688 14.0167C4.38789 14.052 4.6139 13.9981 4.79519 13.8669C4.97647 13.7356 5.09818 13.5377 5.13355 13.3167C5.16891 13.0957 5.11502 12.8696 4.98375 12.6884C4.85247 12.5071 4.65456 12.3854 4.43355 12.35C4.1193 12.2366 3.84641 12.0313 3.65026 11.7609C3.45411 11.4904 3.34377 11.1673 3.33355 10.8333C3.33355 10.3913 3.50914 9.96739 3.8217 9.65483C4.13426 9.34227 4.55818 9.16667 5.00021 9.16667C5.22123 9.16667 5.43319 9.07887 5.58947 8.92259C5.74575 8.76631 5.83355 8.55435 5.83355 8.33334C5.83567 7.34774 6.18712 6.3948 6.82544 5.64382C7.46376 4.89285 8.34762 4.39246 9.32 4.23157C10.2924 4.07067 11.2903 4.25968 12.1365 4.76501C12.9827 5.27035 13.6224 6.05929 13.9419 6.99167C13.9895 7.13487 14.0751 7.26245 14.1896 7.36078C14.3041 7.45912 14.4431 7.52452 14.5919 7.55C15.093 7.6407 15.5545 7.88228 15.9145 8.24241C16.2746 8.60254 16.5161 9.06404 16.6067 9.56517C16.6973 10.0663 16.6328 10.5832 16.4216 11.0466C16.2105 11.51 15.8628 11.8979 15.4252 12.1583C15.2329 12.2688 15.0924 12.4512 15.0346 12.6653C14.9768 12.8794 15.0064 13.1077 15.1169 13.3C15.2274 13.4923 15.4098 13.6328 15.6239 13.6906C15.838 13.7484 16.0663 13.7188 16.2585 13.6083C16.8904 13.2416 17.4147 12.7152 17.7789 12.0818C18.1431 11.4485 18.3344 10.7306 18.3335 10C18.331 9.10345 18.0394 8.23162 17.5019 7.51401C16.9644 6.7964 16.2099 6.27129 15.3502 6.01667Z"
    fill="currentColor" />
</svg>