<svg width="48" height="48" viewBox="0 0 48 48" fill="none" xmlns="http://www.w3.org/2000/svg">
<path d="M23.0122 19.4996C23.3213 19.044 23.6596 18.9861 23.934 18.9861C24.2085 18.9861 24.6657 19.044 24.9749 19.4996C27.411 22.8456 31.432 29.5111 34.3983 34.4278C36.3326 37.6343 37.8183 40.097 38.1231 40.4104C39.2674 41.5869 40.8367 40.8537 41.7486 39.5192C42.6463 38.2053 42.8955 37.2828 42.8955 36.2986C42.8955 35.6282 29.8894 11.4392 28.5795 9.42574C27.3199 7.48916 26.9096 7 24.7536 7H23.1403C20.9908 7 20.6802 7.48916 19.4204 9.42574C18.1107 11.4392 5.10446 35.6282 5.10446 36.2986C5.10446 37.2828 5.35369 38.2053 6.25145 39.5192C7.16334 40.8537 8.73262 41.5869 9.87684 40.4104C10.1817 40.097 11.6674 37.6343 13.6018 34.4278C16.5679 29.5111 20.5762 22.8456 23.0122 19.4996Z" fill="black"/>
</svg>
