<svg width="20" height="20" viewBox="0 0 20 20" fill="none" xmlns="http://www.w3.org/2000/svg">
<path d="M6.66732 13.75C6.5025 13.75 6.34138 13.7989 6.20434 13.8905C6.0673 13.982 5.96049 14.1122 5.89742 14.2645C5.83434 14.4167 5.81784 14.5843 5.85 14.7459C5.88215 14.9076 5.96152 15.0561 6.07806 15.1726C6.19461 15.2892 6.34309 15.3685 6.50474 15.4007C6.66639 15.4328 6.83395 15.4163 6.98622 15.3533C7.13849 15.2902 7.26864 15.1834 7.36021 15.0463C7.45178 14.9093 7.50065 14.7482 7.50065 14.5834C7.50065 14.3623 7.41285 14.1504 7.25657 13.9941C7.10029 13.8378 6.88833 13.75 6.66732 13.75ZM10.0007 1.66669C6.66732 1.66669 3.33398 2.80835 3.33398 5.00002V15C3.33398 17.1917 6.66732 18.3334 10.0007 18.3334C13.334 18.3334 16.6673 17.1917 16.6673 15V5.00002C16.6673 2.80835 13.334 1.66669 10.0007 1.66669ZM15.0007 15C15.0007 15.5917 13.1007 16.6667 10.0007 16.6667C6.90065 16.6667 5.00065 15.5917 5.00065 15V12.275C6.56071 13.0167 8.27389 13.3793 10.0007 13.3334C11.7274 13.3793 13.4406 13.0167 15.0007 12.275V15ZM15.0007 10C15.0007 10.5917 13.1007 11.6667 10.0007 11.6667C6.90065 11.6667 5.00065 10.5917 5.00065 10V7.27502C6.56071 8.01665 8.27389 8.37928 10.0007 8.33335C11.7274 8.37928 13.4406 8.01665 15.0007 7.27502V10ZM10.0007 6.66669C6.90065 6.66669 5.00065 5.59169 5.00065 5.00002C5.00065 4.40835 6.90065 3.33335 10.0007 3.33335C13.1007 3.33335 15.0007 4.40835 15.0007 5.00002C15.0007 5.59169 13.1007 6.66669 10.0007 6.66669ZM6.66732 8.75002C6.5025 8.75002 6.34138 8.79889 6.20434 8.89046C6.0673 8.98203 5.96049 9.11218 5.89742 9.26445C5.83434 9.41672 5.81784 9.58428 5.85 9.74593C5.88215 9.90758 5.96152 10.0561 6.07806 10.1726C6.19461 10.2892 6.34309 10.3685 6.50474 10.4007C6.66639 10.4328 6.83395 10.4163 6.98622 10.3533C7.13849 10.2902 7.26864 10.1834 7.36021 10.0463C7.45178 9.90929 7.50065 9.74817 7.50065 9.58335C7.50065 9.36234 7.41285 9.15038 7.25657 8.9941C7.10029 8.83782 6.88833 8.75002 6.66732 8.75002Z" fill="currentColor"/>
</svg>
