<svg width="20" height="20" viewBox="0 0 20 20" fill="none" xmlns="http://www.w3.org/2000/svg">
<path d="M18.092 5.44168L16.9087 4.26668L18.092 3.09168C18.2489 2.93476 18.3371 2.72193 18.3371 2.50001C18.3371 2.27809 18.2489 2.06527 18.092 1.90835C17.9351 1.75143 17.7222 1.66327 17.5003 1.66327C17.2784 1.66327 17.0656 1.75143 16.9087 1.90835L8.12532 10.6917C7.26369 10.1232 6.22172 9.89481 5.2013 10.0508C4.18088 10.2067 3.25467 10.7359 2.60215 11.5357C1.94962 12.3356 1.61723 13.3492 1.66939 14.3801C1.72155 15.4111 2.15453 16.386 2.88445 17.1159C3.61438 17.8458 4.58926 18.2788 5.6202 18.3309C6.65115 18.3831 7.66476 18.0507 8.46462 17.3982C9.26448 16.7457 9.79364 15.8195 9.94958 14.799C10.1055 13.7786 9.87713 12.7366 9.30866 11.875L13.3753 7.80001L14.5503 8.98334C14.6282 9.06058 14.7205 9.12168 14.8221 9.16315C14.9236 9.20462 15.0323 9.22565 15.142 9.22501C15.2517 9.22565 15.3604 9.20462 15.4619 9.16315C15.5634 9.12168 15.6558 9.06058 15.7337 8.98334C15.8118 8.90588 15.8738 8.81371 15.9161 8.71216C15.9584 8.61061 15.9802 8.50169 15.9802 8.39168C15.9802 8.28167 15.9584 8.17275 15.9161 8.0712C15.8738 7.96965 15.8118 7.87748 15.7337 7.80001L14.5503 6.66668L15.7337 5.48335L16.9087 6.66668C16.9865 6.74391 17.0789 6.80502 17.1804 6.84649C17.2819 6.88796 17.3907 6.90898 17.5003 6.90834C17.61 6.90898 17.7187 6.88796 17.8202 6.84649C17.9218 6.80502 18.0141 6.74391 18.092 6.66668C18.1766 6.58864 18.2441 6.49393 18.2903 6.38852C18.3364 6.2831 18.3603 6.16926 18.3603 6.05418C18.3603 5.93909 18.3364 5.82526 18.2903 5.71984C18.2441 5.61442 18.1766 5.51971 18.092 5.44168ZM5.83366 16.6667C5.3392 16.6667 4.85585 16.5201 4.44473 16.2454C4.03361 15.9706 3.71318 15.5802 3.52396 15.1234C3.33474 14.6666 3.28523 14.1639 3.38169 13.679C3.47816 13.194 3.71626 12.7485 4.06589 12.3989C4.41552 12.0493 4.86098 11.8112 5.34593 11.7147C5.83088 11.6183 6.33355 11.6678 6.79037 11.857C7.24718 12.0462 7.63763 12.3666 7.91233 12.7778C8.18704 13.1889 8.33366 13.6722 8.33366 14.1667C8.33366 14.8297 8.07027 15.4656 7.60143 15.9344C7.13258 16.4033 6.4967 16.6667 5.83366 16.6667Z" fill="currentColor"/>
</svg>
