<svg width="20" height="20" viewBox="0 0 20 20" fill="none" xmlns="http://www.w3.org/2000/svg">
<path d="M17.558 14.025L15.833 12.2583C15.462 11.9056 14.9939 11.6719 14.489 11.5873C13.9841 11.5027 13.4655 11.5709 12.9997 11.7833L12.2497 11.0333C13.1335 9.85244 13.5371 8.38058 13.3793 6.91404C13.2215 5.44751 12.514 4.0952 11.3992 3.12935C10.2844 2.16349 8.84511 1.65581 7.37105 1.7085C5.897 1.76119 4.49762 2.37034 3.45464 3.41332C2.41166 4.4563 1.80251 5.85567 1.74982 7.32973C1.69713 8.80379 2.20481 10.2431 3.17067 11.3579C4.13652 12.4727 5.48883 13.1802 6.95536 13.338C8.4219 13.4958 9.89376 13.0921 11.0747 12.2083L11.8163 12.95C11.5789 13.4164 11.4938 13.9455 11.5731 14.4628C11.6523 14.9801 11.8919 15.4594 12.258 15.8333L14.0247 17.6C14.4934 18.0682 15.1288 18.3311 15.7913 18.3311C16.4538 18.3311 17.0892 18.0682 17.558 17.6C17.7961 17.3672 17.9853 17.0891 18.1145 16.7822C18.2437 16.4752 18.3102 16.1455 18.3102 15.8125C18.3102 15.4795 18.2437 15.1498 18.1145 14.8429C17.9853 14.5359 17.7961 14.2578 17.558 14.025ZM10.4913 10.4917C9.9082 11.0733 9.16575 11.4691 8.35778 11.6291C7.54982 11.789 6.71258 11.7058 5.95183 11.3902C5.19109 11.0745 4.54097 10.5404 4.08359 9.85546C3.62622 9.17048 3.38211 8.36532 3.38211 7.54168C3.38211 6.71804 3.62622 5.91287 4.08359 5.2279C4.54097 4.54292 5.19109 4.00886 5.95183 3.69319C6.71258 3.37752 7.54982 3.29439 8.35778 3.4543C9.16575 3.61422 9.9082 4.01001 10.4913 4.59168C10.8794 4.97873 11.1872 5.43852 11.3973 5.94473C11.6073 6.45094 11.7154 6.99362 11.7154 7.54168C11.7154 8.08974 11.6073 8.63242 11.3973 9.13863C11.1872 9.64484 10.8794 10.1046 10.4913 10.4917ZM16.383 16.3833C16.3055 16.4615 16.2134 16.5234 16.1118 16.5658C16.0103 16.6081 15.9013 16.6298 15.7913 16.6298C15.6813 16.6298 15.5724 16.6081 15.4709 16.5658C15.3693 16.5234 15.2771 16.4615 15.1997 16.3833L13.433 14.6167C13.3549 14.5392 13.2929 14.447 13.2506 14.3455C13.2083 14.2439 13.1865 14.135 13.1865 14.025C13.1865 13.915 13.2083 13.8061 13.2506 13.7045C13.2929 13.603 13.3549 13.5108 13.433 13.4333C13.5105 13.3552 13.6026 13.2932 13.7042 13.2509C13.8057 13.2086 13.9147 13.1868 14.0247 13.1868C14.1347 13.1868 14.2436 13.2086 14.3451 13.2509C14.4467 13.2932 14.5389 13.3552 14.6163 13.4333L16.383 15.2C16.4611 15.2775 16.5231 15.3696 16.5654 15.4712C16.6077 15.5727 16.6295 15.6817 16.6295 15.7917C16.6295 15.9017 16.6077 16.0106 16.5654 16.1122C16.5231 16.2137 16.4611 16.3059 16.383 16.3833Z" fill="currentColor"/>
</svg>
