<svg width="20" height="20" viewBox="0 0 20 20" fill="none" xmlns="http://www.w3.org/2000/svg">
<path d="M17.766 7.95836L16.191 7.43336L16.9327 5.95002C17.0079 5.79476 17.033 5.61999 17.0047 5.44983C16.9763 5.27967 16.8958 5.12251 16.7744 5.00002L14.9994 3.22502C14.8762 3.10176 14.7175 3.0202 14.5456 2.99179C14.3737 2.96339 14.1973 2.98959 14.041 3.06669L12.5577 3.80836L12.0327 2.23336C11.9772 2.06918 11.872 1.92638 11.7316 1.82481C11.5912 1.72325 11.4226 1.66798 11.2494 1.66669H8.74935C8.57465 1.66624 8.40422 1.72071 8.26216 1.82239C8.1201 1.92408 8.01359 2.06784 7.95769 2.23336L7.43269 3.80836L5.94935 3.06669C5.79409 2.99151 5.61932 2.96636 5.44916 2.99472C5.279 3.02308 5.12184 3.10355 4.99935 3.22502L3.22435 5.00002C3.10109 5.12316 3.01952 5.28184 2.99112 5.45374C2.96272 5.62564 2.98892 5.80212 3.06602 5.95836L3.80769 7.44169L2.23269 7.96669C2.06851 8.02214 1.92571 8.12738 1.82414 8.26778C1.72258 8.40818 1.66731 8.57674 1.66602 8.75002V11.25C1.66557 11.4247 1.72003 11.5952 1.82172 11.7372C1.92341 11.8793 2.06717 11.9858 2.23269 12.0417L3.80769 12.5667L3.06602 14.05C2.99083 14.2053 2.96569 14.3801 2.99405 14.5502C3.02241 14.7204 3.10288 14.8775 3.22435 15L4.99935 16.775C5.12249 16.8983 5.28116 16.9799 5.45306 17.0083C5.62497 17.0367 5.80144 17.0105 5.95769 16.9334L7.44102 16.1917L7.96602 17.7667C8.02192 17.9322 8.12843 18.076 8.27049 18.1777C8.41256 18.2793 8.58298 18.3338 8.75769 18.3334H11.2577C11.4324 18.3338 11.6028 18.2793 11.7449 18.1777C11.8869 18.076 11.9934 17.9322 12.0494 17.7667L12.5744 16.1917L14.0577 16.9334C14.212 17.0066 14.385 17.0308 14.5534 17.0024C14.7219 16.9741 14.8775 16.8947 14.9994 16.775L16.7744 15C16.8976 14.8769 16.9792 14.7182 17.0076 14.5463C17.036 14.3744 17.0098 14.1979 16.9327 14.0417L16.191 12.5584L17.766 12.0334C17.9302 11.9779 18.073 11.8727 18.1746 11.7323C18.2761 11.5919 18.3314 11.4233 18.3327 11.25V8.75002C18.3331 8.57532 18.2787 8.40489 18.177 8.26283C18.0753 8.12077 17.9315 8.01426 17.766 7.95836ZM16.666 10.65L15.666 10.9834C15.4361 11.0579 15.2251 11.1817 15.0477 11.3459C14.8704 11.5102 14.7309 11.7111 14.6389 11.9347C14.5469 12.1582 14.5047 12.3991 14.5151 12.6407C14.5256 12.8822 14.5884 13.1186 14.6994 13.3334L15.1744 14.2834L14.2577 15.2L13.3327 14.7C13.119 14.5936 12.8849 14.5342 12.6463 14.5261C12.4077 14.518 12.1701 14.5612 11.9496 14.6529C11.7292 14.7445 11.531 14.8825 11.3685 15.0574C11.2059 15.2323 11.0829 15.4401 11.0077 15.6667L10.6744 16.6667H9.34935L9.01602 15.6667C8.94143 15.4367 8.81771 15.2258 8.65343 15.0484C8.48916 14.871 8.28827 14.7315 8.0647 14.6396C7.84113 14.5476 7.60023 14.5054 7.35871 14.5158C7.11718 14.5263 6.88082 14.5891 6.66602 14.7L5.71602 15.175L4.79935 14.2584L5.29935 13.3334C5.41026 13.1186 5.47312 12.8822 5.48356 12.6407C5.49399 12.3991 5.45177 12.1582 5.3598 11.9347C5.26783 11.7111 5.12833 11.5102 4.95097 11.3459C4.77361 11.1817 4.56264 11.0579 4.33268 10.9834L3.33269 10.65V9.35002L4.33268 9.01669C4.56264 8.9421 4.77361 8.81838 4.95097 8.65411C5.12833 8.48983 5.26783 8.28895 5.3598 8.06537C5.45177 7.8418 5.49399 7.6009 5.48356 7.35938C5.47312 7.11785 5.41026 6.88149 5.29935 6.66669L4.82435 5.74169L5.74102 4.82502L6.66602 5.30002C6.88082 5.41093 7.11718 5.47379 7.35871 5.48423C7.60023 5.49467 7.84113 5.45244 8.0647 5.36047C8.28827 5.26851 8.48916 5.129 8.65343 4.95164C8.81771 4.77428 8.94143 4.56331 9.01602 4.33336L9.34935 3.33336H10.6494L10.9827 4.33336C11.0573 4.56331 11.181 4.77428 11.3453 4.95164C11.5095 5.129 11.7104 5.26851 11.934 5.36047C12.1576 5.45244 12.3985 5.49467 12.64 5.48423C12.8815 5.47379 13.1179 5.41093 13.3327 5.30002L14.2827 4.82502L15.1994 5.74169L14.6994 6.66669C14.5929 6.88039 14.5336 7.11448 14.5254 7.3531C14.5173 7.59172 14.5605 7.8293 14.6522 8.04976C14.7438 8.27022 14.8818 8.46841 15.0567 8.63092C15.2316 8.79343 15.4394 8.91647 15.666 8.99169L16.666 9.32502V10.65ZM9.99935 6.66669C9.34008 6.66669 8.69562 6.86219 8.14745 7.22846C7.59929 7.59473 7.17205 8.11532 6.91975 8.72441C6.66746 9.3335 6.60145 10.0037 6.73007 10.6503C6.85869 11.2969 7.17615 11.8909 7.64233 12.357C8.1085 12.8232 8.70245 13.1407 9.34905 13.2693C9.99565 13.3979 10.6659 13.3319 11.275 13.0796C11.8841 12.8273 12.4046 12.4001 12.7709 11.8519C13.1372 11.3038 13.3327 10.6593 13.3327 10C13.3327 9.11597 12.9815 8.26812 12.3564 7.643C11.7313 7.01788 10.8834 6.66669 9.99935 6.66669ZM9.99935 11.6667C9.66972 11.6667 9.34748 11.5689 9.0734 11.3858C8.79932 11.2027 8.5857 10.9424 8.45955 10.6378C8.33341 10.3333 8.3004 9.99817 8.36471 9.67487C8.42902 9.35157 8.58775 9.0546 8.82084 8.82151C9.05393 8.58842 9.3509 8.42969 9.6742 8.36538C9.9975 8.30107 10.3326 8.33408 10.6372 8.46022C10.9417 8.58637 11.202 8.79999 11.3851 9.07407C11.5683 9.34816 11.666 9.67039 11.666 10C11.666 10.4421 11.4904 10.866 11.1779 11.1785C10.8653 11.4911 10.4414 11.6667 9.99935 11.6667Z" fill="currentColor"/>
</svg>
