<svg width="48" height="48" viewBox="0 0 48 48" fill="none" xmlns="http://www.w3.org/2000/svg">
<path d="M42.9315 34.3018C42.9203 34.2218 42.9091 34.153 42.8965 34.0717C42.8165 33.6002 42.7239 33.1302 42.6088 32.6588C42.416 31.8527 42.1666 31.0613 41.8624 30.2903C41.6084 29.6337 41.3222 29.0023 40.9995 28.3919C40.5856 27.6104 40.1253 26.8513 39.609 26.1274C38.9762 25.242 38.2746 24.4254 37.5156 23.6551C37.1942 23.3338 36.8603 23.0237 36.5151 22.7361C35.7687 22.0921 34.9745 21.5056 34.1355 20.9878C34.1467 20.9766 34.1467 20.9654 34.1579 20.9527C34.5382 20.2863 34.9282 19.631 35.3085 18.9646C35.6873 18.3205 36.0549 17.6765 36.4352 17.0213C36.699 16.5611 36.9754 16.0896 37.2391 15.6294C37.3093 15.5143 37.3542 15.4119 37.3893 15.2842C37.4931 14.9629 37.5043 14.6178 37.4117 14.2965C37.3893 14.2151 37.3668 14.1351 37.3318 14.0664C37.2967 13.985 37.263 13.9162 37.2167 13.8475C37.0792 13.6061 36.8715 13.3985 36.6077 13.2498C36.3776 13.1122 36.1251 13.0309 35.8599 13.0084C35.7448 12.9972 35.641 12.9972 35.526 13.0084C35.4348 13.0196 35.3421 13.0309 35.2622 13.0547C34.9409 13.1347 34.6532 13.3073 34.4231 13.5598C34.3417 13.6524 34.2618 13.7563 34.2042 13.8587C33.9404 14.3189 33.664 14.7903 33.4003 15.2506L32.2736 17.1938C31.8933 17.8603 31.5019 18.5156 31.123 19.182C31.0767 19.2522 31.043 19.3322 30.9967 19.4009C30.9392 19.3785 30.8817 19.3546 30.8242 19.3322C28.7083 18.5268 26.4198 18.0904 24.0177 18.0904H23.8213C21.7461 18.1107 19.6881 18.468 17.7276 19.1484C17.5101 19.2283 17.2912 19.3097 17.0723 19.3897C17.0386 19.3209 16.9923 19.2522 16.9573 19.182C16.5784 18.5156 16.187 17.8603 15.8081 17.1938C15.4279 16.5498 15.0603 15.9058 14.6814 15.2506C14.4162 14.7903 14.1412 14.3189 13.876 13.8587C13.8073 13.7436 13.7385 13.6524 13.6572 13.5598C13.4321 13.314 13.1407 13.1385 12.8181 13.0547C12.7269 13.0309 12.6343 13.0196 12.5543 13.0084C12.4393 12.9972 12.3354 12.9972 12.2204 13.0084C11.9566 13.0309 11.7026 13.1122 11.4739 13.2498C11.2249 13.3964 11.0154 13.6016 10.8636 13.8475C10.8173 13.9162 10.7836 13.985 10.7485 14.0664C10.7148 14.1463 10.691 14.2151 10.6685 14.2965C10.5872 14.6178 10.5872 14.9517 10.691 15.2842C10.7261 15.3993 10.7836 15.5143 10.8411 15.6294C11.1049 16.0896 11.3813 16.5611 11.6451 17.0213C12.0253 17.6653 12.393 18.3093 12.7718 18.9646C13.152 19.631 13.5421 20.2863 13.9223 20.9527L13.9336 20.9654C13.1633 21.448 12.428 21.977 11.7265 22.5635C11.3126 22.9087 10.9099 23.2763 10.5296 23.6551C9.75933 24.4142 9.07041 25.242 8.43761 26.1274C7.91986 26.8513 7.45964 27.5992 7.04713 28.3919C6.72442 29.0023 6.43678 29.6337 6.18422 30.2889C5.88536 31.0592 5.6328 31.8534 5.43637 32.6588C5.32131 33.1176 5.23011 33.589 5.14873 34.0717C5.13751 34.153 5.12628 34.2218 5.11505 34.3018C5.06875 34.5782 5.03367 34.8546 5 35.1422H43.0003C43.0003 34.8546 42.9666 34.5782 42.9315 34.3018Z" fill="#34A853"/>
<path d="M33.9165 29.8755C34.6755 29.3703 34.7906 28.1974 34.1578 27.2657C33.5376 26.3228 32.4109 25.9791 31.6519 26.4842C30.8928 26.9907 30.7777 28.1623 31.4105 29.0939C32.0321 30.0368 33.1588 30.382 33.9165 29.8755ZM16.6935 29.1052C17.3137 28.1623 17.2112 27.0019 16.4522 26.4954C15.6931 25.9903 14.5664 26.3355 13.9448 27.2783C13.3247 28.2198 13.4285 29.3816 14.1862 29.8881C14.9452 30.3932 16.0607 30.0368 16.6935 29.1052Z" fill="#202124"/>
</svg>
