<svg width="48" height="48" viewBox="0 0 48 48" fill="none" xmlns="http://www.w3.org/2000/svg">
<path d="M17.2118 21.3333L14.8035 27.4744H16.8505L17.1414 26.6616H19.4496L19.7405 27.4744H21.7875L19.3792 21.3333H17.2118ZM17.609 25.1865L18.2955 23.2681L18.982 25.1865H17.609Z" fill="#03CF5D"/>
<path d="M30.3068 25.1413H33.1065V23.6663H30.3068V22.8384H33.1366V21.3333H28.3501V27.4744H33.1968V25.9692H30.3068V25.1413Z" fill="#03CF5D"/>
<path d="M24.2259 25.3712L22.7809 21.3333H20.7339L23.1422 27.4744H25.3097L27.718 21.3333H25.6709L24.2259 25.3712Z" fill="#03CF5D"/>
<path d="M12.1844 24.62L9.89653 21.3333H8V27.4744H9.98684V24.1876L12.2747 27.4744H14.1713V21.3333H12.1844V24.62Z" fill="#03CF5D"/>
<path d="M38.4477 25.3676L38.6339 25.2897C39.3476 24.9909 39.7106 24.3446 39.7106 23.5242C39.7106 22.7485 39.4277 22.1746 38.8697 21.8185C38.3509 21.4874 37.6782 21.3333 36.7526 21.3333H34.1602V27.4744H36.0868V25.7585H36.7792L37.9532 27.4744H40.0003L38.4477 25.3676ZM37.1103 24.1931H36.0567V22.8986H37.1103C37.4678 22.8986 37.7575 23.1884 37.7575 23.5459C37.7575 23.9033 37.4678 24.1931 37.1103 24.1931Z" fill="#03CF5D"/>
</svg>
