<svg width="48" height="48" viewBox="0 0 48 48" fill="none" xmlns="http://www.w3.org/2000/svg">
<path d="M23.885 8C15.761 8 16.268 11.523 16.268 11.523L16.278 15.173H24.03V16.268H13.197C13.197 16.268 8 15.678 8 23.876C8 32.072 12.537 31.782 12.537 31.782H15.245V27.978C15.245 27.978 15.099 23.441 19.71 23.441H27.398C27.398 23.441 31.718 23.511 31.718 19.266V12.247C31.718 12.247 32.374 8 23.885 8ZM19.61 10.454C20.381 10.454 21.005 11.078 21.005 11.849C21.005 12.62 20.381 13.244 19.61 13.244C19.4267 13.2443 19.2452 13.2084 19.0758 13.1383C18.9065 13.0683 18.7526 12.9656 18.623 12.836C18.4934 12.7064 18.3907 12.5525 18.3207 12.3832C18.2506 12.2138 18.2147 12.0323 18.215 11.849C18.215 11.078 18.839 10.454 19.61 10.454Z" fill="url(#paint0_linear_99_1457)"/>
<path d="M24.115 39.8331C32.239 39.8331 31.732 36.3101 31.732 36.3101L31.722 32.6601H23.97V31.5651H34.802C34.802 31.5651 40 32.1551 40 23.9581C40 15.7611 35.463 16.0521 35.463 16.0521H32.755V19.8551C32.755 19.8551 32.901 24.3921 28.29 24.3921H20.602C20.602 24.3921 16.282 24.3221 16.282 28.5671V35.5861C16.282 35.5861 15.626 39.8331 24.115 39.8331ZM28.39 37.3791C28.2067 37.3793 28.0252 37.3434 27.8558 37.2734C27.6865 37.2034 27.5326 37.1007 27.403 36.9711C27.2734 36.8415 27.1707 36.6876 27.1006 36.5182C27.0306 36.3489 26.9947 36.1673 26.995 35.9841C26.995 35.2141 27.619 34.5901 28.39 34.5901C29.161 34.5901 29.785 35.2131 29.785 35.9841C29.785 36.7561 29.161 37.3791 28.39 37.3791Z" fill="url(#paint1_linear_99_1457)"/>
<defs>
<linearGradient id="paint0_linear_99_1457" x1="11.075" y1="10.782" x2="26.898" y2="26.658" gradientUnits="userSpaceOnUse">
<stop stop-color="#387EB8"/>
<stop offset="1" stop-color="#366994"/>
</linearGradient>
<linearGradient id="paint1_linear_99_1457" x1="20.809" y1="20.8821" x2="37.803" y2="37.1631" gradientUnits="userSpaceOnUse">
<stop stop-color="#FFE052"/>
<stop offset="1" stop-color="#FFC331"/>
</linearGradient>
</defs>
</svg>
