<svg width="48" height="48" viewBox="0 0 48 48" fill="none" xmlns="http://www.w3.org/2000/svg">
<g clip-path="url(#clip0_99_1481)">
<path fill-rule="evenodd" clip-rule="evenodd" d="M35.9906 32.1354C36.2608 35.6016 36.2608 37.2264 36.2608 39H28.235C28.235 38.6138 28.2419 38.2602 28.2488 37.902C28.2706 36.7878 28.2932 35.6262 28.1126 33.2802C27.874 29.8456 26.3938 29.0825 23.6723 29.0825H21.2612H11.0496V22.8335H24.0542C27.4919 22.8335 29.2108 21.7886 29.2108 19.0219C29.2108 16.5891 27.4919 15.1148 24.0542 15.1148H11.0496V9H25.4866C33.2692 9 37.1366 12.673 37.1366 18.5404C37.1366 22.9289 34.4152 25.791 30.7387 26.268C33.8422 26.8883 35.6566 28.6532 35.9906 32.1354Z" fill="black"/>
<path d="M11.0496 39.0002V34.3418H19.5356C20.9531 34.3418 21.2609 35.3924 21.2609 36.0188V39.0002H11.0496Z" fill="black"/>
</g>
<defs>
<clipPath id="clip0_99_1481">
<rect width="30" height="30" fill="white" transform="translate(9 9)"/>
</clipPath>
</defs>
</svg>
