<svg width="24" height="24" viewBox="0 0 24 24" fill="none" xmlns="http://www.w3.org/2000/svg">
  <path fill-rule="evenodd" clip-rule="evenodd"
    d="M19.8571 7.91429C19.8571 7.56714 19.5757 7.28571 19.2286 7.28571H4.77143C4.42428 7.28571 4.14286 7.56714 4.14286 7.91429L4.14286 19.2286C4.14286 19.5757 4.42428 19.8571 4.77143 19.8571H19.2286C19.5757 19.8571 19.8571 19.5757 19.8571 19.2286V7.91429ZM4.14286 4.14286C2.40711 4.14286 1 5.54996 1 7.28571V19.8571C1 21.5929 2.4071 23 4.14286 23H19.8571C21.5929 23 23 21.5929 23 19.8571V7.28571C23 5.54996 21.5929 4.14286 19.8571 4.14286H4.14286Z"
    fill="white" />
  <path
    d="M7.28571 4.14286C7.28571 2.40711 8.69282 1 10.4286 1H13.5714C15.3072 1 16.7143 2.40711 16.7143 4.14286H7.28571Z"
    fill="white" />
  <path
    d="M7.28571 12C7.28571 11.1321 7.98927 10.4286 8.85714 10.4286C9.72502 10.4286 10.4286 11.1321 10.4286 12V15.1429C10.4286 16.0107 9.72502 16.7143 8.85714 16.7143C7.98927 16.7143 7.28571 16.0107 7.28571 15.1429V12Z"
    fill="white" />
  <path
    d="M13.5714 12C13.5714 11.1321 14.275 10.4286 15.1429 10.4286C16.0107 10.4286 16.7143 11.1321 16.7143 12V15.1429C16.7143 16.0107 16.0107 16.7143 15.1429 16.7143C14.275 16.7143 13.5714 16.0107 13.5714 15.1429V12Z"
    fill="white" />
</svg>