<svg width="273" height="48" viewBox="0 0 273 48" fill="none" xmlns="http://www.w3.org/2000/svg">
<path d="M75.2597 22.2892H71.0945C69.5993 22.2892 68.8518 21.5416 68.8518 20.0464V19.0852C68.8518 17.5901 69.5993 16.8425 71.0945 16.8425H78.6239C78.9443 16.8425 79.1045 16.6823 79.1045 16.3619V14.7599C79.1045 14.4395 78.9443 14.2793 78.6239 14.2793H70.1333C66.9294 14.2793 65.3274 15.8813 65.3274 19.0852V20.0464C65.3274 23.2504 66.9294 24.8524 70.1333 24.8524H74.2985C76.0073 24.8524 76.8617 25.7068 76.8617 27.4156V28.3768C76.8617 30.0855 76.0073 30.9399 74.2985 30.9399H66.4488C66.1284 30.9399 65.9682 31.1001 65.9682 31.4205V33.0225C65.9682 33.3429 66.1284 33.5031 66.4488 33.5031H75.2597C78.6773 33.5031 80.386 31.7943 80.386 28.3768V27.4156C80.386 23.998 78.6773 22.2892 75.2597 22.2892Z" fill="white"/>
<path d="M92.184 14.7599C92.184 14.4395 92.0238 14.2793 91.7034 14.2793H89.1402C88.8198 14.2793 88.6596 14.4395 88.6596 14.7599V33.0225C88.6596 33.3429 88.8198 33.5031 89.1402 33.5031H91.7034C92.0238 33.5031 92.184 33.3429 92.184 33.0225V14.7599Z" fill="white"/>
<path d="M113.923 33.5031C114.244 33.5031 114.404 33.3429 114.404 33.0225V31.4205C114.404 31.1001 114.244 30.9399 113.923 30.9399H104.792V14.7599C104.792 14.4395 104.632 14.2793 104.312 14.2793H101.748C101.428 14.2793 101.268 14.4395 101.268 14.7599V33.0225C101.268 33.3429 101.428 33.5031 101.748 33.5031H113.923Z" fill="white"/>
<path d="M134.441 14.2793H131.931C131.611 14.2793 131.397 14.4395 131.291 14.7599L126.591 28.5103L121.892 14.7599C121.785 14.4395 121.572 14.2793 121.251 14.2793H118.742C118.421 14.2793 118.314 14.4395 118.448 14.7599L124.669 33.0225C124.776 33.3429 124.989 33.5031 125.31 33.5031H127.873C128.193 33.5031 128.407 33.3429 128.54 33.0225L134.761 14.7599C134.868 14.4395 134.761 14.2793 134.441 14.2793Z" fill="white"/>
<path d="M155.593 16.8425C155.913 16.8425 156.073 16.6823 156.073 16.3619V14.7599C156.073 14.4395 155.913 14.2793 155.593 14.2793H142.937C142.616 14.2793 142.456 14.4395 142.456 14.7599V33.0225C142.456 33.3429 142.616 33.5031 142.937 33.5031H155.753C156.073 33.5031 156.233 33.3429 156.233 33.0225V31.4205C156.233 31.1001 156.073 30.9399 155.753 30.9399H142.456V24.8524H154.792C155.112 24.8524 155.272 24.6922 155.272 24.3718V22.7698C155.272 22.4494 155.112 22.2892 154.792 22.2892H142.456V16.8425H155.593Z" fill="white"/>
<path d="M179.649 33.0225L175.03 25.7602C177.941 25.4932 179.409 23.731 179.409 20.527V19.5658C179.409 16.0415 177.647 14.2793 174.123 14.2793H164.991C164.671 14.2793 164.511 14.4395 164.511 14.7599V33.0225C164.511 33.3429 164.671 33.5031 164.991 33.5031H167.554C167.875 33.5031 168.035 33.3429 168.035 33.0225V25.8136H171.159L175.751 33.0225C175.965 33.3429 176.232 33.5031 176.552 33.5031H179.489C179.81 33.5031 179.863 33.3429 179.649 33.0225ZM168.035 16.8425H173.161C174.977 16.8425 175.885 17.7503 175.885 19.5658V20.527C175.885 22.3426 174.977 23.2504 173.161 23.2504H168.035V16.8425Z" fill="white"/>
<path d="M201.631 14.2793H199.068C198.747 14.2793 198.587 14.4395 198.587 14.7599V22.2892H190.898V14.7599C190.898 14.4395 190.737 14.2793 190.417 14.2793H187.854C187.534 14.2793 187.373 14.4395 187.373 14.7599V33.0225C187.373 33.3429 187.534 33.5031 187.854 33.5031H190.417C190.737 33.5031 190.898 33.3429 190.898 33.0225V24.8524H198.587V33.0225C198.587 33.3429 198.747 33.5031 199.068 33.5031H201.631C201.951 33.5031 202.112 33.3429 202.112 33.0225V14.7599C202.112 14.4395 201.951 14.2793 201.631 14.2793Z" fill="white"/>
<path d="M248.086 14.2793H245.523C245.203 14.2793 245.043 14.4395 245.043 14.7599V28.1899L237.62 14.7599C237.433 14.4395 237.193 14.2793 236.873 14.2793H234.309C233.989 14.2793 233.829 14.4395 233.829 14.7599V33.0225C233.829 33.3429 233.989 33.5031 234.309 33.5031H236.873C237.193 33.5031 237.353 33.3429 237.353 33.0225V19.5925L244.776 33.0225C244.963 33.3429 245.203 33.5031 245.523 33.5031H248.086C248.407 33.5031 248.567 33.3429 248.567 33.0225V14.7599C248.567 14.4395 248.407 14.2793 248.086 14.2793Z" fill="white"/>
<path d="M266.769 14.2793H257.798C257.477 14.2793 257.317 14.4395 257.317 14.7599V33.0225C257.317 33.3429 257.477 33.5031 257.798 33.5031H266.769C270.507 33.5031 272.376 31.6341 272.376 27.8962V19.8862C272.376 16.1483 270.507 14.2793 266.769 14.2793ZM268.852 27.8962C268.852 29.9253 267.837 30.9399 265.808 30.9399H260.842V16.8425H265.808C267.837 16.8425 268.852 17.8571 268.852 19.8862V27.8962Z" fill="white"/>
<path d="M219.913 14.7599L226.134 33.0225C226.241 33.3429 226.134 33.5031 225.814 33.5031H223.304C222.983 33.5031 222.77 33.3429 222.663 33.0225L221.515 29.6583L220.634 27.0952L217.964 19.2721L215.294 27.0952L214.44 29.6583L213.265 33.0225C213.158 33.3429 212.944 33.5031 212.624 33.5031H210.114C209.794 33.5031 209.687 33.3429 209.821 33.0225L216.042 14.7599C216.148 14.4395 216.362 14.2793 216.682 14.2793H219.246C219.566 14.2793 219.78 14.4395 219.913 14.7599Z" fill="white"/>
<path d="M27.4599 34.8465C22.9035 36.6881 16.3254 36.8957 13.6685 36.7645C13.587 36.7605 13.528 36.6915 13.5312 36.61C13.5752 35.4957 13.3881 33.2657 12.3447 31.8486C12.2697 31.7468 12.3397 31.5915 12.4656 31.5789C15.7225 31.2529 19.8128 26.2083 23.279 25.2937C27.6842 24.1313 30.8037 25.6749 31.6478 26.3677C31.7257 26.4316 31.7 26.549 31.6092 26.5925C27.564 28.5299 27.5355 33.9091 27.5485 34.7116C27.5495 34.7711 27.5152 34.8242 27.4599 34.8465Z" fill="white"/>
<path d="M24.5109 8.10267C24.8656 7.26127 25.4431 6.41578 25.8057 5.94413C25.8922 5.83162 26.0588 5.83265 26.1393 5.94954C26.8305 6.95332 27.5272 8.86962 27.3691 9.0277C26.3742 10.0226 24.5833 9.79522 24.4696 9.53938C24.3559 9.28354 24.697 9.08455 24.7538 8.94242C24.793 8.84459 24.6385 8.51526 24.5222 8.29848C24.4897 8.23789 24.4842 8.16603 24.5109 8.10267Z" fill="white"/>
<path d="M26.2135 5.04593C26.3264 4.71944 26.7852 4.09103 27.0815 3.65925C27.1685 3.53261 27.3544 3.52042 27.4482 3.64205C28.2829 4.72438 29.4314 6.73112 28.9894 7.72024C28.3925 9.05629 27.6534 8.8573 27.6534 8.65832C27.5446 7.48902 26.3173 5.40927 26.211 5.10655C26.2038 5.08624 26.2064 5.06628 26.2135 5.04593Z" fill="white"/>
<path d="M27.8553 2.8913C28.0183 2.6226 28.1522 2.27976 28.2806 2.04363C28.3448 1.92575 28.4959 1.92532 28.5806 2.02944C28.9455 2.47821 29.591 3.31148 30.1548 4.16691C30.9792 5.41768 30.7518 5.92935 30.6096 6.44103C30.4675 6.95271 29.7568 7.86236 29.4726 6.44103C29.2591 5.37368 28.4362 3.92885 27.8658 3.17574C27.8034 3.09335 27.8018 2.97967 27.8553 2.8913Z" fill="white"/>
<path d="M29.0723 8.59938C29.2087 8.37197 30.342 7.68973 30.8916 7.37704C32.1708 6.59251 32.8246 8.14456 32.7677 8.79837C32.7109 9.45218 31.8012 9.7933 30.6073 9.62274C29.4134 9.45218 28.9017 8.88365 29.0723 8.59938Z" fill="white"/>
<path d="M29.2432 0.696989C29.4251 0.628765 30.42 1.29577 30.979 1.72216C32.8836 3.17191 32.9689 3.65517 32.5994 5.10493C32.268 6.40479 31.6853 6.65344 31.384 6.64998C31.3243 6.6493 31.2719 6.61216 31.2565 6.55456C31.1562 6.17991 31.3775 5.19609 31.2918 4.80904C31.217 4.47157 30.2372 3.06534 29.7567 2.40441C28.8542 1.01244 29.0158 0.782268 29.2432 0.696989Z" fill="white"/>
<path d="M22.9345 1.21052C19.7498 2.44541 17.7742 4.07072 17.0864 4.82808C17.0279 4.89249 17.0163 4.98478 17.0534 5.06351C17.2694 5.52272 17.6043 6.16845 17.7609 6.1283C17.9496 6.06182 18.4024 5.92219 18.8345 5.84536C18.9242 5.82942 19.0134 5.87193 19.0572 5.95177C19.4024 6.58088 19.9899 7.95355 20.1108 9.41018C20.1175 9.49016 20.1693 9.54748 20.2486 9.53536C20.8387 9.44523 23.18 8.71712 23.6536 8.54628C23.7045 8.52792 23.7421 8.48823 23.763 8.43834C25.4944 4.31354 27.7674 1.36944 28.7557 0.337542C28.7966 0.294863 28.8215 0.233852 28.7803 0.191566C28.5062 -0.0891984 26.7528 -0.270023 22.9345 1.21052Z" fill="white"/>
<path d="M19.1834 12.0568C18.5997 9.0974 16.5939 7.04647 15.4545 6.23015C15.3326 6.14279 15.1636 6.20446 15.1067 6.34323C14.6046 7.56807 12.6128 10.8665 7.67393 16.4202C2.6715 22.0453 1.07004 26.8698 0.82887 28.9731C0.808056 29.1547 1.00926 29.2709 1.17105 29.186C2.10743 28.6946 3.99817 28.0271 6.33508 28.1399C8.88533 28.263 10.5856 29.7628 11.225 30.6288C11.2903 30.7173 11.409 30.7525 11.5094 30.7076C15.9195 28.7364 17.0738 25.5055 17.1926 20.9374C17.2874 17.2895 18.5314 13.6306 19.1687 12.1901C19.1874 12.1478 19.1923 12.1021 19.1834 12.0568Z" fill="white"/>
<path fill-rule="evenodd" clip-rule="evenodd" d="M5.60518 41.3407C8.58731 41.3407 11.0048 38.9232 11.0048 35.9411C11.0048 32.959 8.58731 30.5415 5.60518 30.5415C2.62306 30.5415 0.205566 32.959 0.205566 35.9411C0.205566 38.9232 2.62306 41.3407 5.60518 41.3407ZM5.60521 38.641C7.09627 38.641 8.30501 37.4323 8.30501 35.9412C8.30501 34.4501 7.09627 33.2414 5.60521 33.2414C4.11414 33.2414 2.9054 34.4501 2.9054 35.9412C2.9054 37.4323 4.11414 38.641 5.60521 38.641Z" fill="white"/>
<circle cx="5.60535" cy="35.9413" r="1.68738" fill="white"/>
<path d="M13.4986 37.8383C18.7737 38.5546 25.6123 36.9459 28.3271 36.0164C28.3834 35.9971 28.4195 35.9451 28.4232 35.8858C28.8213 29.491 32.3491 26.8002 32.4588 26.8368C32.569 26.8735 34.0754 27.7186 34.0387 27.9023C34.0112 28.0398 33.4453 29.0675 33.1118 29.6605C33.0748 29.7262 33.0932 29.8091 33.1548 29.8525C33.7706 30.2872 34.8464 31.0343 34.9572 31.062C35.0678 31.0896 36.0334 30.3166 36.5856 29.858C36.6422 29.8111 36.7242 29.8126 36.7783 29.8623C37.125 30.1808 37.8087 30.8208 38.2039 31.1917C38.259 31.2433 38.2643 31.3297 38.2189 31.39C33.9903 37.0112 36.3521 42.192 38.1772 44.2284C38.2401 44.2985 38.2234 44.4082 38.1422 44.456C36.3608 45.5037 35.278 45.8704 34.8997 45.9345C34.8654 45.9403 34.8309 45.9312 34.8021 45.9116C33.3037 44.8899 32.4359 43.6057 32.1387 42.9949C32.1095 42.9349 32.0454 42.8996 31.9794 42.9097C25.0446 43.9662 17.8925 43.8942 15.5479 43.3167C15.4944 43.3035 15.4404 43.3216 15.4034 43.3624C14.4074 44.4568 13.9924 44.6808 13.4647 45.0131C13.4189 45.0419 13.3611 45.0436 13.3131 45.0185C12.5664 44.6266 10.518 43.8535 9.30864 43.4146C9.18642 43.3703 9.17683 43.1983 9.29025 43.1348C11.6065 41.8364 12.8319 39.2199 13.3412 37.9306C13.3663 37.8669 13.4308 37.8291 13.4986 37.8383Z" fill="white"/>
<path d="M43.1793 24.3108C38.9311 25.1541 36.4896 26.3455 35.6201 26.9521C35.5332 27.0126 35.5469 27.1402 35.6387 27.1928C36.5423 27.7102 37.2299 28.4724 37.5342 28.8891C37.5784 28.9495 37.6594 28.9702 37.7268 28.9376C38.5817 28.5239 39.7386 28.2408 40.3086 28.1317C40.3654 28.1208 40.4235 28.1465 40.4559 28.1945C44.6099 34.3582 43.2021 39.2306 42.9183 41.0337C42.907 41.1058 42.952 41.1725 43.0221 41.1927L49.6147 43.0965C49.6982 43.1206 49.7843 43.0676 49.7989 42.982C50.9788 36.0639 46.0201 27.7472 43.3213 24.3608C43.2873 24.3181 43.2329 24.3002 43.1793 24.3108Z" fill="white"/>
<path d="M33.0467 46.5299C24.4151 49.5322 17.7417 47.2723 15.1857 45.6127C15.112 45.5648 15.1011 45.4645 15.1586 45.398L16.0613 44.3552C16.0943 44.317 16.1449 44.2985 16.1949 44.3061C22.658 45.2818 28.7161 44.5728 31.0805 43.9906C31.155 43.9723 31.2284 44.0138 31.2591 44.0841C31.5839 44.8294 32.5398 45.7505 33.1396 46.2552C33.2271 46.3289 33.2041 46.4708 33.097 46.511L33.0467 46.5299Z" fill="white"/>
</svg>
