<svg width="273" height="48" viewBox="0 0 273 48" fill="none" xmlns="http://www.w3.org/2000/svg">
<path d="M75.2596 22.2892H71.0944C69.5992 22.2892 68.8516 21.5416 68.8516 20.0464V19.0852C68.8516 17.5901 69.5992 16.8425 71.0944 16.8425H78.6237C78.9441 16.8425 79.1043 16.6823 79.1043 16.3619V14.7599C79.1043 14.4395 78.9441 14.2793 78.6237 14.2793H70.1332C66.9293 14.2793 65.3273 15.8813 65.3273 19.0852V20.0464C65.3273 23.2504 66.9293 24.8524 70.1332 24.8524H74.2984C76.0072 24.8524 76.8616 25.7068 76.8616 27.4156V28.3768C76.8616 30.0855 76.0072 30.9399 74.2984 30.9399H66.4487C66.1283 30.9399 65.9681 31.1001 65.9681 31.4205V33.0225C65.9681 33.3429 66.1283 33.5031 66.4487 33.5031H75.2596C78.6771 33.5031 80.3859 31.7943 80.3859 28.3768V27.4156C80.3859 23.998 78.6771 22.2892 75.2596 22.2892Z" fill="white"/>
<path d="M92.1839 14.7599C92.1839 14.4395 92.0237 14.2793 91.7033 14.2793H89.1401C88.8197 14.2793 88.6595 14.4395 88.6595 14.7599V33.0225C88.6595 33.3429 88.8197 33.5031 89.1401 33.5031H91.7033C92.0237 33.5031 92.1839 33.3429 92.1839 33.0225V14.7599Z" fill="white"/>
<path d="M113.923 33.5031C114.244 33.5031 114.404 33.3429 114.404 33.0225V31.4205C114.404 31.1001 114.244 30.9399 113.923 30.9399H104.792V14.7599C104.792 14.4395 104.632 14.2793 104.311 14.2793H101.748C101.428 14.2793 101.268 14.4395 101.268 14.7599V33.0225C101.268 33.3429 101.428 33.5031 101.748 33.5031H113.923Z" fill="white"/>
<path d="M134.441 14.2793H131.931C131.611 14.2793 131.397 14.4395 131.29 14.7599L126.591 28.5103L121.892 14.7599C121.785 14.4395 121.572 14.2793 121.251 14.2793H118.742C118.421 14.2793 118.314 14.4395 118.448 14.7599L124.669 33.0225C124.776 33.3429 124.989 33.5031 125.31 33.5031H127.873C128.193 33.5031 128.407 33.3429 128.54 33.0225L134.761 14.7599C134.868 14.4395 134.761 14.2793 134.441 14.2793Z" fill="white"/>
<path d="M155.592 16.8425C155.913 16.8425 156.073 16.6823 156.073 16.3619V14.7599C156.073 14.4395 155.913 14.2793 155.592 14.2793H142.937C142.616 14.2793 142.456 14.4395 142.456 14.7599V33.0225C142.456 33.3429 142.616 33.5031 142.937 33.5031H155.753C156.073 33.5031 156.233 33.3429 156.233 33.0225V31.4205C156.233 31.1001 156.073 30.9399 155.753 30.9399H142.456V24.8524H154.791C155.112 24.8524 155.272 24.6922 155.272 24.3718V22.7698C155.272 22.4494 155.112 22.2892 154.791 22.2892H142.456V16.8425H155.592Z" fill="white"/>
<path d="M179.649 33.0225L175.03 25.7602C177.94 25.4932 179.409 23.731 179.409 20.527V19.5658C179.409 16.0415 177.647 14.2793 174.122 14.2793H164.991C164.671 14.2793 164.511 14.4395 164.511 14.7599V33.0225C164.511 33.3429 164.671 33.5031 164.991 33.5031H167.554C167.875 33.5031 168.035 33.3429 168.035 33.0225V25.8136H171.159L175.751 33.0225C175.965 33.3429 176.232 33.5031 176.552 33.5031H179.489C179.809 33.5031 179.863 33.3429 179.649 33.0225ZM168.035 16.8425H173.161C174.977 16.8425 175.885 17.7503 175.885 19.5658V20.527C175.885 22.3426 174.977 23.2504 173.161 23.2504H168.035V16.8425Z" fill="white"/>
<path d="M201.631 14.2793H199.068C198.747 14.2793 198.587 14.4395 198.587 14.7599V22.2892H190.898V14.7599C190.898 14.4395 190.737 14.2793 190.417 14.2793H187.854C187.533 14.2793 187.373 14.4395 187.373 14.7599V33.0225C187.373 33.3429 187.533 33.5031 187.854 33.5031H190.417C190.737 33.5031 190.898 33.3429 190.898 33.0225V24.8524H198.587V33.0225C198.587 33.3429 198.747 33.5031 199.068 33.5031H201.631C201.951 33.5031 202.111 33.3429 202.111 33.0225V14.7599C202.111 14.4395 201.951 14.2793 201.631 14.2793Z" fill="white"/>
<path d="M248.086 14.2793H245.523C245.203 14.2793 245.043 14.4395 245.043 14.7599V28.1899L237.62 14.7599C237.433 14.4395 237.193 14.2793 236.872 14.2793H234.309C233.989 14.2793 233.829 14.4395 233.829 14.7599V33.0225C233.829 33.3429 233.989 33.5031 234.309 33.5031H236.872C237.193 33.5031 237.353 33.3429 237.353 33.0225V19.5925L244.776 33.0225C244.962 33.3429 245.203 33.5031 245.523 33.5031H248.086C248.407 33.5031 248.567 33.3429 248.567 33.0225V14.7599C248.567 14.4395 248.407 14.2793 248.086 14.2793Z" fill="white"/>
<path d="M266.769 14.2793H257.798C257.477 14.2793 257.317 14.4395 257.317 14.7599V33.0225C257.317 33.3429 257.477 33.5031 257.798 33.5031H266.769C270.507 33.5031 272.376 31.6341 272.376 27.8962V19.8862C272.376 16.1483 270.507 14.2793 266.769 14.2793ZM268.851 27.8962C268.851 29.9253 267.837 30.9399 265.808 30.9399H260.841V16.8425H265.808C267.837 16.8425 268.851 17.8571 268.851 19.8862V27.8962Z" fill="white"/>
<path d="M219.913 14.7599L226.134 33.0225C226.241 33.3429 226.134 33.5031 225.814 33.5031H223.304C222.983 33.5031 222.77 33.3429 222.663 33.0225L221.515 29.6583L220.634 27.0952L217.964 19.2721L215.294 27.0952L214.439 29.6583L213.265 33.0225C213.158 33.3429 212.944 33.5031 212.624 33.5031H210.114C209.794 33.5031 209.687 33.3429 209.82 33.0225L216.041 14.7599C216.148 14.4395 216.362 14.2793 216.682 14.2793H219.245C219.566 14.2793 219.779 14.4395 219.913 14.7599Z" fill="white"/>
<path d="M27.4601 34.8463C22.9036 36.6878 16.3255 36.8954 13.6686 36.7643C13.5872 36.7603 13.5281 36.6912 13.5313 36.6098C13.5753 35.4954 13.3882 33.2655 12.3448 31.8484C12.2699 31.7466 12.3399 31.5913 12.4657 31.5787C15.7226 31.2526 19.8129 26.2081 23.2792 25.2935C27.6843 24.1311 30.8038 25.6746 31.6479 26.3674C31.7258 26.4313 31.7002 26.5488 31.6093 26.5923C27.5641 28.5296 27.5356 33.9088 27.5487 34.7113C27.5496 34.7709 27.5153 34.8239 27.4601 34.8463Z" fill="white"/>
<path d="M24.5108 8.10291C24.8655 7.26152 25.443 6.41603 25.8056 5.94438C25.8921 5.83186 26.0587 5.83289 26.1392 5.94978C26.8304 6.95357 27.5271 8.86986 27.369 9.02794C26.3741 10.0229 24.5832 9.79546 24.4695 9.53962C24.3557 9.28378 24.6969 9.0848 24.7537 8.94266C24.7929 8.84483 24.6384 8.51551 24.5221 8.29873C24.4895 8.23813 24.4841 8.16628 24.5108 8.10291Z" fill="white"/>
<path d="M26.2135 5.04593C26.3264 4.71944 26.7852 4.09103 27.0815 3.65925C27.1685 3.53261 27.3544 3.52042 27.4482 3.64205C28.2829 4.72438 29.4314 6.73112 28.9894 7.72024C28.3925 9.05629 27.6534 8.8573 27.6534 8.65832C27.5446 7.48902 26.3173 5.40927 26.211 5.10655C26.2038 5.08624 26.2064 5.06628 26.2135 5.04593Z" fill="white"/>
<path d="M27.8553 2.8913C28.0183 2.6226 28.1522 2.27976 28.2806 2.04363C28.3448 1.92575 28.4959 1.92532 28.5806 2.02944C28.9455 2.47821 29.591 3.31148 30.1548 4.16691C30.9792 5.41768 30.7518 5.92935 30.6096 6.44103C30.4675 6.95271 29.7568 7.86236 29.4726 6.44103C29.2591 5.37368 28.4362 3.92885 27.8658 3.17574C27.8034 3.09335 27.8018 2.97967 27.8553 2.8913Z" fill="white"/>
<path d="M29.0724 8.59938C29.2088 8.37197 30.3421 7.68973 30.8917 7.37704C32.1709 6.59251 32.8247 8.14456 32.7678 8.79837C32.711 9.45218 31.8013 9.7933 30.6074 9.62274C29.4135 9.45218 28.9018 8.88365 29.0724 8.59938Z" fill="white"/>
<path d="M29.2433 0.697233C29.4253 0.629009 30.4201 1.29601 30.9792 1.72241C32.8837 3.17215 32.969 3.65542 32.5995 5.10517C32.2682 6.40503 31.6854 6.65369 31.3841 6.65023C31.3245 6.64954 31.272 6.61241 31.2566 6.5548C31.1563 6.18016 31.3777 5.19633 31.2919 4.80929C31.2171 4.47181 30.2373 3.06558 29.7568 2.40465C28.8543 1.01268 29.0159 0.782513 29.2433 0.697233Z" fill="white"/>
<path d="M22.9345 1.21052C19.7498 2.44541 17.7742 4.07072 17.0864 4.82808C17.0279 4.89249 17.0163 4.98478 17.0534 5.06351C17.2694 5.52272 17.6043 6.16845 17.7609 6.1283C17.9496 6.06182 18.4024 5.92219 18.8345 5.84536C18.9242 5.82942 19.0134 5.87193 19.0572 5.95177C19.4024 6.58088 19.9899 7.95355 20.1108 9.41018C20.1175 9.49016 20.1693 9.54748 20.2486 9.53536C20.8387 9.44523 23.18 8.71712 23.6536 8.54628C23.7045 8.52792 23.7421 8.48823 23.763 8.43834C25.4944 4.31354 27.7674 1.36944 28.7557 0.337542C28.7966 0.294863 28.8215 0.233852 28.7803 0.191566C28.5062 -0.0891984 26.7528 -0.270023 22.9345 1.21052Z" fill="white"/>
<path d="M19.1834 12.0568C18.5997 9.0974 16.5939 7.04647 15.4545 6.23015C15.3326 6.14279 15.1636 6.20446 15.1067 6.34323C14.6046 7.56807 12.6128 10.8665 7.67393 16.4202C2.6715 22.0453 1.07004 26.8698 0.82887 28.9731C0.808056 29.1547 1.00926 29.2709 1.17105 29.186C2.10743 28.6946 3.99817 28.0271 6.33508 28.1399C8.88533 28.263 10.5856 29.7628 11.225 30.6288C11.2903 30.7173 11.409 30.7525 11.5094 30.7076C15.9195 28.7364 17.0738 25.5055 17.1926 20.9374C17.2874 17.2895 18.5314 13.6306 19.1687 12.1901C19.1874 12.1478 19.1923 12.1021 19.1834 12.0568Z" fill="white"/>
<path fill-rule="evenodd" clip-rule="evenodd" d="M5.60531 41.3407C8.58743 41.3407 11.0049 38.9232 11.0049 35.9411C11.0049 32.959 8.58743 30.5415 5.60531 30.5415C2.62318 30.5415 0.205688 32.959 0.205688 35.9411C0.205688 38.9232 2.62318 41.3407 5.60531 41.3407ZM5.60527 38.641C7.09633 38.641 8.30507 37.4323 8.30507 35.9412C8.30507 34.4501 7.09633 33.2414 5.60527 33.2414C4.1142 33.2414 2.90546 34.4501 2.90546 35.9412C2.90546 37.4323 4.1142 38.641 5.60527 38.641Z" fill="white"/>
<circle cx="5.60523" cy="35.9413" r="1.68738" fill="white"/>
<path d="M13.4985 37.8383C18.7736 38.5546 25.6122 36.9459 28.327 36.0164C28.3833 35.9971 28.4194 35.9451 28.4231 35.8858C28.8212 29.491 32.349 26.8002 32.4587 26.8368C32.5689 26.8735 34.0753 27.7186 34.0385 27.9023C34.011 28.0398 33.4452 29.0675 33.1117 29.6605C33.0747 29.7262 33.0931 29.8091 33.1547 29.8525C33.7705 30.2872 34.8463 31.0343 34.9571 31.062C35.0677 31.0896 36.0333 30.3166 36.5855 29.858C36.642 29.8111 36.7241 29.8126 36.7782 29.8623C37.1249 30.1808 37.8086 30.8208 38.2038 31.1917C38.2589 31.2433 38.2642 31.3297 38.2188 31.39C33.9902 37.0112 36.352 42.192 38.1771 44.2284C38.24 44.2985 38.2233 44.4082 38.1421 44.456C36.3607 45.5037 35.2779 45.8704 34.8995 45.9345C34.8652 45.9403 34.8307 45.9312 34.802 45.9116C33.3036 44.8899 32.4358 43.6057 32.1386 42.9949C32.1094 42.9349 32.0453 42.8996 31.9793 42.9097C25.0445 43.9662 17.8924 43.8942 15.5477 43.3167C15.4943 43.3035 15.4403 43.3216 15.4033 43.3624C14.4073 44.4568 13.9923 44.6808 13.4646 45.0131C13.4188 45.0419 13.361 45.0436 13.313 45.0185C12.5662 44.6266 10.5179 43.8535 9.30852 43.4146C9.1863 43.3703 9.17671 43.1983 9.29013 43.1348C11.6063 41.8364 12.8318 39.2199 13.3411 37.9306C13.3662 37.8669 13.4307 37.8291 13.4985 37.8383Z" fill="white"/>
<path d="M43.1792 24.3108C38.931 25.1541 36.4894 26.3455 35.6199 26.9521C35.5331 27.0126 35.5467 27.1402 35.6386 27.1928C36.5422 27.7102 37.2298 28.4724 37.5341 28.8891C37.5783 28.9495 37.6593 28.9702 37.7266 28.9376C38.5816 28.5239 39.7384 28.2408 40.3084 28.1317C40.3653 28.1208 40.4234 28.1465 40.4557 28.1945C44.6098 34.3582 43.202 39.2306 42.9182 41.0337C42.9069 41.1058 42.9519 41.1725 43.0219 41.1927L49.6146 43.0965C49.6981 43.1206 49.7842 43.0676 49.7988 42.982C50.9787 36.0639 46.02 27.7472 43.3212 24.3608C43.2871 24.3181 43.2328 24.3002 43.1792 24.3108Z" fill="white"/>
<path d="M33.0468 46.5299C24.4152 49.5322 17.7419 47.2723 15.1859 45.6127C15.1121 45.5648 15.1012 45.4645 15.1587 45.398L16.0614 44.3552C16.0944 44.317 16.145 44.2985 16.195 44.3061C22.6581 45.2818 28.7162 44.5728 31.0807 43.9906C31.1551 43.9723 31.2285 44.0138 31.2592 44.0841C31.584 44.8294 32.5399 45.7505 33.1397 46.2552C33.2272 46.3289 33.2042 46.4708 33.0972 46.511L33.0468 46.5299Z" fill="white"/>
</svg>
