<svg width="48" height="48" viewBox="0 0 48 48" fill="none" xmlns="http://www.w3.org/2000/svg">
<path d="M17.0169 22.2827C17.0169 22.6765 17.0594 22.9958 17.1339 23.23C17.2191 23.4641 17.3255 23.7195 17.4745 23.9963C17.5277 24.0814 17.549 24.1665 17.549 24.241C17.549 24.3475 17.4851 24.4539 17.3468 24.5603L16.6763 25.0073C16.5805 25.0712 16.4847 25.1031 16.3996 25.1031C16.2931 25.1031 16.1867 25.0499 16.0803 24.9541C15.9313 24.7945 15.8036 24.6242 15.6971 24.4539C15.5907 24.273 15.4843 24.0708 15.3672 23.826C14.537 24.8051 13.494 25.2947 12.2382 25.2947C11.3442 25.2947 10.6311 25.0393 10.1096 24.5284C9.58809 24.0175 9.32202 23.3364 9.32202 22.485C9.32202 21.5803 9.64131 20.846 10.2905 20.2925C10.9397 19.7391 11.8018 19.4624 12.898 19.4624C13.2599 19.4624 13.6324 19.4943 14.0262 19.5475C14.42 19.6007 14.8244 19.6859 15.2501 19.7817V19.0047C15.2501 18.1959 15.0798 17.6318 14.7499 17.3019C14.4093 16.972 13.8346 16.8123 13.0151 16.8123C12.6426 16.8123 12.2595 16.8549 11.8657 16.9507C11.4719 17.0465 11.0887 17.1635 10.7162 17.3125C10.5459 17.387 10.4182 17.4296 10.3437 17.4509C10.2692 17.4722 10.216 17.4828 10.1734 17.4828C10.0244 17.4828 9.94995 17.3764 9.94995 17.1529V16.6314C9.94995 16.4611 9.97124 16.3334 10.0244 16.2589C10.0776 16.1844 10.1734 16.1099 10.3224 16.0354C10.6949 15.8438 11.1419 15.6842 11.6634 15.5565C12.185 15.4181 12.7384 15.3542 13.3237 15.3542C14.5903 15.3542 15.5162 15.6416 16.1122 16.2163C16.6976 16.791 16.9956 17.6637 16.9956 18.8345V22.2827H17.0169ZM12.6958 23.9005C13.047 23.9005 13.4089 23.8366 13.792 23.7089C14.1752 23.5812 14.5158 23.347 14.8031 23.0277C14.9734 22.8255 15.1011 22.602 15.165 22.3466C15.2288 22.0912 15.2714 21.7825 15.2714 21.4207V20.9737C14.9628 20.8992 14.6328 20.8353 14.2923 20.7927C13.9517 20.7502 13.6218 20.7289 13.2918 20.7289C12.5787 20.7289 12.0572 20.8672 11.706 21.1546C11.3548 21.442 11.1845 21.8464 11.1845 22.3785C11.1845 22.8787 11.3122 23.2513 11.5783 23.5067C11.8337 23.7728 12.2062 23.9005 12.6958 23.9005ZM21.2421 25.0499C21.0505 25.0499 20.9228 25.018 20.8377 24.9435C20.7525 24.8796 20.678 24.7306 20.6142 24.5284L18.1131 16.3015C18.0492 16.0886 18.0173 15.9502 18.0173 15.8757C18.0173 15.7055 18.1024 15.6097 18.2727 15.6097H19.3157C19.5179 15.6097 19.6563 15.6416 19.7308 15.7161C19.816 15.78 19.8798 15.929 19.9437 16.1312L21.7317 23.1768L23.392 16.1312C23.4452 15.9183 23.5091 15.78 23.5942 15.7161C23.6793 15.6522 23.8283 15.6097 24.0199 15.6097H24.8714C25.0736 15.6097 25.2119 15.6416 25.2971 15.7161C25.3822 15.78 25.4567 15.929 25.4993 16.1312L27.1809 23.2619L29.0221 16.1312C29.086 15.9183 29.1605 15.78 29.235 15.7161C29.3201 15.6522 29.4585 15.6097 29.65 15.6097H30.6398C30.8101 15.6097 30.9059 15.6948 30.9059 15.8757C30.9059 15.929 30.8953 15.9822 30.8846 16.046C30.874 16.1099 30.8527 16.195 30.8101 16.3121L28.2452 24.539C28.1813 24.7519 28.1068 24.8903 28.0217 24.9541C27.9365 25.018 27.7982 25.0605 27.6172 25.0605H26.7019C26.4997 25.0605 26.3614 25.0286 26.2762 24.9541C26.1911 24.8796 26.1166 24.7413 26.074 24.5284L24.4244 17.6637L22.7853 24.5178C22.7321 24.7306 22.6683 24.869 22.5831 24.9435C22.498 25.018 22.349 25.0499 22.1574 25.0499H21.2421ZM34.9183 25.3373C34.3649 25.3373 33.8114 25.2734 33.2793 25.1457C32.7471 25.018 32.3321 24.8796 32.0553 24.72C31.8851 24.6242 31.768 24.5178 31.7254 24.422C31.6828 24.3262 31.6616 24.2198 31.6616 24.124V23.5812C31.6616 23.3577 31.7467 23.2513 31.9063 23.2513C31.9702 23.2513 32.0341 23.2619 32.0979 23.2832C32.1618 23.3045 32.2576 23.347 32.364 23.3896C32.7259 23.5493 33.1196 23.677 33.5347 23.7621C33.9604 23.8473 34.3755 23.8898 34.8012 23.8898C35.4717 23.8898 35.9932 23.7728 36.3551 23.5386C36.717 23.3045 36.9085 22.9639 36.9085 22.5275C36.9085 22.2295 36.8127 21.9847 36.6212 21.7825C36.4296 21.5803 36.0677 21.3994 35.5462 21.2291L34.003 20.7502C33.2261 20.5054 32.6514 20.1435 32.3001 19.6646C31.9489 19.1963 31.768 18.6748 31.768 18.1214C31.768 17.6744 31.8638 17.2806 32.0553 16.94C32.2469 16.5995 32.5024 16.3015 32.8216 16.0673C33.1409 15.8225 33.5028 15.6416 33.9285 15.5139C34.3542 15.3862 34.8012 15.333 35.2695 15.333C35.5037 15.333 35.7485 15.3436 35.9826 15.3755C36.2274 15.4075 36.4509 15.45 36.6744 15.4926C36.8872 15.5458 37.0895 15.599 37.281 15.6629C37.4726 15.7267 37.6216 15.7906 37.728 15.8545C37.877 15.9396 37.9835 16.0247 38.0473 16.1205C38.1112 16.2057 38.1431 16.3227 38.1431 16.4717V16.972C38.1431 17.1955 38.058 17.3125 37.8983 17.3125C37.8132 17.3125 37.6748 17.27 37.4939 17.1848C36.8872 16.9081 36.2061 16.7697 35.4505 16.7697C34.8438 16.7697 34.3649 16.8655 34.0349 17.0677C33.705 17.27 33.5347 17.5786 33.5347 18.015C33.5347 18.313 33.6411 18.5684 33.854 18.7706C34.0669 18.9728 34.4607 19.175 35.0247 19.356L36.536 19.8349C37.3023 20.0797 37.8558 20.4202 38.1857 20.8566C38.5156 21.293 38.6753 21.7932 38.6753 22.3466C38.6753 22.8042 38.5795 23.2193 38.3985 23.5812C38.207 23.943 37.9515 24.2623 37.6216 24.5178C37.2917 24.7838 36.8979 24.9754 36.4402 25.1138C35.9613 25.2628 35.4611 25.3373 34.9183 25.3373Z" fill="white"/>
<path fill-rule="evenodd" clip-rule="evenodd" d="M36.931 30.5091C33.4294 33.0954 28.3421 34.4683 23.9678 34.4683C17.8375 34.4683 12.3138 32.2014 8.14177 28.4338C7.81183 28.1358 8.10984 27.7313 8.50363 27.9655C13.0162 30.5836 18.5825 32.1694 24.3403 32.1694C28.225 32.1694 32.4929 31.3606 36.4201 29.7003C37.0055 29.4342 37.5057 30.0834 36.931 30.5091Z" fill="#FF9900"/>
<path fill-rule="evenodd" clip-rule="evenodd" d="M38.3897 28.8494C37.9427 28.2746 35.431 28.5726 34.2922 28.711C33.9516 28.7536 33.8984 28.4556 34.207 28.2321C36.2079 26.8272 39.4966 27.2316 39.8797 27.6999C40.2629 28.1789 39.7733 31.4675 37.9001 33.0427C37.6128 33.2874 37.3361 33.1597 37.4638 32.8404C37.8895 31.7868 38.8367 29.4134 38.3897 28.8494Z" fill="#FF9900"/>
</svg>
