<svg width="48" height="48" viewBox="0 0 48 48" fill="none" xmlns="http://www.w3.org/2000/svg">
<g clip-path="url(#clip0_99_1728)">
<mask id="mask0_99_1728" style="mask-type:luminance" maskUnits="userSpaceOnUse" x="8" y="7" width="32" height="34">
<path d="M40 7H8V40.1852H40V7Z" fill="white"/>
</mask>
<g mask="url(#mask0_99_1728)">
<path d="M39.4938 18.2997C40.4432 15.3253 39.8727 9.38478 38.0309 7.19292C37.7905 6.90613 37.3382 6.9471 37.1386 7.26257L34.869 10.8433C34.3066 11.5603 33.2961 11.7241 32.5382 11.2243C30.0771 9.60601 27.1352 8.66372 23.9732 8.66372C20.8113 8.66372 17.8693 9.60601 15.4082 11.2243C14.6503 11.7241 13.6398 11.5562 13.0775 10.8433L10.8079 7.26257C10.6082 6.9471 10.1559 6.90613 9.91549 7.19292C8.07373 9.38478 7.50327 15.3253 8.45267 18.2997C8.76643 19.2871 8.85607 20.3318 8.66863 21.3519C8.48527 22.3598 8.29784 23.5806 8.29784 24.4246C8.29784 33.1265 15.3186 40.1855 23.9732 40.1855C32.632 40.1855 39.6486 33.1306 39.6486 24.4246C39.6486 23.5766 39.4652 22.3598 39.2778 21.3519C39.0904 20.3318 39.18 19.2871 39.4938 18.2997ZM23.9732 36.6622C17.2826 36.6622 11.8388 31.1887 11.8388 24.4615C11.8388 24.2403 11.8469 24.0231 11.8551 23.806C12.0995 19.2215 14.8663 15.3007 18.7861 13.4325C20.359 12.6787 22.1192 12.2608 23.9732 12.2608C25.8272 12.2608 27.5875 12.6828 29.1644 13.4366C33.0842 15.3049 35.851 19.2256 36.0954 23.806C36.1077 24.0231 36.1118 24.2403 36.1118 24.4615C36.1077 31.1887 30.6639 36.6622 23.9732 36.6622Z" fill="#1EB4D4"/>
<path d="M29.2295 29.1563L26.1287 23.7524L23.4679 19.2458C23.4068 19.1393 23.2927 19.0737 23.1664 19.0737H20.6238C20.4974 19.0737 20.3833 19.1434 20.3222 19.2499C20.2611 19.3605 20.2611 19.4957 20.3263 19.6022L22.8689 23.904L19.4543 29.1399C19.385 29.2464 19.3769 29.3857 19.438 29.5004C19.4991 29.6151 19.6173 29.6848 19.7436 29.6848H22.3025C22.4207 29.6848 22.5307 29.6233 22.5959 29.525L24.4417 26.6244L26.0961 29.5086C26.1572 29.6192 26.2753 29.6848 26.3976 29.6848H28.9199C29.0462 29.6848 29.1602 29.6192 29.2214 29.5086C29.2947 29.398 29.2947 29.2669 29.2295 29.1563Z" fill="#1EB4D4"/>
</g>
</g>
<defs>
<clipPath id="clip0_99_1728">
<rect width="32" height="33.1852" fill="white" transform="translate(8 7)"/>
</clipPath>
</defs>
</svg>
