<svg width="48" height="48" viewBox="0 0 48 48" fill="none" xmlns="http://www.w3.org/2000/svg">
<path d="M24.0001 17.9487C20.6588 17.9487 17.9489 20.6586 17.9489 23.9999C17.9489 27.3412 20.6588 30.0511 24.0001 30.0511C27.3415 30.0511 30.0514 27.3412 30.0514 23.9999C30.0514 20.6586 27.3452 17.9487 24.0001 17.9487ZM14.5662 23.9999C14.5662 18.7869 18.7908 14.5661 24.0001 14.5661C29.2132 14.5661 33.4378 18.7906 33.4378 23.9999C33.4378 24.3457 33.419 24.684 33.3852 25.0185C33.3138 25.9393 33.9903 26.6421 34.9037 26.6421C36.4559 26.6421 36.6213 24.6426 36.6213 23.9999C36.6213 17.0317 30.9722 11.3864 24.0076 11.3864C17.0431 11.3864 11.3864 17.0354 11.3864 23.9999C11.3864 30.9682 17.0355 36.6134 24.0001 36.6134C27.6985 36.6134 31.0286 35.0198 33.3363 32.4829L35.9297 34.659C33.0018 37.9327 28.7396 39.9961 24.0001 39.9961C15.1638 39.9961 8 32.8324 8 23.9962C8 15.1599 15.1638 8 24.0001 8C32.8365 8 40.0002 15.1637 40.0002 23.9999C40.0002 27.5517 38.3089 30.4345 34.9112 30.4345C33.4153 30.4345 32.5057 29.7504 32.0096 28.9837C30.3483 31.6597 27.3828 33.4375 24.0001 33.4375C18.7908 33.4375 14.5662 29.213 14.5662 23.9999ZM24.0001 21.2337C25.5299 21.2337 26.7702 22.474 26.7702 24.0037C26.7702 25.5334 25.5299 26.7737 24.0001 26.7737C22.4704 26.7737 21.2301 25.5334 21.2301 24.0037C21.2301 22.474 22.4704 21.2337 24.0001 21.2337Z" fill="#C12126"/>
</svg>
