<svg width="48" height="48" viewBox="0 0 48 48" fill="none" xmlns="http://www.w3.org/2000/svg">
<path d="M26.3852 37.2813H41.0928C41.5621 37.2813 42.0114 37.1164 42.4178 36.8838C42.8243 36.6512 43.2432 36.3592 43.4778 35.9562C43.7124 35.5534 43.8755 35.0962 43.8753 34.6312C43.8751 34.166 43.7127 33.709 43.4778 33.3064L33.5402 16.2138C33.3057 15.8109 33.0191 15.5188 32.6128 15.2862C32.2063 15.0537 31.6244 14.8887 31.1552 14.8887C30.686 14.8887 30.2365 15.0537 29.8302 15.2862C29.4238 15.5188 29.1372 15.8109 28.9027 16.2138L26.3852 20.5863L21.3501 12.1059C21.1154 11.7032 20.8291 11.2788 20.4226 11.0463C20.0161 10.8137 19.567 10.7812 19.0976 10.7812C18.6283 10.7812 18.1791 10.8137 17.7726 11.0463C17.3662 11.2788 16.9474 11.7032 16.7126 12.1059L4.39001 33.3064C4.15508 33.709 4.12521 34.166 4.125 34.6312C4.12479 35.0962 4.15543 35.5533 4.39001 35.9562C4.62458 36.3591 5.04356 36.6512 5.45001 36.8838C5.85646 37.1164 6.30567 37.2813 6.77502 37.2813H16.0501C19.7252 37.2813 22.4002 35.6327 24.2652 32.5113L28.7702 24.6937L31.1552 20.5863L38.4427 33.0413H28.7702L26.3852 37.2813ZM15.9176 33.0413H9.42501L19.0976 16.3463L24.0002 24.6937L20.7527 30.3547C19.5143 32.38 18.1022 33.0413 15.9176 33.0413Z" fill="#00DC82"/>
</svg>
