<svg width="48" height="48" viewBox="0 0 48 48" fill="none" xmlns="http://www.w3.org/2000/svg">
<path d="M11.8767 26.0913C12.9499 26.0913 13.7512 25.8902 14.2581 25.4939C14.7597 25.1017 15.1061 24.4221 15.2876 23.4741C15.4569 22.5881 15.3924 21.9694 15.096 21.6355C14.7929 21.2945 14.1377 21.1216 13.1485 21.1216H11.4333L10.4825 26.0913H11.8767ZM6.2668 32.213C6.18718 32.213 6.11157 32.1769 6.06095 32.1143C6.01024 32.0519 5.9897 31.9697 6.00491 31.8902L8.52487 18.7205C8.54925 18.5932 8.65911 18.5012 8.78685 18.5012H14.218C15.9249 18.5012 17.1954 18.972 17.994 19.9006C18.7968 20.8341 19.0447 22.1389 18.7308 23.7788C18.6031 24.4469 18.3833 25.0674 18.0778 25.6229C17.7718 26.1791 17.3675 26.6937 16.8759 27.1527C16.2873 27.7122 15.6212 28.1179 14.8978 28.3566C14.1859 28.5922 13.2716 28.7116 12.1804 28.7116H9.98119L9.35315 31.9936C9.32878 32.121 9.219 32.213 9.09126 32.213H6.2668Z" fill="#6082BB"/>
<path d="M25.4279 28.7118C25.3493 28.7118 25.2747 28.6756 25.2247 28.6131C25.1746 28.5507 25.1543 28.4685 25.1693 28.389L26.2698 22.5619C26.3744 22.0078 26.3486 21.61 26.1971 21.442C26.1044 21.3392 25.8258 21.1669 25.0022 21.1669H23.0086L21.625 28.4924C21.601 28.6198 21.4925 28.7118 21.3664 28.7118H18.6002C18.5215 28.7118 18.447 28.6756 18.3969 28.6131C18.3468 28.5507 18.3266 28.4684 18.3416 28.389L20.8292 15.2193C20.8533 15.092 20.9618 15 21.0879 15H23.8541C23.9328 15 24.0073 15.0361 24.0574 15.0986C24.1074 15.1611 24.1277 15.2432 24.1127 15.3228L23.5124 18.5014H25.6571C27.2909 18.5014 28.3988 18.7977 29.0441 19.4075C29.7018 20.0295 29.907 21.0241 29.6541 22.3639L28.4967 28.4924C28.4726 28.6198 28.3643 28.7118 28.2381 28.7118H25.4279Z" fill="#6082BB"/>
<path d="M34.7461 26.0913C35.8606 26.0913 36.6925 25.8902 37.219 25.4939C37.7397 25.1018 38.0994 24.4222 38.2881 23.4741C38.4638 22.5881 38.3969 21.9694 38.089 21.6355C37.7743 21.2945 37.0939 21.1216 36.0667 21.1216H34.2858L33.2984 26.0913H34.7461ZM28.9211 32.213C28.8384 32.213 28.7599 32.1769 28.7074 32.1143C28.6547 32.0519 28.6333 31.9697 28.6491 31.8902L31.2657 18.7205C31.2911 18.5932 31.4051 18.5012 31.5378 18.5012H37.1773C38.9498 18.5012 40.2689 18.972 41.0982 19.9006C41.9319 20.834 42.1892 22.1388 41.8633 23.7788C41.7305 24.4469 41.5024 25.0674 41.1851 25.6229C40.8675 26.1791 40.4477 26.6937 39.9371 27.1527C39.326 27.7122 38.6343 28.1179 37.8832 28.3566C37.144 28.5922 36.1946 28.7116 35.0615 28.7116H32.7778L32.126 31.9936C32.1006 32.121 31.9866 32.213 31.8538 32.213H28.9211Z" fill="#6082BB"/>
</svg>
