<svg width="48" height="48" viewBox="0 0 48 48" fill="none" xmlns="http://www.w3.org/2000/svg">
<path fill-rule="evenodd" clip-rule="evenodd" d="M36.1892 13.4287C36.1864 13.4314 36.1837 13.4342 36.181 13.4369L24.8672 24.7507C24.6293 24.9885 24.3127 25.0996 24.0012 25.0839C23.6898 25.0996 23.3731 24.9885 23.1352 24.7507L11.8214 13.4369L11.8123 13.4277C10.8827 14.1602 10.2858 15.2962 10.2858 16.5715V31.4287C10.2858 33.6378 12.0766 35.4287 14.2858 35.4287H33.7146C35.9237 35.4287 37.7146 33.6378 37.7146 31.4287V16.5715C37.7146 15.2967 37.1182 14.1611 36.1892 13.4287ZM33.8127 12.5727L24.0012 22.3841L14.1897 12.5727C14.2216 12.5719 14.2536 12.5715 14.2858 12.5715H33.7145C33.7474 12.5715 33.7801 12.5719 33.8127 12.5727Z" fill="url(#paint0_linear_151_708)"/>
<defs>
<linearGradient id="paint0_linear_151_708" x1="29.7145" y1="12.5715" x2="8.57165" y2="35.4288" gradientUnits="userSpaceOnUse">
<stop stop-color="#D361E7"/>
<stop offset="1" stop-color="#7D5FF4"/>
</linearGradient>
</defs>
</svg>
