<svg width="33" height="33" viewBox="0 0 33 33" fill="none" xmlns="http://www.w3.org/2000/svg">
<path opacity="0.8" d="M3.5 9.5C3.5 8.39543 4.39543 7.5 5.5 7.5H26.5C27.6046 7.5 28.5 8.39543 28.5 9.5V24.5C28.5 25.6046 27.6046 26.5 26.5 26.5H5.5C4.39543 26.5 3.5 25.6046 3.5 24.5V9.5Z" fill="url(#paint0_linear_0_1)"/>
<path d="M3.5 11.5713H28.5V9.49985C28.5 8.39528 27.6046 7.49985 26.5 7.49985H5.5C4.39543 7.49985 3.5 8.39529 3.5 9.49985V11.5713Z" fill="#5D34F2"/>
<path d="M6.27734 14.9637C6.27734 14.589 6.58115 14.2852 6.95592 14.2852H13.9321C14.3069 14.2852 14.6107 14.589 14.6107 14.9637C14.6107 15.3385 14.3069 15.6423 13.9321 15.6423H6.95592C6.58115 15.6423 6.27734 15.3385 6.27734 14.9637Z" fill="#F5EEFF"/>
<path d="M6.27734 19.036C6.27734 18.6612 6.58115 18.3574 6.95592 18.3574H22.2654C22.6402 18.3574 22.944 18.6612 22.944 19.036C22.944 19.4108 22.6402 19.7146 22.2654 19.7146H6.95592C6.58115 19.7146 6.27734 19.4108 6.27734 19.036Z" fill="#F5EEFF"/>
<path opacity="0.8" d="M25.3509 21.5003C25.6075 21.0559 26.249 21.0559 26.5056 21.5003L32.2791 31.5003C32.5357 31.9448 32.2149 32.5003 31.7017 32.5003H20.1547C19.6415 32.5003 19.3208 31.9448 19.5774 31.5003L25.3509 21.5003Z" fill="#F4E560"/>
<g style="mix-blend-mode:multiply">
<circle cx="6" cy="6.5" r="6" fill="#F07EFF"/>
</g>
<defs>
<linearGradient id="paint0_linear_0_1" x1="1.44643" y1="18.3854" x2="26.0122" y2="6.45067" gradientUnits="userSpaceOnUse">
<stop stop-color="#492EF3"/>
<stop offset="1" stop-color="#CF69FF"/>
</linearGradient>
</defs>
</svg>
