<svg width="48" height="48" viewBox="0 0 48 48" fill="none" xmlns="http://www.w3.org/2000/svg">
<g clip-path="url(#clip0_11852_24403)">
<path d="M13.1046 8H6L16.1563 31.0305C16.2517 31.2212 16.4901 31.2212 16.5377 31.0305L19.9232 23.1152L13.1046 8Z" fill="black"/>
<path d="M34.8001 8C34.8001 8 23.8809 32.9854 22.4504 35.2742C20.7338 37.9444 19.6372 38.9934 17.5391 39.2795C17.5391 39.2795 17.4915 39.2795 17.4915 39.3272C17.4915 39.3272 17.4915 39.3748 17.5391 39.3748H24.0716C26.8848 39.3748 28.9352 37.0384 30.0795 34.9404C31.3193 32.5563 42.0001 8 42.0001 8H34.8001Z" fill="black"/>
</g>
<defs>
<clipPath id="clip0_11852_24403">
<rect width="36" height="31.3748" fill="white" transform="translate(6 8)"/>
</clipPath>
</defs>
</svg>
