<svg width="48" height="48" viewBox="0 0 48 48" fill="none" xmlns="http://www.w3.org/2000/svg">
<g clip-path="url(#clip0_99_1540)">
<path d="M40.0002 26.4006L39.2002 19.2006L36.8802 20.7206C34.7202 19.3606 32.0002 18.4006 28.9602 17.9206C28.9602 17.9206 27.4402 17.6006 25.4401 17.6006C23.4401 17.6006 21.6001 17.8406 21.6001 17.8406C13.84 18.8006 8 23.2006 8 28.4806C8 33.9206 14 38.4006 23.2001 39.2006V36.0806C16.8801 35.2006 12.88 32.2406 12.88 28.4806C12.88 24.9606 16.5601 22.0006 21.6001 21.0406C21.6001 21.0406 25.5201 20.1606 28.9602 21.2006C30.6402 21.6006 32.1602 22.1606 33.4402 22.9606L30.4002 24.8006L40.0002 26.4006Z" fill="#9E9E9E"/>
<path d="M23.1999 11.2003V39.2003L28 36.8003V8.80029L23.1999 11.2003Z" fill="#FF9800"/>
</g>
<defs>
<clipPath id="clip0_99_1540">
<rect width="32.0002" height="32" fill="white" transform="translate(8 8)"/>
</clipPath>
</defs>
</svg>
