<svg width="48" height="48" viewBox="0 0 48 48" fill="none" xmlns="http://www.w3.org/2000/svg">
<path d="M34.7824 8H13.2159C10.4078 8 8.1333 10.294 8.1333 13.1267V34.8741C8.1333 37.7043 10.4078 40 13.2159 40H34.7824C37.5905 40 39.8633 37.7043 39.8633 34.8741V13.1267C39.8633 10.294 37.5905 8 34.7824 8Z" fill="#1677FF"/>
<path d="M16.7081 32.6088C11.7717 32.6088 10.312 28.6869 12.7522 26.5424C13.5661 25.8168 15.0538 25.4633 15.8466 25.3835C18.7787 25.0912 21.4933 26.2195 24.6965 27.7964C22.4449 30.7583 19.5774 32.6088 16.7081 32.6088ZM34.2592 28.0938C32.989 27.6647 31.2855 27.0088 29.3882 26.3164C30.5267 24.318 31.4375 22.0427 32.0357 19.5702H25.7815V17.2983H33.4436V16.0289H25.7815V12.2429H22.6548C22.1059 12.2429 22.1059 12.7884 22.1059 12.7884V16.0298H14.3571V17.2983H22.1059V19.5702H15.7081V20.8379H28.1163C27.6785 22.3655 27.0796 23.8423 26.3295 25.2433C22.3022 23.9034 18.0064 22.8175 15.307 23.4854C13.5814 23.9144 12.4692 24.68 11.8167 25.482C8.8183 29.161 10.9688 34.7473 17.2995 34.7473C21.0421 34.7473 24.6489 32.6428 27.4434 29.1737C31.6117 31.1958 39.8652 34.6649 39.8652 34.6649V29.72C39.8652 29.72 38.8286 29.6368 34.2592 28.0938Z" fill="white"/>
</svg>
