<svg width="48" height="48" viewBox="0 0 48 48" fill="none" xmlns="http://www.w3.org/2000/svg">
<path d="M12.3511 14.1136C10.8926 14.4136 9.32603 15.5786 8.67502 16.8557C8.024 18.1327 8 18.4467 8 23.8223C8 26.6909 8.048 29.0534 8.12 29.4224C8.54801 31.6105 10.2591 33.3215 12.4471 33.7495C13.1101 33.8695 21.7398 33.9305 21.7398 33.7975C21.7398 33.701 21.0048 30.8085 20.9683 30.7725C20.9563 30.7485 19.4253 30.411 17.5692 30.0124C13.2421 29.0724 13.3691 29.1084 13.0131 28.6744L12.6996 28.3009V19.5507L13.0131 19.1707C13.3746 18.7367 13.2421 18.7732 17.5692 17.8327L20.9683 17.0727C21.0053 17.0477 21.7403 14.1546 21.7403 14.0636C21.7403 13.9486 12.9301 14.0036 12.3511 14.1236V14.1136ZM26.3204 14.1316C26.3324 14.3486 27.0074 17.0002 27.0804 17.0727C27.1044 17.1087 28.7555 17.4827 30.7325 17.9042C32.7096 18.3257 34.4691 18.7542 34.6256 18.8442C34.8376 18.9672 35.0156 19.1412 35.1441 19.3502C35.3371 19.6877 35.3611 20.0492 35.3611 23.9303C35.3611 27.8114 35.3371 28.1729 35.1441 28.5104C35.0127 28.7169 34.8352 28.89 34.6256 29.0164C34.4691 29.1014 32.7256 29.5224 30.7325 29.9564L27.0804 30.794C27.0079 30.8665 26.3329 33.518 26.3204 33.735C26.3204 33.8675 27.1884 33.8915 30.997 33.855C36.2472 33.807 36.3122 33.795 37.6502 32.891C38.6112 32.2295 39.3372 31.28 39.7232 30.179C40.0002 29.3714 40.0002 29.2989 40.0002 23.9353C40.0002 18.5717 40.0002 18.4992 39.7232 17.6917C39.337 16.5908 38.6111 15.6411 37.6502 14.9796C36.3122 14.0766 36.2522 14.0636 30.997 14.0161C27.1884 13.9801 26.3204 13.9981 26.3204 14.1361V14.1316ZM20.9403 23.6828C20.9017 23.8117 20.8935 23.9477 20.9163 24.0803C20.9523 24.2803 21.1693 24.2973 24.0014 24.3333L27.0389 24.3573V23.5138H24.0304C21.5113 23.5138 20.9928 23.5378 20.9453 23.6823L20.9403 23.6828Z" fill="#FF6A00"/>
</svg>
