<svg width="48" height="48" viewBox="0 0 48 48" fill="none" xmlns="http://www.w3.org/2000/svg">
<path d="M40 32.7946C38.836 33.0906 38.116 32.8076 37.47 31.8376L32.876 25.4816L32.212 24.6016L26.847 31.8586C26.234 32.7316 25.591 33.1116 24.447 32.8026L31.317 23.5806L24.921 15.2506C26.021 15.0366 26.781 15.1456 27.456 16.1306L32.221 22.5656L37.021 16.1656C37.636 15.2926 38.297 14.9606 39.401 15.2826L36.921 18.5706L33.561 22.9456C33.161 23.4456 33.216 23.7876 33.584 24.2706L40 32.7946ZM8.008 23.4266L8.57 20.6626C10.1 15.1926 16.37 12.9196 20.694 16.2996C23.221 18.2876 23.849 21.0996 23.724 24.2496H9.48C9.266 29.9196 13.347 33.3416 18.55 31.5956C20.375 30.9826 21.45 29.5536 21.988 27.7656C22.261 26.8696 22.713 26.7296 23.555 26.9856C23.125 29.2216 22.155 31.0896 20.105 32.2586C17.042 34.0086 12.67 33.4426 10.37 31.0106C9 29.5996 8.434 27.8116 8.18 25.8996C8.14 25.5836 8.06 25.2826 8 24.9796C8.00533 24.4623 8.008 23.945 8.008 23.4276V23.4266ZM9.506 23.0466H22.378C22.294 18.9466 19.741 16.0346 16.252 16.0096C12.422 15.9796 9.672 18.8226 9.506 23.0466Z" fill="white"/>
</svg>
