<svg width="48" height="48" viewBox="0 0 48 48" fill="none" xmlns="http://www.w3.org/2000/svg">
<path fill-rule="evenodd" clip-rule="evenodd" d="M25.6029 8.22724L24.9467 16.3325C24.6361 16.2948 24.3215 16.2746 24.0001 16.2746C23.6008 16.2746 23.2082 16.3042 22.8249 16.3634L22.4511 12.4331C22.439 12.3108 22.5372 12.2032 22.6609 12.2045H23.3319L23.0078 8.22724C22.9971 8.10488 23.0939 8 23.2162 8H25.3918C25.5142 8 25.6096 8.10488 25.6002 8.22724H25.6029ZM20.1116 8.62927C20.0793 8.51095 19.9529 8.44641 19.8372 8.48809L17.7921 9.233C17.6764 9.27468 17.6227 9.40644 17.6738 9.51804L19.3371 13.1444L18.7051 13.373C18.5894 13.4147 18.533 13.5478 18.5867 13.6607L20.281 17.2266C20.8955 16.8878 21.561 16.6336 22.2643 16.4723L20.1116 8.62927ZM15.0907 10.8868L19.7969 17.5171C19.1999 17.9056 18.6607 18.3735 18.1928 18.9074L15.3785 16.1348C15.2898 16.0474 15.2965 15.9035 15.3906 15.8242L15.9056 15.3939L13.1034 12.5555C13.0174 12.4681 13.0241 12.3269 13.1182 12.2476L14.7842 10.8478C14.8783 10.7685 15.0195 10.7873 15.0907 10.8868ZM11.143 14.7257C11.0421 14.6571 10.9036 14.688 10.8418 14.7929L9.75399 16.678C9.69214 16.7842 9.73516 16.92 9.84542 16.9724L13.4503 18.6814L13.1128 19.2623C13.051 19.3699 13.094 19.507 13.2069 19.5581L16.7984 21.1999C17.0593 20.5316 17.4062 19.9091 17.8311 19.347L11.143 14.7257ZM8.48736 19.8485C8.50888 19.7276 8.6272 19.6509 8.74687 19.6819L16.6128 21.7364C16.4098 22.4006 16.2955 23.1038 16.2794 23.8313L12.341 23.5153C12.2173 23.5059 12.1299 23.3916 12.1514 23.2692L12.2698 22.609L8.29912 22.2365C8.17676 22.2244 8.0907 22.1116 8.11222 21.9905L8.48871 19.8472L8.48736 19.8485ZM8.1902 25.1611C8.06784 25.1732 7.98179 25.2861 8.0033 25.4071L8.38114 27.5504C8.40265 27.6714 8.52232 27.7481 8.64065 27.7172L12.4997 26.7087L12.6153 27.3689C12.6368 27.4912 12.7592 27.5679 12.8775 27.5342L16.6841 26.4828C16.4596 25.8226 16.3211 25.1247 16.2848 24.3987L8.1902 25.1611ZM9.44876 30.7936C9.38691 30.6874 9.42993 30.5516 9.54019 30.4991L16.8845 27.0166C17.1642 27.6755 17.5339 28.2872 17.9763 28.8358L14.7573 31.1257C14.6564 31.1983 14.5153 31.166 14.4547 31.0598L14.1199 30.4776L10.8391 32.746C10.7382 32.8158 10.5997 32.7849 10.5379 32.6787L9.44876 30.7936ZM18.3474 29.2661L12.6341 35.0532C12.5481 35.1406 12.5548 35.2818 12.6489 35.3612L14.3163 36.7596C14.4104 36.8388 14.5516 36.82 14.6228 36.7205L16.9302 33.4666L17.4438 33.8996C17.5379 33.9789 17.6819 33.9601 17.7517 33.8579L19.9918 30.608C19.3841 30.2369 18.8315 29.7837 18.3474 29.2661ZM17.2193 38.5572C17.1036 38.5156 17.0498 38.3838 17.101 38.2722L20.4893 30.8796C21.1133 31.1983 21.7855 31.4363 22.4928 31.5761L21.4991 35.3974C21.4683 35.5172 21.3405 35.5844 21.2249 35.5413L20.5942 35.31L19.5374 39.157C19.5051 39.2753 19.3788 39.3398 19.2631 39.2981L17.2179 38.5546L17.2193 38.5572ZM23.0549 31.6662L22.3987 39.7728C22.3893 39.8951 22.4847 40 22.6071 40H24.7827C24.9051 40 25.0019 39.8951 24.9912 39.7728L24.6671 35.7968H25.338C25.4617 35.7981 25.5585 35.6919 25.5478 35.5682L25.174 31.638C24.7908 31.6958 24.3982 31.7268 23.9988 31.7268C23.6788 31.7268 23.3641 31.7052 23.0535 31.6676L23.0549 31.6662ZM30.9007 9.72646C30.9518 9.61485 30.8966 9.48444 30.7824 9.4414L28.7372 8.69784C28.6229 8.65616 28.4952 8.7207 28.4629 8.83903L27.406 12.6859L26.7754 12.4546C26.6598 12.4116 26.5321 12.4788 26.5011 12.5985L25.5074 16.4198C26.2147 16.5597 26.887 16.7977 27.5109 17.1164L30.9007 9.72511V9.72646ZM35.3662 12.9481L29.6529 18.7352C29.1702 18.2163 28.6176 17.7631 28.0084 17.392L30.2485 14.1421C30.3185 14.0413 30.4623 14.0211 30.5564 14.1018L31.0701 14.5347L33.3774 11.2808C33.4487 11.1813 33.5899 11.1625 33.684 11.2418L35.3513 12.6402C35.4455 12.7195 35.4522 12.8621 35.3662 12.9481ZM38.4601 17.5022C38.5717 17.4498 38.6134 17.314 38.5515 17.2078L37.4624 15.3227C37.4006 15.2164 37.262 15.1855 37.1612 15.2554L33.8804 17.5237L33.5455 16.9415C33.4837 16.834 33.3425 16.8031 33.243 16.8757L30.024 19.1655C30.4664 19.7155 30.8362 20.3259 31.1158 20.9847L38.4601 17.5022ZM39.6192 20.4523L39.997 22.5956C40.0185 22.718 39.9311 22.8308 39.8101 22.8416L31.7156 23.6013C31.6792 22.8753 31.5407 22.1774 31.3162 21.5172L35.1228 20.4671C35.2411 20.4334 35.3634 20.5115 35.3849 20.6324L35.4992 21.2926L39.3583 20.2842C39.4766 20.2532 39.5963 20.33 39.6178 20.4509L39.6192 20.4523ZM39.2534 28.3195C39.3717 28.3504 39.4914 28.2738 39.513 28.1528L39.8894 26.0095C39.9109 25.8884 39.8235 25.7756 39.7026 25.7635L35.7319 25.391L35.8502 24.7308C35.8717 24.6084 35.7843 24.4955 35.6606 24.4847L31.7222 24.1687C31.7061 24.8975 31.5918 25.5994 31.3888 26.265L39.2547 28.3181L39.2534 28.3195ZM37.1585 33.2098C37.0967 33.3147 36.9582 33.3456 36.8573 33.2771L30.1666 28.6556C30.5915 28.0936 30.9396 27.4711 31.1992 26.8028L34.7906 28.4459C34.9036 28.497 34.9479 28.6355 34.8847 28.7417L34.5473 29.3226L38.1521 31.0316C38.2625 31.084 38.3055 31.2198 38.2436 31.326L37.1558 33.2111L37.1585 33.2098ZM28.2034 30.4843L32.9095 37.1158C32.9808 37.2154 33.1206 37.2341 33.2161 37.1548L34.8821 35.7551C34.9762 35.6758 34.983 35.5332 34.8968 35.4472L32.0947 32.6088L32.6097 32.1785C32.7038 32.0992 32.7105 31.9553 32.6218 31.8692L29.8075 29.0967C29.3396 29.6292 28.8004 30.0971 28.2034 30.4857V30.4843ZM28.1631 39.5132C28.0488 39.5549 27.921 39.4904 27.8888 39.3721L25.7347 31.5304C26.4379 31.3691 27.1035 31.1136 27.718 30.7761L29.4122 34.342C29.4659 34.4535 29.4108 34.588 29.2939 34.6297L28.6619 34.8583L30.3252 38.4846C30.3763 38.5963 30.3212 38.7267 30.2068 38.7697L28.1618 39.5146L28.1631 39.5132Z" fill="black"/>
</svg>
