<svg width="48" height="48" viewBox="0 0 48 48" fill="none" xmlns="http://www.w3.org/2000/svg">
<g clip-path="url(#clip0_99_2319)">
<path d="M27.7333 36.7999L27.7333 37.5802C27.7333 38.6847 26.8379 39.5802 25.7333 39.5802C25.3899 39.5802 25.0522 39.4917 24.7528 39.3233L12.7528 32.5733C12.1231 32.2191 11.7333 31.5527 11.7333 30.8302L11.7333 17.1695C11.7333 16.447 12.1231 15.7806 12.7528 15.4264L24.7528 8.67639C25.7155 8.13487 26.935 8.47631 27.4765 9.43902C27.6449 9.73839 27.7333 10.0761 27.7333 10.4195L27.7333 11.1998L29.1586 10.7723C30.2166 10.4549 31.3316 11.0552 31.649 12.1132C31.7049 12.2997 31.7333 12.4933 31.7333 12.6879L31.7333 13.4998L33.4853 13.2809C34.5813 13.1439 35.5809 13.9213 35.7179 15.0173C35.7282 15.0996 35.7333 15.1825 35.7333 15.2654L35.7333 32.7343C35.7333 33.8389 34.8379 34.7343 33.7333 34.7343C33.6504 34.7343 33.5676 34.7291 33.4853 34.7188L31.7333 34.4999L31.7333 35.3118C31.7333 36.4164 30.8379 37.3118 29.7333 37.3118C29.5387 37.3118 29.3451 37.2834 29.1586 37.2274L27.7333 36.7999ZM27.7333 34.7118L29.7333 35.3118L29.7333 12.6879L27.7333 13.2879L27.7333 34.7118ZM31.7333 15.5154L31.7333 32.4843L33.7333 32.7343L33.7333 15.2654L31.7333 15.5154ZM13.7333 17.1695L13.7333 30.8302L25.7333 37.5802L25.7333 10.4195L13.7333 17.1695ZM15.7333 18.4998L17.7333 17.4998L17.7333 30.4998L15.7333 29.4998L15.7333 18.4998Z" fill="black"/>
</g>
<defs>
<clipPath id="clip0_99_2319">
<rect width="24" height="32" fill="white" transform="translate(12 8)"/>
</clipPath>
</defs>
</svg>
