<svg width="48" height="48" viewBox="0 0 48 48" fill="none" xmlns="http://www.w3.org/2000/svg">
<g clip-path="url(#clip0_11852_24412)">
<path d="M6 12C6 8.68629 8.68629 6 12 6H36C39.3137 6 42 8.68629 42 12V36C42 39.3137 39.3137 42 36 42H12C8.68629 42 6 39.3137 6 36V12Z" fill="#FADE4B"/>
<path d="M31.0757 20.5145C31.0757 22.1737 30.5637 23.5193 29.5409 24.5505C28.5173 25.5817 26.7853 26.1057 24.3441 26.1217H21.9513V30.8345H24.3201V33.1065H16.9241V30.8345H19.1961V17.1665H16.9241V14.8945H23.7037C25.5325 14.8945 26.9825 15.0917 28.0545 15.4865C29.1337 15.8813 29.9073 16.4857 30.3745 17.2993C30.8421 18.1049 31.0757 19.1769 31.0757 20.5145ZM28.2837 20.4537C28.2837 19.3177 27.9497 18.4881 27.2809 17.9645C26.6121 17.4325 25.4681 17.1669 23.8489 17.1669H21.9513V23.9221H23.6553C24.7753 23.9221 25.6697 23.8213 26.3381 23.6201C27.0069 23.4105 27.4981 23.0561 27.8125 22.5565C28.1269 22.0489 28.2837 21.3481 28.2837 20.4537Z" fill="#333333"/>
</g>
<defs>
<clipPath id="clip0_11852_24412">
<rect width="36" height="36" fill="white" transform="translate(6 6)"/>
</clipPath>
</defs>
</svg>
