<svg width="48" height="48" viewBox="0 0 48 48" fill="none" xmlns="http://www.w3.org/2000/svg">
<path d="M38.7725 8.84951C34.9685 3.40479 27.4554 1.78994 22.0232 5.25175L12.4829 11.3324C11.194 12.1432 10.0885 13.2141 9.23702 14.4765C8.38558 15.7389 7.80693 17.1651 7.53809 18.6639C7.08285 21.1882 7.48258 23.7922 8.67399 26.0638C7.85734 27.3026 7.30052 28.6942 7.03721 30.1544C6.7654 31.6832 6.80162 33.251 7.14373 34.7656C7.48585 36.2803 8.12698 37.7114 9.02953 38.975C12.8335 44.4202 20.3475 46.0346 25.7788 42.5723L35.3191 36.4917C36.6081 35.681 37.7136 34.6102 38.5652 33.3479C39.4167 32.0856 39.9954 30.6594 40.2644 29.1607C40.7193 26.6362 40.3196 24.0321 39.1284 21.7603C39.9448 20.5216 40.5014 19.1302 40.7648 17.6702C41.0367 16.1413 41.0005 14.5735 40.6583 13.0588C40.3161 11.5441 39.6753 10.113 38.7725 8.84951Z" fill="#FF3E00"/>
<path d="M21.0926 39.4873C19.5912 39.8777 18.0061 39.7979 16.5515 39.2587C15.0968 38.7195 13.8427 37.7469 12.9584 36.4723C12.4157 35.7125 12.0301 34.852 11.8243 33.9412C11.6185 33.0304 11.5966 32.0878 11.7599 31.1684C11.8154 30.867 11.8914 30.5692 11.988 30.278L12.1673 29.7293L12.6566 30.088C13.785 30.9177 15.0468 31.5487 16.3876 31.9537L16.7418 32.061L16.7091 32.4152C16.6656 32.9187 16.8019 33.4212 17.0937 33.8338C17.36 34.2179 17.7378 34.5111 18.1761 34.6736C18.6144 34.8361 19.092 34.8602 19.5444 34.7425C19.7516 34.6876 19.9491 34.6013 20.1302 34.4867L29.6709 28.4042C29.9043 28.2572 30.1046 28.0632 30.2589 27.8345C30.4132 27.6059 30.5182 27.3475 30.5671 27.076C30.616 26.7989 30.6093 26.5148 30.5473 26.2403C30.4852 25.9658 30.3691 25.7064 30.2058 25.4773C29.9395 25.0931 29.5617 24.7999 29.1234 24.6372C28.6852 24.4745 28.2076 24.4503 27.7551 24.5677C27.5479 24.6225 27.3503 24.7088 27.1692 24.8235L23.529 27.1445C22.9299 27.5251 22.2761 27.8119 21.5904 27.9951C20.089 28.3853 18.504 28.3055 17.0495 27.7663C15.5949 27.2271 14.3408 26.2546 13.4566 24.98C12.9138 24.2203 12.5281 23.3598 12.3223 22.449C12.1165 21.5382 12.0947 20.5955 12.2581 19.6761C12.4203 18.7749 12.7688 17.9174 13.2814 17.1585C13.7939 16.3996 14.4592 15.756 15.2347 15.2689L24.7745 9.1883C25.3734 8.80702 26.0272 8.51971 26.7131 8.33637C28.2145 7.94602 29.7995 8.02583 31.254 8.56502C32.7086 9.1042 33.9627 10.0768 34.8469 11.3514C35.3896 12.1112 35.7752 12.9717 35.981 13.8825C36.1868 14.7933 36.2087 15.7359 36.0454 16.6553C35.9894 16.9574 35.9129 17.2553 35.8164 17.547L35.6362 18.0966L35.1474 17.7389C34.0192 16.909 32.7575 16.278 31.4168 15.8731L31.0617 15.7658L31.0948 15.4116C31.1378 14.9082 31.0016 14.4058 30.7102 13.9931C30.444 13.6092 30.0665 13.3163 29.6286 13.1538C29.1907 12.9913 28.7135 12.967 28.2613 13.0843C28.0541 13.1392 27.8566 13.2255 27.6755 13.3401L18.1348 19.4199C17.9014 19.5669 17.7012 19.7609 17.5469 19.9896C17.3927 20.2183 17.2878 20.4766 17.2391 20.7481C17.1899 21.0252 17.1965 21.3092 17.2584 21.5838C17.3203 21.8583 17.4362 22.1177 17.5995 22.3469C17.8659 22.731 18.2436 23.0242 18.6819 23.1869C19.1201 23.3495 19.5977 23.3738 20.0502 23.2565C20.2573 23.2014 20.4549 23.1152 20.636 23.0007L24.2758 20.6806C24.8747 20.2993 25.5285 20.0121 26.2145 19.8291C27.7154 19.4389 29.2999 19.5186 30.7541 20.0574C32.2083 20.5963 33.4622 21.5683 34.3464 22.8424C34.8893 23.6021 35.2749 24.4626 35.4807 25.3734C35.6865 26.2842 35.7084 27.2269 35.545 28.1462C35.3832 29.0476 35.0351 29.9053 34.5231 30.6646C34.011 31.4239 33.3462 32.0679 32.571 32.5557L23.0308 38.635C22.4321 39.0162 21.7784 39.3036 21.0926 39.4869" fill="white"/>
</svg>
