<svg width="48" height="48" viewBox="0 0 48 48" fill="none" xmlns="http://www.w3.org/2000/svg">
<g clip-path="url(#clip0_151_612)">
<path d="M35.6578 31.0921C35.1442 31.5899 34.1168 32.3365 32.319 32.3365C31.5485 32.3365 30.6496 32.3365 30.2644 32.3365C29.7507 32.3365 25.8982 32.3365 21.2753 32.3365C24.6141 29.2254 27.4392 26.6121 27.6961 26.3632C27.9529 26.1143 28.595 25.4921 29.237 24.9943C30.5212 23.8743 31.5485 23.7499 32.4474 23.7499C33.7316 23.7499 34.7589 24.2476 35.6578 24.9943C37.4557 26.6121 37.4557 29.4743 35.6578 31.0921ZM37.8409 23.0032C36.5567 21.6343 34.6305 20.7632 32.5759 20.7632C30.778 20.7632 29.237 21.3854 27.8245 22.381C27.3108 22.8787 26.5403 23.3765 25.8982 24.1232C25.3846 24.621 14.3408 35.0743 14.3408 35.0743C14.9829 35.1987 15.7534 35.1987 16.3955 35.1987C17.0376 35.1987 29.8791 35.1987 30.3928 35.1987C31.4201 35.1987 32.1906 35.1987 32.9611 35.0743C34.6305 34.9499 36.2999 34.3276 37.7125 33.0832C40.666 30.3454 40.6661 25.741 37.8409 23.0032Z" fill="#00A3FF"/>
<path d="M19.8627 22.2565C18.4501 21.261 17.0375 20.7632 15.3681 20.7632C13.3135 20.7632 11.3872 21.6343 10.1031 23.0032C7.27793 25.8654 7.27793 30.3454 10.2315 33.2076C11.5156 34.3276 12.7998 34.9499 14.3408 35.0743L17.2944 32.3365C16.7807 32.3365 16.1386 32.3365 15.625 32.3365C13.9555 32.2121 12.9282 31.7143 12.2861 31.0921C10.4883 29.3499 10.4883 26.6121 12.1577 24.8699C13.0566 23.9987 14.084 23.6254 15.3681 23.6254C16.1386 23.6254 17.2944 23.7499 18.4501 24.8699C18.9638 25.3676 20.3763 26.3632 20.89 26.861H21.0184L22.9447 24.9943V24.8699C22.0457 23.9987 20.6332 22.8787 19.8627 22.2565Z" fill="#00C8DC"/>
<path d="M33.3463 19.146C31.9338 15.4126 28.2097 12.7993 23.972 12.7993C18.9638 12.7993 14.9829 16.4082 14.2124 20.8882C14.5976 20.8882 14.9829 20.7638 15.4966 20.7638C16.0102 20.7638 16.6523 20.8882 17.166 20.8882C17.808 17.7771 20.6332 15.5371 23.972 15.5371C26.7971 15.5371 29.237 17.1549 30.3928 19.5193C30.3928 19.5193 30.5212 19.6438 30.5212 19.5193C31.4201 19.3949 32.4474 19.146 33.3463 19.146C33.3463 19.2704 33.3463 19.2704 33.3463 19.146Z" fill="#006EFF"/>
</g>
<defs>
<clipPath id="clip0_151_612">
<rect width="32.0002" height="22.4" fill="white" transform="translate(8 12.7996)"/>
</clipPath>
</defs>
</svg>
