<svg width="48" height="48" viewBox="0 0 48 48" fill="none" xmlns="http://www.w3.org/2000/svg">
<path fill-rule="evenodd" clip-rule="evenodd" d="M29.3246 32.5278C29.3343 32.5397 29.3446 32.5513 29.3557 32.5625C29.3749 32.5817 29.3956 32.5984 29.4172 32.6133C29.4601 32.6537 29.5029 32.6947 29.5448 32.7366C30.3701 33.5619 30.8888 34.5775 31.1016 35.642C31.1052 35.702 31.1117 35.7617 31.1213 35.8211C31.1317 35.8866 31.1457 35.9514 31.1632 36.0156C31.2449 36.315 31.4027 36.5977 31.6377 36.8329C32.3579 37.553 33.5255 37.553 34.2457 36.8329C34.9657 36.1127 34.9657 34.9452 34.2457 34.225C33.9917 33.9712 33.6823 33.8072 33.3565 33.7324C33.32 33.724 33.2833 33.7168 33.2466 33.7106C33.2094 33.7044 33.1724 33.6992 33.135 33.6954C32.0439 33.4919 31.0008 32.9686 30.1568 32.1247C30.0959 32.0638 30.037 32.0017 29.9795 31.9387L29.9791 31.9389C29.807 31.7668 29.5278 31.7668 29.3557 31.9389C29.1946 32.1 29.1843 32.3546 29.3246 32.5278Z" fill="#FB6500"/>
<path fill-rule="evenodd" clip-rule="evenodd" d="M35.155 33.9442C35.1669 33.9345 35.1785 33.9242 35.1897 33.9131C35.2089 33.8939 35.2256 33.8732 35.2405 33.8516C35.2809 33.8087 35.3219 33.7659 35.3638 33.724C36.1891 32.8987 37.2047 32.3801 38.2693 32.1673C38.3292 32.1636 38.3889 32.1571 38.4484 32.1476C38.5138 32.1371 38.5787 32.1231 38.6429 32.1056C38.9423 32.0239 39.225 31.8661 39.4602 31.6311C40.1802 30.9109 40.1802 29.7434 39.4602 29.0232C38.74 28.3031 37.5724 28.3031 36.8522 29.0232C36.5984 29.2771 36.4344 29.5865 36.3596 29.9123C36.3512 29.9488 36.344 29.9856 36.3378 30.0223C36.3316 30.0595 36.3264 30.0965 36.3226 30.1338C36.1192 31.2249 35.5959 32.268 34.7519 33.112C34.691 33.1729 34.6289 33.2318 34.5659 33.2894L34.5661 33.2897C34.394 33.4618 34.394 33.741 34.5661 33.9131C34.7272 34.0742 34.9818 34.0846 35.155 33.9442Z" fill="#0082EF"/>
<path fill-rule="evenodd" clip-rule="evenodd" d="M36.5718 28.1137C36.5622 28.1018 36.5518 28.0902 36.5407 28.0791C36.5215 28.0598 36.5008 28.0431 36.4792 28.0282C36.4363 27.9878 36.3935 27.9468 36.3516 27.9049C35.5263 27.0796 35.0077 26.064 34.7949 24.9995C34.7912 24.9396 34.7847 24.8798 34.7752 24.8204C34.7647 24.7549 34.7507 24.6901 34.7332 24.6259C34.6515 24.3265 34.4937 24.0438 34.2587 23.8086C33.5385 23.0885 32.3709 23.0885 31.6507 23.8086C30.9307 24.5288 30.9307 25.6963 31.6507 26.4165C31.9047 26.6703 32.2141 26.8343 32.5399 26.9091C32.5764 26.9176 32.6131 26.9247 32.6498 26.9309C32.687 26.9371 32.7241 26.9423 32.7614 26.9462C33.8525 27.1496 34.8956 27.6729 35.7396 28.5169C35.8005 28.5777 35.8594 28.6399 35.917 28.7028L35.9173 28.7026C36.0894 28.8747 36.3686 28.8747 36.5407 28.7026C36.7018 28.5415 36.7122 28.2869 36.5718 28.1137Z" fill="#2DBC00"/>
<path fill-rule="evenodd" clip-rule="evenodd" d="M30.7413 26.6969C30.7294 26.7066 30.7178 26.7169 30.7066 26.728C30.6874 26.7473 30.6707 26.7679 30.6558 26.7895C30.6154 26.8324 30.5744 26.8752 30.5325 26.9171C29.7072 27.7424 28.6916 28.2611 27.6271 28.4738C27.5671 28.4775 27.5074 28.484 27.448 28.4936C27.3825 28.504 27.3176 28.518 27.2534 28.5355C26.954 28.6172 26.6713 28.775 26.4361 29.01C25.7161 29.7302 25.7161 30.8977 26.4361 31.6179C27.1563 32.338 28.3239 32.338 29.0441 31.6179C29.2979 31.364 29.4619 31.0546 29.5367 30.7288C29.5451 30.6923 29.5523 30.6556 29.5585 30.6189C29.5647 30.5817 29.5699 30.5446 29.5738 30.5073C29.7772 29.4162 30.3005 28.3731 31.1445 27.5291C31.2053 27.4682 31.2675 27.4093 31.3304 27.3518L31.3302 27.3514C31.5023 27.1793 31.5023 26.9001 31.3302 26.728C31.1691 26.5669 30.9145 26.5566 30.7413 26.6969Z" fill="#FFCC00"/>
<path fill-rule="evenodd" clip-rule="evenodd" d="M33.4833 17.6867C32.9705 16.6328 32.2813 15.6546 31.4351 14.7789C29.2967 12.5673 26.3029 11.1429 23.0055 10.768C22.4135 10.7008 21.8268 10.6667 21.2615 10.6667C20.7228 10.6667 20.1611 10.6981 19.5918 10.76C16.2796 11.1201 13.2693 12.5372 11.1152 14.7502C10.265 15.6237 9.5723 16.5998 9.05583 17.6508C8.35517 19.0772 8 20.5913 8 22.1511C8 24.1593 8.61103 26.1393 9.76713 27.8775C10.4209 28.8605 11.5389 30.131 12.4958 30.9096L11.9659 33.1018L11.8131 33.7191C11.7863 33.7798 11.7655 33.8434 11.7509 33.9097C11.7418 33.95 11.7391 33.9925 11.7351 34.0346C11.7321 34.0665 11.7254 34.0974 11.7254 34.1302C11.7254 34.6939 12.1823 35.1508 12.7461 35.1508C12.9303 35.1508 13.1008 35.0982 13.25 35.0129C13.2547 35.0102 13.2597 35.0078 13.2642 35.0051C13.2861 34.9922 13.3084 34.9808 13.3292 34.9665L17.1145 33.0665C17.9293 33.3002 18.7377 33.4498 19.5901 33.5435C20.1441 33.6046 20.7065 33.6354 21.2615 33.6354C21.8276 33.6354 22.4143 33.6012 23.0055 33.534C24.1679 33.402 25.2861 33.134 26.3474 32.753C26.2327 32.715 26.12 32.6652 26.011 32.6028C25.3617 32.2314 25.0254 31.5249 25.0922 30.8257C24.3337 31.0666 23.5417 31.2393 22.7228 31.3323C22.226 31.3888 21.7342 31.4174 21.2615 31.4174C20.797 31.4174 20.3263 31.3915 19.8626 31.3405C19.7658 31.3299 19.6695 31.3151 19.5731 31.3022C18.936 31.2174 18.3062 31.0875 17.6979 30.9092C17.5739 30.8697 17.4427 30.8496 17.3081 30.8496C17.0983 30.8496 16.8947 30.9051 16.6883 31.0122C16.6616 31.026 16.6351 31.0375 16.6082 31.0532L14.1794 32.4845L14.1768 32.486C14.1265 32.5154 14.098 32.5263 14.072 32.5263C13.9866 32.5263 13.9173 32.4542 13.9173 32.3655L14.0071 32.0027C14.0322 31.9071 14.0677 31.7723 14.1106 31.6085C14.2167 31.2042 14.3618 30.6512 14.4696 30.2407C14.4929 30.1568 14.5168 30.056 14.5168 29.9429C14.5168 29.6303 14.3672 29.3349 14.118 29.1534C13.9912 29.0597 13.8646 28.9613 13.7314 28.8529C13.5275 28.687 13.3325 28.5141 13.1448 28.3361C12.6176 27.836 12.1547 27.2902 11.7658 26.7054C10.8501 25.3289 10.3662 23.7669 10.3662 22.1881C10.3662 20.9629 10.6464 19.7713 11.1988 18.6469C11.6115 17.8069 12.1674 17.0247 12.8512 16.322C14.6218 14.5027 17.1118 13.3363 19.8623 13.0373C20.3411 12.9851 20.8118 12.9588 21.2615 12.9588C21.7337 12.9588 22.2254 12.9874 22.7228 13.0439C25.4605 13.3552 27.9361 14.5275 29.6935 16.3452C30.3742 17.0493 30.927 17.8332 31.3369 18.6753C31.8804 19.7926 32.1561 20.9745 32.1561 22.1881C32.1561 22.3143 32.1481 22.44 32.1419 22.5658C32.8521 22.1312 33.7907 22.2165 34.4053 22.8312C34.4365 22.8622 34.4626 22.8962 34.4908 22.929C34.5112 22.6704 34.5225 22.4111 34.5225 22.1511C34.5225 20.6058 34.1729 19.1038 33.4833 17.6867Z" fill="#0079DE"/>
</svg>
