<svg width="20" height="20" viewBox="0 0 20 20" fill="none" xmlns="http://www.w3.org/2000/svg">
  <path
    d="M15.8332 3.33331H4.1665C3.50346 3.33331 2.86758 3.59671 2.39874 4.06555C1.9299 4.53439 1.6665 5.17027 1.6665 5.83331V14.1666C1.6665 14.8297 1.9299 15.4656 2.39874 15.9344C2.86758 16.4033 3.50346 16.6666 4.1665 16.6666H15.8332C16.4962 16.6666 17.1321 16.4033 17.6009 15.9344C18.0698 15.4656 18.3332 14.8297 18.3332 14.1666V5.83331C18.3332 5.17027 18.0698 4.53439 17.6009 4.06555C17.1321 3.59671 16.4962 3.33331 15.8332 3.33331ZM15.4915 4.99998L10.5915 9.89998C10.514 9.97809 10.4219 10.0401 10.3203 10.0824C10.2188 10.1247 10.1098 10.1465 9.99984 10.1465C9.88983 10.1465 9.78091 10.1247 9.67936 10.0824C9.57781 10.0401 9.48564 9.97809 9.40817 9.89998L4.50817 4.99998H15.4915ZM16.6665 14.1666C16.6665 14.3877 16.5787 14.5996 16.4224 14.7559C16.2661 14.9122 16.0542 15 15.8332 15H4.1665C3.94549 15 3.73353 14.9122 3.57725 14.7559C3.42097 14.5996 3.33317 14.3877 3.33317 14.1666V6.17498L8.23317 11.075C8.70192 11.5431 9.33734 11.8061 9.99984 11.8061C10.6623 11.8061 11.2978 11.5431 11.7665 11.075L16.6665 6.17498V14.1666Z"
    fill="currentColor" />
</svg>