<svg width="48" height="48" viewBox="0 0 48 48" fill="none" xmlns="http://www.w3.org/2000/svg">
<path d="M17.0168 22.283C17.0168 22.6768 17.0593 22.9961 17.1338 23.2303C17.219 23.4644 17.3254 23.7198 17.4744 23.9966C17.5276 24.0817 17.5489 24.1668 17.5489 24.2413C17.5489 24.3478 17.485 24.4542 17.3467 24.5606L16.6762 25.0076C16.5804 25.0715 16.4846 25.1034 16.3995 25.1034C16.293 25.1034 16.1866 25.0502 16.0802 24.9544C15.9312 24.7948 15.8035 24.6245 15.697 24.4542C15.5906 24.2733 15.4842 24.0711 15.3671 23.8263C14.5369 24.8054 13.4939 25.295 12.2381 25.295C11.3441 25.295 10.631 25.0396 10.1095 24.5287C9.58797 24.0178 9.3219 23.3367 9.3219 22.4853C9.3219 21.5806 9.64119 20.8463 10.2904 20.2928C10.9396 19.7394 11.8017 19.4627 12.8979 19.4627C13.2598 19.4627 13.6323 19.4946 14.0261 19.5478C14.4199 19.601 14.8243 19.6862 15.25 19.782V19.005C15.25 18.1962 15.0797 17.6321 14.7498 17.3022C14.4092 16.9723 13.8345 16.8126 13.015 16.8126C12.6425 16.8126 12.2594 16.8552 11.8656 16.951C11.4718 17.0468 11.0886 17.1638 10.7161 17.3128C10.5458 17.3873 10.4181 17.4299 10.3436 17.4512C10.2691 17.4725 10.2159 17.4831 10.1733 17.4831C10.0243 17.4831 9.94983 17.3767 9.94983 17.1532V16.6317C9.94983 16.4614 9.97112 16.3337 10.0243 16.2592C10.0775 16.1847 10.1733 16.1102 10.3223 16.0357C10.6948 15.8441 11.1418 15.6845 11.6633 15.5568C12.1849 15.4184 12.7383 15.3545 13.3236 15.3545C14.5902 15.3545 15.5161 15.6419 16.1121 16.2166C16.6975 16.7913 16.9955 17.664 16.9955 18.8348V22.283H17.0168ZM12.6957 23.9008C13.0469 23.9008 13.4088 23.8369 13.7919 23.7092C14.1751 23.5815 14.5157 23.3473 14.803 23.028C14.9733 22.8258 15.101 22.6023 15.1649 22.3469C15.2287 22.0915 15.2713 21.7828 15.2713 21.421V20.974C14.9627 20.8995 14.6327 20.8356 14.2922 20.793C13.9516 20.7505 13.6217 20.7292 13.2917 20.7292C12.5786 20.7292 12.0571 20.8675 11.7059 21.1549C11.3547 21.4423 11.1844 21.8467 11.1844 22.3788C11.1844 22.879 11.3121 23.2516 11.5782 23.507C11.8336 23.7731 12.2061 23.9008 12.6957 23.9008ZM21.242 25.0502C21.0504 25.0502 20.9227 25.0183 20.8376 24.9438C20.7524 24.8799 20.6779 24.7309 20.6141 24.5287L18.113 16.3018C18.0491 16.0889 18.0172 15.9505 18.0172 15.876C18.0172 15.7058 18.1023 15.61 18.2726 15.61H19.3156C19.5178 15.61 19.6562 15.6419 19.7307 15.7164C19.8159 15.7803 19.8797 15.9293 19.9436 16.1315L21.7316 23.1771L23.3919 16.1315C23.4451 15.9186 23.509 15.7803 23.5941 15.7164C23.6792 15.6525 23.8282 15.61 24.0198 15.61H24.8713C25.0735 15.61 25.2118 15.6419 25.297 15.7164C25.3821 15.7803 25.4566 15.9293 25.4992 16.1315L27.1808 23.2622L29.022 16.1315C29.0859 15.9186 29.1604 15.7803 29.2349 15.7164C29.32 15.6525 29.4584 15.61 29.6499 15.61H30.6397C30.81 15.61 30.9058 15.6951 30.9058 15.876C30.9058 15.9293 30.8952 15.9825 30.8845 16.0463C30.8739 16.1102 30.8526 16.1953 30.81 16.3124L28.2451 24.5393C28.1812 24.7522 28.1067 24.8906 28.0216 24.9544C27.9364 25.0183 27.7981 25.0608 27.6171 25.0608H26.7018C26.4996 25.0608 26.3613 25.0289 26.2761 24.9544C26.191 24.8799 26.1165 24.7416 26.0739 24.5287L24.4243 17.664L22.7852 24.5181C22.732 24.7309 22.6682 24.8693 22.583 24.9438C22.4979 25.0183 22.3489 25.0502 22.1573 25.0502H21.242ZM34.9182 25.3376C34.3648 25.3376 33.8113 25.2737 33.2792 25.146C32.747 25.0183 32.332 24.8799 32.0552 24.7203C31.885 24.6245 31.7679 24.5181 31.7253 24.4223C31.6827 24.3265 31.6615 24.2201 31.6615 24.1243V23.5815C31.6615 23.358 31.7466 23.2516 31.9062 23.2516C31.9701 23.2516 32.034 23.2622 32.0978 23.2835C32.1617 23.3048 32.2575 23.3473 32.3639 23.3899C32.7258 23.5496 33.1195 23.6773 33.5346 23.7624C33.9603 23.8476 34.3754 23.8901 34.8011 23.8901C35.4716 23.8901 35.9931 23.7731 36.355 23.5389C36.7169 23.3048 36.9084 22.9642 36.9084 22.5278C36.9084 22.2298 36.8126 21.985 36.6211 21.7828C36.4295 21.5806 36.0676 21.3997 35.5461 21.2294L34.0029 20.7505C33.226 20.5057 32.6513 20.1438 32.3 19.6649C31.9488 19.1966 31.7679 18.6751 31.7679 18.1217C31.7679 17.6747 31.8637 17.2809 32.0552 16.9403C32.2468 16.5998 32.5023 16.3018 32.8215 16.0676C33.1408 15.8228 33.5027 15.6419 33.9284 15.5142C34.3541 15.3865 34.8011 15.3333 35.2694 15.3333C35.5036 15.3333 35.7484 15.3439 35.9825 15.3758C36.2273 15.4078 36.4508 15.4503 36.6743 15.4929C36.8871 15.5461 37.0894 15.5993 37.2809 15.6632C37.4725 15.727 37.6215 15.7909 37.7279 15.8548C37.8769 15.9399 37.9834 16.025 38.0472 16.1208C38.1111 16.206 38.143 16.323 38.143 16.472V16.9723C38.143 17.1958 38.0579 17.3128 37.8982 17.3128C37.8131 17.3128 37.6747 17.2703 37.4938 17.1851C36.8871 16.9084 36.206 16.77 35.4504 16.77C34.8437 16.77 34.3648 16.8658 34.0348 17.068C33.7049 17.2703 33.5346 17.5789 33.5346 18.0153C33.5346 18.3133 33.641 18.5687 33.8539 18.7709C34.0668 18.9731 34.4606 19.1753 35.0246 19.3563L36.5359 19.8352C37.3022 20.08 37.8557 20.4205 38.1856 20.8569C38.5155 21.2933 38.6752 21.7935 38.6752 22.3469C38.6752 22.8045 38.5794 23.2196 38.3984 23.5815C38.2069 23.9433 37.9514 24.2626 37.6215 24.5181C37.2916 24.7841 36.8978 24.9757 36.4401 25.1141C35.9612 25.2631 35.461 25.3376 34.9182 25.3376Z" fill="#252F3E"/>
<path fill-rule="evenodd" clip-rule="evenodd" d="M36.931 30.5093C33.4294 33.0956 28.3421 34.4685 23.9678 34.4685C17.8375 34.4685 12.3138 32.2016 8.14177 28.434C7.81183 28.136 8.10984 27.7315 8.50363 27.9657C13.0162 30.5838 18.5825 32.1696 24.3403 32.1696C28.225 32.1696 32.4929 31.3608 36.4201 29.7005C37.0055 29.4344 37.5057 30.0836 36.931 30.5093Z" fill="#FF9900"/>
<path fill-rule="evenodd" clip-rule="evenodd" d="M38.3896 28.8496C37.9426 28.2748 35.4309 28.5728 34.2921 28.7112C33.9515 28.7538 33.8983 28.4558 34.2069 28.2323C36.2078 26.8274 39.4965 27.2318 39.8796 27.7001C40.2628 28.1791 39.7732 31.4677 37.9 33.0429C37.6127 33.2876 37.336 33.1599 37.4637 32.8406C37.8894 31.787 38.8366 29.4136 38.3896 28.8496Z" fill="#FF9900"/>
</svg>
