<svg width="48" height="48" viewBox="0 0 48 48" fill="none" xmlns="http://www.w3.org/2000/svg">
<path d="M8 14.4C8 10.8654 10.8654 8 14.4 8H33.6002C37.1348 8 40.0002 10.8654 40.0002 14.4V33.6C40.0002 37.1346 37.1348 40 33.6002 40H14.4C10.8654 40 8 37.1346 8 33.6V14.4Z" fill="#5865F2"/>
<path d="M31.7627 17.4153C30.335 16.7602 28.804 16.2776 27.2033 16.0012C27.1741 15.9958 27.145 16.0092 27.13 16.0358C26.9331 16.386 26.715 16.8429 26.5622 17.202C24.8405 16.9442 23.1276 16.9442 21.4412 17.202C21.2885 16.8349 21.0624 16.386 20.8646 16.0358C20.8496 16.01 20.8205 15.9967 20.7914 16.0012C19.1915 16.2767 17.6605 16.7593 16.2319 17.4153C16.2195 17.4207 16.2089 17.4295 16.2019 17.4411C13.2979 21.7796 12.5024 26.0114 12.8926 30.1908C12.8944 30.2112 12.9059 30.2308 12.9218 30.2432C14.8377 31.6502 16.6937 32.5044 18.5152 33.0706C18.5443 33.0795 18.5752 33.0689 18.5937 33.0448C19.0246 32.4564 19.4087 31.836 19.738 31.1836C19.7574 31.1454 19.7389 31.1 19.6992 31.0849C19.09 30.8538 18.5099 30.5721 17.9518 30.2521C17.9077 30.2263 17.9042 30.1632 17.9448 30.133C18.0622 30.045 18.1797 29.9534 18.2918 29.861C18.3121 29.8441 18.3403 29.8405 18.3642 29.8512C22.0301 31.5249 25.9989 31.5249 29.6216 29.8512C29.6455 29.8397 29.6737 29.8432 29.6949 29.8601C29.807 29.9525 29.9245 30.045 30.0428 30.133C30.0834 30.1632 30.0807 30.2263 30.0366 30.2521C29.4786 30.5783 28.8985 30.8538 28.2884 31.0841C28.2487 31.0992 28.231 31.1454 28.2504 31.1836C28.5868 31.8351 28.9709 32.4555 29.3938 33.044C29.4115 33.0689 29.4433 33.0795 29.4724 33.0706C31.3027 32.5044 33.1587 31.6502 35.0746 30.2432C35.0914 30.2308 35.102 30.2121 35.1038 30.1916C35.5708 25.3598 34.3215 21.1627 31.7919 17.442C31.7857 17.4295 31.7751 17.4207 31.7627 17.4153ZM20.2855 27.646C19.1818 27.646 18.2723 26.6327 18.2723 25.3883C18.2723 24.1439 19.1641 23.1306 20.2855 23.1306C21.4156 23.1306 22.3162 24.1528 22.2985 25.3883C22.2985 26.6327 21.4068 27.646 20.2855 27.646ZM27.7286 27.646C26.6249 27.646 25.7155 26.6327 25.7155 25.3883C25.7155 24.1439 26.6073 23.1306 27.7286 23.1306C28.8588 23.1306 29.7593 24.1528 29.7417 25.3883C29.7417 26.6327 28.8588 27.646 27.7286 27.646Z" fill="white"/>
</svg>
