<svg width="48" height="48" viewBox="0 0 48 48" fill="none" xmlns="http://www.w3.org/2000/svg">
<path d="M14.7592 32.9459C15.4489 33.3761 16.5956 33.8543 17.8081 33.8543C18.9121 33.8543 19.9379 33.5343 20.7876 32.9886C20.7876 32.9886 20.7894 32.9886 20.7912 32.9868L24.0001 30.9814V38.2223C23.4917 38.2223 22.9797 38.0837 22.5352 37.8063L14.7592 32.9459Z" fill="#225086"/>
<path d="M21.961 10.6792L8.62755 25.7192C7.59821 26.8818 7.86666 28.6383 9.20178 29.4721C9.20178 29.4721 14.1369 32.5565 14.7592 32.9458C15.4489 33.3761 16.5956 33.8543 17.8081 33.8543C18.9121 33.8543 19.9379 33.5343 20.7876 32.9885C20.7876 32.9885 20.7894 32.9885 20.7912 32.9867L24.0001 30.9814L16.2418 26.1316L24.0019 17.3778V9.77783C23.2481 9.77783 22.4943 10.0783 21.961 10.6792Z" fill="#66DDFF"/>
<path d="M16.2418 26.1322L16.3343 26.1891L24.0001 30.982H24.0019V17.3802L24.0001 17.3784L16.2418 26.1322Z" fill="#CBF8FF"/>
<path d="M38.7985 29.4722C40.1336 28.6384 40.4021 26.8819 39.3727 25.7193L30.6242 15.8508C29.9184 15.5219 29.1273 15.3335 28.29 15.3335C26.6455 15.3335 25.1753 16.0428 24.1975 17.1575L24.0037 17.3762L31.762 26.1299L24.002 30.9797V38.2206C24.5122 38.2206 25.0206 38.0819 25.4651 37.8046L38.7985 29.4704V29.4722Z" fill="#074793"/>
<path d="M24.0019 9.77783V17.3778L24.1957 17.1592C25.1735 16.0445 26.6437 15.3352 28.2882 15.3352C29.1273 15.3352 29.9166 15.5254 30.6224 15.8525L26.0375 10.6809C25.5059 10.0801 24.7521 9.77961 24.0001 9.77961L24.0019 9.77783Z" fill="#0294E4"/>
<path d="M31.7584 26.0855L24.0001 17.3335V30.9335L31.7584 26.0855Z" fill="#96BCC2"/>
</svg>
