<svg width="48" height="48" viewBox="0 0 48 48" fill="none" xmlns="http://www.w3.org/2000/svg">
<path d="M6 20.4745C6 19.2998 6.57316 18.1989 7.53553 17.5253L22.9678 6.72258C23.5875 6.28873 24.4125 6.28873 25.0322 6.72258L40.4645 17.5253C41.4268 18.1989 42 19.2998 42 20.4745V34.8004C42 38.7768 38.7764 42.0004 34.8 42.0004H13.2C9.22357 42.0004 6 38.7768 6 34.8004V20.4745Z" fill="#F7F8F8"/>
<path d="M6 20.4745C6 19.2998 6.57316 18.1989 7.53553 17.5253L22.9678 6.72258C23.5875 6.28873 24.4125 6.28873 25.0322 6.72258L40.4645 17.5253C41.4268 18.1989 42 19.2998 42 20.4745V34.8004C42 38.7768 38.7764 42.0004 34.8 42.0004H13.2C9.22357 42.0004 6 38.7768 6 34.8004V20.4745Z" fill="#78767F" fill-opacity="0.02"/>
<path d="M6 20.4745C6 19.2998 6.57316 18.1989 7.53553 17.5253L22.9678 6.72258C23.5875 6.28873 24.4125 6.28873 25.0322 6.72258L40.4645 17.5253C41.4268 18.1989 42 19.2998 42 20.4745V34.8004C42 38.7768 38.7764 42.0004 34.8 42.0004H13.2C9.22357 42.0004 6 38.7768 6 34.8004V20.4745Z" fill="#5D34F2" fill-opacity="0.16"/>
<path fill-rule="evenodd" clip-rule="evenodd" d="M17.0005 14.4995C16.649 14.851 16.649 15.4208 17.0005 15.7723L19.6541 18.426L15.8993 18.426C15.4023 18.426 14.9993 18.8289 14.9993 19.326L14.9993 21.126C14.9993 21.6231 15.4023 22.026 15.8993 22.026L19.6554 22.026L16.9996 24.6819C16.6481 25.0334 16.6481 25.6032 16.9996 25.9547L18.2723 27.2275C18.6238 27.579 19.1937 27.579 19.5451 27.2275L22.1995 24.5731L22.1995 28.3262C22.1995 28.8233 22.6025 29.2262 23.0995 29.2262L24.8995 29.2262C25.3966 29.2262 25.7995 28.8233 25.7995 28.3262V24.5731L28.4539 27.2275C28.8053 27.579 29.3752 27.579 29.7267 27.2275L30.9994 25.9547C31.3509 25.6032 31.3509 25.0334 30.9994 24.6819L28.3436 22.026H32.0993C32.5964 22.026 32.9993 21.6231 32.9993 21.126L32.9993 19.326C32.9993 18.8289 32.5964 18.426 32.0993 18.426L28.346 18.426L30.9996 15.7723C31.3511 15.4208 31.3511 14.851 30.9996 14.4995L29.7268 13.2267C29.3754 12.8752 28.8055 12.8752 28.4541 13.2267L25.7995 15.8812V12.1262C25.7995 11.6292 25.3966 11.2262 24.8995 11.2262L23.0995 11.2262C22.6025 11.2262 22.1995 11.6292 22.1995 12.1262L22.1995 15.8802L19.546 13.2267C19.1946 12.8752 18.6247 12.8752 18.2733 13.2267L17.0005 14.4995ZM25.4897 16.6263L22.5104 16.6263L20.3993 18.7374V21.7177L22.5078 23.8262L25.4912 23.8262L27.5993 21.718L27.5993 18.736L25.4897 16.6263Z" fill="#E67EF7"/>
<path fill-rule="evenodd" clip-rule="evenodd" d="M24 27.4265C27.9765 27.4265 31.2 24.2029 31.2 20.2264C31.2 16.25 27.9765 13.0264 24 13.0264C20.0236 13.0264 16.8 16.25 16.8 20.2264C16.8 24.2029 20.0236 27.4265 24 27.4265ZM23.9999 23.827C25.9881 23.827 27.5999 22.2152 27.5999 20.227C27.5999 18.2387 25.9881 16.627 23.9999 16.627C22.0117 16.627 20.3999 18.2387 20.3999 20.227C20.3999 22.2152 22.0117 23.827 23.9999 23.827Z" fill="#F099FE"/>
<path d="M6 19.3973C6 18.1406 7.25528 17.2707 8.43204 17.7119L23.368 23.3129C23.7755 23.4657 24.2245 23.4657 24.632 23.3129L39.568 17.7119C40.7447 17.2707 42 18.1406 42 19.3973V39.0002C42 40.6571 40.6569 42.0002 39 42.0002H9C7.34315 42.0002 6 40.6571 6 39.0002V19.3973Z" fill="#7958FF"/>
<path d="M6 39.0977H42V39.0977C42 40.7545 40.6569 42.0977 39 42.0977H9C7.34315 42.0977 6 40.7545 6 39.0977V39.0977Z" fill="#957BFF"/>
<path d="M33.1847 32.4923V31.1133H34.9159C35.3028 31.1133 35.6037 31.0157 35.8187 30.8206C36.0369 30.6255 36.146 30.3428 36.146 29.9724V29.9625C36.146 29.5888 36.0369 29.3061 35.8187 29.1143C35.6037 28.9225 35.3028 28.8266 34.9159 28.8266H33.1847V27.4277H35.3573C35.8897 27.4277 36.3527 27.5336 36.7462 27.7452C37.1398 27.9535 37.444 28.2479 37.659 28.6281C37.8772 29.0051 37.9863 29.4499 37.9863 29.9625V29.9724C37.9863 30.4817 37.8772 30.9265 37.659 31.3068C37.444 31.6837 37.1398 31.9764 36.7462 32.1847C36.3527 32.3898 35.8897 32.4923 35.3573 32.4923H33.1847ZM32.272 34.5856V27.4277H34.0924V34.5856H32.272Z" fill="white"/>
<path d="M27.0977 34.5856V28.891H25.0342V27.4277H30.9817V28.891H28.9182V34.5856H27.0977Z" fill="white"/>
<path d="M19.8599 34.5856V28.891H17.7964V27.4277H23.7439V28.891H21.6804V34.5856H19.8599Z" fill="white"/>
<path d="M10.0132 34.5856V27.4277H11.8336V30.2353H14.6859V27.4277H16.5063V34.5856H14.6859V31.6986H11.8336V34.5856H10.0132Z" fill="white"/>
</svg>
