<svg width="48" height="48" viewBox="0 0 48 48" fill="none" xmlns="http://www.w3.org/2000/svg">
<path d="M36.8403 29.5874C36.7731 29.3341 36.6643 29.0937 36.5184 28.8759C36.5497 28.7613 36.5736 28.6448 36.5894 28.5271C36.6931 27.7801 36.4341 27.0962 35.9461 26.5671C35.6817 26.2781 35.3983 26.0872 35.0982 25.9701C35.2952 25.1272 35.3948 24.2646 35.3953 23.3991C35.3953 23.0037 35.3729 22.6164 35.3354 22.2349C35.3159 22.0444 35.2923 21.8544 35.2645 21.6649C35.1787 21.1058 35.0512 20.5538 34.8832 20.0137C34.773 19.6588 34.6457 19.3094 34.5014 18.9669C34.2853 18.4597 34.0329 17.9687 33.7463 17.4977C33.5583 17.1843 33.3535 16.8813 33.1329 16.5899C33.0248 16.4428 32.9122 16.2992 32.7949 16.1592C32.4477 15.7372 32.0703 15.3409 31.6658 14.9734C31.5314 14.8499 31.3933 14.7306 31.2514 14.6157C31.1118 14.4992 30.969 14.3865 30.8234 14.2777C30.5303 14.0595 30.2274 13.8548 29.9156 13.6643C28.193 12.6181 26.1729 12.0181 24.0137 12.0181C17.7272 12.0181 12.6321 17.1133 12.6321 23.3994C12.6319 24.2759 12.7334 25.1494 12.9346 26.0024C12.6646 26.1197 12.4059 26.3024 12.1659 26.5668C11.678 27.0957 11.4189 27.7771 11.5225 28.5241C11.5382 28.6427 11.5619 28.7602 11.5934 28.8757C11.4476 29.0936 11.3389 29.3341 11.2717 29.5874C11.1217 30.1576 11.1711 30.6717 11.3617 31.1222C11.1545 31.7109 11.2062 32.3379 11.4761 32.8831C11.6724 33.2812 11.9532 33.5892 12.2995 33.8644C12.7111 34.1917 13.2264 34.4697 13.8479 34.7364C14.5894 35.0527 15.4945 35.3498 15.9061 35.4588C16.9694 35.7341 17.9889 35.9086 19.0222 35.9171C20.4943 35.9307 21.7621 35.5846 22.6697 34.6987C23.1156 34.7533 23.5645 34.7807 24.0137 34.7804C24.4883 34.7794 24.9625 34.7496 25.4335 34.6911C26.339 35.5826 27.6116 35.9318 29.0891 35.9178C30.1223 35.9096 31.1418 35.7351 32.2023 35.4594C32.6167 35.3504 33.5214 35.0533 34.2633 34.7371C34.8848 34.4699 35.4001 34.1919 35.8144 33.8652C36.1581 33.5898 36.4387 33.2819 36.6351 32.8838C36.9077 32.3386 36.9567 31.7116 36.7523 31.1228C36.9411 30.6723 36.9902 30.1571 36.8403 29.5874ZM35.7853 31.0841C35.9942 31.4804 36.0076 31.9283 35.8233 32.3454C35.5438 32.9776 34.8495 33.4756 33.5012 34.0102C32.6627 34.3427 31.8949 34.5553 31.8881 34.5572C30.7791 34.8448 29.7761 34.9909 28.9079 34.9909C27.4701 34.9909 26.4002 34.5942 25.7217 33.8107C24.5743 34.0062 23.4028 34.0128 22.2533 33.8304C21.5739 34.6009 20.5102 34.9909 19.0845 34.9909C18.2162 34.9909 17.2133 34.8448 16.1041 34.5572C16.0974 34.5553 15.3299 34.3427 14.4911 34.0102C13.1429 33.4756 12.4484 32.9779 12.169 32.3454C11.9847 31.9283 11.9981 31.4804 12.207 31.0841C12.2262 31.0472 12.247 31.0113 12.2691 30.9766C12.1439 30.7886 12.06 30.5762 12.0227 30.3533C11.9855 30.1306 11.9959 29.9024 12.0531 29.6839C12.1361 29.3686 12.3075 29.1063 12.5402 28.9179C12.4281 28.7337 12.3546 28.5287 12.324 28.3152C12.257 27.8509 12.4111 27.3874 12.7577 27.0094C13.0278 26.7153 13.4094 26.5534 13.8319 26.5534H13.8431C13.5246 25.5323 13.3631 24.4687 13.3641 23.3991C13.3641 17.5652 18.0937 12.8353 23.9285 12.8353C29.7631 12.8353 34.4927 17.5647 34.4927 23.3991C34.4935 24.4716 34.3309 25.5379 34.0103 26.5614C34.0613 26.5564 34.1113 26.5539 34.1604 26.5538C34.5829 26.5538 34.9647 26.7157 35.2344 27.0098C35.581 27.3874 35.7353 27.8513 35.6682 28.3156C35.6377 28.5291 35.5641 28.7341 35.4521 28.9183C35.6848 29.1067 35.8563 29.3689 35.9392 29.6843C35.9964 29.9028 36.0068 30.1309 35.9696 30.3538C35.9324 30.5766 35.8484 30.7889 35.7232 30.9769C35.7453 31.0113 35.7663 31.0472 35.7853 31.0841Z" fill="white"/>
<path d="M35.7232 30.9771C35.8485 30.7891 35.9325 30.5767 35.9697 30.3539C36.0069 30.1311 35.9965 29.9029 35.9392 29.6844C35.8562 29.3691 35.6847 29.1068 35.4521 28.9184C35.5642 28.7342 35.6377 28.5292 35.6682 28.3157C35.7354 27.8514 35.5812 27.3879 35.2345 27.0099C34.9647 26.7158 34.583 26.5539 34.1605 26.5539C34.1114 26.5539 34.0614 26.5566 34.0104 26.5616C34.3306 25.5381 34.493 24.4718 34.4919 23.3994C34.4919 17.5654 29.7623 12.8357 23.9282 12.8357C18.0939 12.8357 13.3638 17.5649 13.3638 23.3994C13.3628 24.4691 13.5243 25.5327 13.8428 26.5538H13.8316C13.4091 26.5538 13.0274 26.7156 12.7576 27.0097C12.4109 27.3873 12.2567 27.8513 12.3238 28.3154C12.3544 28.5289 12.428 28.7341 12.5401 28.9183C12.3073 29.1066 12.1358 29.3688 12.0528 29.6842C11.9956 29.9028 11.9853 30.1309 12.0225 30.3538C12.0598 30.5766 12.1438 30.7891 12.2691 30.9771C12.2468 31.0118 12.2263 31.0477 12.2069 31.0846C11.9982 31.4809 11.9847 31.9288 12.1691 32.3459C12.4486 32.9781 13.1428 33.4761 14.4912 34.0107C15.3296 34.3432 16.0975 34.5558 16.1042 34.5577C17.2132 34.8453 18.2162 34.9914 19.0845 34.9914C20.5103 34.9914 21.574 34.6014 22.2534 33.8309C23.4029 34.0133 24.5744 34.0066 25.7218 33.8112C26.4003 34.5947 27.4702 34.9914 28.9079 34.9914C29.7762 34.9914 30.7792 34.8453 31.8881 34.5577C31.895 34.5558 32.6625 34.3432 33.5012 34.0107C34.8496 33.4761 35.544 32.9781 35.8234 32.3459C36.0076 31.9288 35.9942 31.4809 35.7854 31.0846C35.7664 31.0474 35.7454 31.0114 35.7232 30.9771ZM21.7673 32.6247C21.7088 32.7269 21.6461 32.8268 21.5795 32.9239C21.4039 33.1811 21.1729 33.3776 20.9048 33.5236C20.3922 33.8031 19.7435 33.9007 19.0845 33.9007C18.0434 33.9007 16.9761 33.6571 16.378 33.5019C16.3485 33.4943 12.7112 32.4669 13.1717 31.5924C13.2492 31.4453 13.3767 31.3866 13.5373 31.3866C14.1857 31.3866 15.3663 32.3521 15.8737 32.3521C15.9871 32.3521 16.0671 32.3038 16.0997 32.1861C16.316 31.4106 12.8131 31.0846 13.1081 29.9616C13.1601 29.7628 13.3013 29.6821 13.4998 29.6821C14.3571 29.6819 16.2811 31.1896 16.6835 31.1896C16.7143 31.1896 16.7365 31.1804 16.7485 31.1614C16.7502 31.1586 16.752 31.1558 16.7536 31.1528C16.9425 30.8409 16.8341 30.6142 15.5402 29.8217L15.416 29.7461C13.9921 28.8843 12.9927 28.3657 13.5611 27.7469C13.6264 27.6756 13.7192 27.6439 13.8318 27.6439C13.9653 27.6439 14.1269 27.6886 14.3049 27.7636C15.0569 28.0807 16.0992 28.9456 16.5346 29.3227C16.6031 29.3822 16.6711 29.4423 16.7387 29.5028C16.7387 29.5028 17.29 30.0761 17.6232 30.0761C17.7 30.0761 17.7651 30.0458 17.8092 29.9711C18.0456 29.5726 15.6138 27.7298 15.4767 26.9694C15.3837 26.4543 15.542 26.1933 15.8345 26.1933C15.9736 26.1933 16.1433 26.2526 16.3307 26.3714C16.912 26.7403 18.0342 28.6688 18.4451 29.4191C18.5828 29.6704 18.818 29.7767 19.0299 29.7767C19.4502 29.7767 19.7789 29.3588 19.0684 28.8278C18.0005 28.0288 18.3752 26.7228 18.8849 26.6424C18.9066 26.6389 18.9286 26.6372 18.9505 26.6372C19.414 26.6372 19.6184 27.4358 19.6184 27.4358C19.6184 27.4358 20.2176 28.9406 21.247 29.9692C22.181 30.9028 22.3115 31.6689 21.7673 32.6247ZM25.0959 32.8009L25.0425 32.8073L24.9515 32.8177C24.9037 32.8227 24.8557 32.8274 24.8075 32.8318L24.7607 32.8361L24.7178 32.8397L24.657 32.8446L24.5899 32.8494L24.5229 32.8538L24.508 32.8548C24.4905 32.8558 24.473 32.8569 24.4553 32.8578L24.4329 32.8591C24.4122 32.8602 24.3914 32.8612 24.3704 32.8621L24.2978 32.8652L24.2319 32.8674L24.1879 32.8687H24.1655C24.1518 32.8687 24.1382 32.8694 24.1244 32.8696H24.1027C24.0889 32.8696 24.0753 32.8696 24.0615 32.8702L24.0055 32.8709H23.9274C23.866 32.8709 23.8048 32.8703 23.7438 32.8691L23.6943 32.8679C23.6802 32.8679 23.666 32.8673 23.6522 32.8668L23.5997 32.8653L23.5345 32.8628L23.4758 32.8602L23.4606 32.8596L23.4048 32.8567C23.3891 32.8558 23.3738 32.8551 23.3583 32.8539L23.3221 32.8518C23.2768 32.8489 23.2314 32.8458 23.186 32.8423L23.1385 32.8384C23.1185 32.8369 23.0985 32.8351 23.0786 32.8333C23.0553 32.8313 23.0319 32.8291 23.0085 32.8268C22.9694 32.8232 22.9303 32.8192 22.8911 32.8149H22.8893C23.4605 31.5406 23.1716 30.3503 22.0173 29.1969C21.2601 28.4408 20.7565 27.3243 20.652 27.0792C20.4405 26.3536 19.8807 25.5469 18.9511 25.5469C18.8725 25.5469 18.794 25.5532 18.7164 25.5654C18.3091 25.6296 17.9531 25.8639 17.6991 26.2167C17.4246 25.8753 17.1579 25.6039 16.9166 25.4507C16.5528 25.2201 16.1898 25.1031 15.8362 25.1031C15.3948 25.1031 15.0003 25.2843 14.7253 25.6131L14.7183 25.6214C14.7131 25.5998 14.7081 25.5782 14.7029 25.5564L14.7023 25.5536C14.65 25.3298 14.606 25.1042 14.5706 24.8771C14.5706 24.8756 14.5706 24.8741 14.5698 24.8726C14.5671 24.8554 14.5646 24.8382 14.5619 24.8211C14.5543 24.7703 14.547 24.7194 14.5403 24.6686C14.5373 24.6454 14.5341 24.6223 14.5312 24.5992L14.5227 24.5298C14.5199 24.5067 14.5177 24.4857 14.5152 24.4637L14.5145 24.4582C14.5045 24.3682 14.4957 24.2782 14.4882 24.1879L14.4854 24.1533L14.4811 24.0943C14.4798 24.0782 14.4786 24.0619 14.4777 24.0457C14.4777 24.0418 14.4771 24.0381 14.4769 24.0344C14.4738 23.9892 14.4711 23.9438 14.4688 23.8984C14.4676 23.8748 14.4663 23.8513 14.4653 23.8276L14.4628 23.7656L14.4622 23.7468L14.4602 23.6897L14.4589 23.6411C14.4589 23.6217 14.4579 23.6023 14.4577 23.5829C14.4573 23.5636 14.4568 23.5423 14.4567 23.5218C14.4564 23.5013 14.4567 23.4811 14.4561 23.4607C14.4556 23.4402 14.4561 23.4198 14.4561 23.3994C14.4561 18.1678 18.6975 13.9264 23.9297 13.9264C29.1617 13.9264 33.403 18.1677 33.403 23.3994V23.5218C33.403 23.5422 33.4024 23.5627 33.402 23.5829C33.402 23.5998 33.4012 23.6164 33.4007 23.6336C33.4007 23.6486 33.4001 23.6637 33.3996 23.6782C33.3996 23.6973 33.3985 23.7164 33.3979 23.7356V23.7371L33.3952 23.8034C33.3944 23.8228 33.3936 23.8423 33.3926 23.8617L33.392 23.8754L33.3886 23.9374C33.3812 24.0703 33.3711 24.2029 33.3585 24.3354V24.3371C33.3564 24.3588 33.3542 24.3806 33.3519 24.4023L33.3462 24.4537L33.3351 24.5542L33.3287 24.6051L33.3209 24.6649C33.318 24.6867 33.3151 24.7086 33.3119 24.7302C33.3086 24.7546 33.305 24.7788 33.3014 24.8031L33.2927 24.8604L33.2825 24.9254C33.279 24.9471 33.2752 24.9686 33.2712 24.9901C33.2671 25.0117 33.2638 25.0332 33.2601 25.0547C33.2526 25.0977 33.2447 25.1407 33.2365 25.1836C33.2239 25.2477 33.211 25.3117 33.1977 25.3757L33.184 25.4391C33.1795 25.4602 33.1746 25.4814 33.1698 25.5026C32.9032 25.2434 32.5501 25.1023 32.1607 25.1023C31.8073 25.1023 31.444 25.2192 31.0803 25.4498C30.8391 25.6031 30.5725 25.8746 30.2978 26.2158C30.0435 25.8631 29.6874 25.6287 29.2804 25.5646C29.2028 25.5523 29.1243 25.5461 29.0457 25.5461C28.1158 25.5461 27.5564 26.3527 27.3448 27.0783C27.2398 27.3234 26.736 28.4399 25.9783 29.1972C24.8247 30.3469 24.5337 31.5318 25.0959 32.8009ZM34.8761 30.2498L34.8724 30.2609C34.8629 30.2861 34.8519 30.3106 34.8395 30.3343C34.8301 30.3518 34.82 30.3688 34.809 30.3853C34.7881 30.4164 34.7652 30.4462 34.7404 30.4742C34.7346 30.4807 34.7291 30.4872 34.7226 30.4936C34.7136 30.5032 34.7045 30.5127 34.6951 30.5219C34.5269 30.6887 34.2704 30.8349 33.9804 30.9691C33.9475 30.9839 33.9141 30.9988 33.8805 31.0138L33.847 31.0287C33.8246 31.0386 33.8022 31.0483 33.7787 31.0579C33.7564 31.0677 33.7331 31.0774 33.7099 31.0869L33.6401 31.1157C33.477 31.1828 33.3099 31.2468 33.1469 31.3099L33.0771 31.3371L33.0082 31.3641C32.9623 31.3819 32.9171 31.3998 32.8726 31.4177L32.8062 31.4444L32.741 31.4711L32.709 31.4846C32.6876 31.4934 32.6667 31.5023 32.6458 31.5112C32.1662 31.7171 31.8211 31.9264 31.8936 32.1862C31.8956 32.1936 31.8978 32.2006 31.9003 32.2074C31.9068 32.2267 31.9157 32.2448 31.9268 32.2619C31.9333 32.2721 31.9408 32.2817 31.9492 32.2904C32.0345 32.3791 32.1896 32.3651 32.3852 32.2947C32.4127 32.2846 32.4401 32.2741 32.4672 32.2631L32.4842 32.2561C32.529 32.2371 32.5763 32.2158 32.6247 32.1928C32.6368 32.1871 32.6491 32.1816 32.6613 32.1752C32.9006 32.0582 33.1717 31.9007 33.4407 31.7573C33.5484 31.6992 33.6575 31.6441 33.768 31.5917C34.0227 31.4718 34.2622 31.3868 34.4547 31.3868C34.5451 31.3868 34.6249 31.4053 34.6914 31.4478L34.7025 31.4552C34.7442 31.4846 34.7792 31.5223 34.8054 31.5661C34.8105 31.5744 34.8155 31.5833 34.8204 31.5924C34.9155 31.7731 34.8359 31.9601 34.6495 32.1434C34.4706 32.3196 34.1924 32.4922 33.8761 32.6519C33.8526 32.6638 33.8291 32.6757 33.8052 32.6873C32.864 33.1496 31.6313 33.4977 31.6142 33.5021C31.2857 33.5872 30.816 33.6989 30.2867 33.7826L30.2085 33.7948L30.1956 33.7967C30.1363 33.8057 30.077 33.8141 30.0175 33.8218C29.9571 33.8299 29.8961 33.8373 29.8347 33.8442L29.8234 33.8454C29.6009 33.8711 29.3776 33.8881 29.1537 33.8962H29.1504C29.0694 33.8991 28.9886 33.9006 28.9076 33.9006H28.8142C28.6907 33.8989 28.5674 33.8933 28.4443 33.8838C28.4414 33.8838 28.4383 33.8838 28.4354 33.8831C28.3913 33.8797 28.3473 33.8756 28.3033 33.8707C28.2577 33.8658 28.2122 33.8603 28.1668 33.8542C28.1369 33.8502 28.1072 33.8457 28.0774 33.8408C28.0472 33.8359 28.0169 33.8309 27.9868 33.8257L27.9457 33.8179L27.9426 33.8173C27.8992 33.8091 27.8561 33.7999 27.8131 33.7899C27.7881 33.7843 27.7632 33.7788 27.7386 33.7721L27.7237 33.7683C27.7114 33.7653 27.6996 33.7621 27.6874 33.7588L27.6808 33.7571L27.6423 33.7458C27.6283 33.7419 27.6143 33.7377 27.6003 33.7336L27.5954 33.7322L27.5591 33.7211C27.5453 33.7168 27.5316 33.7123 27.5179 33.7078L27.4844 33.6967L27.4598 33.6881C27.4361 33.6797 27.4124 33.6711 27.3891 33.6621L27.3668 33.6533L27.3484 33.6461C27.3129 33.6318 27.2777 33.6169 27.2428 33.6013L27.2197 33.5901L27.2158 33.5883C27.2076 33.5844 27.1994 33.5806 27.1912 33.5772C27.1751 33.5694 27.1591 33.5614 27.1432 33.5533L27.1383 33.5509L27.1153 33.5388C27.0744 33.5174 27.0344 33.4947 26.9952 33.4706L26.9737 33.4573C26.9629 33.4507 26.9522 33.4438 26.9417 33.4368L26.9137 33.4183L26.8836 33.3976L26.8656 33.3847C26.8466 33.3712 26.8279 33.3572 26.8097 33.3428L26.7806 33.3204C26.7689 33.3111 26.7574 33.3016 26.746 33.2919C26.7364 33.2841 26.7271 33.2758 26.7177 33.2676L26.7169 33.2669C26.7068 33.2581 26.6969 33.2492 26.687 33.2401C26.6773 33.2312 26.6676 33.2222 26.658 33.2131L26.6569 33.2119C26.6469 33.2024 26.6372 33.1928 26.6275 33.1829C26.6179 33.1732 26.608 33.1634 26.5987 33.1534C26.5893 33.1436 26.5797 33.1334 26.5704 33.1231C26.5612 33.1128 26.5527 33.1034 26.5439 33.0933L26.541 33.0899C26.5325 33.0802 26.5242 33.0703 26.5159 33.0602C26.498 33.0388 26.4807 33.0169 26.4639 32.9946C26.447 32.9721 26.4305 32.9491 26.4144 32.9257L26.399 32.9027C26.3785 32.8727 26.3585 32.8424 26.3392 32.8117C26.3247 32.7896 26.3105 32.7673 26.2968 32.7447C26.2879 32.7306 26.2794 32.7163 26.2709 32.7023L26.2674 32.6966C26.2593 32.6828 26.2513 32.6693 26.2435 32.6557C26.239 32.6483 26.2348 32.6409 26.2308 32.6333C26.2267 32.6256 26.2219 32.6177 26.2175 32.6098L26.2104 32.5974L26.206 32.5894C26.1977 32.5744 26.1894 32.5593 26.1814 32.5441C26.1777 32.5373 26.174 32.5306 26.1702 32.5241L26.159 32.5024L26.1478 32.4811C26.1197 32.4248 26.093 32.3678 26.068 32.3101L26.0592 32.2889C26.0534 32.2748 26.048 32.2608 26.0423 32.2469C26.0395 32.2402 26.0368 32.2336 26.0344 32.2268C26.021 32.1922 26.0085 32.1572 25.997 32.1219C25.9929 32.1093 25.9889 32.0969 25.9852 32.0844C25.9762 32.0561 25.968 32.0274 25.9608 31.9986C25.9519 31.9649 25.944 31.9311 25.9374 31.8969C25.936 31.8901 25.9347 31.8832 25.9335 31.8766C25.927 31.8432 25.9218 31.8096 25.9177 31.7758C25.9167 31.7692 25.9159 31.7626 25.9152 31.7559L25.913 31.7357C25.9103 31.7092 25.9082 31.6826 25.9069 31.6559C25.9069 31.6492 25.9063 31.6424 25.906 31.6359C25.9054 31.6227 25.9052 31.6094 25.905 31.5962C25.898 31.0621 26.1683 30.5486 26.7462 29.9709C27.7756 28.9426 28.3748 27.4377 28.3748 27.4377C28.3748 27.4377 28.3909 27.3746 28.4244 27.2837C28.4291 27.2711 28.4339 27.2581 28.4394 27.2444C28.4589 27.1936 28.4809 27.1436 28.5053 27.0948L28.5102 27.0854C28.5309 27.0439 28.5537 27.0034 28.5782 26.9641C28.5839 26.9549 28.5894 26.9459 28.5958 26.9368C28.6142 26.9097 28.6336 26.8832 28.6539 26.8576C28.6651 26.8437 28.6772 26.8299 28.6893 26.8166C28.6942 26.8113 28.6989 26.8061 28.7041 26.8011C28.7637 26.7394 28.8318 26.6892 28.9089 26.6624L28.9187 26.6592C28.9252 26.6571 28.9317 26.6551 28.9383 26.6532C28.9459 26.6512 28.9536 26.6494 28.9614 26.6478L28.9651 26.6471C28.9813 26.6438 28.9978 26.6417 29.0144 26.6406H29.0158C29.0244 26.6406 29.0332 26.6397 29.0421 26.6397C29.0532 26.6397 29.0636 26.6397 29.0744 26.6408C29.0857 26.6418 29.0968 26.6431 29.1081 26.6448C29.2008 26.6596 29.2891 26.7148 29.3651 26.8001C29.3939 26.8326 29.4199 26.8676 29.4427 26.9046C29.4577 26.9286 29.4718 26.9539 29.4852 26.9807C29.4906 26.9918 29.4957 27.0021 29.5007 27.0131C29.5137 27.0413 29.5254 27.0701 29.5357 27.0994C29.5601 27.1682 29.5784 27.2389 29.5906 27.3109C29.6011 27.3741 29.6073 27.4378 29.6093 27.5017C29.6103 27.5358 29.6103 27.5704 29.6093 27.6053C29.6026 27.7676 29.5693 27.9277 29.5109 28.0793C29.5057 28.0932 29.4998 28.1072 29.4942 28.1212C29.4827 28.1494 29.4701 28.1772 29.4564 28.2043C29.4463 28.2249 29.4357 28.2457 29.4242 28.2663C29.4167 28.2801 29.4088 28.2938 29.4009 28.3076C29.3808 28.3418 29.3591 28.3758 29.3357 28.4097L29.3216 28.4299C29.2663 28.5069 29.2048 28.5792 29.1376 28.6459C29.0713 28.7123 29.0003 28.7737 28.9252 28.8297C28.8499 28.8854 28.7793 28.9472 28.7141 29.0143C28.5262 29.2114 28.4824 29.3854 28.5247 29.5173C28.5314 29.5381 28.5403 29.5582 28.5511 29.5772C28.5637 29.5989 28.5787 29.6189 28.5957 29.6372L28.6023 29.6441L28.6091 29.6508C28.6158 29.6573 28.6229 29.6637 28.6306 29.6699L28.6381 29.6759C28.6562 29.6899 28.6754 29.7024 28.6956 29.7134C28.7014 29.7166 28.7067 29.7197 28.7133 29.7227C28.7351 29.7333 28.7574 29.7424 28.7804 29.7498C28.7868 29.7519 28.7932 29.7538 28.7997 29.7558L28.8078 29.7579L28.8191 29.7609L28.8287 29.7633L28.8392 29.7656L28.8496 29.7677L28.8594 29.7693C28.8667 29.7706 28.8742 29.7718 28.8817 29.7727L28.8888 29.7738L28.9018 29.7751L28.9098 29.7759L28.9229 29.7768H28.9307L28.9444 29.7776H28.9877L29.0001 29.7768L29.0143 29.7759L29.0317 29.7743L29.0479 29.7724C29.0517 29.7724 29.0554 29.7714 29.0592 29.7707C29.1092 29.7634 29.1582 29.7502 29.2051 29.7312L29.2249 29.7228C29.2361 29.7179 29.2473 29.7128 29.2576 29.7073C29.2796 29.6963 29.3009 29.6838 29.3214 29.6702C29.3501 29.6514 29.3771 29.6304 29.4023 29.6073C29.4083 29.6019 29.4142 29.5962 29.4199 29.5907C29.4228 29.5879 29.4256 29.5853 29.4283 29.5823C29.4338 29.5767 29.4394 29.5712 29.4449 29.5651C29.4849 29.5211 29.5196 29.4726 29.5481 29.4204C29.7927 28.9756 30.0491 28.5373 30.317 28.1062L30.3537 28.0473L30.3908 27.9884C30.4093 27.9586 30.4281 27.9292 30.4467 27.8999L30.4655 27.8707C30.5277 27.7732 30.591 27.6763 30.6553 27.5802L30.6935 27.5232C30.77 27.4098 30.8462 27.2996 30.9218 27.1948L30.9595 27.1429C31.0417 27.0296 31.1273 26.9186 31.2162 26.8103L31.2515 26.7681C31.2573 26.7611 31.2627 26.7541 31.2691 26.7473C31.2807 26.7336 31.2923 26.7202 31.3037 26.7072C31.3095 26.7006 31.3148 26.6941 31.321 26.6876L31.3545 26.6498L31.3712 26.6314C31.3881 26.6133 31.4046 26.5959 31.4208 26.5793C31.4321 26.5681 31.4425 26.5569 31.4532 26.5464C31.5166 26.4817 31.5865 26.4236 31.6618 26.3732L31.6793 26.3619C31.6961 26.3507 31.7135 26.3402 31.7312 26.3307C32.0267 26.1629 32.2713 26.1506 32.4122 26.2914C32.4975 26.3767 32.5447 26.5181 32.5421 26.7148C32.5421 26.7234 32.5421 26.7322 32.5415 26.7412V26.7508C32.5415 26.7598 32.5407 26.7688 32.54 26.7779C32.54 26.7892 32.5387 26.8003 32.5376 26.8116C32.5365 26.8227 32.5358 26.8312 32.5347 26.8412C32.5347 26.8439 32.5342 26.8468 32.5337 26.8498C32.533 26.8584 32.5318 26.8673 32.5306 26.8762C32.5306 26.8788 32.5306 26.8816 32.5296 26.8843C32.5282 26.8962 32.5265 26.9079 32.5245 26.9197C32.5231 26.9309 32.5212 26.9414 32.5192 26.9524L32.516 26.9711C32.5127 26.9888 32.5086 27.0063 32.5035 27.0236C32.4937 27.0559 32.482 27.0876 32.4681 27.1183C32.4487 27.1606 32.4273 27.2017 32.4038 27.2417C32.3908 27.2639 32.3775 27.2858 32.3636 27.3074C32.3493 27.3298 32.3343 27.3524 32.3188 27.3753C32.2793 27.4318 32.2383 27.4872 32.1957 27.5413L32.1762 27.5659C32.1067 27.6526 32.035 27.7374 31.961 27.8203L31.9376 27.8466C31.9061 27.8817 31.8741 27.9171 31.8413 27.9526L31.8167 27.9793C31.8003 27.9972 31.7832 28.0151 31.7667 28.0331C31.7503 28.0509 31.7332 28.0691 31.716 28.0872L31.6646 28.1413L31.6125 28.1958L31.56 28.2503C31.5247 28.2868 31.4893 28.3233 31.4537 28.3598C30.9468 28.8797 30.4128 29.3978 30.2321 29.7208C30.22 29.7418 30.2091 29.7636 30.1993 29.7857C30.1736 29.8444 30.1628 29.8947 30.1702 29.9353C30.1726 29.9487 30.1772 29.9614 30.1841 29.9732C30.1942 29.9908 30.2066 30.0071 30.221 30.0216C30.2276 30.0281 30.2346 30.0341 30.242 30.0396C30.2792 30.0661 30.3241 30.0797 30.3698 30.0784H30.3841L30.3987 30.0773L30.4133 30.0757L30.4255 30.0739C30.4271 30.0737 30.4288 30.0734 30.4305 30.0729L30.4416 30.0708L30.4445 30.0702L30.4568 30.0676L30.4612 30.0664C30.4656 30.0653 30.4698 30.0642 30.4742 30.0629C30.4786 30.0617 30.4846 30.0601 30.4898 30.0583C30.5118 30.0517 30.5333 30.0438 30.5545 30.0348C30.5656 30.0303 30.5765 30.0254 30.5872 30.0202C30.5928 30.0177 30.5985 30.0151 30.6037 30.0123L30.6205 30.0041C30.6605 29.9833 30.6995 29.9607 30.7375 29.9364L30.7541 29.9252C30.7597 29.9217 30.7653 29.9181 30.7707 29.9141L30.7873 29.9029L30.7962 29.8968L30.8202 29.8799C30.8426 29.8646 30.8635 29.8487 30.8846 29.8326L30.8865 29.8311L30.9201 29.8051C30.966 29.7688 31.0095 29.7323 31.049 29.6979L31.0752 29.6749L31.0776 29.6727L31.0913 29.6606C31.1236 29.6316 31.1523 29.6046 31.1762 29.5823L31.1861 29.5727C31.1947 29.5646 31.2026 29.5569 31.2097 29.5504L31.2237 29.5366L31.2287 29.5317L31.2301 29.5303L31.2447 29.5157L31.254 29.5061L31.2551 29.5052L31.2595 29.5012L31.265 29.4962L31.2667 29.4946L31.2713 29.4903L31.2968 29.4679L31.3111 29.4552C31.3187 29.4486 31.3261 29.4418 31.3335 29.4349L31.3505 29.4198C31.3536 29.4173 31.3566 29.4146 31.3597 29.4118L31.3776 29.3962L31.4038 29.3731L31.4178 29.3609C31.4722 29.3137 31.5383 29.2566 31.6143 29.1922L31.6455 29.1658L31.6968 29.1227L31.7495 29.0788C31.8182 29.0217 31.8922 28.9611 31.9705 28.8982L32.0218 28.8569C32.0656 28.8221 32.1105 28.7866 32.156 28.7508C32.1743 28.7364 32.193 28.7221 32.212 28.7078C32.2585 28.6717 32.3052 28.6358 32.3523 28.6004C32.4596 28.5194 32.5702 28.4383 32.6822 28.3593L32.7302 28.3258C32.7638 28.3027 32.7973 28.2794 32.8308 28.2568L32.8612 28.2363C32.9211 28.1957 32.9818 28.1561 33.0431 28.1174L33.0735 28.0983L33.1036 28.0796C33.1339 28.0608 33.1639 28.0424 33.1937 28.0246L33.2236 28.0067L33.2833 27.9719L33.342 27.9383L33.3539 27.9318L33.4002 27.9063C33.4196 27.8958 33.4389 27.8857 33.4581 27.8758L33.4867 27.8611L33.5146 27.8471C33.5244 27.8424 33.534 27.8376 33.5435 27.8329C33.6062 27.8019 33.6702 27.7734 33.7352 27.7474C33.7529 27.7399 33.7704 27.7332 33.7877 27.7273L33.839 27.7093C33.8544 27.7042 33.8694 27.6993 33.8837 27.6949L33.8887 27.6934C33.8965 27.6909 33.9042 27.6887 33.9119 27.6867L33.9141 27.6861C33.9301 27.6814 33.946 27.6774 33.9616 27.6737H33.9627C34.007 27.6631 34.052 27.6554 34.0974 27.6508C34.1182 27.6487 34.1391 27.6476 34.1601 27.6477H34.1706C34.1846 27.6477 34.1981 27.6486 34.2115 27.6499C34.2176 27.6499 34.2237 27.6512 34.2297 27.6519H34.2322C34.2382 27.6527 34.2442 27.6536 34.2502 27.6549C34.2561 27.6561 34.2621 27.6571 34.2679 27.6584H34.2697C34.2756 27.6597 34.2809 27.6612 34.287 27.6629C34.3187 27.6718 34.349 27.6856 34.3767 27.7036C34.3904 27.7124 34.4031 27.7224 34.4149 27.7336L34.4182 27.7368C34.4205 27.7388 34.4226 27.7409 34.4246 27.7431L34.4307 27.7497C34.481 27.8023 34.5225 27.8627 34.5537 27.9284L34.5585 27.9397C34.5691 27.9647 34.5775 27.9906 34.5835 28.0169C34.6012 28.0977 34.5944 28.1819 34.5637 28.2588C34.5521 28.2898 34.538 28.3197 34.5214 28.3482C34.4825 28.4137 34.4364 28.4746 34.384 28.5297L34.3729 28.5416C34.3562 28.5591 34.339 28.5766 34.3209 28.5941C34.3129 28.6019 34.3045 28.6097 34.2961 28.6176L34.2705 28.6412L34.2571 28.6531C34.2249 28.6818 34.1917 28.7097 34.1581 28.7367C34.1377 28.7532 34.1172 28.7693 34.0965 28.7852C34.0232 28.8412 33.9486 28.8952 33.8726 28.9473C33.8267 28.9788 33.7805 29.0097 33.7339 29.0402C33.619 29.1156 33.5029 29.1891 33.3856 29.2606C33.1396 29.4118 32.867 29.5736 32.5763 29.7494L32.5011 29.7951C32.4187 29.8453 32.341 29.8933 32.2677 29.9391L32.2308 29.9622L32.1611 30.0069C32.1148 30.0366 32.0687 30.0664 32.0226 30.0963L31.9855 30.1208C31.9673 30.1326 31.9493 30.1446 31.9313 30.1566L31.9137 30.1678L31.8597 30.2042L31.8311 30.2238L31.7976 30.2471L31.7665 30.2687C31.7143 30.3056 31.6658 30.3407 31.6212 30.3741L31.6045 30.3868C31.5782 30.4067 31.5522 30.4269 31.5266 30.4476C31.488 30.4787 31.4527 30.5084 31.4211 30.5371L31.4056 30.5512C31.3967 30.5593 31.388 30.5674 31.3796 30.5754C31.3738 30.5811 31.3685 30.5867 31.3625 30.5921L31.3545 30.6001C31.3366 30.6181 31.3191 30.6364 31.3022 30.6553L31.294 30.6648C31.2756 30.6861 31.2596 30.7064 31.2456 30.7263L31.2393 30.7352C31.2283 30.7512 31.2182 30.7677 31.2091 30.7847C31.2067 30.7889 31.2046 30.7932 31.2025 30.7974L31.1963 30.8102L31.1922 30.8194L31.1896 30.8257L31.1875 30.8313L31.1846 30.8389C31.1768 30.8601 31.1715 30.8821 31.1683 30.9043L31.1673 30.9121L31.1666 30.9193V30.9587C31.1666 30.9619 31.1666 30.9652 31.1675 30.9687L31.1681 30.9747C31.1681 30.9779 31.1688 30.9811 31.1693 30.9846C31.1698 30.9878 31.1707 30.9937 31.1717 30.9983V30.9989C31.1726 31.0033 31.1735 31.0076 31.1746 31.0119C31.1757 31.0163 31.1768 31.0213 31.1782 31.0258C31.1806 31.0347 31.1836 31.0434 31.1867 31.0522C31.1887 31.0574 31.1906 31.0626 31.1927 31.0677C31.1927 31.0687 31.1935 31.0698 31.194 31.0708L31.1985 31.0809L31.2047 31.0948C31.2115 31.1092 31.2188 31.1232 31.2268 31.1368L31.2351 31.1511L31.2436 31.1653C31.2451 31.1677 31.2468 31.1699 31.2487 31.1721L31.2515 31.1749L31.2546 31.1778L31.2578 31.1803C31.2626 31.1837 31.2677 31.1863 31.2731 31.1882C31.276 31.1892 31.279 31.1899 31.282 31.1907C31.3541 31.2069 31.5023 31.1473 31.6993 31.0433C31.7105 31.0373 31.7227 31.0311 31.7346 31.0246L31.7946 30.9918L31.8238 30.9756C31.8447 30.9644 31.866 30.9518 31.8877 30.9394L31.9273 30.9171C32.1877 30.7672 32.4987 30.5747 32.8202 30.3867C32.8503 30.3691 32.8806 30.3514 32.9108 30.3341L32.9716 30.2952C33.0421 30.2548 33.113 30.2149 33.1841 30.1756C33.2737 30.1263 33.364 30.0783 33.4551 30.0318L33.5146 30.0017C33.5541 29.9822 33.5932 29.9632 33.6319 29.9447C33.7066 29.9092 33.7822 29.8754 33.8587 29.8436L33.9006 29.8266L33.9056 29.8246C34.1275 29.7367 34.3286 29.6824 34.4914 29.6824C34.5265 29.6821 34.5617 29.6851 34.5964 29.6911H34.5975C34.6086 29.6931 34.6187 29.6953 34.6291 29.6978H34.631C34.6576 29.7046 34.6835 29.7142 34.708 29.7266C34.7424 29.7443 34.7732 29.7679 34.7994 29.7964C34.8114 29.8097 34.822 29.8241 34.8314 29.8393C34.8489 29.8662 34.8626 29.8953 34.8725 29.9258C34.8765 29.9377 34.88 29.9493 34.8836 29.9617C34.91 30.0563 34.9074 30.1567 34.8761 30.2498Z" fill="#FF9D00"/>
<path fill-rule="evenodd" clip-rule="evenodd" d="M33.4014 23.4605V23.3991C33.4014 18.1674 29.1616 13.9263 23.9294 13.9263C18.6974 13.9263 14.456 18.1676 14.456 23.3991V23.4196C14.4557 23.4333 14.4556 23.4469 14.456 23.4605C14.4566 23.4809 14.4568 23.5013 14.4566 23.5216L14.4573 23.5666L14.4576 23.5828C14.4576 23.5903 14.4579 23.5976 14.4581 23.6051C14.4585 23.617 14.4587 23.629 14.4587 23.6409L14.4601 23.6895L14.4621 23.7466L14.4627 23.7654L14.4652 23.8245V23.8274C14.4662 23.8505 14.4675 23.8735 14.4686 23.8965L14.4687 23.8983C14.47 23.9218 14.4713 23.9454 14.4728 23.969C14.474 23.9908 14.4752 24.0125 14.4769 24.0343L14.4771 24.0381C14.4782 24.0568 14.4795 24.0755 14.4809 24.0941L14.4812 24.0991L14.4854 24.1531L14.4858 24.1566C14.4865 24.1671 14.4872 24.1776 14.4882 24.1878C14.4957 24.2779 14.5044 24.368 14.5144 24.4579L14.515 24.4635L14.5226 24.5296L14.5311 24.599L14.5374 24.6461L14.5402 24.6683C14.5469 24.7193 14.5541 24.7701 14.5619 24.8209L14.5624 24.8243L14.5697 24.8723C14.6054 25.1009 14.6496 25.3281 14.7022 25.5535L14.7029 25.5563L14.7069 25.5731L14.7182 25.6213L14.7252 25.6129C15.0002 25.2841 15.3947 25.1029 15.8361 25.1029C16.1899 25.1029 16.5528 25.2199 16.9165 25.4505C17.1578 25.6038 17.4245 25.8751 17.699 26.2165C17.953 25.8638 18.309 25.6293 18.7163 25.5653C18.7939 25.553 18.8724 25.5469 18.951 25.5468C19.8805 25.5468 20.4404 26.3534 20.6519 27.079C20.7564 27.3241 21.26 28.4406 22.0195 29.1959C23.1741 30.3493 23.4629 31.5394 22.8916 32.8138H22.8936C22.9324 32.8181 22.9716 32.8221 23.0109 32.8258C23.0343 32.828 23.0576 32.8303 23.0811 32.8323L23.0893 32.833L23.1409 32.8374L23.1884 32.8411C23.2337 32.8446 23.2791 32.8479 23.3246 32.8508L23.3607 32.8529L23.3893 32.8546L23.4071 32.8556L23.4629 32.8585L23.4782 32.8591L23.5368 32.8618L23.6021 32.8643L23.6544 32.8658L23.6632 32.866C23.6743 32.8665 23.6854 32.8669 23.6966 32.8669L23.7086 32.8673C23.7823 32.869 23.8559 32.8699 23.9297 32.8698H24.0079L24.0638 32.8691C24.0776 32.8685 24.0912 32.8685 24.1051 32.8685H24.1268L24.1457 32.868C24.1531 32.8678 24.1604 32.8675 24.1679 32.8675H24.1903L24.2342 32.8664L24.3002 32.8641L24.3728 32.8609C24.3938 32.8601 24.4146 32.859 24.4353 32.858L24.4577 32.8566L24.4909 32.8549L24.5104 32.8538L24.5252 32.8528L24.5923 32.8484L24.6593 32.8435L24.7202 32.8386L24.7629 32.835L24.8099 32.8308C24.8884 32.8238 24.9667 32.8155 25.0449 32.8061L25.0983 32.7998C24.5359 31.5308 24.8271 30.3458 25.9767 29.197C26.7346 28.4398 27.2382 27.3233 27.3432 27.078C27.5548 26.3525 28.1143 25.5459 29.0441 25.5459C29.1227 25.5459 29.2014 25.5521 29.279 25.5644C29.6859 25.6284 30.0419 25.8629 30.2962 26.2156C30.5709 25.8744 30.8375 25.6028 31.0789 25.4495C31.4425 25.219 31.8057 25.102 32.1591 25.102C32.5486 25.102 32.9016 25.2433 33.1683 25.5024C33.1731 25.4813 33.1779 25.4601 33.1825 25.4389L33.1961 25.3756C33.201 25.3525 33.2059 25.3294 33.2105 25.3063C33.2188 25.2654 33.227 25.2245 33.2349 25.1833C33.2431 25.1405 33.251 25.0975 33.2585 25.0545L33.2624 25.0313C33.2648 25.0175 33.267 25.0038 33.2696 24.9899C33.2739 24.9684 33.2774 24.9469 33.2809 24.9251L33.2823 24.9169L33.2911 24.8603L33.2999 24.8029V24.8024C33.3063 24.76 33.3123 24.7176 33.3179 24.6753L33.3193 24.6648L33.3271 24.605L33.3335 24.554L33.3448 24.4535L33.3491 24.4131L33.3503 24.4021C33.3526 24.3804 33.3549 24.3586 33.3569 24.3369V24.3351C33.3585 24.3179 33.3603 24.3005 33.3618 24.2831C33.3706 24.1846 33.3781 24.0856 33.3841 23.9863C33.3853 23.97 33.3861 23.9536 33.3871 23.9373V23.9365L33.3904 23.8751L33.3911 23.8614C33.3931 23.8199 33.3949 23.7784 33.3963 23.7369V23.7354L33.3969 23.7191C33.3975 23.7055 33.398 23.6918 33.398 23.678L33.3983 23.6725C33.3988 23.6596 33.3993 23.6464 33.3993 23.6333L33.3996 23.622C33.4 23.6089 33.4004 23.5959 33.4004 23.5828L33.4006 23.5716C33.401 23.555 33.4014 23.5383 33.4014 23.5216V23.4605ZM21.5798 32.9238C22.3301 31.8236 22.2768 30.9979 21.2475 29.9691C20.218 28.9403 19.6189 27.4358 19.6189 27.4358C19.6189 27.4358 19.3953 26.5619 18.8853 26.6421C18.3753 26.7224 18.0012 28.0283 19.069 28.8276C20.1368 29.627 18.8565 30.169 18.4455 29.4189C18.0345 28.6686 16.9124 26.7403 16.3306 26.3714C15.7489 26.0025 15.3397 26.2093 15.4769 26.9695C15.545 27.3469 16.1785 27.991 16.7704 28.5928C17.3709 29.2033 17.9285 29.7703 17.8093 29.9709C17.5726 30.3693 16.7393 29.5028 16.7393 29.5028C16.7393 29.5028 14.1297 27.128 13.5617 27.7469C13.038 28.3173 13.8456 28.8021 15.0901 29.5495C15.1959 29.613 15.3049 29.6785 15.4165 29.746C16.8404 30.608 16.9511 30.8354 16.749 31.1615C16.6744 31.282 16.1978 30.9959 15.6115 30.644C14.6121 30.0439 13.2944 29.2528 13.1082 29.9609C12.9472 30.5738 13.9167 30.9493 14.796 31.2899C15.5285 31.5736 16.1985 31.8331 16.0999 32.1854C15.9978 32.5506 15.4441 32.246 14.839 31.913C14.1596 31.5391 13.4152 31.1296 13.1716 31.5918C12.7112 32.4655 16.3479 33.4941 16.3779 33.5018C17.5529 33.8065 20.5369 34.4523 21.5798 32.9238ZM26.413 32.9238C25.6627 31.8236 25.716 30.9979 26.7453 29.9691C27.7747 28.9403 28.3738 27.4358 28.3738 27.4358C28.3738 27.4358 28.5975 26.5619 29.1075 26.6421C29.6175 26.7224 29.9916 28.0283 28.9239 28.8276C27.856 29.627 29.1362 30.169 29.5472 29.4189C29.9584 28.6686 31.0797 26.7403 31.6615 26.3714C32.2433 26.0025 32.6526 26.2093 32.5154 26.9695C32.4474 27.3469 31.8137 27.991 31.2219 28.5929C30.6214 29.2034 30.0637 29.7703 30.1829 29.9709C30.4195 30.3693 31.2535 29.5023 31.2535 29.5023C31.2535 29.5023 33.8629 27.1276 34.4311 27.7465C34.9548 28.3168 34.1471 28.8018 32.9025 29.5491C32.7936 29.6145 32.6849 29.68 32.5763 29.7456C31.1524 30.6076 31.0416 30.835 31.2436 31.161C31.3184 31.2816 31.795 30.9954 32.3811 30.6435C33.3806 30.0435 34.6984 29.2523 34.8845 29.9605C35.0456 30.5734 34.076 30.9489 33.1968 31.2895C32.4643 31.5733 31.7943 31.8328 31.8927 32.185C31.9948 32.5501 32.5483 32.2455 33.1533 31.9125C33.8326 31.5386 34.5771 31.1289 34.8206 31.5914C35.2812 32.4656 31.6439 33.4933 31.6145 33.5008C30.4395 33.8065 27.4555 34.4523 26.413 32.9238Z" fill="#FFD21E"/>
<path fill-rule="evenodd" clip-rule="evenodd" d="M27.0061 20.8208C27.1538 20.8731 27.2637 21.0321 27.3682 21.1834C27.5094 21.3879 27.6409 21.5783 27.8427 21.4711C28.0807 21.3444 28.2758 21.1502 28.4033 20.9127C28.5309 20.6752 28.5853 20.4053 28.5596 20.1369C28.5403 19.9363 28.4768 19.7424 28.3736 19.5693C28.2703 19.3962 28.1299 19.2481 27.9627 19.1357C27.7953 19.0234 27.6051 18.9495 27.4058 18.9196C27.2064 18.8896 27.0029 18.9042 26.8099 18.9623C26.6169 19.0204 26.4393 19.1206 26.2897 19.2556C26.1401 19.3907 26.0222 19.5572 25.9447 19.7432C25.8672 19.9292 25.8318 20.1301 25.8412 20.3314C25.8507 20.5328 25.9046 20.7294 25.9992 20.9074C26.0927 21.0833 26.3002 21.0003 26.5192 20.9127C26.6908 20.8441 26.8697 20.7726 27.0061 20.8208ZM20.5841 20.8208C20.4364 20.8731 20.3265 21.0322 20.222 21.1834C20.0808 21.3881 19.9491 21.5783 19.7475 21.4711C19.4482 21.3126 19.2186 21.0482 19.1036 20.7297C18.9886 20.4111 18.9963 20.0611 19.1252 19.748C19.2542 19.4348 19.4951 19.1808 19.8011 19.0356C20.1071 18.8904 20.4562 18.8644 20.7804 18.9626C21.0385 19.0403 21.2678 19.1928 21.4393 19.4008C21.6108 19.6087 21.7166 19.8629 21.7438 20.1311C21.7708 20.3993 21.7176 20.6694 21.5911 20.9074C21.4975 21.0833 21.29 21.0003 21.071 20.9128C20.8993 20.8441 20.7206 20.7726 20.5841 20.8208ZM26.0126 26.6647C27.0304 25.8628 27.4043 24.5536 27.4043 23.7471C27.4043 23.1096 26.9754 23.3102 26.2888 23.6502L26.2501 23.6693C25.6198 23.9814 24.7808 24.3971 23.8598 24.3971C22.9387 24.3971 22.0996 23.9814 21.4695 23.6692C20.7606 23.3181 20.316 23.0978 20.316 23.7472C20.316 24.5792 20.7138 25.9453 21.8055 26.7389C21.9496 26.4466 22.1525 26.1871 22.4015 25.9766C22.6504 25.7661 22.9402 25.6092 23.2524 25.5157C23.3614 25.4832 23.4737 25.6708 23.5885 25.8629C23.6994 26.0482 23.8128 26.2377 23.928 26.2377C24.0509 26.2377 24.1715 26.0509 24.2894 25.8687C24.4125 25.6781 24.5327 25.4924 24.6488 25.5296C25.2332 25.7172 25.722 26.1241 26.0126 26.6647Z" fill="#32343D"/>
<path d="M26.0123 26.6647C25.4822 27.0824 24.7776 27.3625 23.8599 27.3625C22.9978 27.3625 22.3235 27.1153 21.8055 26.7389C21.9497 26.4465 22.1525 26.1869 22.4015 25.9765C22.6504 25.766 22.9402 25.6092 23.2524 25.5157C23.4664 25.4518 23.6933 26.2377 23.9281 26.2377C24.1793 26.2377 24.4214 25.4569 24.6488 25.5295C25.2331 25.7173 25.7218 26.1242 26.0123 26.6647Z" fill="#FF323D"/>
<path fill-rule="evenodd" clip-rule="evenodd" d="M18.1501 21.9549C18.029 22.0359 17.8898 22.0858 17.7448 22.1C17.5998 22.1144 17.4535 22.0926 17.3189 22.0368C17.2113 21.9924 17.1135 21.9271 17.0312 21.8448C16.9489 21.7625 16.8837 21.6648 16.8392 21.5571C16.7835 21.4225 16.7618 21.2763 16.7761 21.1313C16.7905 20.9863 16.8404 20.847 16.9214 20.7259C17.0187 20.5801 17.1571 20.4666 17.319 20.3995C17.481 20.3324 17.6591 20.3149 17.831 20.3491C18.0029 20.3833 18.1608 20.4677 18.2847 20.5916C18.4086 20.7156 18.4929 20.8736 18.527 21.0455C18.5612 21.2174 18.5436 21.3955 18.4765 21.5574C18.4095 21.7193 18.2958 21.8575 18.1501 21.9549ZM30.8269 21.9549C30.7057 22.0359 30.5665 22.0858 30.4215 22.1C30.2763 22.1144 30.1301 22.0926 29.9955 22.0368C29.8878 21.9923 29.7901 21.9271 29.7078 21.8448C29.6256 21.7625 29.5603 21.6648 29.5158 21.5571C29.4602 21.4225 29.4386 21.2763 29.4528 21.1313C29.4672 20.9863 29.5171 20.847 29.598 20.7259C29.6707 20.6169 29.7668 20.5255 29.8792 20.4581C29.9916 20.3908 30.1175 20.3492 30.2478 20.3364C30.3784 20.3235 30.51 20.3398 30.6332 20.384C30.7566 20.4282 30.8686 20.4992 30.9612 20.5919C31.0852 20.7158 31.1696 20.8736 31.2037 21.0455C31.238 21.2174 31.2204 21.3955 31.1532 21.5574C31.0861 21.7193 30.9726 21.8575 30.8269 21.9549Z" fill="#FFAD03"/>
</svg>
