<svg width="48" height="48" viewBox="0 0 48 48" fill="none" xmlns="http://www.w3.org/2000/svg">
<path d="M21 10C21 8.89543 21.8954 8 23 8H37C38.1046 8 39 8.89543 39 10V20C39 21.1046 38.1046 22 37 22H23C21.8954 22 21 21.1046 21 20V10Z" fill="url(#paint0_linear_99_1045)"/>
<rect x="21" y="12" width="18" height="1" fill="#D361E7"/>
<path d="M31 10.5C31 10.2239 31.2239 10 31.5 10H36.5C36.7761 10 37 10.2239 37 10.5C37 10.7761 36.7761 11 36.5 11H31.5C31.2239 11 31 10.7761 31 10.5Z" fill="#B545CA"/>
<rect x="23" y="10" width="1" height="1" rx="0.5" fill="#F4E560"/>
<path d="M31 15.5C31 15.2239 31.2239 15 31.5 15H36.5C36.7761 15 37 15.2239 37 15.5C37 15.7761 36.7761 16 36.5 16H31.5C31.2239 16 31 15.7761 31 15.5Z" fill="#B545CA"/>
<rect x="23" y="15" width="1" height="1" rx="0.5" fill="#7958FF"/>
<rect x="25" y="15" width="1" height="1" rx="0.5" fill="#F4E560"/>
<path d="M31 20.5C31 20.2239 31.2239 20 31.5 20H36.5C36.7761 20 37 20.2239 37 20.5C37 20.7761 36.7761 21 36.5 21H31.5C31.2239 21 31 20.7761 31 20.5Z" fill="#B545CA"/>
<rect x="23" y="20" width="1" height="1" rx="0.5" fill="#F4E560"/>
<rect x="25" y="20" width="1" height="1" rx="0.5" fill="#F4E560"/>
<rect x="21" y="17" width="18" height="1" fill="#D361E7"/>
<path d="M9 28C9 26.8954 9.89543 26 11 26H25C26.1046 26 27 26.8954 27 28V38C27 39.1046 26.1046 40 25 40H11C9.89543 40 9 39.1046 9 38V28Z" fill="url(#paint1_linear_99_1045)"/>
<rect x="9" y="30" width="18" height="1" fill="#947DFF"/>
<path d="M19 28.5C19 28.2239 19.2239 28 19.5 28H24.5C24.7761 28 25 28.2239 25 28.5C25 28.7761 24.7761 29 24.5 29H19.5C19.2239 29 19 28.7761 19 28.5Z" fill="#7958FF"/>
<rect x="11" y="28" width="1" height="1" rx="0.5" fill="#FFEAFE"/>
<path d="M19 33.5C19 33.2239 19.2239 33 19.5 33H24.5C24.7761 33 25 33.2239 25 33.5C25 33.7761 24.7761 34 24.5 34H19.5C19.2239 34 19 33.7761 19 33.5Z" fill="#7958FF"/>
<rect x="11" y="33" width="1" height="1" rx="0.5" fill="#FFEAFE"/>
<rect x="13" y="33" width="1" height="1" rx="0.5" fill="#FFEAFE"/>
<path d="M19 38.5C19 38.2239 19.2239 38 19.5 38H24.5C24.7761 38 25 38.2239 25 38.5C25 38.7761 24.7761 39 24.5 39H19.5C19.2239 39 19 38.7761 19 38.5Z" fill="#7958FF"/>
<rect x="11" y="38" width="1" height="1" rx="0.5" fill="#FFEAFE"/>
<rect x="13" y="38" width="1" height="1" rx="0.5" fill="#FFEAFE"/>
<rect x="9" y="35" width="18" height="1" fill="#947DFF"/>
<g style="mix-blend-mode:multiply">
<path d="M24 32C28.9706 32 33 27.9706 33 23H31C31 26.866 27.866 30 24 30V32ZM17 24C17 20.134 20.134 17 24 17V15C19.0294 15 15 19.0294 15 24H17Z" fill="#C9C5D0"/>
</g>
<defs>
<linearGradient id="paint0_linear_99_1045" x1="16.5" y1="17.3333" x2="40.4143" y2="13.9792" gradientUnits="userSpaceOnUse">
<stop stop-color="#E4A3FB"/>
<stop offset="1" stop-color="#EC78FF"/>
</linearGradient>
<linearGradient id="paint1_linear_99_1045" x1="7.52143" y1="34.0208" x2="25.3627" y2="25.5511" gradientUnits="userSpaceOnUse">
<stop stop-color="#492EF3"/>
<stop offset="1" stop-color="#CF69FF"/>
</linearGradient>
</defs>
</svg>
