<svg width="48" height="48" viewBox="0 0 48 48" fill="none" xmlns="http://www.w3.org/2000/svg">
<path d="M14.7226 28.2198C14.7226 30.0698 13.2114 31.5812 11.3613 31.5812C9.51129 31.5812 8 30.0698 8 28.2198C8 26.3697 9.51129 24.8584 11.3613 24.8584H14.7226V28.2198Z" fill="#E01E5A"/>
<path d="M16.415 28.2198C16.415 26.3697 17.9263 24.8584 19.7764 24.8584C21.6264 24.8584 23.1377 26.3697 23.1377 28.2198V36.6363C23.1377 38.4863 21.6264 39.9976 19.7764 39.9976C17.9263 39.9976 16.415 38.4863 16.415 36.6363V28.2198Z" fill="#E01E5A"/>
<path d="M19.7764 14.7218C17.9263 14.7218 16.415 13.2105 16.415 11.3604C16.415 9.51034 17.9263 7.99902 19.7764 7.99902C21.6264 7.99902 23.1377 9.51034 23.1377 11.3604V14.7218H19.7764Z" fill="#36C5F0"/>
<path d="M19.7777 16.4141C21.6277 16.4141 23.139 17.9254 23.139 19.7754C23.139 21.6255 21.6277 23.1368 19.7777 23.1368H11.3613C9.51129 23.1368 8 21.6255 8 19.7754C8 17.9254 9.51129 16.4141 11.3613 16.4141H19.7777Z" fill="#36C5F0"/>
<path d="M33.2773 19.7774C33.2773 17.9273 34.7886 16.416 36.6387 16.416C38.4887 16.416 40 17.9273 40 19.7774C40 21.6275 38.4887 23.1388 36.6387 23.1388H33.2773V19.7774Z" fill="#2EB67D"/>
<path d="M31.581 19.7769C31.581 21.6269 30.0698 23.1383 28.2197 23.1383C26.3697 23.1383 24.8584 21.6269 24.8584 19.7769V11.3604C24.8584 9.51034 26.3697 7.99902 28.2197 7.99902C30.0698 7.99902 31.581 9.51034 31.581 11.3604V19.7769Z" fill="#2EB67D"/>
<path d="M28.2207 33.2734C30.0707 33.2734 31.582 34.7848 31.582 36.6348C31.582 38.4849 30.0707 39.9962 28.2207 39.9962C26.3707 39.9962 24.8594 38.4849 24.8594 36.6348V33.2734H28.2207Z" fill="#ECB22E"/>
<path d="M28.2207 31.5812C26.3707 31.5812 24.8594 30.0698 24.8594 28.2198C24.8594 26.3697 26.3707 24.8584 28.2207 24.8584H36.637C38.4871 24.8584 39.9984 26.3697 39.9984 28.2198C39.9984 30.0698 38.4871 31.5812 36.637 31.5812H28.2207Z" fill="#ECB22E"/>
</svg>
