<svg width="48" height="48" viewBox="0 0 48 48" fill="none" xmlns="http://www.w3.org/2000/svg">
<g clip-path="url(#clip0_99_1567)">
<path d="M37.1 9.68245C36.6518 10.757 36.078 11.7748 35.3905 12.7144C33.8897 11.2074 32.1043 10.0137 30.138 9.20278C28.1717 8.39188 26.0639 7.97995 23.937 7.99094C21.8102 8.00193 19.7067 8.43562 17.7489 9.26679C15.7911 10.098 14.0181 11.31 12.533 12.8325C11.0478 14.3551 9.88015 16.1576 9.09784 18.1354C8.31554 20.1132 7.93421 22.2268 7.97604 24.3533C8.01787 26.4798 8.48201 28.5768 9.34149 30.5223C10.201 32.4678 11.4386 34.223 12.9825 35.6859L13.5755 36.2094C15.8384 38.1162 18.5847 39.3598 21.5106 39.8027C24.4364 40.2455 27.4278 39.8704 30.1536 38.7187C32.8795 37.567 35.2336 35.6837 36.9556 33.2772C38.6776 30.8706 39.7002 28.0346 39.9105 25.0829C40.348 20.9979 39.1485 15.8279 37.1005 9.68295L37.1 9.68245ZM15.265 35.7789C15.0942 35.9899 14.8647 36.1455 14.6055 36.2261C14.3463 36.3066 14.069 36.3084 13.8088 36.2313C13.5485 36.1542 13.317 36.0017 13.1435 35.7929C12.97 35.5842 12.8622 35.3287 12.834 35.0588C12.8057 34.7888 12.8581 34.5165 12.9846 34.2764C13.1111 34.0362 13.306 33.839 13.5447 33.7096C13.7833 33.5803 14.0549 33.5246 14.3252 33.5497C14.5955 33.5748 14.8522 33.6794 15.063 33.8504C15.3453 34.0795 15.5252 34.4113 15.563 34.7729C15.6009 35.1345 15.4937 35.4963 15.265 35.7789ZM37.034 30.9739C33.074 36.2489 24.619 34.4689 19.198 34.7249C19.198 34.7249 18.237 34.7814 17.2695 34.9399C17.2695 34.9399 17.6345 34.7849 18.101 34.6084C21.908 33.2834 23.7075 33.0284 26.02 31.8384C30.374 29.6249 34.681 24.7774 35.576 19.7384C33.9195 24.5859 28.8895 28.7544 24.311 30.4474C21.173 31.6039 15.504 32.7304 15.504 32.7304L15.2755 32.6079C11.4185 30.7329 11.2995 22.3794 18.314 19.6854C21.3855 18.5024 24.324 19.1519 27.641 18.3604C31.183 17.5189 35.281 14.8654 36.9485 11.4024C38.8135 16.9424 41.0605 25.6134 37.0315 30.9774L37.034 30.9739Z" fill="#68BD45"/>
</g>
<defs>
<clipPath id="clip0_99_1567">
<rect width="32" height="32" fill="white" transform="translate(8 8)"/>
</clipPath>
</defs>
</svg>
