<svg width="48" height="48" viewBox="0 0 48 48" fill="none" xmlns="http://www.w3.org/2000/svg">
<path opacity="0.8" d="M9.00006 15.6002C9.00006 14.2747 10.0746 13.2002 11.4001 13.2002H36.6003C37.9258 13.2002 39.0003 14.2747 39.0003 15.6002V33.6002C39.0003 34.9257 37.9258 36.0002 36.6003 36.0002H11.4001C10.0746 36.0002 9.00006 34.9257 9.00006 33.6002V15.6002Z" fill="url(#paint0_linear_99_2015)"/>
<path d="M9.00006 18.0859H39.0003V15.2002C39.0003 14.0956 38.1049 13.2002 37.0003 13.2002H11.0001C9.89549 13.2002 9.00006 14.0956 9.00006 15.2002V18.0859Z" fill="#5D34F2"/>
<path d="M12.3329 22.1566C12.3329 21.7069 12.6975 21.3423 13.1472 21.3423H21.5187C21.9684 21.3423 22.333 21.7069 22.333 22.1566C22.333 22.6063 21.9684 22.9709 21.5187 22.9709H13.1472C12.6975 22.9709 12.3329 22.6063 12.3329 22.1566Z" fill="#F5EEFF"/>
<path d="M12.3329 27.0433C12.3329 26.5936 12.6975 26.229 13.1472 26.229H31.5188C31.9685 26.229 32.333 26.5936 32.333 27.0433C32.333 27.493 31.9685 27.8576 31.5187 27.8576H13.1472C12.6975 27.8576 12.3329 27.493 12.3329 27.0433Z" fill="#F5EEFF"/>
<path opacity="0.8" d="M35.2213 30.0001C35.5292 29.4668 36.299 29.4668 36.6069 30.0001L43.5352 42.0001C43.8431 42.5334 43.4582 43.2001 42.8424 43.2001H28.9859C28.37 43.2001 27.9851 42.5334 28.293 42.0001L35.2213 30.0001Z" fill="#F4E560"/>
<g style="mix-blend-mode:multiply">
<ellipse cx="12.0001" cy="11.9998" rx="7.20006" ry="7.2" fill="#F07EFF"/>
</g>
<defs>
<linearGradient id="paint0_linear_99_2015" x1="6.53576" y1="26.2627" x2="36.0148" y2="11.9408" gradientUnits="userSpaceOnUse">
<stop stop-color="#492EF3"/>
<stop offset="1" stop-color="#CF69FF"/>
</linearGradient>
</defs>
</svg>
