<svg width="48" height="48" viewBox="0 0 48 48" fill="none" xmlns="http://www.w3.org/2000/svg">
<mask id="mask0_11854_24711" style="mask-type:luminance" maskUnits="userSpaceOnUse" x="6" y="8" width="36" height="32">
<path d="M42 8H6V39.3748H42V8Z" fill="white"/>
</mask>
<g mask="url(#mask0_11854_24711)">
<path d="M13.1046 8H6L16.1563 31.0305C16.2517 31.2212 16.4901 31.2212 16.5377 31.0305L19.9232 23.1152L13.1046 8Z" fill="white"/>
<path d="M34.8001 8C34.8001 8 23.8809 32.9854 22.4504 35.2742C20.7338 37.9444 19.6372 38.9934 17.5391 39.2795C17.5391 39.2795 17.4915 39.2795 17.4915 39.3272C17.4915 39.3272 17.4915 39.3748 17.5391 39.3748H24.0716C26.8848 39.3748 28.9352 37.0384 30.0795 34.9404C31.3193 32.5563 42.0001 8 42.0001 8H34.8001Z" fill="white"/>
</g>
</svg>
