<svg width="48" height="48" viewBox="0 0 48 48" fill="none" xmlns="http://www.w3.org/2000/svg">
<g clip-path="url(#clip0_151_1811)">
<path d="M22.8496 8.04644C29.9377 7.55607 34.6375 11.0168 37.3247 15.2334C38.6721 17.3475 39.9941 20.5585 40.0002 23.8577C40.0067 27.4423 38.8428 30.5466 37.3247 32.8243C35.7644 35.1653 33.7463 37.0989 31.2191 38.3685C26.9948 40.4908 21.0911 40.5489 17.2242 38.5054C12.9177 36.2297 9.60657 32.9815 8.37444 27.3485C7.88135 25.0942 7.82467 22.1815 8.51164 19.6825C8.67285 19.0962 8.9658 18.4793 9.19769 17.9028C10.3121 15.1328 12.2089 12.7241 14.5487 11.0581C15.4889 10.3887 16.6295 9.72289 17.6358 9.27845C18.8879 8.7255 20.9961 8.17463 22.8496 8.04644Z" fill="white"/>
<path d="M36.2947 24.257C36.2947 30.9409 30.8641 36.3588 24.1653 36.3588C17.4664 36.3588 12.0359 30.9409 12.0359 24.257C12.0359 17.5734 17.4664 12.155 24.1653 12.155C30.8641 12.155 36.2947 17.5734 36.2947 24.257Z" fill="black"/>
<path d="M22.8496 8.04644C29.9377 7.55607 34.6375 11.0168 37.3247 15.2334C38.6721 17.3475 39.9941 20.5585 40.0002 23.8577C40.0067 27.4423 38.8428 30.5466 37.3247 32.8243C35.7644 35.1653 33.7463 37.0989 31.2191 38.3685C26.9948 40.4908 21.0911 40.5489 17.2242 38.5054C12.9177 36.2297 9.60657 32.9815 8.37444 27.3485C7.88135 25.0942 7.82467 22.1815 8.51164 19.6825C8.67285 19.0962 8.9658 18.4793 9.19769 17.9028C10.3121 15.1328 12.2089 12.7241 14.5487 11.0581C15.4889 10.3887 16.6295 9.72289 17.6358 9.27845C18.8879 8.7255 20.9961 8.17463 22.8496 8.04644ZM20.4485 9.21006C17.8157 9.89109 15.8853 11.1112 14.2057 12.4271C11.7836 14.3245 10.2395 16.9725 9.3349 20.1616C8.32845 23.7096 8.97494 28.0031 10.364 30.7024C11.8043 33.5017 13.7384 35.6746 16.4695 37.2049C19.1267 38.6937 22.8639 39.6497 26.76 38.9161C30.2215 38.2643 32.8505 36.7597 34.9923 34.5354C37.8578 31.5594 40.1608 26.078 38.6283 20.2985C38.2186 18.7538 37.683 17.1439 36.8445 15.7809C36.3916 15.0446 35.7268 14.3203 35.0609 13.5906C32.5475 10.8368 28.4854 8.46372 23.2612 8.79933C22.267 8.86319 21.3933 8.96562 20.4485 9.21006Z" fill="black"/>
<path d="M24.9365 38.8083L38.9526 24.8242L38.877 24.7488L24.8608 38.7329L24.9365 38.8083Z" fill="white"/>
<path d="M23.7109 37.7014L37.7882 23.6563L37.7126 23.5808L23.6353 37.626L23.7109 37.7014Z" fill="white"/>
<path d="M22.4855 36.5946L36.624 22.4883L36.5484 22.4128L22.4099 36.5191L22.4855 36.5946Z" fill="white"/>
<path d="M21.2604 35.4861L35.4601 21.3189L35.3845 21.2434L21.1848 35.4107L21.2604 35.4861Z" fill="white"/>
<path d="M20.0351 34.3787L34.2959 20.1504L34.2203 20.075L19.9595 34.3033L20.0351 34.3787Z" fill="white"/>
<path d="M18.8095 33.2713L33.1315 18.9817L33.0559 18.9062L18.7339 33.1959L18.8095 33.2713Z" fill="white"/>
<path d="M17.5846 32.1641L31.9678 17.8137L31.8922 17.7383L17.509 32.0887L17.5846 32.1641Z" fill="white"/>
<path d="M16.3591 31.0565L30.8034 16.645L30.7278 16.5696L16.2834 30.9811L16.3591 31.0565Z" fill="white"/>
<path d="M15.1337 29.9491L29.6389 15.4766L29.5633 15.4011L15.0581 29.8736L15.1337 29.9491Z" fill="white"/>
<path d="M13.9084 28.8421L28.475 14.3086L28.3994 14.2332L13.8328 28.7666L13.9084 28.8421Z" fill="white"/>
<path d="M12.683 27.7337L27.3109 13.1392L27.2352 13.0637L12.6074 27.6583L12.683 27.7337Z" fill="white"/>
<path d="M11.4575 26.6264L26.1465 11.9707L26.0709 11.8953L11.3818 26.5509L11.4575 26.6264Z" fill="white"/>
<path d="M10.2324 25.5194L24.9826 10.8027L24.9069 10.7273L10.1567 25.4439L10.2324 25.5194Z" fill="white"/>
<path d="M9.00701 24.4117L23.8184 9.63404L23.7428 9.55859L8.9314 24.3363L9.00701 24.4117Z" fill="white"/>
<path d="M8.92676 24.5535L23.223 38.818L23.2986 38.7425L9.00238 24.478L8.92676 24.5535Z" fill="white"/>
<path d="M10.0859 23.3796L24.41 37.6719L24.4856 37.5965L10.1616 23.3042L10.0859 23.3796Z" fill="white"/>
<path d="M11.2454 22.207L25.5972 36.527L25.6728 36.4516L11.321 22.1316L11.2454 22.207Z" fill="white"/>
<path d="M12.405 21.0339L26.7847 35.3817L26.8604 35.3063L12.4806 20.9585L12.405 21.0339Z" fill="white"/>
<path d="M13.5642 19.8601L27.9717 34.2356L28.0473 34.1601L13.6398 19.7847L13.5642 19.8601Z" fill="white"/>
<path d="M14.7234 18.6868L29.1588 33.09L29.2344 33.0145L14.799 18.6113L14.7234 18.6868Z" fill="white"/>
<path d="M15.8828 17.5129L30.346 31.9439L30.4217 31.8685L15.9584 17.4375L15.8828 17.5129Z" fill="white"/>
<path d="M17.042 16.3406L31.5331 30.7992L31.6087 30.7238L17.1176 16.2651L17.042 16.3406Z" fill="white"/>
<path d="M18.2017 15.1672L32.7206 29.6536L32.7962 29.5782L18.2773 15.0918L18.2017 15.1672Z" fill="white"/>
<path d="M19.3608 13.9934L33.9075 28.5074L33.9832 28.432L19.4365 13.918L19.3608 13.9934Z" fill="white"/>
<path d="M20.5203 12.8203L35.0948 27.3622L35.1704 27.2867L20.5959 12.7449L20.5203 12.8203Z" fill="white"/>
<path d="M21.6794 11.6472L36.2819 26.2168L36.3575 26.1413L21.7551 11.5718L21.6794 11.6472Z" fill="white"/>
<path d="M22.8389 10.4739L37.4691 25.0712L37.5447 24.9957L22.9145 10.3984L22.8389 10.4739Z" fill="white"/>
<path d="M23.9983 9.30079L38.6563 23.9258L38.7319 23.8503L24.0739 9.22534L23.9983 9.30079Z" fill="white"/>
<path d="M34.2378 13.6593C32.9763 12.4007 31.4254 11.2665 29.5728 10.5792C27.6526 9.86675 25.4803 9.26621 22.9184 9.48403C18.8373 9.83111 15.9719 11.658 13.7942 13.7962C12.2689 15.2939 11.1215 17.1291 10.3641 19.272C9.25205 22.4185 9.31953 26.1324 10.5699 29.3337C11.6364 32.0644 13.3821 34.2669 15.8523 35.9731C18.1745 37.5771 21.5074 38.8211 25.2508 38.5057C29.8102 38.1215 33.1462 35.7876 35.3354 33.0983C35.8955 32.4104 36.4524 31.6327 36.776 30.7027C37.093 30.0326 37.2482 29.5771 37.3934 29.3338C38.0015 27.9744 38.3236 26.5401 38.4224 24.9532C38.7264 20.0723 36.8442 16.2599 34.2378 13.6593ZM32.8941 28.5299C32.8854 28.5484 32.8776 28.5657 32.8685 28.5849C32.6423 29.2306 32.2527 29.7706 31.8611 30.2484C30.3301 32.1158 27.9973 33.7364 24.8088 34.0032C22.1909 34.2222 19.8602 33.3584 18.2363 32.2446C16.8251 31.2767 15.7525 30.0787 15.0003 28.6388C14.9544 28.5522 14.5175 27.548 14.5163 27.5038C13.9203 25.6597 13.8686 22.6943 14.4803 20.9148C14.8885 19.7271 15.5687 18.4421 16.4697 17.424C17.7137 16.0182 18.9587 15.1174 20.9289 14.4807C21.8285 14.19 22.6339 13.8941 23.7416 13.8647C26.4428 13.793 29.1935 15.0031 30.6704 16.3288C32.0277 17.5471 33.5745 19.9203 33.9634 22.1468C34.3636 24.4384 33.9365 26.6759 32.8941 28.5299Z" fill="black"/>
<path d="M28.1989 30.7277C27.5338 30.7277 26.9501 30.3074 26.7463 29.6819L26.0055 27.4296H22.2993L21.6109 29.6613C21.4032 30.2991 20.815 30.7259 20.1464 30.7259C19.9859 30.7259 19.8265 30.7006 19.6725 30.6508C18.8734 30.4114 18.4197 29.5532 18.6645 28.7388L21.7928 18.8523C21.9959 18.2233 22.5939 17.7847 23.2471 17.7847H24.9105C25.5675 17.7847 26.1654 18.2159 26.3646 18.8333L29.6545 28.7162C29.9175 29.5242 29.4819 30.3916 28.6839 30.6507C28.5262 30.7018 28.363 30.7277 28.1989 30.7277Z" fill="white"/>
<path d="M28.1988 30.5141C27.603 30.5141 27.081 30.1383 26.8988 29.5788L26.1578 27.3262L26.1215 27.216H26.0054H22.2992H22.1807L22.1459 27.329L21.4575 29.5607C21.2721 30.1298 20.7457 30.5123 20.1463 30.5123C20.0028 30.5123 19.86 30.4897 19.7219 30.445C19.0044 30.23 18.5987 29.4611 18.8181 28.7312L21.9456 18.8469C22.1272 18.2848 22.6636 17.8911 23.247 17.8911H24.9104C25.498 17.8911 26.034 18.2777 26.2118 18.8288L29.5021 28.713C29.7376 29.4363 29.3477 30.2132 28.6342 30.445C28.4925 30.4908 28.3461 30.5141 28.1988 30.5141ZM28.1988 30.8342C28.3798 30.8342 28.5597 30.8056 28.7334 30.7494C29.6163 30.4626 30.0971 29.5045 29.8069 28.6132L26.5167 18.7293C26.2966 18.0469 25.6368 17.571 24.9104 17.571H23.247C22.5237 17.571 21.8644 18.055 21.64 18.7496L18.5115 28.637C18.2409 29.5371 18.7412 30.4854 19.6263 30.7505C19.7929 30.8044 19.9691 30.8324 20.1463 30.8324C20.8848 30.8324 21.5342 30.3605 21.7634 29.6572L22.4525 27.4231L22.2992 27.5361H26.0054L25.853 27.426L26.5938 29.6782C26.8189 30.3695 27.4644 30.8342 28.1988 30.8342Z" fill="black"/>
<path d="M15.9139 14.6343L15.91 14.6291C15.5199 14.0956 15.6344 13.3494 16.2089 12.9311C16.7834 12.5128 17.5214 12.6302 17.9115 13.1636L17.9154 13.1688C18.3056 13.7023 18.1911 14.4485 17.6166 14.8668C17.042 15.2851 16.304 15.1678 15.9139 14.6343ZM17.3927 13.5576L17.3888 13.5524C17.1928 13.2843 16.8278 13.1922 16.5432 13.3994C16.2613 13.6046 16.2394 13.9703 16.4354 14.2384L16.4393 14.2437C16.6354 14.5117 17.0003 14.6039 17.2822 14.3986C17.5668 14.1914 17.5888 13.8257 17.3927 13.5576Z" fill="white"/>
<path d="M19.6751 11.1384L20.2613 10.9507L21.9049 12.857L21.2528 13.0658L20.9671 12.7259L20.1206 12.9969L20.0895 13.4382L19.45 13.6429L19.6751 11.1384ZM20.6396 12.3098L20.1949 11.7655L20.1473 12.4674L20.6396 12.3098Z" fill="white"/>
<path d="M22.9607 11.7118L22.9658 10.4207L23.6145 10.4232L23.6094 11.7013C23.6081 12.0331 23.7754 12.1914 24.0323 12.1925C24.2891 12.1935 24.4577 12.0431 24.4589 11.7211L24.4641 10.4267L25.1128 10.4292L25.1077 11.704C25.1047 12.4465 24.6787 12.7701 24.0234 12.7675C23.3681 12.7648 22.9579 12.4313 22.9607 11.7118Z" fill="white"/>
<path d="M27.4555 11.4856L26.7942 11.2842L26.9576 10.75L28.8912 11.3388L28.7278 11.873L28.0665 11.6716L27.5571 13.3369L26.9461 13.1509L27.4555 11.4856Z" fill="white"/>
<path d="M30.6183 12.0847L31.1501 12.4378L30.6722 13.1544L31.3548 13.6076L31.8327 12.891L32.3645 13.2441L31.0875 15.1587L30.5557 14.8056L31.041 14.0781L30.3583 13.6248L29.8731 14.3524L29.3413 13.9993L30.6183 12.0847Z" fill="white"/>
<path d="M32.4962 33.0146L32.5003 33.0198C32.9106 33.5379 32.8247 34.2881 32.2666 34.728C31.7085 35.1679 30.9665 35.0787 30.5561 34.5605L30.5521 34.5554C30.1418 34.0372 30.2277 33.287 30.7857 32.8471C31.3438 32.4073 32.0859 32.4964 32.4962 33.0146ZM31.0596 34.147L31.0636 34.1522C31.2698 34.4126 31.638 34.4908 31.9145 34.2728C32.1884 34.0569 32.1964 33.6907 31.9901 33.4303L31.9861 33.4251C31.7799 33.1647 31.4116 33.0865 31.1378 33.3024C30.8613 33.5203 30.8534 33.8866 31.0596 34.147Z" fill="white"/>
<path d="M28.8902 36.658L28.3127 36.8712L26.5867 35.0389L27.229 34.8017L27.5294 35.1287L28.3632 34.8208L28.3747 34.3786L29.0046 34.146L28.8902 36.658ZM27.8749 35.5301L28.3432 36.0542L28.3597 35.351L27.8749 35.5301Z" fill="white"/>
<path d="M25.585 36.2214L25.642 37.5113L24.994 37.5399L24.9374 36.2631C24.9228 35.9316 24.7481 35.7815 24.4915 35.7928C24.2349 35.8041 24.0738 35.9625 24.088 36.2841L24.1452 37.5773L23.4972 37.6058L23.4408 36.3323C23.408 35.5906 23.818 35.2469 24.4726 35.2181C25.1273 35.1893 25.5531 35.5026 25.585 36.2214Z" fill="white"/>
<path d="M21.0821 36.6431L21.7497 36.8229L21.6038 37.3622L19.6516 36.8364L19.7975 36.2971L20.4652 36.477L20.92 34.7957L21.5369 34.9618L21.0821 36.6431Z" fill="white"/>
<path d="M17.9262 36.1737L17.3782 35.846L17.8217 35.1076L17.1184 34.687L16.6749 35.4254L16.127 35.0977L17.312 33.125L17.86 33.4527L17.4097 34.2024L18.113 34.6229L18.5633 33.8733L19.1113 34.201L17.9262 36.1737Z" fill="white"/>
</g>
<defs>
<clipPath id="clip0_151_1811">
<rect width="32.0002" height="32" fill="white" transform="translate(8 8)"/>
</clipPath>
</defs>
</svg>
