<svg width="20" height="20" viewBox="0 0 20 20" fill="none" xmlns="http://www.w3.org/2000/svg">
  <path
    d="M10.5915 13.575L10.4665 13.475C10.42 13.4435 10.3696 13.4183 10.3165 13.4L10.1665 13.3334C10.0314 13.3051 9.89131 13.3109 9.75894 13.3501C9.62657 13.3894 9.50604 13.461 9.40817 13.5584C9.33456 13.6394 9.27537 13.7324 9.23317 13.8334C9.17011 13.9852 9.15336 14.1523 9.18505 14.3136C9.21674 14.4749 9.29544 14.6233 9.41125 14.74C9.52706 14.8567 9.67481 14.9365 9.83589 14.9695C9.99697 15.0024 10.1642 14.9869 10.3165 14.925C10.4161 14.8767 10.5086 14.815 10.5915 14.7417C10.7071 14.6245 10.7855 14.4757 10.8166 14.314C10.8478 14.1524 10.8303 13.9851 10.7665 13.8334C10.725 13.737 10.6656 13.6493 10.5915 13.575ZM13.3332 1.66669H6.6665C6.00346 1.66669 5.36758 1.93008 4.89874 2.39892C4.4299 2.86776 4.1665 3.50365 4.1665 4.16669V15.8334C4.1665 16.4964 4.4299 17.1323 4.89874 17.6011C5.36758 18.07 6.00346 18.3334 6.6665 18.3334H13.3332C13.9962 18.3334 14.6321 18.07 15.1009 17.6011C15.5698 17.1323 15.8332 16.4964 15.8332 15.8334V4.16669C15.8332 3.50365 15.5698 2.86776 15.1009 2.39892C14.6321 1.93008 13.9962 1.66669 13.3332 1.66669ZM14.1665 15.8334C14.1665 16.0544 14.0787 16.2663 13.9224 16.4226C13.7661 16.5789 13.5542 16.6667 13.3332 16.6667H6.6665C6.44549 16.6667 6.23353 16.5789 6.07725 16.4226C5.92097 16.2663 5.83317 16.0544 5.83317 15.8334V4.16669C5.83317 3.94567 5.92097 3.73371 6.07725 3.57743C6.23353 3.42115 6.44549 3.33335 6.6665 3.33335H13.3332C13.5542 3.33335 13.7661 3.42115 13.9224 3.57743C14.0787 3.73371 14.1665 3.94567 14.1665 4.16669V15.8334Z"
    fill="currentColor" />
</svg>