<svg width="764" height="262" viewBox="0 0 764 262" fill="none" xmlns="http://www.w3.org/2000/svg">
<path d="M0 4C0 1.79087 1.79086 0 4 0H760C762.209 0 764 1.79086 764 4V258C764 260.209 762.209 262 760 262H4.00001C1.79087 262 0 260.209 0 258V4Z" fill="#F7F8F8"/>
<rect x="300.5" y="20.5" width="163" height="33" rx="3.5" fill="white"/>
<rect x="300.5" y="20.5" width="163" height="33" rx="3.5" stroke="#767478"/>
<path d="M313.709 42V32.1357H314.939V40.8926H319.697V42H313.709ZM324.202 42.1299C322.104 42.1299 320.805 40.6807 320.805 38.3223V38.3086C320.805 35.9434 322.104 34.501 324.202 34.501C326.301 34.501 327.6 35.9434 327.6 38.3086V38.3223C327.6 40.6807 326.301 42.1299 324.202 42.1299ZM324.202 41.0771C325.597 41.0771 326.383 40.0586 326.383 38.3223V38.3086C326.383 36.5654 325.597 35.5537 324.202 35.5537C322.808 35.5537 322.021 36.5654 322.021 38.3086V38.3223C322.021 40.0586 322.808 41.0771 324.202 41.0771ZM332.48 44.5977C330.703 44.5977 329.568 43.7979 329.384 42.5879L329.397 42.5811H330.628L330.635 42.5879C330.765 43.1484 331.421 43.5449 332.48 43.5449C333.8 43.5449 334.586 42.9229 334.586 41.8359V40.3457H334.477C334.012 41.1592 333.178 41.6172 332.166 41.6172C330.259 41.6172 329.076 40.1406 329.076 38.0762V38.0625C329.076 35.998 330.266 34.501 332.193 34.501C333.232 34.501 334.039 35.0137 334.49 35.8477H334.572V34.6309H335.762V41.8975C335.762 43.5449 334.49 44.5977 332.48 44.5977ZM332.426 40.5645C333.793 40.5645 334.613 39.5391 334.613 38.0762V38.0625C334.613 36.5996 333.786 35.5537 332.426 35.5537C331.059 35.5537 330.293 36.5996 330.293 38.0625V38.0762C330.293 39.5391 331.059 40.5645 332.426 40.5645ZM340.595 42.0547C339.077 42.0547 338.441 41.4941 338.441 40.0859V35.6152H337.279V34.6309H338.441V32.7236H339.672V34.6309H341.285V35.6152H339.672V39.7852C339.672 40.6533 339.973 41.002 340.738 41.002C340.95 41.002 341.066 40.9951 341.285 40.9746V41.9863C341.053 42.0273 340.827 42.0547 340.595 42.0547ZM345.981 42.1299C343.883 42.1299 342.584 40.6807 342.584 38.3223V38.3086C342.584 35.9434 343.883 34.501 345.981 34.501C348.08 34.501 349.379 35.9434 349.379 38.3086V38.3223C349.379 40.6807 348.08 42.1299 345.981 42.1299ZM345.981 41.0771C347.376 41.0771 348.162 40.0586 348.162 38.3223V38.3086C348.162 36.5654 347.376 35.5537 345.981 35.5537C344.587 35.5537 343.801 36.5654 343.801 38.3086V38.3223C343.801 40.0586 344.587 41.0771 345.981 41.0771ZM358.177 42.1299C356.112 42.1299 354.793 40.6328 354.793 38.2949V38.2812C354.793 35.9912 356.105 34.501 358.17 34.501C359.961 34.501 361.034 35.5332 361.253 36.8457L361.26 36.8867H360.077L360.07 36.8662C359.886 36.1416 359.229 35.5537 358.17 35.5537C356.844 35.5537 356.01 36.6201 356.01 38.2812V38.2949C356.01 39.9902 356.857 41.0771 358.17 41.0771C359.161 41.0771 359.79 40.6396 360.063 39.8193L360.077 39.7783L361.253 39.7715L361.239 39.8467C360.938 41.1797 359.947 42.1299 358.177 42.1299ZM366.024 42.1299C363.926 42.1299 362.627 40.6807 362.627 38.3223V38.3086C362.627 35.9434 363.926 34.501 366.024 34.501C368.123 34.501 369.422 35.9434 369.422 38.3086V38.3223C369.422 40.6807 368.123 42.1299 366.024 42.1299ZM366.024 41.0771C367.419 41.0771 368.205 40.0586 368.205 38.3223V38.3086C368.205 36.5654 367.419 35.5537 366.024 35.5537C364.63 35.5537 363.844 36.5654 363.844 38.3086V38.3223C363.844 40.0586 364.63 41.0771 366.024 41.0771ZM371.268 42V34.6309H372.457V35.7383H372.566C372.936 34.959 373.626 34.501 374.713 34.501C376.367 34.501 377.29 35.4785 377.29 37.2285V42H376.101V37.5156C376.101 36.1895 375.554 35.5537 374.378 35.5537C373.202 35.5537 372.457 36.3467 372.457 37.6387V42H371.268ZM381.973 42.1299C380.332 42.1299 379.204 41.3369 379.067 40.1201H380.284C380.482 40.7354 381.07 41.1387 382.014 41.1387C383.005 41.1387 383.709 40.667 383.709 39.9971V39.9834C383.709 39.4844 383.333 39.1357 382.424 38.917L381.282 38.6436C379.901 38.3154 379.279 37.7139 379.279 36.6543V36.6475C379.279 35.4238 380.455 34.501 382.021 34.501C383.565 34.501 384.639 35.2734 384.803 36.4766H383.634C383.477 35.8955 382.902 35.4922 382.014 35.4922C381.139 35.4922 380.496 35.9434 380.496 36.5928V36.6064C380.496 37.1055 380.865 37.4199 381.733 37.6318L382.868 37.9053C384.256 38.2402 384.926 38.8418 384.926 39.8945V39.9082C384.926 41.2207 383.647 42.1299 381.973 42.1299ZM389.8 42.1299C387.701 42.1299 386.402 40.6807 386.402 38.3223V38.3086C386.402 35.9434 387.701 34.501 389.8 34.501C391.898 34.501 393.197 35.9434 393.197 38.3086V38.3223C393.197 40.6807 391.898 42.1299 389.8 42.1299ZM389.8 41.0771C391.194 41.0771 391.98 40.0586 391.98 38.3223V38.3086C391.98 36.5654 391.194 35.5537 389.8 35.5537C388.405 35.5537 387.619 36.5654 387.619 38.3086V38.3223C387.619 40.0586 388.405 41.0771 389.8 41.0771ZM395.111 42V31.7051H396.301V42H395.111ZM401.592 42.1299C399.486 42.1299 398.215 40.6533 398.215 38.3428V38.3359C398.215 36.0596 399.514 34.501 401.517 34.501C403.52 34.501 404.736 35.9912 404.736 38.1924V38.6572H399.432C399.466 40.1816 400.307 41.0703 401.619 41.0703C402.617 41.0703 403.232 40.5986 403.431 40.1543L403.458 40.0928H404.647L404.634 40.1475C404.381 41.1455 403.328 42.1299 401.592 42.1299ZM401.51 35.5605C400.416 35.5605 399.582 36.3057 399.452 37.707H403.526C403.403 36.251 402.597 35.5605 401.51 35.5605ZM413.138 42.0547C411.62 42.0547 410.984 41.4941 410.984 40.0859V35.6152H409.822V34.6309H410.984V32.7236H412.215V34.6309H413.828V35.6152H412.215V39.7852C412.215 40.6533 412.516 41.002 413.281 41.002C413.493 41.002 413.609 40.9951 413.828 40.9746V41.9863C413.596 42.0273 413.37 42.0547 413.138 42.0547ZM418.504 42.1299C416.398 42.1299 415.127 40.6533 415.127 38.3428V38.3359C415.127 36.0596 416.426 34.501 418.429 34.501C420.432 34.501 421.648 35.9912 421.648 38.1924V38.6572H416.344C416.378 40.1816 417.219 41.0703 418.531 41.0703C419.529 41.0703 420.145 40.5986 420.343 40.1543L420.37 40.0928H421.56L421.546 40.1475C421.293 41.1455 420.24 42.1299 418.504 42.1299ZM418.422 35.5605C417.328 35.5605 416.494 36.3057 416.364 37.707H420.438C420.315 36.251 419.509 35.5605 418.422 35.5605ZM423.494 42V34.6309H424.684V35.7383H424.793C425.162 34.959 425.853 34.501 426.939 34.501C428.594 34.501 429.517 35.4785 429.517 37.2285V42H428.327V37.5156C428.327 36.1895 427.78 35.5537 426.604 35.5537C425.429 35.5537 424.684 36.3467 424.684 37.6387V42H423.494ZM433.693 42.1299C432.292 42.1299 431.232 41.2822 431.232 39.9424V39.9287C431.232 38.6162 432.203 37.8574 433.919 37.7549L436.031 37.625V36.9551C436.031 36.0459 435.478 35.5537 434.377 35.5537C433.495 35.5537 432.914 35.8818 432.723 36.4561L432.716 36.4766H431.526L431.533 36.4355C431.725 35.2803 432.846 34.501 434.418 34.501C436.216 34.501 437.221 35.4238 437.221 36.9551V42H436.031V40.9131H435.922C435.457 41.6992 434.685 42.1299 433.693 42.1299ZM432.449 39.915C432.449 40.6602 433.085 41.0977 433.939 41.0977C435.149 41.0977 436.031 40.3047 436.031 39.252V38.582L434.062 38.7051C432.941 38.7734 432.449 39.1699 432.449 39.9014V39.915ZM439.395 42V34.6309H440.584V35.7383H440.693C441.062 34.959 441.753 34.501 442.84 34.501C444.494 34.501 445.417 35.4785 445.417 37.2285V42H444.228V37.5156C444.228 36.1895 443.681 35.5537 442.505 35.5537C441.329 35.5537 440.584 36.3467 440.584 37.6387V42H439.395ZM450.188 42.0547C448.671 42.0547 448.035 41.4941 448.035 40.0859V35.6152H446.873V34.6309H448.035V32.7236H449.266V34.6309H450.879V35.6152H449.266V39.7852C449.266 40.6533 449.566 41.002 450.332 41.002C450.544 41.002 450.66 40.9951 450.879 40.9746V41.9863C450.646 42.0273 450.421 42.0547 450.188 42.0547Z" fill="#191C1D"/>
<path d="M143.646 101.496C143.842 101.691 144.158 101.691 144.354 101.496L147.536 98.3138C147.731 98.1185 147.731 97.8019 147.536 97.6066C147.34 97.4114 147.024 97.4114 146.828 97.6066L144 100.435L141.172 97.6066C140.976 97.4114 140.66 97.4114 140.464 97.6066C140.269 97.8019 140.269 98.1185 140.464 98.3138L143.646 101.496ZM619.646 102.354C619.842 102.549 620.158 102.549 620.354 102.354L623.536 99.1716C623.731 98.9763 623.731 98.6597 623.536 98.4645C623.34 98.2692 623.024 98.2692 622.828 98.4645L620 101.293L617.172 98.4645C616.976 98.2692 616.66 98.2692 616.464 98.4645C616.269 98.6597 616.269 98.9763 616.464 99.1716L619.646 102.354ZM618 76.5L618 76L618 76.5ZM146 76.5L146 77L146 76.5ZM143.5 78.5L143.5 101.142L144.5 101.142L144.5 78.5L143.5 78.5ZM146 77L618 77L618 76L146 76L146 77ZM619.5 78.5L619.5 102L620.5 102L620.5 78.5L619.5 78.5ZM618 77C618.828 77 619.5 77.6716 619.5 78.5L620.5 78.5C620.5 77.1193 619.381 76 618 76L618 77ZM144.5 78.5C144.5 77.6716 145.172 77 146 77L146 76C144.619 76 143.5 77.1193 143.5 78.5L144.5 78.5Z" fill="#767478"/>
<path d="M381.129 102.354C381.324 102.549 381.641 102.549 381.836 102.354L385.018 99.1716C385.213 98.9763 385.213 98.6597 385.018 98.4645C384.823 98.2692 384.506 98.2692 384.311 98.4645L381.482 101.293L378.654 98.4645C378.459 98.2692 378.142 98.2692 377.947 98.4645C377.752 98.6597 377.752 98.9763 377.947 99.1716L381.129 102.354ZM380.982 54L380.982 102L381.982 102L381.982 54L380.982 54Z" fill="#767478"/>
<rect x="79.75" y="102.75" width="192.5" height="138.5" fill="#EBF9EB"/>
<rect x="79.75" y="102.75" width="192.5" height="138.5" stroke="#32873D" stroke-width="1.5"/>
<rect x="115.5" y="114.5" width="121" height="33" rx="3.5" fill="white"/>
<rect x="115.5" y="114.5" width="121" height="33" rx="3.5" stroke="#767478"/>
<path d="M132.674 136.232C129.844 136.232 128.148 134.223 128.148 131.071V131.058C128.148 127.893 129.885 125.903 132.674 125.903C135.477 125.903 137.199 127.899 137.199 131.058V131.071C137.199 134.216 135.49 136.232 132.674 136.232ZM132.674 135.098C134.697 135.098 135.941 133.512 135.941 131.071V131.058C135.941 128.597 134.69 127.038 132.674 127.038C130.664 127.038 129.406 128.597 129.406 131.058V131.071C129.406 133.512 130.623 135.098 132.674 135.098ZM139.182 136V128.631H140.371V129.725H140.48C140.761 128.952 141.451 128.501 142.449 128.501C142.675 128.501 142.928 128.528 143.044 128.549V129.704C142.798 129.663 142.572 129.636 142.312 129.636C141.178 129.636 140.371 130.354 140.371 131.434V136H139.182ZM147.344 138.598C145.566 138.598 144.432 137.798 144.247 136.588L144.261 136.581H145.491L145.498 136.588C145.628 137.148 146.284 137.545 147.344 137.545C148.663 137.545 149.449 136.923 149.449 135.836V134.346H149.34C148.875 135.159 148.041 135.617 147.029 135.617C145.122 135.617 143.939 134.141 143.939 132.076V132.062C143.939 129.998 145.129 128.501 147.057 128.501C148.096 128.501 148.902 129.014 149.354 129.848H149.436V128.631H150.625V135.897C150.625 137.545 149.354 138.598 147.344 138.598ZM147.289 134.564C148.656 134.564 149.477 133.539 149.477 132.076V132.062C149.477 130.6 148.649 129.554 147.289 129.554C145.922 129.554 145.156 130.6 145.156 132.062V132.076C145.156 133.539 145.922 134.564 147.289 134.564ZM154.863 136.13C153.462 136.13 152.402 135.282 152.402 133.942V133.929C152.402 132.616 153.373 131.857 155.089 131.755L157.201 131.625V130.955C157.201 130.046 156.647 129.554 155.547 129.554C154.665 129.554 154.084 129.882 153.893 130.456L153.886 130.477H152.696L152.703 130.436C152.895 129.28 154.016 128.501 155.588 128.501C157.386 128.501 158.391 129.424 158.391 130.955V136H157.201V134.913H157.092C156.627 135.699 155.854 136.13 154.863 136.13ZM153.619 133.915C153.619 134.66 154.255 135.098 155.109 135.098C156.319 135.098 157.201 134.305 157.201 133.252V132.582L155.232 132.705C154.111 132.773 153.619 133.17 153.619 133.901V133.915ZM160.564 136V128.631H161.754V129.738H161.863C162.232 128.959 162.923 128.501 164.01 128.501C165.664 128.501 166.587 129.479 166.587 131.229V136H165.397V131.516C165.397 130.189 164.851 129.554 163.675 129.554C162.499 129.554 161.754 130.347 161.754 131.639V136H160.564ZM169.369 127.209C168.918 127.209 168.549 126.84 168.549 126.389C168.549 125.938 168.918 125.568 169.369 125.568C169.82 125.568 170.189 125.938 170.189 126.389C170.189 126.84 169.82 127.209 169.369 127.209ZM168.768 136V128.631H169.957V136H168.768ZM172.028 136V135.139L176.28 129.725V129.615H172.035V128.631H177.682V129.513L173.45 134.906V135.016H177.702V136H172.028ZM181.77 136.13C180.368 136.13 179.309 135.282 179.309 133.942V133.929C179.309 132.616 180.279 131.857 181.995 131.755L184.107 131.625V130.955C184.107 130.046 183.554 129.554 182.453 129.554C181.571 129.554 180.99 129.882 180.799 130.456L180.792 130.477H179.603L179.609 130.436C179.801 129.28 180.922 128.501 182.494 128.501C184.292 128.501 185.297 129.424 185.297 130.955V136H184.107V134.913H183.998C183.533 135.699 182.761 136.13 181.77 136.13ZM180.525 133.915C180.525 134.66 181.161 135.098 182.016 135.098C183.226 135.098 184.107 134.305 184.107 133.252V132.582L182.139 132.705C181.018 132.773 180.525 133.17 180.525 133.901V133.915ZM190.089 136.055C188.571 136.055 187.936 135.494 187.936 134.086V129.615H186.773V128.631H187.936V126.724H189.166V128.631H190.779V129.615H189.166V133.785C189.166 134.653 189.467 135.002 190.232 135.002C190.444 135.002 190.561 134.995 190.779 134.975V135.986C190.547 136.027 190.321 136.055 190.089 136.055ZM193.186 127.209C192.734 127.209 192.365 126.84 192.365 126.389C192.365 125.938 192.734 125.568 193.186 125.568C193.637 125.568 194.006 125.938 194.006 126.389C194.006 126.84 193.637 127.209 193.186 127.209ZM192.584 136V128.631H193.773V136H192.584ZM199.044 136.13C196.945 136.13 195.646 134.681 195.646 132.322V132.309C195.646 129.943 196.945 128.501 199.044 128.501C201.143 128.501 202.441 129.943 202.441 132.309V132.322C202.441 134.681 201.143 136.13 199.044 136.13ZM199.044 135.077C200.438 135.077 201.225 134.059 201.225 132.322V132.309C201.225 130.565 200.438 129.554 199.044 129.554C197.649 129.554 196.863 130.565 196.863 132.309V132.322C196.863 134.059 197.649 135.077 199.044 135.077ZM204.287 136V128.631H205.477V129.738H205.586C205.955 128.959 206.646 128.501 207.732 128.501C209.387 128.501 210.31 129.479 210.31 131.229V136H209.12V131.516C209.12 130.189 208.573 129.554 207.397 129.554C206.222 129.554 205.477 130.347 205.477 131.639V136H204.287ZM215.765 136L219.401 126.136H220.618L224.255 136H222.963L221.972 133.177H218.048L217.057 136H215.765ZM219.955 127.729L218.41 132.131H221.609L220.064 127.729H219.955Z" fill="#191C1D"/>
<path d="M176.018 148L176.007 172" stroke="#767478"/>
<path d="M120.646 195.546C120.842 195.741 121.158 195.741 121.354 195.546L124.536 192.364C124.731 192.169 124.731 191.852 124.536 191.657C124.34 191.462 124.024 191.462 123.828 191.657L121 194.486L118.172 191.657C117.976 191.462 117.66 191.462 117.464 191.657C117.269 191.852 117.269 192.169 117.464 192.364L120.646 195.546ZM230.646 196.354C230.842 196.549 231.158 196.549 231.354 196.354L234.536 193.172C234.731 192.976 234.731 192.66 234.536 192.464C234.34 192.269 234.024 192.269 233.828 192.464L231 195.293L228.172 192.464C227.976 192.269 227.66 192.269 227.464 192.464C227.269 192.66 227.269 192.976 227.464 193.172L230.646 196.354ZM120.5 174L120.5 195.193L121.5 195.193L121.5 174L120.5 174ZM123 172.5L229 172.5L229 171.5L123 171.5L123 172.5ZM230.5 174L230.5 196L231.5 196L231.5 174L230.5 174ZM229 172.5C229.828 172.5 230.5 173.172 230.5 174L231.5 174C231.5 172.619 230.381 171.5 229 171.5L229 172.5ZM121.5 174C121.5 173.172 122.172 172.5 123 172.5L123 171.5C121.619 171.5 120.5 172.619 120.5 174L121.5 174Z" fill="#767478"/>
<rect x="91.5" y="196.5" width="78" height="33" rx="16.5" fill="white"/>
<rect x="91.5" y="196.5" width="78" height="33" rx="16.5" stroke="#767478"/>
<path d="M104.585 218V208.136H106.014L109.391 216.366H109.5L112.877 208.136H114.306V218H113.157V210.467H113.082L109.965 218H108.926L105.809 210.467H105.733V218H104.585ZM119.679 218.13C117.573 218.13 116.302 216.653 116.302 214.343V214.336C116.302 212.06 117.601 210.501 119.604 210.501C121.606 210.501 122.823 211.991 122.823 214.192V214.657H117.519C117.553 216.182 118.394 217.07 119.706 217.07C120.704 217.07 121.319 216.599 121.518 216.154L121.545 216.093H122.734L122.721 216.147C122.468 217.146 121.415 218.13 119.679 218.13ZM119.597 211.561C118.503 211.561 117.669 212.306 117.539 213.707H121.613C121.49 212.251 120.684 211.561 119.597 211.561ZM124.669 218V210.631H125.858V211.752H125.968C126.296 210.959 126.993 210.501 127.957 210.501C128.955 210.501 129.652 211.027 129.994 211.793H130.104C130.5 211.014 131.341 210.501 132.359 210.501C133.863 210.501 134.704 211.362 134.704 212.907V218H133.515V213.181C133.515 212.094 133.016 211.554 131.977 211.554C130.951 211.554 130.274 212.326 130.274 213.263V218H129.085V212.996C129.085 212.121 128.483 211.554 127.554 211.554C126.59 211.554 125.858 212.395 125.858 213.434V218H124.669ZM140.515 218.13C139.489 218.13 138.669 217.645 138.218 216.824H138.108V218H136.919V207.705H138.108V211.793H138.218C138.621 211.007 139.503 210.501 140.515 210.501C142.388 210.501 143.604 211.998 143.604 214.309V214.322C143.604 216.619 142.381 218.13 140.515 218.13ZM140.241 217.077C141.588 217.077 142.388 216.038 142.388 214.322V214.309C142.388 212.593 141.588 211.554 140.241 211.554C138.901 211.554 138.081 212.606 138.081 214.309V214.322C138.081 216.024 138.901 217.077 140.241 217.077ZM148.458 218.13C146.353 218.13 145.081 216.653 145.081 214.343V214.336C145.081 212.06 146.38 210.501 148.383 210.501C150.386 210.501 151.603 211.991 151.603 214.192V214.657H146.298C146.332 216.182 147.173 217.07 148.485 217.07C149.483 217.07 150.099 216.599 150.297 216.154L150.324 216.093H151.514L151.5 216.147C151.247 217.146 150.194 218.13 148.458 218.13ZM148.376 211.561C147.282 211.561 146.448 212.306 146.318 213.707H150.393C150.27 212.251 149.463 211.561 148.376 211.561ZM153.448 218V210.631H154.638V211.725H154.747C155.027 210.952 155.718 210.501 156.716 210.501C156.941 210.501 157.194 210.528 157.311 210.549V211.704C157.064 211.663 156.839 211.636 156.579 211.636C155.444 211.636 154.638 212.354 154.638 213.434V218H153.448Z" fill="#191C1D"/>
<rect x="182.5" y="196.5" width="78" height="33" rx="16.5" fill="white"/>
<rect x="182.5" y="196.5" width="78" height="33" rx="16.5" stroke="#767478"/>
<path d="M195.585 218V208.136H197.014L200.391 216.366H200.5L203.877 208.136H205.306V218H204.157V210.467H204.082L200.965 218H199.926L196.809 210.467H196.733V218H195.585ZM210.679 218.13C208.573 218.13 207.302 216.653 207.302 214.343V214.336C207.302 212.06 208.601 210.501 210.604 210.501C212.606 210.501 213.823 211.991 213.823 214.192V214.657H208.519C208.553 216.182 209.394 217.07 210.706 217.07C211.704 217.07 212.319 216.599 212.518 216.154L212.545 216.093H213.734L213.721 216.147C213.468 217.146 212.415 218.13 210.679 218.13ZM210.597 211.561C209.503 211.561 208.669 212.306 208.539 213.707H212.613C212.49 212.251 211.684 211.561 210.597 211.561ZM215.669 218V210.631H216.858V211.752H216.968C217.296 210.959 217.993 210.501 218.957 210.501C219.955 210.501 220.652 211.027 220.994 211.793H221.104C221.5 211.014 222.341 210.501 223.359 210.501C224.863 210.501 225.704 211.362 225.704 212.907V218H224.515V213.181C224.515 212.094 224.016 211.554 222.977 211.554C221.951 211.554 221.274 212.326 221.274 213.263V218H220.085V212.996C220.085 212.121 219.483 211.554 218.554 211.554C217.59 211.554 216.858 212.395 216.858 213.434V218H215.669ZM231.515 218.13C230.489 218.13 229.669 217.645 229.218 216.824H229.108V218H227.919V207.705H229.108V211.793H229.218C229.621 211.007 230.503 210.501 231.515 210.501C233.388 210.501 234.604 211.998 234.604 214.309V214.322C234.604 216.619 233.381 218.13 231.515 218.13ZM231.241 217.077C232.588 217.077 233.388 216.038 233.388 214.322V214.309C233.388 212.593 232.588 211.554 231.241 211.554C229.901 211.554 229.081 212.606 229.081 214.309V214.322C229.081 216.024 229.901 217.077 231.241 217.077ZM239.458 218.13C237.353 218.13 236.081 216.653 236.081 214.343V214.336C236.081 212.06 237.38 210.501 239.383 210.501C241.386 210.501 242.603 211.991 242.603 214.192V214.657H237.298C237.332 216.182 238.173 217.07 239.485 217.07C240.483 217.07 241.099 216.599 241.297 216.154L241.324 216.093H242.514L242.5 216.147C242.247 217.146 241.194 218.13 239.458 218.13ZM239.376 211.561C238.282 211.561 237.448 212.306 237.318 213.707H241.393C241.27 212.251 240.463 211.561 239.376 211.561ZM244.448 218V210.631H245.638V211.725H245.747C246.027 210.952 246.718 210.501 247.716 210.501C247.941 210.501 248.194 210.528 248.311 210.549V211.704C248.064 211.663 247.839 211.636 247.579 211.636C246.444 211.636 245.638 212.354 245.638 213.434V218H244.448Z" fill="#191C1D"/>
<path d="M285.75 102.75H478.25V241.25H285.75V102.75Z" fill="#EBF9EB"/>
<path d="M285.75 102.75H478.25V241.25H285.75V102.75Z" stroke="#32873D" stroke-width="1.5"/>
<rect x="321.5" y="114.5" width="121" height="33" rx="3.5" fill="white"/>
<rect x="321.5" y="114.5" width="121" height="33" rx="3.5" stroke="#767478"/>
<path d="M338.79 136.232C335.96 136.232 334.265 134.223 334.265 131.071V131.058C334.265 127.893 336.001 125.903 338.79 125.903C341.593 125.903 343.315 127.899 343.315 131.058V131.071C343.315 134.216 341.606 136.232 338.79 136.232ZM338.79 135.098C340.813 135.098 342.058 133.512 342.058 131.071V131.058C342.058 128.597 340.807 127.038 338.79 127.038C336.78 127.038 335.522 128.597 335.522 131.058V131.071C335.522 133.512 336.739 135.098 338.79 135.098ZM345.298 136V128.631H346.487V129.725H346.597C346.877 128.952 347.567 128.501 348.565 128.501C348.791 128.501 349.044 128.528 349.16 128.549V129.704C348.914 129.663 348.688 129.636 348.429 129.636C347.294 129.636 346.487 130.354 346.487 131.434V136H345.298ZM353.46 138.598C351.683 138.598 350.548 137.798 350.363 136.588L350.377 136.581H351.607L351.614 136.588C351.744 137.148 352.4 137.545 353.46 137.545C354.779 137.545 355.565 136.923 355.565 135.836V134.346H355.456C354.991 135.159 354.157 135.617 353.146 135.617C351.238 135.617 350.056 134.141 350.056 132.076V132.062C350.056 129.998 351.245 128.501 353.173 128.501C354.212 128.501 355.019 129.014 355.47 129.848H355.552V128.631H356.741V135.897C356.741 137.545 355.47 138.598 353.46 138.598ZM353.405 134.564C354.772 134.564 355.593 133.539 355.593 132.076V132.062C355.593 130.6 354.766 129.554 353.405 129.554C352.038 129.554 351.272 130.6 351.272 132.062V132.076C351.272 133.539 352.038 134.564 353.405 134.564ZM360.979 136.13C359.578 136.13 358.519 135.282 358.519 133.942V133.929C358.519 132.616 359.489 131.857 361.205 131.755L363.317 131.625V130.955C363.317 130.046 362.764 129.554 361.663 129.554C360.781 129.554 360.2 129.882 360.009 130.456L360.002 130.477H358.812L358.819 130.436C359.011 129.28 360.132 128.501 361.704 128.501C363.502 128.501 364.507 129.424 364.507 130.955V136H363.317V134.913H363.208C362.743 135.699 361.971 136.13 360.979 136.13ZM359.735 133.915C359.735 134.66 360.371 135.098 361.226 135.098C362.436 135.098 363.317 134.305 363.317 133.252V132.582L361.349 132.705C360.228 132.773 359.735 133.17 359.735 133.901V133.915ZM366.681 136V128.631H367.87V129.738H367.979C368.349 128.959 369.039 128.501 370.126 128.501C371.78 128.501 372.703 129.479 372.703 131.229V136H371.514V131.516C371.514 130.189 370.967 129.554 369.791 129.554C368.615 129.554 367.87 130.347 367.87 131.639V136H366.681ZM375.485 127.209C375.034 127.209 374.665 126.84 374.665 126.389C374.665 125.938 375.034 125.568 375.485 125.568C375.937 125.568 376.306 125.938 376.306 126.389C376.306 126.84 375.937 127.209 375.485 127.209ZM374.884 136V128.631H376.073V136H374.884ZM378.145 136V135.139L382.396 129.725V129.615H378.151V128.631H383.798V129.513L379.566 134.906V135.016H383.818V136H378.145ZM387.886 136.13C386.484 136.13 385.425 135.282 385.425 133.942V133.929C385.425 132.616 386.396 131.857 388.111 131.755L390.224 131.625V130.955C390.224 130.046 389.67 129.554 388.569 129.554C387.688 129.554 387.106 129.882 386.915 130.456L386.908 130.477H385.719L385.726 130.436C385.917 129.28 387.038 128.501 388.61 128.501C390.408 128.501 391.413 129.424 391.413 130.955V136H390.224V134.913H390.114C389.649 135.699 388.877 136.13 387.886 136.13ZM386.642 133.915C386.642 134.66 387.277 135.098 388.132 135.098C389.342 135.098 390.224 134.305 390.224 133.252V132.582L388.255 132.705C387.134 132.773 386.642 133.17 386.642 133.901V133.915ZM396.205 136.055C394.688 136.055 394.052 135.494 394.052 134.086V129.615H392.89V128.631H394.052V126.724H395.282V128.631H396.896V129.615H395.282V133.785C395.282 134.653 395.583 135.002 396.349 135.002C396.561 135.002 396.677 134.995 396.896 134.975V135.986C396.663 136.027 396.438 136.055 396.205 136.055ZM399.302 127.209C398.851 127.209 398.481 126.84 398.481 126.389C398.481 125.938 398.851 125.568 399.302 125.568C399.753 125.568 400.122 125.938 400.122 126.389C400.122 126.84 399.753 127.209 399.302 127.209ZM398.7 136V128.631H399.89V136H398.7ZM405.16 136.13C403.062 136.13 401.763 134.681 401.763 132.322V132.309C401.763 129.943 403.062 128.501 405.16 128.501C407.259 128.501 408.558 129.943 408.558 132.309V132.322C408.558 134.681 407.259 136.13 405.16 136.13ZM405.16 135.077C406.555 135.077 407.341 134.059 407.341 132.322V132.309C407.341 130.565 406.555 129.554 405.16 129.554C403.766 129.554 402.979 130.565 402.979 132.309V132.322C402.979 134.059 403.766 135.077 405.16 135.077ZM410.403 136V128.631H411.593V129.738H411.702C412.071 128.959 412.762 128.501 413.849 128.501C415.503 128.501 416.426 129.479 416.426 131.229V136H415.236V131.516C415.236 130.189 414.689 129.554 413.514 129.554C412.338 129.554 411.593 130.347 411.593 131.639V136H410.403ZM422.667 136V126.136H426.44C428.252 126.136 429.359 127.086 429.359 128.59V128.604C429.359 129.622 428.607 130.552 427.657 130.723V130.832C429.004 131.003 429.858 131.926 429.858 133.225V133.238C429.858 134.968 428.614 136 426.516 136H422.667ZM426.181 127.223H423.897V130.388H425.866C427.356 130.388 428.115 129.854 428.115 128.815V128.802C428.115 127.804 427.404 127.223 426.181 127.223ZM426.215 131.447H423.897V134.913H426.331C427.814 134.913 428.594 134.312 428.594 133.177V133.163C428.594 132.028 427.787 131.447 426.215 131.447Z" fill="#191C1D"/>
<path d="M382.018 148L382.007 172" stroke="#767478"/>
<path d="M326.646 195.546C326.842 195.741 327.158 195.741 327.354 195.546L330.536 192.364C330.731 192.169 330.731 191.852 330.536 191.657C330.34 191.462 330.024 191.462 329.828 191.657L327 194.486L324.172 191.657C323.976 191.462 323.66 191.462 323.464 191.657C323.269 191.852 323.269 192.169 323.464 192.364L326.646 195.546ZM436.646 196.354C436.842 196.549 437.158 196.549 437.354 196.354L440.536 193.172C440.731 192.976 440.731 192.66 440.536 192.464C440.34 192.269 440.024 192.269 439.828 192.464L437 195.293L434.172 192.464C433.976 192.269 433.66 192.269 433.464 192.464C433.269 192.66 433.269 192.976 433.464 193.172L436.646 196.354ZM326.5 174L326.5 195.193L327.5 195.193L327.5 174L326.5 174ZM329 172.5L435 172.5L435 171.5L329 171.5L329 172.5ZM436.5 174L436.5 196L437.5 196L437.5 174L436.5 174ZM435 172.5C435.828 172.5 436.5 173.172 436.5 174L437.5 174C437.5 172.619 436.381 171.5 435 171.5L435 172.5ZM327.5 174C327.5 173.172 328.172 172.5 329 172.5L329 171.5C327.619 171.5 326.5 172.619 326.5 174L327.5 174Z" fill="#767478"/>
<rect x="297.5" y="196.5" width="78" height="33" rx="16.5" fill="white"/>
<rect x="297.5" y="196.5" width="78" height="33" rx="16.5" stroke="#767478"/>
<path d="M310.585 218V208.136H312.014L315.391 216.366H315.5L318.877 208.136H320.306V218H319.157V210.467H319.082L315.965 218H314.926L311.809 210.467H311.733V218H310.585ZM325.679 218.13C323.573 218.13 322.302 216.653 322.302 214.343V214.336C322.302 212.06 323.601 210.501 325.604 210.501C327.606 210.501 328.823 211.991 328.823 214.192V214.657H323.519C323.553 216.182 324.394 217.07 325.706 217.07C326.704 217.07 327.319 216.599 327.518 216.154L327.545 216.093H328.734L328.721 216.147C328.468 217.146 327.415 218.13 325.679 218.13ZM325.597 211.561C324.503 211.561 323.669 212.306 323.539 213.707H327.613C327.49 212.251 326.684 211.561 325.597 211.561ZM330.669 218V210.631H331.858V211.752H331.968C332.296 210.959 332.993 210.501 333.957 210.501C334.955 210.501 335.652 211.027 335.994 211.793H336.104C336.5 211.014 337.341 210.501 338.359 210.501C339.863 210.501 340.704 211.362 340.704 212.907V218H339.515V213.181C339.515 212.094 339.016 211.554 337.977 211.554C336.951 211.554 336.274 212.326 336.274 213.263V218H335.085V212.996C335.085 212.121 334.483 211.554 333.554 211.554C332.59 211.554 331.858 212.395 331.858 213.434V218H330.669ZM346.515 218.13C345.489 218.13 344.669 217.645 344.218 216.824H344.108V218H342.919V207.705H344.108V211.793H344.218C344.621 211.007 345.503 210.501 346.515 210.501C348.388 210.501 349.604 211.998 349.604 214.309V214.322C349.604 216.619 348.381 218.13 346.515 218.13ZM346.241 217.077C347.588 217.077 348.388 216.038 348.388 214.322V214.309C348.388 212.593 347.588 211.554 346.241 211.554C344.901 211.554 344.081 212.606 344.081 214.309V214.322C344.081 216.024 344.901 217.077 346.241 217.077ZM354.458 218.13C352.353 218.13 351.081 216.653 351.081 214.343V214.336C351.081 212.06 352.38 210.501 354.383 210.501C356.386 210.501 357.603 211.991 357.603 214.192V214.657H352.298C352.332 216.182 353.173 217.07 354.485 217.07C355.483 217.07 356.099 216.599 356.297 216.154L356.324 216.093H357.514L357.5 216.147C357.247 217.146 356.194 218.13 354.458 218.13ZM354.376 211.561C353.282 211.561 352.448 212.306 352.318 213.707H356.393C356.27 212.251 355.463 211.561 354.376 211.561ZM359.448 218V210.631H360.638V211.725H360.747C361.027 210.952 361.718 210.501 362.716 210.501C362.941 210.501 363.194 210.528 363.311 210.549V211.704C363.064 211.663 362.839 211.636 362.579 211.636C361.444 211.636 360.638 212.354 360.638 213.434V218H359.448Z" fill="#191C1D"/>
<rect x="388.5" y="196.5" width="78" height="33" rx="16.5" fill="white"/>
<rect x="388.5" y="196.5" width="78" height="33" rx="16.5" stroke="#767478"/>
<path d="M401.585 218V208.136H403.014L406.391 216.366H406.5L409.877 208.136H411.306V218H410.157V210.467H410.082L406.965 218H405.926L402.809 210.467H402.733V218H401.585ZM416.679 218.13C414.573 218.13 413.302 216.653 413.302 214.343V214.336C413.302 212.06 414.601 210.501 416.604 210.501C418.606 210.501 419.823 211.991 419.823 214.192V214.657H414.519C414.553 216.182 415.394 217.07 416.706 217.07C417.704 217.07 418.319 216.599 418.518 216.154L418.545 216.093H419.734L419.721 216.147C419.468 217.146 418.415 218.13 416.679 218.13ZM416.597 211.561C415.503 211.561 414.669 212.306 414.539 213.707H418.613C418.49 212.251 417.684 211.561 416.597 211.561ZM421.669 218V210.631H422.858V211.752H422.968C423.296 210.959 423.993 210.501 424.957 210.501C425.955 210.501 426.652 211.027 426.994 211.793H427.104C427.5 211.014 428.341 210.501 429.359 210.501C430.863 210.501 431.704 211.362 431.704 212.907V218H430.515V213.181C430.515 212.094 430.016 211.554 428.977 211.554C427.951 211.554 427.274 212.326 427.274 213.263V218H426.085V212.996C426.085 212.121 425.483 211.554 424.554 211.554C423.59 211.554 422.858 212.395 422.858 213.434V218H421.669ZM437.515 218.13C436.489 218.13 435.669 217.645 435.218 216.824H435.108V218H433.919V207.705H435.108V211.793H435.218C435.621 211.007 436.503 210.501 437.515 210.501C439.388 210.501 440.604 211.998 440.604 214.309V214.322C440.604 216.619 439.381 218.13 437.515 218.13ZM437.241 217.077C438.588 217.077 439.388 216.038 439.388 214.322V214.309C439.388 212.593 438.588 211.554 437.241 211.554C435.901 211.554 435.081 212.606 435.081 214.309V214.322C435.081 216.024 435.901 217.077 437.241 217.077ZM445.458 218.13C443.353 218.13 442.081 216.653 442.081 214.343V214.336C442.081 212.06 443.38 210.501 445.383 210.501C447.386 210.501 448.603 211.991 448.603 214.192V214.657H443.298C443.332 216.182 444.173 217.07 445.485 217.07C446.483 217.07 447.099 216.599 447.297 216.154L447.324 216.093H448.514L448.5 216.147C448.247 217.146 447.194 218.13 445.458 218.13ZM445.376 211.561C444.282 211.561 443.448 212.306 443.318 213.707H447.393C447.27 212.251 446.463 211.561 445.376 211.561ZM450.448 218V210.631H451.638V211.725H451.747C452.027 210.952 452.718 210.501 453.716 210.501C453.941 210.501 454.194 210.528 454.311 210.549V211.704C454.064 211.663 453.839 211.636 453.579 211.636C452.444 211.636 451.638 212.354 451.638 213.434V218H450.448Z" fill="#191C1D"/>
<path d="M491.75 102.75H684.25V241.25H491.75V102.75Z" fill="#EBF9EB"/>
<path d="M491.75 102.75H684.25V241.25H491.75V102.75Z" stroke="#32873D" stroke-width="1.5"/>
<rect x="527" y="114.5" width="122" height="33" rx="3.5" fill="white"/>
<rect x="527" y="114.5" width="122" height="33" rx="3.5" stroke="#767478"/>
<path d="M544.38 136.232C541.55 136.232 539.854 134.223 539.854 131.071V131.058C539.854 127.893 541.591 125.903 544.38 125.903C547.183 125.903 548.905 127.899 548.905 131.058V131.071C548.905 134.216 547.196 136.232 544.38 136.232ZM544.38 135.098C546.403 135.098 547.647 133.512 547.647 131.071V131.058C547.647 128.597 546.396 127.038 544.38 127.038C542.37 127.038 541.112 128.597 541.112 131.058V131.071C541.112 133.512 542.329 135.098 544.38 135.098ZM550.888 136V128.631H552.077V129.725H552.187C552.467 128.952 553.157 128.501 554.155 128.501C554.381 128.501 554.634 128.528 554.75 128.549V129.704C554.504 129.663 554.278 129.636 554.019 129.636C552.884 129.636 552.077 130.354 552.077 131.434V136H550.888ZM559.05 138.598C557.272 138.598 556.138 137.798 555.953 136.588L555.967 136.581H557.197L557.204 136.588C557.334 137.148 557.99 137.545 559.05 137.545C560.369 137.545 561.155 136.923 561.155 135.836V134.346H561.046C560.581 135.159 559.747 135.617 558.735 135.617C556.828 135.617 555.646 134.141 555.646 132.076V132.062C555.646 129.998 556.835 128.501 558.763 128.501C559.802 128.501 560.608 129.014 561.06 129.848H561.142V128.631H562.331V135.897C562.331 137.545 561.06 138.598 559.05 138.598ZM558.995 134.564C560.362 134.564 561.183 133.539 561.183 132.076V132.062C561.183 130.6 560.355 129.554 558.995 129.554C557.628 129.554 556.862 130.6 556.862 132.062V132.076C556.862 133.539 557.628 134.564 558.995 134.564ZM566.569 136.13C565.168 136.13 564.108 135.282 564.108 133.942V133.929C564.108 132.616 565.079 131.857 566.795 131.755L568.907 131.625V130.955C568.907 130.046 568.354 129.554 567.253 129.554C566.371 129.554 565.79 129.882 565.599 130.456L565.592 130.477H564.402L564.409 130.436C564.601 129.28 565.722 128.501 567.294 128.501C569.092 128.501 570.097 129.424 570.097 130.955V136H568.907V134.913H568.798C568.333 135.699 567.561 136.13 566.569 136.13ZM565.325 133.915C565.325 134.66 565.961 135.098 566.815 135.098C568.025 135.098 568.907 134.305 568.907 133.252V132.582L566.938 132.705C565.817 132.773 565.325 133.17 565.325 133.901V133.915ZM572.271 136V128.631H573.46V129.738H573.569C573.938 128.959 574.629 128.501 575.716 128.501C577.37 128.501 578.293 129.479 578.293 131.229V136H577.104V131.516C577.104 130.189 576.557 129.554 575.381 129.554C574.205 129.554 573.46 130.347 573.46 131.639V136H572.271ZM581.075 127.209C580.624 127.209 580.255 126.84 580.255 126.389C580.255 125.938 580.624 125.568 581.075 125.568C581.526 125.568 581.896 125.938 581.896 126.389C581.896 126.84 581.526 127.209 581.075 127.209ZM580.474 136V128.631H581.663V136H580.474ZM583.734 136V135.139L587.986 129.725V129.615H583.741V128.631H589.388V129.513L585.156 134.906V135.016H589.408V136H583.734ZM593.476 136.13C592.074 136.13 591.015 135.282 591.015 133.942V133.929C591.015 132.616 591.985 131.857 593.701 131.755L595.813 131.625V130.955C595.813 130.046 595.26 129.554 594.159 129.554C593.277 129.554 592.696 129.882 592.505 130.456L592.498 130.477H591.309L591.315 130.436C591.507 129.28 592.628 128.501 594.2 128.501C595.998 128.501 597.003 129.424 597.003 130.955V136H595.813V134.913H595.704C595.239 135.699 594.467 136.13 593.476 136.13ZM592.231 133.915C592.231 134.66 592.867 135.098 593.722 135.098C594.932 135.098 595.813 134.305 595.813 133.252V132.582L593.845 132.705C592.724 132.773 592.231 133.17 592.231 133.901V133.915ZM601.795 136.055C600.277 136.055 599.642 135.494 599.642 134.086V129.615H598.479V128.631H599.642V126.724H600.872V128.631H602.485V129.615H600.872V133.785C600.872 134.653 601.173 135.002 601.938 135.002C602.15 135.002 602.267 134.995 602.485 134.975V135.986C602.253 136.027 602.027 136.055 601.795 136.055ZM604.892 127.209C604.44 127.209 604.071 126.84 604.071 126.389C604.071 125.938 604.44 125.568 604.892 125.568C605.343 125.568 605.712 125.938 605.712 126.389C605.712 126.84 605.343 127.209 604.892 127.209ZM604.29 136V128.631H605.479V136H604.29ZM610.75 136.13C608.651 136.13 607.353 134.681 607.353 132.322V132.309C607.353 129.943 608.651 128.501 610.75 128.501C612.849 128.501 614.147 129.943 614.147 132.309V132.322C614.147 134.681 612.849 136.13 610.75 136.13ZM610.75 135.077C612.145 135.077 612.931 134.059 612.931 132.322V132.309C612.931 130.565 612.145 129.554 610.75 129.554C609.355 129.554 608.569 130.565 608.569 132.309V132.322C608.569 134.059 609.355 135.077 610.75 135.077ZM615.993 136V128.631H617.183V129.738H617.292C617.661 128.959 618.352 128.501 619.438 128.501C621.093 128.501 622.016 129.479 622.016 131.229V136H620.826V131.516C620.826 130.189 620.279 129.554 619.104 129.554C617.928 129.554 617.183 130.347 617.183 131.639V136H615.993ZM632.229 136.232C629.549 136.232 627.874 134.25 627.874 131.078V131.064C627.874 127.886 629.542 125.903 632.222 125.903C634.3 125.903 635.92 127.209 636.214 129.103L636.207 129.116H634.97L634.963 129.103C634.635 127.838 633.582 127.038 632.222 127.038C630.328 127.038 629.139 128.597 629.139 131.064V131.078C629.139 133.546 630.328 135.098 632.229 135.098C633.603 135.098 634.648 134.394 634.956 133.259L634.97 133.245H636.214V133.259C635.886 135.063 634.327 136.232 632.229 136.232Z" fill="#191C1D"/>
<path d="M588.018 148L588.007 172" stroke="#767478"/>
<path d="M532.646 195.546C532.842 195.741 533.158 195.741 533.354 195.546L536.536 192.364C536.731 192.169 536.731 191.852 536.536 191.657C536.34 191.462 536.024 191.462 535.828 191.657L533 194.486L530.172 191.657C529.976 191.462 529.66 191.462 529.464 191.657C529.269 191.852 529.269 192.169 529.464 192.364L532.646 195.546ZM642.646 196.354C642.842 196.549 643.158 196.549 643.354 196.354L646.536 193.172C646.731 192.976 646.731 192.66 646.536 192.464C646.34 192.269 646.024 192.269 645.828 192.464L643 195.293L640.172 192.464C639.976 192.269 639.66 192.269 639.464 192.464C639.269 192.66 639.269 192.976 639.464 193.172L642.646 196.354ZM532.5 174L532.5 195.193L533.5 195.193L533.5 174L532.5 174ZM535 172.5L641 172.5L641 171.5L535 171.5L535 172.5ZM642.5 174L642.5 196L643.5 196L643.5 174L642.5 174ZM641 172.5C641.828 172.5 642.5 173.172 642.5 174L643.5 174C643.5 172.619 642.381 171.5 641 171.5L641 172.5ZM533.5 174C533.5 173.172 534.172 172.5 535 172.5L535 171.5C533.619 171.5 532.5 172.619 532.5 174L533.5 174Z" fill="#767478"/>
<rect x="503.5" y="196.5" width="78" height="33" rx="16.5" fill="white"/>
<rect x="503.5" y="196.5" width="78" height="33" rx="16.5" stroke="#767478"/>
<path d="M516.585 218V208.136H518.014L521.391 216.366H521.5L524.877 208.136H526.306V218H525.157V210.467H525.082L521.965 218H520.926L517.809 210.467H517.733V218H516.585ZM531.679 218.13C529.573 218.13 528.302 216.653 528.302 214.343V214.336C528.302 212.06 529.601 210.501 531.604 210.501C533.606 210.501 534.823 211.991 534.823 214.192V214.657H529.519C529.553 216.182 530.394 217.07 531.706 217.07C532.704 217.07 533.319 216.599 533.518 216.154L533.545 216.093H534.734L534.721 216.147C534.468 217.146 533.415 218.13 531.679 218.13ZM531.597 211.561C530.503 211.561 529.669 212.306 529.539 213.707H533.613C533.49 212.251 532.684 211.561 531.597 211.561ZM536.669 218V210.631H537.858V211.752H537.968C538.296 210.959 538.993 210.501 539.957 210.501C540.955 210.501 541.652 211.027 541.994 211.793H542.104C542.5 211.014 543.341 210.501 544.359 210.501C545.863 210.501 546.704 211.362 546.704 212.907V218H545.515V213.181C545.515 212.094 545.016 211.554 543.977 211.554C542.951 211.554 542.274 212.326 542.274 213.263V218H541.085V212.996C541.085 212.121 540.483 211.554 539.554 211.554C538.59 211.554 537.858 212.395 537.858 213.434V218H536.669ZM552.515 218.13C551.489 218.13 550.669 217.645 550.218 216.824H550.108V218H548.919V207.705H550.108V211.793H550.218C550.621 211.007 551.503 210.501 552.515 210.501C554.388 210.501 555.604 211.998 555.604 214.309V214.322C555.604 216.619 554.381 218.13 552.515 218.13ZM552.241 217.077C553.588 217.077 554.388 216.038 554.388 214.322V214.309C554.388 212.593 553.588 211.554 552.241 211.554C550.901 211.554 550.081 212.606 550.081 214.309V214.322C550.081 216.024 550.901 217.077 552.241 217.077ZM560.458 218.13C558.353 218.13 557.081 216.653 557.081 214.343V214.336C557.081 212.06 558.38 210.501 560.383 210.501C562.386 210.501 563.603 211.991 563.603 214.192V214.657H558.298C558.332 216.182 559.173 217.07 560.485 217.07C561.483 217.07 562.099 216.599 562.297 216.154L562.324 216.093H563.514L563.5 216.147C563.247 217.146 562.194 218.13 560.458 218.13ZM560.376 211.561C559.282 211.561 558.448 212.306 558.318 213.707H562.393C562.27 212.251 561.463 211.561 560.376 211.561ZM565.448 218V210.631H566.638V211.725H566.747C567.027 210.952 567.718 210.501 568.716 210.501C568.941 210.501 569.194 210.528 569.311 210.549V211.704C569.064 211.663 568.839 211.636 568.579 211.636C567.444 211.636 566.638 212.354 566.638 213.434V218H565.448Z" fill="#191C1D"/>
<rect x="594.5" y="196.5" width="78" height="33" rx="16.5" fill="white"/>
<rect x="594.5" y="196.5" width="78" height="33" rx="16.5" stroke="#767478"/>
<path d="M607.585 218V208.136H609.014L612.391 216.366H612.5L615.877 208.136H617.306V218H616.157V210.467H616.082L612.965 218H611.926L608.809 210.467H608.733V218H607.585ZM622.679 218.13C620.573 218.13 619.302 216.653 619.302 214.343V214.336C619.302 212.06 620.601 210.501 622.604 210.501C624.606 210.501 625.823 211.991 625.823 214.192V214.657H620.519C620.553 216.182 621.394 217.07 622.706 217.07C623.704 217.07 624.319 216.599 624.518 216.154L624.545 216.093H625.734L625.721 216.147C625.468 217.146 624.415 218.13 622.679 218.13ZM622.597 211.561C621.503 211.561 620.669 212.306 620.539 213.707H624.613C624.49 212.251 623.684 211.561 622.597 211.561ZM627.669 218V210.631H628.858V211.752H628.968C629.296 210.959 629.993 210.501 630.957 210.501C631.955 210.501 632.652 211.027 632.994 211.793H633.104C633.5 211.014 634.341 210.501 635.359 210.501C636.863 210.501 637.704 211.362 637.704 212.907V218H636.515V213.181C636.515 212.094 636.016 211.554 634.977 211.554C633.951 211.554 633.274 212.326 633.274 213.263V218H632.085V212.996C632.085 212.121 631.483 211.554 630.554 211.554C629.59 211.554 628.858 212.395 628.858 213.434V218H627.669ZM643.515 218.13C642.489 218.13 641.669 217.645 641.218 216.824H641.108V218H639.919V207.705H641.108V211.793H641.218C641.621 211.007 642.503 210.501 643.515 210.501C645.388 210.501 646.604 211.998 646.604 214.309V214.322C646.604 216.619 645.381 218.13 643.515 218.13ZM643.241 217.077C644.588 217.077 645.388 216.038 645.388 214.322V214.309C645.388 212.593 644.588 211.554 643.241 211.554C641.901 211.554 641.081 212.606 641.081 214.309V214.322C641.081 216.024 641.901 217.077 643.241 217.077ZM651.458 218.13C649.353 218.13 648.081 216.653 648.081 214.343V214.336C648.081 212.06 649.38 210.501 651.383 210.501C653.386 210.501 654.603 211.991 654.603 214.192V214.657H649.298C649.332 216.182 650.173 217.07 651.485 217.07C652.483 217.07 653.099 216.599 653.297 216.154L653.324 216.093H654.514L654.5 216.147C654.247 217.146 653.194 218.13 651.458 218.13ZM651.376 211.561C650.282 211.561 649.448 212.306 649.318 213.707H653.393C653.27 212.251 652.463 211.561 651.376 211.561ZM656.448 218V210.631H657.638V211.725H657.747C658.027 210.952 658.718 210.501 659.716 210.501C659.941 210.501 660.194 210.528 660.311 210.549V211.704C660.064 211.663 659.839 211.636 659.579 211.636C658.444 211.636 657.638 212.354 657.638 213.434V218H656.448Z" fill="#191C1D"/>
</svg>
