<svg width="20" height="20" viewBox="0 0 20 20" fill="none" xmlns="http://www.w3.org/2000/svg">
  <rect x="0.75" y="4.67773" width="18.5" height="10.6441" rx="1.25" stroke="currentColor" stroke-width="1.5" />
  <path
    d="M2.85809 13.0859L2.80972 13.2199H2.95215H3.96836H4.04027L4.06316 13.1517L4.60675 11.5334H6.8498L7.38917 13.1515L7.41196 13.2199H7.48404H8.50458H8.647L8.59864 13.0859L6.34566 6.84592L6.32182 6.77988H6.25161H5.20512H5.13491L5.11106 6.84592L2.85809 13.0859ZM9.48999 13.1199V13.2199H9.58999H10.5586H10.6586V13.1199V11.088H12.0203C12.6554 11.088 13.1995 10.871 13.5852 10.4893C13.971 10.1076 14.1916 9.56751 14.1916 8.93394V8.92529C14.1916 8.28958 13.971 7.75152 13.5849 7.37232C13.1991 6.99331 12.6549 6.77988 12.0203 6.77988H9.58999H9.48999V6.87988V13.1199ZM15.2413 13.1199V13.2199H15.3413H16.31H16.41V13.1199V6.87988V6.77988H16.31H15.3413H15.2413V6.87988V13.1199ZM6.52339 10.555H4.93312L5.72634 8.17919L6.52339 10.555ZM10.6586 10.075V7.79718H11.7781C12.1802 7.79718 12.485 7.90585 12.6884 8.09478C12.8909 8.28276 13.0057 8.56191 13.0057 8.92961V8.93826C13.0057 9.30828 12.8908 9.5885 12.6883 9.77696C12.4849 9.96635 12.1802 10.075 11.7781 10.075H10.6586Z"
    fill="currentColor" stroke="currentColor" stroke-width="0.2" />
</svg>