<svg width="20" height="20" viewBox="0 0 20 20" fill="none" xmlns="http://www.w3.org/2000/svg">
  <path
    d="M2.91671 5C2.75189 5 2.59077 5.04887 2.45373 5.14044C2.31669 5.23201 2.20988 5.36216 2.14681 5.51443C2.08374 5.6667 2.06723 5.83426 2.09939 5.99591C2.13154 6.15756 2.21091 6.30605 2.32745 6.42259C2.444 6.53913 2.59248 6.6185 2.75413 6.65065C2.91578 6.68281 3.08334 6.66631 3.23561 6.60323C3.38788 6.54016 3.51803 6.43335 3.6096 6.29631C3.70117 6.15927 3.75004 5.99815 3.75004 5.83333C3.75004 5.61232 3.66224 5.40036 3.50596 5.24408C3.34968 5.0878 3.13772 5 2.91671 5ZM6.25004 6.66667H17.9167C18.1377 6.66667 18.3497 6.57887 18.506 6.42259C18.6622 6.26631 18.75 6.05435 18.75 5.83333C18.75 5.61232 18.6622 5.40036 18.506 5.24408C18.3497 5.0878 18.1377 5 17.9167 5H6.25004C6.02903 5 5.81707 5.0878 5.66079 5.24408C5.50451 5.40036 5.41671 5.61232 5.41671 5.83333C5.41671 6.05435 5.50451 6.26631 5.66079 6.42259C5.81707 6.57887 6.02903 6.66667 6.25004 6.66667ZM6.25004 9.16667C6.08522 9.16667 5.92411 9.21554 5.78707 9.30711C5.65003 9.39868 5.54321 9.52883 5.48014 9.6811C5.41707 9.83337 5.40057 10.0009 5.43272 10.1626C5.46487 10.3242 5.54424 10.4727 5.66079 10.5893C5.77733 10.7058 5.92582 10.7852 6.08747 10.8173C6.24912 10.8495 6.41667 10.833 6.56894 10.7699C6.72122 10.7068 6.85136 10.6 6.94293 10.463C7.0345 10.3259 7.08337 10.1648 7.08337 10C7.08337 9.77899 6.99558 9.56703 6.8393 9.41074C6.68302 9.25446 6.47106 9.16667 6.25004 9.16667ZM9.58337 13.3333C9.41856 13.3333 9.25744 13.3822 9.1204 13.4738C8.98336 13.5653 8.87655 13.6955 8.81348 13.8478C8.7504 14 8.7339 14.1676 8.76605 14.3292C8.79821 14.4909 8.87758 14.6394 8.99412 14.7559C9.11066 14.8725 9.25915 14.9518 9.4208 14.984C9.58245 15.0161 9.75001 14.9996 9.90228 14.9366C10.0546 14.8735 10.1847 14.7667 10.2763 14.6296C10.3678 14.4926 10.4167 14.3315 10.4167 14.1667C10.4167 13.9457 10.3289 13.7337 10.1726 13.5774C10.0164 13.4211 9.80439 13.3333 9.58337 13.3333ZM17.9167 9.16667H9.58337C9.36236 9.16667 9.1504 9.25446 8.99412 9.41074C8.83784 9.56703 8.75004 9.77899 8.75004 10C8.75004 10.221 8.83784 10.433 8.99412 10.5893C9.1504 10.7455 9.36236 10.8333 9.58337 10.8333H17.9167C18.1377 10.8333 18.3497 10.7455 18.506 10.5893C18.6622 10.433 18.75 10.221 18.75 10C18.75 9.77899 18.6622 9.56703 18.506 9.41074C18.3497 9.25446 18.1377 9.16667 17.9167 9.16667ZM17.9167 13.3333H12.9167C12.6957 13.3333 12.4837 13.4211 12.3275 13.5774C12.1712 13.7337 12.0834 13.9457 12.0834 14.1667C12.0834 14.3877 12.1712 14.5996 12.3275 14.7559C12.4837 14.9122 12.6957 15 12.9167 15H17.9167C18.1377 15 18.3497 14.9122 18.506 14.7559C18.6622 14.5996 18.75 14.3877 18.75 14.1667C18.75 13.9457 18.6622 13.7337 18.506 13.5774C18.3497 13.4211 18.1377 13.3333 17.9167 13.3333Z"
    fill="currentColor" />
</svg>