<svg width="20" height="20" viewBox="0 0 20 20" fill="none" xmlns="http://www.w3.org/2000/svg">
  <path
    d="M15 0.833344H8.33333C7.67029 0.833344 7.03441 1.09674 6.56557 1.56558C6.09673 2.03442 5.83333 2.6703 5.83333 3.33334H5C4.33696 3.33334 3.70107 3.59674 3.23223 4.06558C2.76339 4.53442 2.5 5.1703 2.5 5.83334V8.33334C2.5 8.99638 2.76339 9.63227 3.23223 10.1011C3.70107 10.57 4.33696 10.8333 5 10.8333H10C10.221 10.8333 10.433 10.9211 10.5893 11.0774C10.7455 11.2337 10.8333 11.4457 10.8333 11.6667V12.5C10.3913 12.5 9.96738 12.6756 9.65482 12.9882C9.34226 13.3007 9.16667 13.7246 9.16667 14.1667V17.5C9.16667 17.942 9.34226 18.366 9.65482 18.6785C9.96738 18.9911 10.3913 19.1667 10.8333 19.1667H12.5C12.942 19.1667 13.3659 18.9911 13.6785 18.6785C13.9911 18.366 14.1667 17.942 14.1667 17.5V14.1667C14.1667 13.7246 13.9911 13.3007 13.6785 12.9882C13.3659 12.6756 12.942 12.5 12.5 12.5V11.6667C12.5 11.0036 12.2366 10.3677 11.7678 9.89891C11.2989 9.43007 10.663 9.16668 10 9.16668H5C4.77899 9.16668 4.56702 9.07888 4.41074 8.9226C4.25446 8.76632 4.16667 8.55436 4.16667 8.33334V5.83334C4.16667 5.61233 4.25446 5.40037 4.41074 5.24409C4.56702 5.08781 4.77899 5.00001 5 5.00001H5.83333C5.83333 5.66305 6.09673 6.29894 6.56557 6.76778C7.03441 7.23662 7.67029 7.50001 8.33333 7.50001H15C15.663 7.50001 16.2989 7.23662 16.7678 6.76778C17.2366 6.29894 17.5 5.66305 17.5 5.00001V3.33334C17.5 2.6703 17.2366 2.03442 16.7678 1.56558C16.2989 1.09674 15.663 0.833344 15 0.833344ZM12.5 14.1667V17.5H10.8333V14.1667H12.5ZM15.8333 5.00001C15.8333 5.22102 15.7455 5.43298 15.5893 5.58927C15.433 5.74555 15.221 5.83334 15 5.83334H8.33333C8.11232 5.83334 7.90036 5.74555 7.74408 5.58927C7.5878 5.43298 7.5 5.22102 7.5 5.00001V3.33334C7.5 3.11233 7.5878 2.90037 7.74408 2.74409C7.90036 2.58781 8.11232 2.50001 8.33333 2.50001H15C15.221 2.50001 15.433 2.58781 15.5893 2.74409C15.7455 2.90037 15.8333 3.11233 15.8333 3.33334V5.00001Z"
    fill="currentColor" />
</svg>