<svg width="21" height="20" viewBox="0 0 21 20" fill="none" xmlns="http://www.w3.org/2000/svg">
  <path
    d="M7.16732 14.1667C7.0025 14.1667 6.84138 14.2155 6.70434 14.3071C6.5673 14.3987 6.46049 14.5288 6.39742 14.6811C6.33434 14.8334 6.31784 15.0009 6.35 15.1626C6.38215 15.3242 6.46152 15.4727 6.57806 15.5892C6.69461 15.7058 6.84309 15.7852 7.00474 15.8173C7.16639 15.8495 7.33395 15.833 7.48622 15.7699C7.63849 15.7068 7.76864 15.6 7.86021 15.463C7.95178 15.3259 8.00065 15.1648 8.00065 15C8.00065 14.779 7.91285 14.567 7.75657 14.4107C7.60029 14.2545 7.38833 14.1667 7.16732 14.1667V14.1667ZM7.16732 9.16666C7.0025 9.16666 6.84138 9.21553 6.70434 9.3071C6.5673 9.39867 6.46049 9.52882 6.39742 9.68109C6.33434 9.83336 6.31784 10.0009 6.35 10.1626C6.38215 10.3242 6.46152 10.4727 6.57806 10.5892C6.69461 10.7058 6.84309 10.7852 7.00474 10.8173C7.16639 10.8495 7.33395 10.833 7.48622 10.7699C7.63849 10.7068 7.76864 10.6 7.86021 10.463C7.95178 10.3259 8.00065 10.1648 8.00065 9.99999C8.00065 9.77898 7.91285 9.56702 7.75657 9.41073C7.60029 9.25445 7.38833 9.16666 7.16732 9.16666V9.16666ZM13.834 1.66666H7.16732C6.28326 1.66666 5.43542 2.01785 4.81029 2.64297C4.18517 3.26809 3.83398 4.11593 3.83398 4.99999V15C3.83398 15.884 4.18517 16.7319 4.81029 17.357C5.43542 17.9821 6.28326 18.3333 7.16732 18.3333H13.834C14.718 18.3333 15.5659 17.9821 16.191 17.357C16.8161 16.7319 17.1673 15.884 17.1673 15V4.99999C17.1673 4.11593 16.8161 3.26809 16.191 2.64297C15.5659 2.01785 14.718 1.66666 13.834 1.66666ZM15.5007 15C15.5007 15.442 15.3251 15.8659 15.0125 16.1785C14.6999 16.4911 14.276 16.6667 13.834 16.6667H7.16732C6.72529 16.6667 6.30137 16.4911 5.98881 16.1785C5.67625 15.8659 5.50065 15.442 5.50065 15V12.8667C6.00398 13.1696 6.57985 13.3309 7.16732 13.3333H13.834C14.4215 13.3309 14.9973 13.1696 15.5007 12.8667V15ZM15.5007 9.99999C15.5007 10.442 15.3251 10.8659 15.0125 11.1785C14.6999 11.4911 14.276 11.6667 13.834 11.6667H7.16732C6.72529 11.6667 6.30137 11.4911 5.98881 11.1785C5.67625 10.8659 5.50065 10.442 5.50065 9.99999V7.86666C6.00398 8.16962 6.57985 8.33086 7.16732 8.33332H13.834C14.4215 8.33086 14.9973 8.16962 15.5007 7.86666V9.99999ZM13.834 6.66666H7.16732C6.72529 6.66666 6.30137 6.49106 5.98881 6.1785C5.67625 5.86594 5.50065 5.44202 5.50065 4.99999C5.50065 4.55796 5.67625 4.13404 5.98881 3.82148C6.30137 3.50892 6.72529 3.33332 7.16732 3.33332H13.834C14.276 3.33332 14.6999 3.50892 15.0125 3.82148C15.3251 4.13404 15.5007 4.55796 15.5007 4.99999C15.5007 5.44202 15.3251 5.86594 15.0125 6.1785C14.6999 6.49106 14.276 6.66666 13.834 6.66666V6.66666Z"
    fill="currentColor" />
</svg>