<svg width="20" height="20" viewBox="0 0 20 20" fill="none" xmlns="http://www.w3.org/2000/svg">
<path d="M15.8327 1.66626H4.16602C3.50297 1.66626 2.86709 1.92965 2.39825 2.39849C1.92941 2.86733 1.66602 3.50322 1.66602 4.16626V15.8329C1.66602 16.496 1.92941 17.1319 2.39825 17.6007C2.86709 18.0695 3.50297 18.3329 4.16602 18.3329H15.8327C16.4957 18.3329 17.1316 18.0695 17.6004 17.6007C18.0693 17.1319 18.3327 16.496 18.3327 15.8329V4.16626C18.3327 3.50322 18.0693 2.86733 17.6004 2.39849C17.1316 1.92965 16.4957 1.66626 15.8327 1.66626ZM16.666 15.8329C16.666 16.0539 16.5782 16.2659 16.4219 16.4222C16.2657 16.5785 16.0537 16.6663 15.8327 16.6663H4.16602C3.945 16.6663 3.73304 16.5785 3.57676 16.4222C3.42048 16.2659 3.33268 16.0539 3.33268 15.8329V4.16626C3.33268 3.94525 3.42048 3.73328 3.57676 3.577C3.73304 3.42072 3.945 3.33293 4.16602 3.33293H15.8327C16.0537 3.33293 16.2657 3.42072 16.4219 3.577C16.5782 3.73328 16.666 3.94525 16.666 4.16626V15.8329Z" fill="currentColor"/>
<path d="M8.6597 13.0597C8.55816 13.0174 8.46599 12.9554 8.38852 12.8773L6.19699 10.9354C6.04007 10.7785 5.95191 10.5657 5.95191 10.3437C5.95191 10.1218 6.04007 9.90899 6.19699 9.75207C6.35391 9.59515 6.56674 9.50699 6.78866 9.50699C7.01057 9.50699 7.2234 9.59515 7.38032 9.75207L8.98019 11.1107L12.6186 7.4235C12.7755 7.26658 12.9883 7.17843 13.2102 7.17843C13.4322 7.17843 13.645 7.26658 13.8019 7.4235C13.9588 7.58042 14.047 7.79325 14.047 8.01517C14.047 8.23709 13.9588 8.44992 13.8019 8.60684L9.57185 12.8773C9.49438 12.9554 9.40222 13.0174 9.30067 13.0597C9.19912 13.102 9.0902 13.1238 8.98019 13.1238C8.87018 13.1238 8.76125 13.102 8.6597 13.0597Z" fill="currentColor"/>
</svg>
