<svg width="21" height="20" viewBox="0 0 21 20" fill="none" xmlns="http://www.w3.org/2000/svg">
  <path fill-rule="evenodd" clip-rule="evenodd"
    d="M17.9993 1.66666H2.99935C2.77834 1.66666 2.56637 1.75445 2.41009 1.91073C2.25381 2.06701 2.16602 2.27898 2.16602 2.49999V17.5C2.16602 17.721 2.25381 17.933 2.41009 18.0892C2.56637 18.2455 2.77834 18.3333 2.99935 18.3333H17.9993C18.2204 18.3333 18.4323 18.2455 18.5886 18.0892C18.7449 17.933 18.8327 17.721 18.8327 17.5V2.49999C18.8327 2.27898 18.7449 2.06701 18.5886 1.91073C18.4323 1.75445 18.2204 1.66666 17.9993 1.66666ZM17.166 16.6667H3.83268V7.21514H17.166V16.6667ZM17.166 5.54847H3.83268V3.33332H17.166V5.54847ZM5.91005 8.72226C6.23549 8.39682 6.76313 8.39682 7.08856 8.72226L9.74197 11.3757C10.0674 11.7011 10.0674 12.2287 9.74197 12.5542L7.08856 15.2076C6.76313 15.533 6.23549 15.533 5.91005 15.2076C5.58462 14.8821 5.58462 14.3545 5.91005 14.0291L7.9742 11.9649L5.91005 9.90077C5.58462 9.57533 5.58462 9.0477 5.91005 8.72226ZM10.9612 13.785C10.5009 13.785 10.1278 14.1581 10.1278 14.6183C10.1278 15.0786 10.5009 15.4516 10.9612 15.4516H14.6945C15.1547 15.4516 15.5278 15.0786 15.5278 14.6183C15.5278 14.1581 15.1547 13.785 14.6945 13.785H10.9612Z"
    fill="currentColor" />
</svg>