<svg width="18" height="18" viewBox="0 0 18 18" fill="none" xmlns="http://www.w3.org/2000/svg">
  <path
    d="M13.815 6.90753C13.3562 5.85438 12.5647 4.98077 11.5618 4.42064C10.5589 3.86051 9.39994 3.64478 8.26265 3.80652C7.12537 3.96826 6.07252 4.49854 5.26553 5.31607C4.45854 6.1336 3.94196 7.19324 3.79499 8.33252C3.07993 8.50377 2.45266 8.93165 2.0323 9.53492C1.61193 10.1382 1.42776 10.8748 1.51474 11.6049C1.60173 12.3351 1.95381 13.0078 2.50414 13.4954C3.05447 13.983 3.76472 14.2516 4.49999 14.25H12.75C13.6495 14.2475 14.5182 13.9218 15.1975 13.3322C15.8769 12.7427 16.3217 11.9285 16.4508 11.0383C16.5799 10.1481 16.3848 9.24117 15.9009 8.48287C15.4171 7.72457 14.6767 7.16547 13.815 6.90753ZM12.75 12.75H4.49999C4.10217 12.75 3.72064 12.592 3.43933 12.3107C3.15803 12.0294 2.99999 11.6478 2.99999 11.25C2.99999 10.8522 3.15803 10.4707 3.43933 10.1894C3.72064 9.90806 4.10217 9.75002 4.49999 9.75002C4.69891 9.75002 4.88967 9.67101 5.03032 9.53035C5.17098 9.3897 5.24999 9.19894 5.24999 9.00002C5.25191 8.11298 5.56821 7.25534 6.1427 6.57946C6.71718 5.90358 7.51266 5.45324 8.38781 5.30843C9.26295 5.16362 10.1611 5.33373 10.9227 5.78853C11.6842 6.24333 12.2599 6.95338 12.5475 7.79253C12.5915 7.92001 12.6691 8.03327 12.772 8.12038C12.875 8.20749 12.9995 8.26523 13.1325 8.28753C13.6822 8.38896 14.1745 8.69142 14.5135 9.13598C14.8524 9.58053 15.0137 10.1353 14.966 10.6923C14.9183 11.2493 14.6649 11.7686 14.2552 12.149C13.8456 12.5294 13.309 12.7436 12.75 12.75Z"
    fill="currentColor" />
</svg>