<svg width="20" height="20" viewBox="0 0 20 20" fill="none" xmlns="http://www.w3.org/2000/svg">
<path d="M18.7498 12.0833C18.7498 11.6413 18.5742 11.2174 18.2616 10.9048C17.9491 10.5923 17.5251 10.4167 17.0831 10.4167H12.0831C11.6411 10.4167 11.2172 10.5923 10.9046 10.9048C10.592 11.2174 10.4164 11.6413 10.4164 12.0833H7.91644V9.58333H9.8581C10.5823 9.58454 11.2832 9.32804 11.8356 8.85972C12.388 8.39141 12.7557 7.74183 12.8729 7.02722C12.9902 6.31261 12.8494 5.57959 12.4756 4.95931C12.1019 4.33903 11.5197 3.87196 10.8331 3.64167C10.452 2.84703 9.82883 2.19369 9.05307 1.77554C8.2773 1.3574 7.38894 1.196 6.51567 1.31453C5.6424 1.43307 4.8292 1.82544 4.19296 2.43524C3.55673 3.04504 3.13023 3.84087 2.97477 4.70833C2.41043 4.89382 1.93057 5.2742 1.62119 5.78133C1.31181 6.28845 1.19311 6.88917 1.28638 7.47585C1.37965 8.06253 1.67878 8.59682 2.13017 8.983C2.58157 9.36918 3.15573 9.582 3.74977 9.58333H6.24977V16.25C6.24977 16.471 6.33757 16.683 6.49385 16.8393C6.65013 16.9955 6.86209 17.0833 7.0831 17.0833H10.4164C10.4164 17.5254 10.592 17.9493 10.9046 18.2618C11.2172 18.5744 11.6411 18.75 12.0831 18.75H17.0831C17.5251 18.75 17.9491 18.5744 18.2616 18.2618C18.5742 17.9493 18.7498 17.5254 18.7498 17.0833V15.4167C18.7467 15.1232 18.6662 14.8357 18.5164 14.5833C18.6662 14.3309 18.7467 14.0435 18.7498 13.75V12.0833ZM3.74977 7.91667C3.52876 7.91667 3.3168 7.82887 3.16052 7.67259C3.00424 7.51631 2.91644 7.30435 2.91644 7.08333C2.91644 6.86232 3.00424 6.65036 3.16052 6.49408C3.3168 6.3378 3.52876 6.25 3.74977 6.25C3.97078 6.25 4.18275 6.1622 4.33903 6.00592C4.49531 5.84964 4.5831 5.63768 4.5831 5.41667C4.57638 4.82196 4.78189 4.24434 5.16273 3.78753C5.54357 3.33072 6.07479 3.02464 6.661 2.92426C7.24721 2.82389 7.85 2.93578 8.36113 3.23986C8.87226 3.54394 9.25825 4.02027 9.44977 4.58333C9.49866 4.72498 9.58483 4.85083 9.69922 4.94762C9.81361 5.04441 9.95199 5.10857 10.0998 5.13333C10.4271 5.18752 10.7238 5.35823 10.9352 5.614C11.1465 5.86976 11.2582 6.19332 11.2498 6.525C11.2498 6.89409 11.1031 7.24807 10.8422 7.50906C10.5812 7.77004 10.2272 7.91667 9.8581 7.91667H3.74977ZM10.4164 15.4167H7.91644V13.75H10.4164C10.4195 14.0435 10.5 14.3309 10.6498 14.5833C10.5 14.8357 10.4195 15.1232 10.4164 15.4167ZM12.0831 17.0833V15.4167H17.0831V17.0833H12.0831ZM12.0831 13.75V12.0833H17.0831V13.75H12.0831Z" fill="currentColor"/>
</svg>
