<svg width="18" height="18" viewBox="0 0 18 18" fill="none" xmlns="http://www.w3.org/2000/svg">
  <path
    d="M15.8775 1.54503C15.3399 1.45243 14.7955 1.40477 14.25 1.40253C12.3888 1.401 10.5664 1.93471 9 2.94003C7.42961 1.94791 5.60749 1.4273 3.75 1.44003C3.20449 1.44227 2.66011 1.48993 2.1225 1.58253C1.94641 1.61289 1.78694 1.70512 1.67281 1.84262C1.55869 1.98013 1.4974 2.15386 1.5 2.33253V11.3325C1.4984 11.4427 1.5211 11.5519 1.56649 11.6524C1.61188 11.7528 1.67885 11.842 1.76263 11.9136C1.84641 11.9852 1.94495 12.0375 2.05122 12.0667C2.15749 12.0959 2.2689 12.1013 2.3775 12.0825C3.45227 11.8964 4.5534 11.9273 5.61605 12.1733C6.6787 12.4194 7.68137 12.8755 8.565 13.515L8.655 13.5675H8.7375C8.82068 13.6022 8.90989 13.62 9 13.62C9.09011 13.62 9.17933 13.6022 9.2625 13.5675H9.345L9.435 13.515C10.3125 12.8613 11.3123 12.3903 12.3751 12.13C13.438 11.8698 14.5422 11.8256 15.6225 12C15.7311 12.0188 15.8425 12.0134 15.9488 11.9842C16.0551 11.955 16.1536 11.9027 16.2374 11.8311C16.3212 11.7595 16.3881 11.6703 16.4335 11.5699C16.4789 11.4694 16.5016 11.3602 16.5 11.25V2.25003C16.4922 2.07915 16.4262 1.91606 16.313 1.78783C16.1998 1.6596 16.0461 1.57393 15.8775 1.54503ZM8.25 11.5125C6.86241 10.7825 5.31789 10.4016 3.75 10.4025C3.5025 10.4025 3.255 10.4025 3 10.4025V2.90253C3.2498 2.88813 3.50021 2.88813 3.75 2.90253C5.35004 2.90076 6.91516 3.3703 8.25 4.25253V11.5125ZM15 10.4325C14.745 10.4325 14.4975 10.4325 14.25 10.4325C12.6821 10.4316 11.1376 10.8125 9.75 11.5425V4.25253C11.0848 3.3703 12.65 2.90076 14.25 2.90253C14.4998 2.88813 14.7502 2.88813 15 2.90253V10.4325ZM15.8775 13.545C15.3399 13.4524 14.7955 13.4048 14.25 13.4025C12.3888 13.401 10.5664 13.9347 9 14.94C7.43364 13.9347 5.61123 13.401 3.75 13.4025C3.20449 13.4048 2.66011 13.4524 2.1225 13.545C2.02487 13.5605 1.93127 13.5952 1.84707 13.647C1.76288 13.6988 1.68975 13.7667 1.6319 13.8468C1.57405 13.927 1.53262 14.0178 1.50998 14.114C1.48734 14.2102 1.48395 14.31 1.5 14.4075C1.53812 14.6023 1.65187 14.774 1.81635 14.8851C1.98082 14.9961 2.18261 15.0375 2.3775 15C3.45227 14.8139 4.5534 14.8448 5.61605 15.0908C6.6787 15.3369 7.68137 15.793 8.565 16.4325C8.69202 16.523 8.84407 16.5716 9 16.5716C9.15593 16.5716 9.30798 16.523 9.435 16.4325C10.3186 15.793 11.3213 15.3369 12.384 15.0908C13.4466 14.8448 14.5477 14.8139 15.6225 15C15.8174 15.0375 16.0192 14.9961 16.1837 14.8851C16.3481 14.774 16.4619 14.6023 16.5 14.4075C16.5161 14.31 16.5127 14.2102 16.49 14.114C16.4674 14.0178 16.426 13.927 16.3681 13.8468C16.3102 13.7667 16.2371 13.6988 16.1529 13.647C16.0687 13.5952 15.9751 13.5605 15.8775 13.545Z"
    fill="currentColor" />
</svg>