<svg width="36" height="36" viewBox="0 0 36 36" fill="none" xmlns="http://www.w3.org/2000/svg">
<path d="M7.28035 9.13776C6.91214 8.76955 6.91214 8.17257 7.28035 7.80436C7.64856 7.43615 8.24554 7.43615 8.61375 7.80436L17.2809 16.4715L15.9475 17.8049L7.28035 9.13776Z" fill="#7958FF"/>
<path d="M3.94741 7.13807C3.211 6.40165 3.211 5.20768 3.94742 4.47126C4.68383 3.73485 5.8778 3.73485 6.61422 4.47126L9.28102 7.13807C10.0174 7.87448 10.0174 9.06845 9.28102 9.80487C8.5446 10.5413 7.35063 10.5413 6.61422 9.80487L3.94741 7.13807Z" fill="#7958FF"/>
<path d="M11.9487 20.4721L19.9491 12.4717L31.9497 24.4723C34.1589 26.6816 34.1589 30.2635 31.9497 32.4727C29.7404 34.682 26.1585 34.682 23.9493 32.4727L11.9487 20.4721Z" fill="url(#paint0_linear_2782_13841)"/>
<rect x="16.6151" y="21.1387" width="1.88571" height="15.0857" rx="0.942857" transform="rotate(-45 16.6151 21.1387)" fill="#AF9EFF"/>
<rect x="19.2817" y="18.4723" width="1.88571" height="15.0857" rx="0.942857" transform="rotate(-45 19.2817 18.4723)" fill="#AF9EFF"/>
<path d="M17.1396 12.5862C18.9806 10.7451 21.9655 10.7451 23.8066 12.5862C25.6476 14.4272 25.6476 17.4121 23.8066 19.2532L10.4726 32.5872C8.63153 34.4282 5.64661 34.4282 3.80557 32.5872C1.96452 30.7461 1.96452 27.7612 3.80557 25.9202L17.1396 12.5862Z" fill="url(#paint1_linear_2782_13841)"/>
<rect x="15.8068" y="19.2532" width="1.88571" height="15.0857" rx="0.942857" transform="rotate(45 15.8068 19.2532)" fill="#B545CA"/>
<path opacity="0.64" fill-rule="evenodd" clip-rule="evenodd" d="M18.473 17.9197C22.1551 21.6018 28.1249 21.6018 31.807 17.9197C33.1774 16.5494 34.0377 14.8621 34.3881 13.0939C34.8813 10.6046 31.9098 9.81654 30.1154 11.611L29.1402 12.5861C28.4038 13.3225 27.2098 13.3225 26.4734 12.5861L23.8066 9.91931C23.0702 9.18289 23.0702 7.98892 23.8066 7.25251L24.7818 6.27737C26.5762 4.48294 25.7882 1.51142 23.2988 2.00465C21.5306 2.355 19.8434 3.21535 18.473 4.5857C14.7909 8.26779 14.7909 14.2376 18.473 17.9197Z" fill="#F07EFF"/>
<defs>
<linearGradient id="paint0_linear_2782_13841" x1="27.1578" y1="32.9311" x2="31.3264" y2="19.1746" gradientUnits="userSpaceOnUse">
<stop stop-color="#5D34F2"/>
<stop offset="1" stop-color="#FAABFF"/>
</linearGradient>
<linearGradient id="paint1_linear_2782_13841" x1="22.9908" y1="12.0665" x2="-1.27442" y2="18.7238" gradientUnits="userSpaceOnUse">
<stop stop-color="#FFF06A"/>
<stop offset="0.5" stop-color="#FC85E9"/>
<stop offset="1" stop-color="#E264F7"/>
</linearGradient>
</defs>
</svg>
