<svg width="18" height="18" viewBox="0 0 18 18" fill="none" xmlns="http://www.w3.org/2000/svg">
  <path
    d="M5.25 12C5.10166 12 4.95666 12.044 4.83332 12.1264C4.70999 12.2088 4.61386 12.3259 4.55709 12.463C4.50032 12.6 4.48547 12.7508 4.51441 12.8963C4.54335 13.0418 4.61478 13.1754 4.71967 13.2803C4.82456 13.3852 4.9582 13.4566 5.10368 13.4856C5.24917 13.5145 5.39997 13.4997 5.53701 13.4429C5.67406 13.3861 5.79119 13.29 5.8736 13.1667C5.95601 13.0433 6 12.8983 6 12.75C6 12.5511 5.92098 12.3603 5.78033 12.2197C5.63968 12.079 5.44891 12 5.25 12ZM14.295 9L15.2175 8.0775C15.6389 7.65562 15.8755 7.08375 15.8755 6.4875C15.8755 5.89125 15.6389 5.31938 15.2175 4.8975L13.095 2.7825C12.6731 2.36115 12.1013 2.12448 11.505 2.12448C10.9087 2.12448 10.3369 2.36115 9.915 2.7825L9 3.705C8.98822 3.1161 8.74598 2.55529 8.32529 2.14302C7.9046 1.73075 7.33902 1.49988 6.75 1.5H3.75C3.15326 1.5 2.58097 1.73705 2.15901 2.15901C1.73705 2.58097 1.5 3.15326 1.5 3.75V14.25C1.5 14.8467 1.73705 15.419 2.15901 15.841C2.58097 16.2629 3.15326 16.5 3.75 16.5H14.25C14.8467 16.5 15.419 16.2629 15.841 15.841C16.2629 15.419 16.5 14.8467 16.5 14.25V11.25C16.5001 10.661 16.2693 10.0954 15.857 9.67471C15.4447 9.25402 14.8839 9.01178 14.295 9ZM7.5 14.25C7.5 14.4489 7.42098 14.6397 7.28033 14.7803C7.13968 14.921 6.94891 15 6.75 15H3.75C3.55109 15 3.36032 14.921 3.21967 14.7803C3.07902 14.6397 3 14.4489 3 14.25V3.75C3 3.55109 3.07902 3.36032 3.21967 3.21967C3.36032 3.07902 3.55109 3 3.75 3H6.75C6.94891 3 7.13968 3.07902 7.28033 3.21967C7.42098 3.36032 7.5 3.55109 7.5 3.75V14.25ZM9 5.82L10.98 3.84C11.1205 3.70031 11.3106 3.62191 11.5087 3.62191C11.7069 3.62191 11.897 3.70031 12.0375 3.84L14.16 6C14.2997 6.14052 14.3781 6.33061 14.3781 6.52875C14.3781 6.72689 14.2997 6.91698 14.16 7.0575L12 9.2175L9 12.18V5.82ZM15 14.25C15 14.4489 14.921 14.6397 14.7803 14.7803C14.6397 14.921 14.4489 15 14.25 15H8.865C8.94194 14.7777 8.98492 14.5451 8.9925 14.31L12.8025 10.5H14.25C14.4489 10.5 14.6397 10.579 14.7803 10.7197C14.921 10.8603 15 11.0511 15 11.25V14.25Z"
    fill="currentColor" />
</svg>