<svg width="20" height="20" viewBox="0 0 20 20" fill="none" xmlns="http://www.w3.org/2000/svg">
  <path
    d="M6.66634 13.75C6.50152 13.75 6.34041 13.7989 6.20337 13.8905C6.06632 13.982 5.95951 14.1122 5.89644 14.2645C5.83337 14.4167 5.81687 14.5843 5.84902 14.7459C5.88117 14.9076 5.96054 15.0561 6.07709 15.1726C6.19363 15.2892 6.34211 15.3685 6.50377 15.4007C6.66542 15.4328 6.83297 15.4163 6.98524 15.3533C7.13752 15.2902 7.26766 15.1834 7.35923 15.0463C7.4508 14.9093 7.49967 14.7482 7.49967 14.5834C7.49967 14.3623 7.41188 14.1504 7.2556 13.9941C7.09932 13.8378 6.88735 13.75 6.66634 13.75ZM9.99967 1.66669C6.66634 1.66669 3.33301 2.80835 3.33301 5.00002V15C3.33301 17.1917 6.66634 18.3334 9.99967 18.3334C13.333 18.3334 16.6663 17.1917 16.6663 15V5.00002C16.6663 2.80835 13.333 1.66669 9.99967 1.66669ZM14.9997 15C14.9997 15.5917 13.0997 16.6667 9.99967 16.6667C6.89967 16.6667 4.99967 15.5917 4.99967 15V12.275C6.55973 13.0167 8.27292 13.3793 9.99967 13.3334C11.7264 13.3793 13.4396 13.0167 14.9997 12.275V15ZM14.9997 10C14.9997 10.5917 13.0997 11.6667 9.99967 11.6667C6.89967 11.6667 4.99967 10.5917 4.99967 10V7.27502C6.55973 8.01665 8.27292 8.37928 9.99967 8.33335C11.7264 8.37928 13.4396 8.01665 14.9997 7.27502V10ZM9.99967 6.66669C6.89967 6.66669 4.99967 5.59169 4.99967 5.00002C4.99967 4.40835 6.89967 3.33335 9.99967 3.33335C13.0997 3.33335 14.9997 4.40835 14.9997 5.00002C14.9997 5.59169 13.0997 6.66669 9.99967 6.66669ZM6.66634 8.75002C6.50152 8.75002 6.34041 8.79889 6.20337 8.89046C6.06632 8.98203 5.95951 9.11218 5.89644 9.26445C5.83337 9.41672 5.81687 9.58428 5.84902 9.74593C5.88117 9.90758 5.96054 10.0561 6.07709 10.1726C6.19363 10.2892 6.34211 10.3685 6.50377 10.4007C6.66542 10.4328 6.83297 10.4163 6.98524 10.3533C7.13752 10.2902 7.26766 10.1834 7.35923 10.0463C7.4508 9.90929 7.49967 9.74817 7.49967 9.58335C7.49967 9.36234 7.41188 9.15038 7.2556 8.9941C7.09932 8.83782 6.88735 8.75002 6.66634 8.75002Z"
    fill="currentColor" />
</svg>