<svg width="18" height="18" viewBox="0 0 18 18" fill="none" xmlns="http://www.w3.org/2000/svg">
  <path
    d="M11.1674 6.06496C11.3158 5.71159 11.1496 5.30485 10.7963 5.15649C10.4429 5.00812 10.0361 5.17431 9.88778 5.52768L6.82201 11.8931C6.67364 12.2465 6.83983 12.6533 7.1932 12.8016C7.54657 12.95 7.95331 12.7838 8.10168 12.4304L11.1674 6.06496Z"
    fill="currentColor" />
  <path
    d="M3.3 8.99998L5.925 6.37498C6.225 6.07498 6.225 5.62498 5.925 5.32498C5.625 5.02498 5.175 5.02498 4.875 5.32498L1.725 8.47498C1.425 8.77498 1.425 9.22498 1.725 9.52498L4.875 12.675C5.025 12.825 5.175 12.9 5.4 12.9C5.625 12.9 5.775 12.825 5.925 12.675C6.225 12.375 6.225 11.925 5.925 11.625L3.3 8.99998Z"
    fill="currentColor" />
  <path
    d="M14.7 8.99998L12.075 6.37498C11.775 6.07498 11.775 5.62498 12.075 5.32498C12.375 5.02498 12.825 5.02498 13.125 5.32498L16.275 8.47498C16.575 8.77498 16.575 9.22498 16.275 9.52498L13.125 12.675C12.975 12.825 12.825 12.9 12.6 12.9C12.375 12.9 12.225 12.825 12.075 12.675C11.775 12.375 11.775 11.925 12.075 11.625L14.7 8.99998Z"
    fill="currentColor" />
</svg>