<svg width="17" height="16" viewBox="0 0 17 16" fill="none" xmlns="http://www.w3.org/2000/svg">
  <path
    d="M14.2113 2.61104C13.1915 2.14312 12.0979 1.79837 10.9546 1.60093C10.9337 1.59712 10.9129 1.60664 10.9022 1.62569C10.7616 1.87583 10.6058 2.20216 10.4967 2.45866C9.2669 2.27454 8.04341 2.27454 6.83884 2.45866C6.72972 2.19646 6.56828 1.87583 6.42701 1.62569C6.41628 1.60727 6.39548 1.59775 6.37466 1.60093C5.2319 1.79774 4.13833 2.14249 3.11792 2.61104C3.10908 2.61485 3.10151 2.6212 3.09649 2.62945C1.02222 5.72836 0.453992 8.7511 0.732746 11.7364C0.734007 11.751 0.742206 11.7649 0.753558 11.7738C2.1221 12.7788 3.44776 13.389 4.74881 13.7934C4.76963 13.7998 4.7917 13.7921 4.80495 13.775C5.11271 13.3547 5.38705 12.9115 5.62228 12.4455C5.63616 12.4182 5.62291 12.3858 5.59454 12.3751C5.15938 12.21 4.74503 12.0087 4.34645 11.7802C4.31492 11.7618 4.3124 11.7167 4.3414 11.6951C4.42527 11.6322 4.50917 11.5668 4.58926 11.5008C4.60375 11.4887 4.62394 11.4862 4.64098 11.4938C7.25948 12.6893 10.0943 12.6893 12.6819 11.4938C12.699 11.4856 12.7192 11.4881 12.7343 11.5002C12.8144 11.5662 12.8983 11.6322 12.9828 11.6951C13.0118 11.7167 13.0099 11.7618 12.9784 11.7802C12.5798 12.0132 12.1654 12.21 11.7296 12.3744C11.7013 12.3852 11.6886 12.4182 11.7025 12.4455C11.9428 12.9109 12.2171 13.354 12.5192 13.7744C12.5318 13.7921 12.5545 13.7998 12.5754 13.7934C13.8827 13.389 15.2084 12.7788 16.5769 11.7738C16.5889 11.7649 16.5965 11.7516 16.5977 11.737C16.9313 8.2857 16.039 5.28775 14.2321 2.63008C14.2277 2.6212 14.2201 2.61485 14.2113 2.61104ZM6.01331 9.91865C5.22496 9.91865 4.57538 9.19488 4.57538 8.30603C4.57538 7.41717 5.21236 6.69341 6.01331 6.69341C6.82054 6.69341 7.46383 7.42352 7.45121 8.30603C7.45121 9.19488 6.81423 9.91865 6.01331 9.91865ZM11.3298 9.91865C10.5415 9.91865 9.89189 9.19488 9.89189 8.30603C9.89189 7.41717 10.5288 6.69341 11.3298 6.69341C12.137 6.69341 12.7803 7.42352 12.7677 8.30603C12.7677 9.19488 12.137 9.91865 11.3298 9.91865Z"
    fill="currentColor" />
</svg>