<svg width="20" height="20" viewBox="0 0 20 20" fill="none" xmlns="http://www.w3.org/2000/svg">
  <path
    d="M7.49998 8.33335H8.33331C8.55433 8.33335 8.76629 8.24556 8.92257 8.08928C9.07885 7.933 9.16665 7.72103 9.16665 7.50002C9.16665 7.27901 9.07885 7.06705 8.92257 6.91077C8.76629 6.75448 8.55433 6.66669 8.33331 6.66669H7.49998C7.27897 6.66669 7.067 6.75448 6.91072 6.91077C6.75444 7.06705 6.66665 7.27901 6.66665 7.50002C6.66665 7.72103 6.75444 7.933 6.91072 8.08928C7.067 8.24556 7.27897 8.33335 7.49998 8.33335ZM7.49998 10C7.27897 10 7.067 10.0878 6.91072 10.2441C6.75444 10.4004 6.66665 10.6123 6.66665 10.8334C6.66665 11.0544 6.75444 11.2663 6.91072 11.4226C7.067 11.5789 7.27897 11.6667 7.49998 11.6667H12.5C12.721 11.6667 12.933 11.5789 13.0892 11.4226C13.2455 11.2663 13.3333 11.0544 13.3333 10.8334C13.3333 10.6123 13.2455 10.4004 13.0892 10.2441C12.933 10.0878 12.721 10 12.5 10H7.49998ZM16.6666 7.45002C16.658 7.37347 16.6412 7.29805 16.6166 7.22502V7.15002C16.5766 7.06434 16.5231 6.98557 16.4583 6.91669L11.4583 1.91669C11.3894 1.85187 11.3107 1.79842 11.225 1.75835C11.2001 1.75482 11.1749 1.75482 11.15 1.75835C11.0653 1.7098 10.9718 1.67864 10.875 1.66669H5.83331C5.17027 1.66669 4.53439 1.93008 4.06555 2.39892C3.59671 2.86776 3.33331 3.50365 3.33331 4.16669V15.8334C3.33331 16.4964 3.59671 17.1323 4.06555 17.6011C4.53439 18.07 5.17027 18.3334 5.83331 18.3334H14.1666C14.8297 18.3334 15.4656 18.07 15.9344 17.6011C16.4033 17.1323 16.6666 16.4964 16.6666 15.8334V7.50002C16.6666 7.50002 16.6666 7.50002 16.6666 7.45002ZM11.6666 4.50835L13.825 6.66669H12.5C12.279 6.66669 12.067 6.57889 11.9107 6.42261C11.7544 6.26633 11.6666 6.05437 11.6666 5.83335V4.50835ZM15 15.8334C15 16.0544 14.9122 16.2663 14.7559 16.4226C14.5996 16.5789 14.3877 16.6667 14.1666 16.6667H5.83331C5.6123 16.6667 5.40034 16.5789 5.24406 16.4226C5.08778 16.2663 4.99998 16.0544 4.99998 15.8334V4.16669C4.99998 3.94567 5.08778 3.73371 5.24406 3.57743C5.40034 3.42115 5.6123 3.33335 5.83331 3.33335H9.99998V5.83335C9.99998 6.4964 10.2634 7.13228 10.7322 7.60112C11.2011 8.06996 11.8369 8.33335 12.5 8.33335H15V15.8334ZM12.5 13.3334H7.49998C7.27897 13.3334 7.067 13.4212 6.91072 13.5774C6.75444 13.7337 6.66665 13.9457 6.66665 14.1667C6.66665 14.3877 6.75444 14.5997 6.91072 14.7559C7.067 14.9122 7.27897 15 7.49998 15H12.5C12.721 15 12.933 14.9122 13.0892 14.7559C13.2455 14.5997 13.3333 14.3877 13.3333 14.1667C13.3333 13.9457 13.2455 13.7337 13.0892 13.5774C12.933 13.4212 12.721 13.3334 12.5 13.3334Z"
    fill="currentColor" />
</svg>
