<svg width="21" height="20" viewBox="0 0 21 20" fill="none" xmlns="http://www.w3.org/2000/svg">
  <path fill-rule="evenodd" clip-rule="evenodd"
    d="M7.63398 3.33334H3.83398C3.61297 3.33334 3.40101 3.42114 3.24473 3.57742C3.08845 3.7337 3.00065 3.94566 3.00065 4.16667V15C3.00065 15.221 3.08845 15.433 3.24473 15.5893C3.40101 15.7455 3.61297 15.8333 3.83398 15.8333H5.91769C6.1387 15.8333 6.35066 15.9211 6.50695 16.0774C6.66323 16.2337 6.75102 16.4457 6.75102 16.6667C6.75102 16.8877 6.66323 17.0997 6.50695 17.2559C6.35066 17.4122 6.1387 17.5 5.91769 17.5H3.83398C3.17094 17.5 2.53506 17.2366 2.06622 16.7678C1.59738 16.2989 1.33398 15.663 1.33398 15V4.16667C1.33398 3.50363 1.59738 2.86775 2.06622 2.39891C2.53506 1.93007 3.17094 1.66668 3.83398 1.66668H7.63398C8.15262 1.66468 8.65903 1.82402 9.08307 2.12264C9.50711 2.42126 9.82778 2.84437 10.0007 3.33334L10.2673 4.16667H15.5007C16.1637 4.16667 16.7996 4.43007 17.2684 4.89891C17.7258 5.35628 17.9876 5.97261 18.0002 6.61805C18.0005 6.63424 18.0007 8.00904 18.0007 8.02526C18.0007 8.24628 17.9129 8.45824 17.7566 8.61452C17.6003 8.7708 17.3883 8.8586 17.1673 8.8586C16.9463 8.8586 16.7343 8.7708 16.5781 8.61452C16.4218 8.45824 16.334 8.24628 16.334 8.02526C16.334 8.009 16.3335 6.6342 16.3326 6.61805C16.3207 6.41477 16.2347 6.2222 16.0899 6.07742C15.9336 5.92114 15.7217 5.83334 15.5007 5.83334H9.66732C9.49261 5.83379 9.32219 5.77933 9.18013 5.67764C9.03807 5.57595 8.93156 5.43219 8.87565 5.26667L8.42565 3.90001C8.36975 3.73449 8.26324 3.59073 8.12117 3.48904C7.97911 3.38736 7.80869 3.33289 7.63398 3.33334ZM16.4274 17.5002H10.3191C9.72502 17.4988 9.15086 17.286 8.69947 16.8998C8.24807 16.5137 7.94894 15.9794 7.85568 15.3927C7.76241 14.806 7.8811 14.2053 8.19048 13.6982C8.49987 13.191 8.97972 12.8107 9.54407 12.6252C9.69952 11.7577 10.126 10.9619 10.7623 10.3521C11.3985 9.74228 12.2117 9.34991 13.085 9.23138C13.9582 9.11284 14.8466 9.27425 15.6224 9.69239C16.3981 10.1105 17.0213 10.7639 17.4024 11.5585C18.089 11.7888 18.6712 12.2559 19.0449 12.8762C19.4187 13.4964 19.5595 14.2295 19.4422 14.9441C19.325 15.6587 18.9573 16.3083 18.4049 16.7766C17.8525 17.2449 17.1516 17.5014 16.4274 17.5002ZM9.73073 15.6167C9.88701 15.773 10.099 15.8608 10.32 15.8608H16.4283C16.7974 15.8608 17.1514 15.7142 17.4124 15.4532C17.6734 15.1922 17.82 14.8382 17.82 14.4691C17.8285 14.1374 17.7167 13.8139 17.5054 13.5581C17.294 13.3023 16.9973 13.1316 16.67 13.0774C16.5222 13.0527 16.3838 12.9885 16.2694 12.8917C16.155 12.7949 16.0689 12.6691 16.02 12.5274C15.8285 11.9644 15.4425 11.4881 14.9314 11.184C14.4202 10.8799 13.8174 10.768 13.2312 10.8684C12.645 10.9688 12.1138 11.2748 11.7329 11.7316C11.3521 12.1885 11.1466 12.7661 11.1533 13.3608C11.1533 13.5818 11.0655 13.7938 10.9092 13.95C10.753 14.1063 10.541 14.1941 10.32 14.1941C10.099 14.1941 9.88701 14.2819 9.73073 14.4382C9.57445 14.5945 9.48665 14.8064 9.48665 15.0274C9.48665 15.2485 9.57445 15.4604 9.73073 15.6167Z"
    fill="currentColor" />
</svg>