<svg width="20" height="20" viewBox="0 0 20 20" fill="none" xmlns="http://www.w3.org/2000/svg">
  <path
    d="M16.7588 14.575L12.5004 7.27499V3.33332H13.3338C13.5548 3.33332 13.7668 3.24553 13.923 3.08925C14.0793 2.93297 14.1671 2.721 14.1671 2.49999C14.1671 2.27898 14.0793 2.06701 13.923 1.91073C13.7668 1.75445 13.5548 1.66666 13.3338 1.66666H6.66711C6.4461 1.66666 6.23414 1.75445 6.07786 1.91073C5.92158 2.06701 5.83378 2.27898 5.83378 2.49999C5.83378 2.721 5.92158 2.93297 6.07786 3.08925C6.23414 3.24553 6.4461 3.33332 6.66711 3.33332H7.50045V7.27499L3.24211 14.575C3.0209 14.9548 2.90371 15.3861 2.90236 15.8256C2.901 16.2651 3.01553 16.6972 3.2344 17.0783C3.45327 17.4594 3.76875 17.7761 4.14903 17.9965C4.52931 18.2168 4.96095 18.333 5.40045 18.3333H14.5671C15.0066 18.333 15.4383 18.2168 15.8185 17.9965C16.1988 17.7761 16.5143 17.4594 16.7332 17.0783C16.952 16.6972 17.0666 16.2651 17.0652 15.8256C17.0638 15.3861 16.9467 14.9548 16.7254 14.575H16.7588ZM9.05045 7.90832C9.12395 7.78457 9.16414 7.64389 9.16711 7.49999V3.33332H10.8338V7.49999C10.8353 7.64673 10.8755 7.79046 10.9504 7.91666L11.6671 9.16666H8.33378L9.05045 7.90832ZM15.3171 16.2417C15.2444 16.3676 15.14 16.4723 15.0143 16.5454C14.8885 16.6185 14.7459 16.6574 14.6004 16.6583H5.43378C5.28835 16.6574 5.14569 16.6185 5.01996 16.5454C4.89423 16.4723 4.78983 16.3676 4.71711 16.2417C4.64397 16.115 4.60547 15.9713 4.60547 15.825C4.60547 15.6787 4.64397 15.535 4.71711 15.4083L7.35878 10.8333H12.6504L15.3171 15.4167C15.3903 15.5433 15.4288 15.687 15.4288 15.8333C15.4288 15.9796 15.3903 16.1233 15.3171 16.25V16.2417ZM8.33378 12.5C8.16896 12.5 8.00785 12.5489 7.8708 12.6404C7.73376 12.732 7.62695 12.8621 7.56388 13.0144C7.50081 13.1667 7.4843 13.3342 7.51646 13.4959C7.54861 13.6576 7.62798 13.806 7.74452 13.9226C7.86107 14.0391 8.00955 14.1185 8.1712 14.1506C8.33286 14.1828 8.50041 14.1663 8.65268 14.1032C8.80496 14.0402 8.9351 13.9333 9.02667 13.7963C9.11824 13.6593 9.16711 13.4981 9.16711 13.3333C9.16711 13.1123 9.07932 12.9003 8.92304 12.7441C8.76676 12.5878 8.55479 12.5 8.33378 12.5ZM11.6671 13.3333C11.5023 13.3333 11.3412 13.3822 11.2041 13.4738C11.0671 13.5653 10.9603 13.6955 10.8972 13.8478C10.8341 14 10.8176 14.1676 10.8498 14.3292C10.8819 14.4909 10.9613 14.6394 11.0779 14.7559C11.1944 14.8725 11.3429 14.9518 11.5045 14.984C11.6662 15.0161 11.8337 14.9996 11.986 14.9366C12.1383 14.8735 12.2684 14.7667 12.36 14.6296C12.4516 14.4926 12.5004 14.3315 12.5004 14.1667C12.5004 13.9456 12.4126 13.7337 12.2564 13.5774C12.1001 13.4211 11.8881 13.3333 11.6671 13.3333Z"
    fill="currentColor" />
</svg>