<svg width="17" height="16" viewBox="0 0 17 16" fill="none" xmlns="http://www.w3.org/2000/svg">
  <path id="Vector"
    d="M8.66659 0.00012207C6.76699 0.000200842 4.92939 0.676208 3.4826 1.90719C2.03581 3.13816 1.07425 4.84378 0.769954 6.71886C0.465662 8.59394 0.838501 10.5161 1.82176 12.1414C2.80502 13.7668 4.33453 14.9892 6.13662 15.59C6.53662 15.66 6.68662 15.42 6.68662 15.21C6.68662 15.02 6.67661 14.39 6.67661 13.72C4.66662 14.09 4.14662 13.2301 3.98662 12.7801C3.80909 12.3424 3.52765 11.9546 3.16663 11.65C2.88663 11.5 2.48663 11.13 3.15662 11.1201C3.41245 11.1478 3.65782 11.2368 3.87193 11.3796C4.08604 11.5223 4.26259 11.7146 4.38662 11.94C4.49604 12.1366 4.64316 12.3096 4.81957 12.4492C4.99598 12.5888 5.1982 12.6922 5.41464 12.7536C5.63108 12.8149 5.8575 12.8329 6.08091 12.8065C6.30432 12.7802 6.52034 12.71 6.71659 12.6C6.75122 12.1933 6.93248 11.8131 7.2266 11.5301C5.44661 11.3301 3.58663 10.64 3.58663 7.58009C3.57539 6.78501 3.86877 6.01577 4.40662 5.43011C4.16205 4.73909 4.19067 3.98075 4.48662 3.31012C4.48662 3.31012 5.15659 3.10012 6.6866 4.13012C7.99563 3.7701 9.37756 3.7701 10.6866 4.13012C12.2165 3.09012 12.8866 3.31012 12.8866 3.31012C13.1826 3.98074 13.2112 4.73909 12.9666 5.43011C13.506 6.01476 13.7997 6.78468 13.7866 7.58009C13.7866 10.65 11.9166 11.3301 10.1366 11.5301C10.3275 11.7236 10.4745 11.9559 10.5677 12.2113C10.6609 12.4666 10.698 12.7391 10.6766 13.0101C10.6766 14.0801 10.6666 14.94 10.6666 15.21C10.6666 15.42 10.8166 15.67 11.2166 15.59C13.0155 14.9843 14.5406 13.759 15.5197 12.1329C16.4987 10.5067 16.868 8.58552 16.5616 6.71226C16.2552 4.839 15.2931 3.1356 13.8469 1.90612C12.4008 0.676638 10.5647 0.00110999 8.66659 0.00012207Z"
    fill="currentColor" />
</svg>