<svg width="18" height="18" viewBox="0 0 18 18" fill="none" xmlns="http://www.w3.org/2000/svg">
  <path
    d="M15.3525 5.52754C15.3525 5.52754 15.3525 5.52754 15.3525 5.46754L15.3075 5.35504C15.2918 5.33117 15.2743 5.30859 15.255 5.28754C15.2349 5.25579 15.2124 5.22569 15.1875 5.19754L15.12 5.14504L15 5.08504L9.375 1.61254C9.2558 1.53804 9.11807 1.49854 8.9775 1.49854C8.83694 1.49854 8.6992 1.53804 8.58 1.61254L3 5.08504L2.9325 5.14504L2.865 5.19754C2.84014 5.22569 2.81757 5.25579 2.7975 5.28754C2.77822 5.30859 2.76066 5.33117 2.745 5.35504L2.7 5.46754C2.7 5.46754 2.7 5.46754 2.7 5.52754C2.69263 5.59233 2.69263 5.65775 2.7 5.72254V12.2775C2.69975 12.405 2.73198 12.5304 2.79366 12.642C2.85533 12.7535 2.94442 12.8475 3.0525 12.915L8.6775 16.3875C8.71212 16.4089 8.75019 16.4241 8.79 16.4325C8.79 16.4325 8.8275 16.4325 8.85 16.4325C8.97689 16.4728 9.11312 16.4728 9.24 16.4325C9.24 16.4325 9.2775 16.4325 9.3 16.4325C9.33982 16.4241 9.37788 16.4089 9.4125 16.3875L15 12.915C15.1081 12.8475 15.1972 12.7535 15.2588 12.642C15.3205 12.5304 15.3528 12.405 15.3525 12.2775V5.72254C15.3599 5.65775 15.3599 5.59233 15.3525 5.52754ZM8.25 14.4075L4.125 11.8575V7.07254L8.25 9.61504V14.4075ZM9 8.31754L4.8 5.72254L9 3.13504L13.2 5.72254L9 8.31754ZM13.875 11.8575L9.75 14.4075V9.61504L13.875 7.07254V11.8575Z"
    fill="currentColor" />
</svg>