<svg width="20" height="21" viewBox="0 0 20 21" fill="none" xmlns="http://www.w3.org/2000/svg">
  <path
    d="M16.592 13.257H12.817C12.596 13.257 12.384 13.3448 12.2277 13.5011C12.0715 13.6574 11.9837 13.8693 11.9837 14.0904C11.9837 14.3114 12.0715 14.5233 12.2277 14.6796C12.384 14.8359 12.596 14.9237 12.817 14.9237H14.817C13.8978 15.8843 12.7123 16.5481 11.413 16.8299C10.1136 17.1116 8.75967 16.9984 7.52514 16.5047C6.29061 16.0111 5.23188 15.1596 4.48498 14.0597C3.73809 12.9597 3.33714 11.6616 3.33366 10.332C3.33366 10.111 3.24586 9.89905 3.08958 9.74277C2.9333 9.58649 2.72134 9.49869 2.50033 9.49869C2.27931 9.49869 2.06735 9.58649 1.91107 9.74277C1.75479 9.89905 1.66699 10.111 1.66699 10.332C1.6714 11.9594 2.15218 13.5498 3.05 14.907C3.94781 16.2643 5.22338 17.329 6.71928 17.9697C8.21517 18.6104 9.86594 18.7991 11.4678 18.5126C13.0697 18.226 14.5527 17.4766 15.7337 16.357V17.832C15.7337 18.053 15.8215 18.265 15.9777 18.4213C16.134 18.5776 16.346 18.6654 16.567 18.6654C16.788 18.6654 17 18.5776 17.1562 18.4213C17.3125 18.265 17.4003 18.053 17.4003 17.832V14.082C17.3983 13.8667 17.313 13.6606 17.1623 13.5068C17.0116 13.353 16.8072 13.2635 16.592 13.257ZM12.5003 10.332C12.5003 9.83757 12.3537 9.35422 12.079 8.9431C11.8043 8.53197 11.4138 8.21154 10.957 8.02232C10.5002 7.8331 9.99755 7.7836 9.5126 7.88006C9.02765 7.97652 8.58219 8.21462 8.23256 8.56425C7.88293 8.91389 7.64483 9.35934 7.54836 9.8443C7.4519 10.3292 7.50141 10.8319 7.69063 11.2887C7.87985 11.7455 8.20028 12.136 8.6114 12.4107C9.02252 12.6854 9.50587 12.832 10.0003 12.832C10.6634 12.832 11.2993 12.5686 11.7681 12.0998C12.2369 11.6309 12.5003 10.9951 12.5003 10.332ZM9.16699 10.332C9.16699 10.1672 9.21587 10.0061 9.30743 9.86905C9.399 9.73201 9.52915 9.62519 9.68142 9.56212C9.83369 9.49905 10.0013 9.48255 10.1629 9.5147C10.3246 9.54685 10.473 9.62622 10.5896 9.74277C10.7061 9.85931 10.7855 10.0078 10.8176 10.1694C10.8498 10.3311 10.8333 10.4987 10.7702 10.6509C10.7072 10.8032 10.6003 10.9333 10.4633 11.0249C10.3263 11.1165 10.1651 11.1654 10.0003 11.1654C9.77931 11.1654 9.56735 11.0776 9.41107 10.9213C9.25479 10.765 9.16699 10.553 9.16699 10.332ZM10.0003 1.99869C7.86398 2.00478 5.81157 2.83112 4.26699 4.30702V2.83202C4.26699 2.61101 4.1792 2.39905 4.02291 2.24277C3.86663 2.08649 3.65467 1.99869 3.43366 1.99869C3.21265 1.99869 3.00068 2.08649 2.8444 2.24277C2.68812 2.39905 2.60033 2.61101 2.60033 2.83202V6.58202C2.60033 6.80304 2.68812 7.015 2.8444 7.17128C3.00068 7.32756 3.21265 7.41535 3.43366 7.41535H7.18366C7.40467 7.41535 7.61663 7.32756 7.77291 7.17128C7.92919 7.015 8.01699 6.80304 8.01699 6.58202C8.01699 6.36101 7.92919 6.14905 7.77291 5.99277C7.61663 5.83649 7.40467 5.74869 7.18366 5.74869H5.18366C6.10238 4.78858 7.28707 4.12494 8.58566 3.84294C9.88425 3.56095 11.2375 3.67348 12.4717 4.16607C13.7058 4.65867 14.7647 5.50886 15.5122 6.60752C16.2597 7.70618 16.6619 9.00318 16.667 10.332C16.667 10.553 16.7548 10.765 16.9111 10.9213C17.0674 11.0776 17.2793 11.1654 17.5003 11.1654C17.7213 11.1654 17.9333 11.0776 18.0896 10.9213C18.2459 10.765 18.3337 10.553 18.3337 10.332C18.3337 9.23767 18.1181 8.15404 17.6993 7.14299C17.2805 6.13195 16.6667 5.21329 15.8929 4.43946C15.1191 3.66564 14.2004 3.05181 13.1894 2.63303C12.1783 2.21424 11.0947 1.99869 10.0003 1.99869Z"
    fill="currentColor" />
</svg>