<svg width="20" height="20" viewBox="0 0 20 20" fill="none" xmlns="http://www.w3.org/2000/svg">
  <path
    d="M17.842 7.2C17.842 7.2 17.842 7.2 17.842 7.15834C17.2548 5.55519 16.1894 4.17107 14.7899 3.19322C13.3904 2.21537 11.7243 1.69098 10.017 1.69098C8.3097 1.69098 6.6436 2.21537 5.24408 3.19322C3.84456 4.17107 2.77916 5.55519 2.19199 7.15834C2.19199 7.15834 2.19199 7.15834 2.19199 7.2C1.53626 9.00908 1.53626 10.9909 2.19199 12.8C2.19199 12.8 2.19199 12.8 2.19199 12.8417C2.77916 14.4448 3.84456 15.8289 5.24408 16.8068C6.6436 17.7846 8.3097 18.309 10.017 18.309C11.7243 18.309 13.3904 17.7846 14.7899 16.8068C16.1894 15.8289 17.2548 14.4448 17.842 12.8417C17.842 12.8417 17.842 12.8417 17.842 12.8C18.4977 10.9909 18.4977 9.00908 17.842 7.2ZM3.55033 11.6667C3.26135 10.5743 3.26135 9.42566 3.55033 8.33334H5.10033C4.96702 9.44045 4.96702 10.5596 5.10033 11.6667H3.55033ZM4.23366 13.3333H5.40033C5.59592 14.0765 5.8755 14.7951 6.23366 15.475C5.41641 14.9183 4.73324 14.1867 4.23366 13.3333ZM5.40033 6.66667H4.23366C4.72605 5.81591 5.40049 5.08456 6.20866 4.525C5.85912 5.20604 5.58794 5.92452 5.40033 6.66667ZM9.16699 16.4167C8.14346 15.6656 7.42462 14.571 7.14199 13.3333H9.16699V16.4167ZM9.16699 11.6667H6.78366C6.62815 10.561 6.62815 9.43901 6.78366 8.33334H9.16699V11.6667ZM9.16699 6.66667H7.14199C7.42462 5.42898 8.14346 4.33443 9.16699 3.58334V6.66667ZM15.767 6.66667H14.6003C14.4047 5.92347 14.1251 5.20495 13.767 4.525C14.5842 5.08173 15.2674 5.81329 15.767 6.66667ZM10.8337 3.58334C11.8572 4.33443 12.576 5.42898 12.8587 6.66667H10.8337V3.58334ZM10.8337 16.4167V13.3333H12.8587C12.576 14.571 11.8572 15.6656 10.8337 16.4167ZM13.217 11.6667H10.8337V8.33334H13.217C13.3725 9.43901 13.3725 10.561 13.217 11.6667ZM13.792 15.475C14.1501 14.7951 14.4297 14.0765 14.6253 13.3333H15.792C15.2924 14.1867 14.6092 14.9183 13.792 15.475ZM16.4503 11.6667H14.9003C14.9681 11.1137 15.0015 10.5571 15.0003 10C15.0012 9.44292 14.9678 8.88631 14.9003 8.33334H16.4503C16.7393 9.42566 16.7393 10.5743 16.4503 11.6667Z"
    fill="currentColor" />
</svg>