<svg width="20" height="20" viewBox="0 0 20 20" fill="none" xmlns="http://www.w3.org/2000/svg">
  <path
    d="M8.49048 14.1288L7.18837 15.3941C6.84693 15.7355 6.38384 15.9274 5.90098 15.9274C5.41811 15.9274 4.95502 15.7355 4.61358 15.3941C4.27214 15.0527 4.08033 14.5896 4.08033 14.1067C4.08033 13.6238 4.27214 13.1608 4.61358 12.8193L7.95345 9.47209C8.28127 9.1432 8.72297 8.95292 9.18716 8.94059C9.65135 8.92827 10.1025 9.09485 10.4473 9.40588L10.5356 9.47944C10.6751 9.61602 10.8631 9.69158 11.0584 9.68951C11.2536 9.68744 11.44 9.60791 11.5766 9.46841C11.7131 9.3289 11.7887 9.14086 11.7866 8.94565C11.7846 8.75043 11.705 8.56403 11.5655 8.42746C11.524 8.37377 11.4798 8.32221 11.4331 8.27297C10.8051 7.72661 9.99293 7.43936 9.16108 7.46941C8.32923 7.49946 7.53989 7.84456 6.95296 8.43481L3.56895 11.782C2.99393 12.4079 2.68294 13.2318 2.70093 14.0815C2.71892 14.9313 3.0645 15.7412 3.66549 16.3422C4.26649 16.9432 5.07643 17.2888 5.92617 17.3068C6.77592 17.3247 7.59976 17.0138 8.22565 16.4387L9.49833 15.1955C9.62399 15.0584 9.69307 14.8788 9.69167 14.6928C9.69026 14.5069 9.61848 14.3283 9.49076 14.1932C9.36304 14.058 9.18887 13.9762 9.00328 13.9642C8.8177 13.9523 8.63448 14.0111 8.49048 14.1288ZM16.3546 3.65306C15.7358 3.03805 14.8988 2.69287 14.0263 2.69287C13.1538 2.69287 12.3168 3.03805 11.6979 3.65306L10.4253 4.89631C10.2996 5.0334 10.2305 5.213 10.2319 5.39896C10.2333 5.58492 10.3051 5.76346 10.4328 5.89863C10.5605 6.03381 10.7347 6.1156 10.9203 6.12754C11.1059 6.13949 11.2891 6.0807 11.4331 5.96301L12.7058 4.69769C13.0472 4.35625 13.5103 4.16443 13.9932 4.16443C14.476 4.16443 14.9391 4.35625 15.2806 4.69769C15.622 5.03912 15.8138 5.50221 15.8138 5.98508C15.8138 6.46795 15.622 6.93104 15.2806 7.27248L11.9407 10.6197C11.6129 10.9486 11.1712 11.1389 10.707 11.1512C10.2428 11.1635 9.79164 10.9969 9.44683 10.6859L9.35856 10.6124C9.21905 10.4758 9.03101 10.4002 8.83579 10.4023C8.64058 10.4043 8.45418 10.4839 8.3176 10.6234C8.18103 10.7629 8.10546 10.9509 8.10753 11.1461C8.1096 11.3414 8.18914 11.5278 8.32864 11.6643C8.38207 11.719 8.43857 11.7706 8.49784 11.8188C9.12659 12.3635 9.93842 12.6497 10.7698 12.6197C11.6011 12.5896 12.3902 12.2456 12.978 11.657L16.3252 8.30975C16.9441 7.6948 17.2946 6.85994 17.3001 5.98747C17.3056 5.115 16.9657 4.27578 16.3546 3.65306Z"
    fill="currentColor" />
</svg>