<svg width="20" height="20" viewBox="0 0 20 20" fill="none" xmlns="http://www.w3.org/2000/svg">
  <path
    d="M18.0333 10.8335C17.913 10.7341 17.7672 10.6705 17.6125 10.6498C17.4578 10.6292 17.3005 10.6524 17.1583 10.7169C16.2771 11.1201 15.3191 11.3277 14.35 11.3252C12.5574 11.323 10.8383 10.6122 9.56761 9.34779C8.29691 8.08334 7.57765 6.3678 7.56666 4.57521C7.57046 4.0134 7.64038 3.454 7.77499 2.90854C7.80356 2.76316 7.79284 2.61279 7.74395 2.47292C7.69507 2.33305 7.60977 2.20875 7.49686 2.11282C7.38395 2.01688 7.2475 1.95279 7.10157 1.92714C6.95565 1.90148 6.80552 1.9152 6.66666 1.96687C5.36026 2.5543 4.22463 3.46417 3.36646 4.61103C2.50828 5.75788 1.95572 7.10406 1.7607 8.52311C1.56567 9.94216 1.73458 11.3875 2.25155 12.7233C2.76852 14.0592 3.61658 15.2417 4.71607 16.1598C5.81556 17.0778 7.13039 17.7013 8.53703 17.9717C9.94367 18.2421 11.396 18.1504 12.7574 17.7054C14.1189 17.2604 15.345 16.4765 16.3203 15.4275C17.2957 14.3785 17.9884 13.0988 18.3333 11.7085C18.3753 11.5494 18.3693 11.3813 18.3159 11.2256C18.2625 11.0699 18.1642 10.9334 18.0333 10.8335ZM10.1167 16.4085C8.71812 16.3987 7.35682 15.9568 6.21915 15.1433C5.08148 14.3299 4.22305 13.1847 3.76139 11.8645C3.29974 10.5443 3.25744 9.1137 3.64027 7.76854C4.02311 6.42339 4.81237 5.22946 5.89999 4.35021V4.57521C5.9022 6.81561 6.79317 8.96362 8.37738 10.5478C9.96158 12.132 12.1096 13.023 14.35 13.0252C14.9382 13.0274 15.525 12.9659 16.1 12.8419C15.5249 13.9298 14.6637 14.8401 13.6093 15.4745C12.5549 16.1089 11.3472 16.4434 10.1167 16.4419V16.4085Z"
    fill="currentColor" />
</svg>
