<svg width="18" height="18" viewBox="0 0 18 18" fill="none" xmlns="http://www.w3.org/2000/svg">
  <path
    d="M7.55273 15.3772C7.55271 15.2672 7.5285 15.1586 7.48182 15.059C7.43513 14.9594 7.36712 14.8713 7.28259 14.8009C7.19806 14.7305 7.09908 14.6796 6.99268 14.6517C6.88627 14.6239 6.77504 14.6197 6.66686 14.6397C5.68505 14.8198 4.44543 14.8469 4.11584 13.9212C3.82844 13.2042 3.35239 12.5783 2.73815 12.1099C2.69433 12.0861 2.65256 12.0586 2.61328 12.0279C2.55952 11.8861 2.46404 11.7639 2.33943 11.6775C2.21481 11.591 2.06693 11.5444 1.91528 11.5437H1.91162C1.71332 11.5437 1.52306 11.6222 1.3825 11.762C1.24194 11.9019 1.16251 12.0918 1.16162 12.2901C1.15868 12.9016 1.76987 13.2935 2.01782 13.4261C2.3102 13.7198 2.54518 14.0656 2.71069 14.4456C2.98388 15.2132 3.77783 16.3777 6.06005 16.2276C6.0608 16.254 6.06152 16.2789 6.06188 16.3016L6.06518 16.5022C6.06518 16.7012 6.14419 16.8919 6.28485 17.0326C6.4255 17.1732 6.61626 17.2522 6.81518 17.2522C7.01409 17.2522 7.20485 17.1732 7.34551 17.0326C7.48616 16.8919 7.56518 16.7012 7.56518 16.5022L7.56152 16.2635C7.55786 16.1213 7.55273 15.9155 7.55273 15.3772ZM15.553 4.0327C15.5768 3.93895 15.6002 3.83495 15.6207 3.71776C15.742 2.88195 15.6363 2.02891 15.3146 1.24801C15.274 1.14621 15.2116 1.05452 15.1318 0.979366C15.0521 0.904213 14.9568 0.847417 14.8528 0.812961C14.5858 0.722871 13.6 0.545624 11.7147 1.75046C10.1476 1.38168 8.51632 1.38168 6.94922 1.75046C5.07165 0.563271 4.09094 0.724371 3.82653 0.809331C3.71993 0.842391 3.62208 0.898886 3.54014 0.974675C3.45821 1.05046 3.39427 1.14362 3.35302 1.24733C3.02475 2.04322 2.92015 2.91366 3.05053 3.76466C3.06884 3.86061 3.08861 3.94924 3.10913 4.03053C2.4878 4.85811 2.15686 5.86755 2.1676 6.90235C2.16557 7.13323 2.17621 7.36404 2.19946 7.59376C2.44996 11.0457 4.69996 12.082 6.26769 12.438C6.2351 12.5318 6.20544 12.6321 6.17907 12.7383C6.13208 12.9313 6.16352 13.135 6.26652 13.3048C6.36952 13.4746 6.53565 13.5967 6.7285 13.6442C6.92135 13.6917 7.12516 13.6608 7.29526 13.5583C7.46535 13.4557 7.58784 13.2899 7.63586 13.0972C7.68358 12.8473 7.8059 12.6177 7.98669 12.4387C8.09601 12.343 8.17516 12.2176 8.21451 12.0778C8.25386 11.9379 8.25171 11.7896 8.20834 11.6509C8.16496 11.5123 8.08222 11.3892 7.97018 11.2967C7.85814 11.2042 7.72164 11.1462 7.57727 11.1299C4.98669 10.834 3.86205 9.77858 3.69287 7.45607C3.67413 7.27212 3.66569 7.08726 3.6676 6.90236C3.65557 6.16485 3.89922 5.44592 4.35717 4.86769C4.40319 4.80741 4.4522 4.74948 4.50402 4.69411C4.59585 4.59136 4.65758 4.4653 4.68246 4.32976C4.70733 4.19422 4.69438 4.05446 4.64502 3.9258C4.59442 3.79045 4.55546 3.65102 4.52857 3.50905C4.46747 3.10533 4.48751 2.69349 4.58752 2.29762C5.23937 2.48172 5.85286 2.7814 6.39877 3.18238C6.48905 3.24251 6.5912 3.28252 6.6983 3.29971C6.8054 3.3169 6.91494 3.31085 7.0195 3.28199C8.53533 2.87062 10.1334 2.87087 11.6491 3.28274C11.7543 3.31157 11.8644 3.31727 11.9719 3.29944C12.0795 3.28161 12.1819 3.24068 12.2721 3.17947C12.8154 2.77683 13.4263 2.47447 14.076 2.28665C14.1756 2.67302 14.1979 3.07524 14.1416 3.47024C14.1144 3.62589 14.072 3.77849 14.0149 3.92581C13.9655 4.05447 13.9525 4.19424 13.9774 4.32978C14.0023 4.46531 14.064 4.59137 14.1559 4.69412C14.2137 4.7593 14.2716 4.82962 14.3236 4.89553C14.7783 5.46397 15.0178 6.17464 15 6.90235C15.0014 7.09706 14.9919 7.29169 14.9718 7.48536C14.8066 9.7771 13.6776 10.8333 11.0749 11.1299C10.9305 11.1463 10.794 11.2044 10.682 11.297C10.57 11.3896 10.4873 11.5127 10.4439 11.6515C10.4006 11.7902 10.3985 11.9385 10.4379 12.0784C10.4773 12.2183 10.5565 12.3437 10.6659 12.4395C10.8524 12.6232 10.9749 12.862 11.0156 13.1206C11.0663 13.3214 11.0896 13.5281 11.0848 13.7351V15.4856C11.0775 15.9712 11.0775 16.3352 11.0775 16.5022C11.0775 16.7011 11.1565 16.8919 11.2972 17.0325C11.4378 17.1732 11.6286 17.2522 11.8275 17.2522C12.0264 17.2522 12.2172 17.1732 12.3578 17.0325C12.4985 16.8919 12.5775 16.7011 12.5775 16.5022C12.5775 16.3396 12.5775 15.9829 12.5848 15.4973V13.7351C12.5909 13.4035 12.5518 13.0726 12.4687 12.7515C12.445 12.6461 12.4159 12.5419 12.3816 12.4395C13.5225 12.2499 14.5592 11.6617 15.307 10.7794C16.0549 9.89718 16.4654 8.77817 16.4656 7.6216C16.4903 7.38267 16.5018 7.14255 16.5 6.90235C16.5166 5.86643 16.1829 4.85525 15.553 4.03272L15.553 4.0327Z"
    fill="currentColor" />
</svg>