<svg width="18" height="18" viewBox="0 0 18 18" fill="none" xmlns="http://www.w3.org/2000/svg">
  <path fill-rule="evenodd" clip-rule="evenodd"
    d="M7.5 3V6H10.5V3H7.5ZM6.75 1.5C6.33579 1.5 6 1.83579 6 2.25V6.75C6 7.16421 6.33579 7.5 6.75 7.5H8.25V8.25H5.25C4.42157 8.25 3.75 8.92157 3.75 9.75V10.5H2.25C1.83579 10.5 1.5 10.8358 1.5 11.25V15.75C1.5 16.1642 1.83579 16.5 2.25 16.5H6.75C7.16421 16.5 7.5 16.1642 7.5 15.75V11.25C7.5 10.8358 7.16421 10.5 6.75 10.5H5.25V9.75H12.75V10.5H11.25C10.8358 10.5 10.5 10.8358 10.5 11.25V15.75C10.5 16.1642 10.8358 16.5 11.25 16.5H15.75C16.1642 16.5 16.5 16.1642 16.5 15.75V11.25C16.5 10.8358 16.1642 10.5 15.75 10.5H14.25V9.75C14.25 8.92157 13.5784 8.25 12.75 8.25H9.75V7.5H11.25C11.6642 7.5 12 7.16421 12 6.75V2.25C12 1.83579 11.6642 1.5 11.25 1.5H6.75ZM3 12V15H6V12H3ZM12 15V12H15V15H12Z"
    fill="currentColor" />
</svg>