<svg width="37" height="36" viewBox="0 0 37 36" fill="none" xmlns="http://www.w3.org/2000/svg">
<g clip-path="url(#clip0_3781_27144)">
<mask id="mask0_3781_27144" style="mask-type:alpha" maskUnits="userSpaceOnUse" x="0" y="0" width="37" height="36">
<path d="M23.4484 26.9692C21.9639 27.6496 20.2319 28.0824 18.3763 28.0824C14.2938 28.0824 10.7062 25.5464 9.46905 21.5877H35.6958C35.8814 20.2887 36.1288 19.0516 36.1288 17.7526C36.1288 8.28862 28.4587 0 18.8093 0C8.66492 0 0.871094 8.22681 0.871094 18.2474C0.871094 28.0824 8.8505 36 18.6856 36C23.0774 36 27.4073 34.2062 30.5619 31.3609L23.4484 26.9692ZM18.7474 7.97941C22.8918 7.97941 26.603 10.3919 27.9639 14.4743H9.34533C10.5825 10.5155 14.7268 7.97941 18.7474 7.97941Z" fill="black"/>
</mask>
<g mask="url(#mask0_3781_27144)">
<path d="M30.563 12.1235H8.29492V23.2576H30.563V12.1235Z" fill="#A91A1F"/>
<path d="M18.7288 7.99912C18.9828 7.99912 19.2367 7.99913 19.4272 8.06247L10.5375 1.60742C9.585 2.05042 8.69602 2.61997 7.87054 3.25282C2.15571 7.42957 -0.511209 14.2011 0.441264 20.7827L10.1489 13.9786C11.6728 10.2447 14.4744 7.99912 18.7288 7.99912Z" fill="url(#paint0_linear_3781_27144)"/>
<path d="M8.90136 18.0554C8.90136 16.6289 9.29901 15.2702 9.83959 13.9795C6.93393 16.0854 3.15761 18.8028 0.251953 20.9088C0.387101 21.9958 0.657399 23.0827 0.995267 24.1695C3.29276 31.3705 9.37437 36.3298 16.3344 37.4846C16.1993 37.0771 14.4424 31.7102 12.753 26.2756C10.388 24.3734 8.90136 21.3843 8.90136 18.0554Z" fill="url(#paint1_linear_3781_27144)"/>
<path d="M23.9254 26.6081C22.3954 27.547 20.5465 28.1103 18.5703 28.1103C16.084 28.1103 13.789 27.2339 12.0039 25.7317L15.3827 35.9968C16.4027 36.1847 17.4228 36.2473 18.5065 36.2473C25.6466 36.2473 31.7669 32.3039 34.8906 26.5456H23.9254V26.6081Z" fill="url(#paint2_linear_3781_27144)"/>
<path d="M28.0794 15.456L31.3578 5.24982C30.6774 4.5076 29.8732 3.88901 29.0692 3.27046C23.5021 -0.81203 16.3268 -1.18316 10.5742 1.6622L19.234 7.97148C23.564 8.34268 27.0897 11.3735 28.0794 15.456Z" fill="url(#paint3_linear_3781_27144)"/>
<path d="M32.1771 2.4801L27.5915 13.6995C27.8512 14.5157 28.0243 15.3995 28.0243 16.2836C28.0243 20.1595 25.4286 23.5594 21.5352 25.4632H36.5031C37.1951 24.5112 37.7145 23.4233 38.1469 22.4033C41.002 15.1275 38.4066 7.51185 32.1771 2.4801Z" fill="url(#paint4_linear_3781_27144)"/>
</g>
</g>
<defs>
<linearGradient id="paint0_linear_3781_27144" x1="9.84382" y1="20.7124" x2="9.84382" y2="1.59608" gradientUnits="userSpaceOnUse">
<stop stop-color="#EC5A22"/>
<stop offset="1" stop-color="#F5A11A"/>
</linearGradient>
<linearGradient id="paint1_linear_3781_27144" x1="8.31077" y1="37.5116" x2="8.31077" y2="13.9947" gradientUnits="userSpaceOnUse">
<stop stop-color="#BF161C"/>
<stop offset="1" stop-color="#E81C24"/>
</linearGradient>
<linearGradient id="paint2_linear_3781_27144" x1="23.5241" y1="36.3423" x2="23.5241" y2="25.7858" gradientUnits="userSpaceOnUse">
<stop stop-color="#8C278A"/>
<stop offset="1" stop-color="#A567A5"/>
</linearGradient>
<linearGradient id="paint3_linear_3781_27144" x1="20.9834" y1="15.4761" x2="20.9834" y2="-0.13799" gradientUnits="userSpaceOnUse">
<stop stop-color="#F28E1E"/>
<stop offset="1" stop-color="#FFC605"/>
</linearGradient>
<linearGradient id="paint4_linear_3781_27144" x1="30.3259" y1="25.4236" x2="30.3259" y2="2.45243" gradientUnits="userSpaceOnUse">
<stop stop-color="#00A9EA"/>
<stop offset="1" stop-color="#6DCAF1"/>
</linearGradient>
<clipPath id="clip0_3781_27144">
<rect width="36" height="36" fill="white" transform="translate(0.5)"/>
</clipPath>
</defs>
</svg>
