<svg width="37" height="36" viewBox="0 0 37 36" fill="none" xmlns="http://www.w3.org/2000/svg">
<g clip-path="url(#clip0_3764_26699)">
<path fill-rule="evenodd" clip-rule="evenodd" d="M36.0985 16.7266C36.6338 15.7996 36.6338 14.6575 36.0985 13.7306L29.397 2.1229C28.8617 1.19592 27.8726 0.624878 26.8022 0.624878H13.3989C12.3285 0.624878 11.3395 1.19592 10.8043 2.1229L6.41779 9.72051C6.41701 9.72051 6.41627 9.72095 6.41587 9.72163L0.901393 19.273C0.366202 20.2 0.366203 21.3421 0.901393 22.2691L7.60308 33.8767C8.13827 34.8037 9.12734 35.3747 10.1977 35.3747H23.6011C24.6715 35.3747 25.6606 34.8037 26.1956 33.8767L30.5822 26.279C30.583 26.279 30.5838 26.2786 30.5842 26.278L36.0985 16.7266ZM30.5822 26.279L30.8459 25.8222C31.3812 24.8952 31.3812 23.7531 30.8459 22.8261L24.1444 11.2185C23.6091 10.2916 22.62 9.72051 21.5496 9.72051H6.41779L6.15404 10.1773C5.61884 11.1043 5.61884 12.2464 6.15404 13.1734L12.8557 24.781C13.3909 25.7079 14.38 26.279 15.4504 26.279H30.5822Z" fill="url(#paint0_linear_3764_26699)"/>
</g>
<defs>
<linearGradient id="paint0_linear_3764_26699" x1="28.2999" y1="1.02599" x2="8.70018" y2="34.9737" gradientUnits="userSpaceOnUse">
<stop stop-color="#12CD87"/>
<stop offset="1" stop-color="#12ABCD"/>
</linearGradient>
<clipPath id="clip0_3764_26699">
<rect width="36" height="36" fill="white" transform="translate(0.5)"/>
</clipPath>
</defs>
</svg>
