<svg width="20" height="20" viewBox="0 0 20 20" fill="none" xmlns="http://www.w3.org/2000/svg">
  <path
    d="M15.8333 1.66669H4.16663C3.50358 1.66669 2.8677 1.93008 2.39886 2.39892C1.93002 2.86776 1.66663 3.50365 1.66663 4.16669V12.5C1.66663 13.1631 1.93002 13.7989 2.39886 14.2678C2.8677 14.7366 3.50358 15 4.16663 15H6.36663L5.88329 15.8334C5.73701 16.0867 5.66 16.3741 5.66 16.6667C5.66 16.9592 5.73701 17.2467 5.88329 17.5C6.03083 17.7556 6.24359 17.9674 6.49981 18.1138C6.75603 18.2602 7.04653 18.336 7.34163 18.3334H12.725C13.0172 18.3331 13.3043 18.2559 13.5573 18.1096C13.8104 17.9634 14.0205 17.7531 14.1666 17.5C14.3129 17.2467 14.3899 16.9592 14.3899 16.6667C14.3899 16.3741 14.3129 16.0867 14.1666 15.8334L13.675 15H15.8333C16.4963 15 17.1322 14.7366 17.6011 14.2678C18.0699 13.7989 18.3333 13.1631 18.3333 12.5V4.16669C18.3333 3.50365 18.0699 2.86776 17.6011 2.39892C17.1322 1.93008 16.4963 1.66669 15.8333 1.66669ZM7.30829 16.6667L8.33329 15H11.6666L12.6666 16.6667H7.30829ZM16.6666 12.5C16.6666 12.721 16.5788 12.933 16.4225 13.0893C16.2663 13.2456 16.0543 13.3334 15.8333 13.3334H4.16663C3.94561 13.3334 3.73365 13.2456 3.57737 13.0893C3.42109 12.933 3.33329 12.721 3.33329 12.5V11.6667H16.6666V12.5ZM16.6666 10H3.33329V4.16669C3.33329 3.94567 3.42109 3.73371 3.57737 3.57743C3.73365 3.42115 3.94561 3.33335 4.16663 3.33335H15.8333C16.0543 3.33335 16.2663 3.42115 16.4225 3.57743C16.5788 3.73371 16.6666 3.94567 16.6666 4.16669V10Z"
    fill="currentColor" />
</svg>