<svg width="36" height="37" viewBox="0 0 36 37" fill="none" xmlns="http://www.w3.org/2000/svg">
<path d="M4.25366 15.3276C4.25366 14.783 4.6305 14.3109 5.16153 14.1902L17.7416 11.3311C17.9117 11.2925 18.0884 11.2925 18.2585 11.3311L30.8386 14.1902C31.3696 14.3109 31.7465 14.783 31.7465 15.3276V27.8368C31.7465 28.3814 31.3696 28.8535 30.8386 28.9741L18.2585 31.8332C18.0884 31.8719 17.9117 31.8719 17.7416 31.8332L5.16153 28.9741C4.6305 28.8535 4.25366 28.3814 4.25366 27.8368V15.3276Z" fill="#6C48FA"/>
<g filter="url(#filter0_d_2782_13884)">
<path d="M4.25366 15.8578C4.25366 15.1093 4.94865 14.5545 5.67851 14.7204L17.7416 17.462C17.9117 17.5007 18.0884 17.5007 18.2585 17.462L30.3216 14.7204C31.0515 14.5545 31.7465 15.1093 31.7465 15.8578V29.2118C31.7465 29.7564 31.3696 30.2285 30.8386 30.3491L18.2585 33.2082C18.0884 33.2469 17.9117 33.2469 17.7416 33.2082L5.16153 30.3491C4.6305 30.2285 4.25366 29.7564 4.25366 29.2118V15.8578Z" fill="#C2B2FC"/>
</g>
<path d="M17.9852 33.199V17.5943L31.6486 14.495L31.7483 28.912C31.7534 29.6463 31.2443 30.284 30.5272 30.4417L17.9852 33.199Z" fill="#AA95FD"/>
<path d="M7.37793 5.23231C7.37793 3.85196 8.49692 2.73296 9.87727 2.73296H26.123C27.5034 2.73296 28.6224 3.85196 28.6224 5.23231V12.7303C28.6224 14.1107 27.5034 15.2297 26.123 15.2297H9.87727C8.49692 15.2297 7.37793 14.1107 7.37793 12.7303V5.23231Z" fill="url(#paint0_linear_2782_13884)"/>
<g filter="url(#filter1_d_2782_13884)">
<path d="M11.5802 12.4383C13.1402 12.4383 14.1022 11.654 14.1022 10.4147V10.4104C14.1022 9.43539 13.5259 8.90673 12.2042 8.63374L11.5412 8.49941C10.8046 8.34774 10.5013 8.10508 10.5013 7.69776V7.69342C10.5013 7.22543 10.9303 6.93077 11.5759 6.92644C12.2346 6.92644 12.6679 7.23843 12.7416 7.68476L12.7502 7.73676H13.9809L13.9765 7.68042C13.8942 6.63611 13.0362 5.86479 11.5759 5.86479C10.1893 5.86479 9.19262 6.63178 9.19262 7.79309V7.79742C9.19262 8.7464 9.75161 9.35306 11.0516 9.61739L11.7102 9.75172C12.4859 9.91205 12.7935 10.1417 12.7935 10.5534V10.5577C12.7935 11.0387 12.3126 11.3724 11.6149 11.3724C10.8826 11.3724 10.3756 11.056 10.3279 10.588L10.3236 10.5447H9.06262L9.06696 10.614C9.14062 11.7233 10.0853 12.4383 11.5802 12.4383Z" fill="#F7F8F8"/>
<path d="M11.5802 12.4383C13.1402 12.4383 14.1022 11.654 14.1022 10.4147V10.4104C14.1022 9.43539 13.5259 8.90673 12.2042 8.63374L11.5412 8.49941C10.8046 8.34774 10.5013 8.10508 10.5013 7.69776V7.69342C10.5013 7.22543 10.9303 6.93077 11.5759 6.92644C12.2346 6.92644 12.6679 7.23843 12.7416 7.68476L12.7502 7.73676H13.9809L13.9765 7.68042C13.8942 6.63611 13.0362 5.86479 11.5759 5.86479C10.1893 5.86479 9.19262 6.63178 9.19262 7.79309V7.79742C9.19262 8.7464 9.75161 9.35306 11.0516 9.61739L11.7102 9.75172C12.4859 9.91205 12.7935 10.1417 12.7935 10.5534V10.5577C12.7935 11.0387 12.3126 11.3724 11.6149 11.3724C10.8826 11.3724 10.3756 11.056 10.3279 10.588L10.3236 10.5447H9.06262L9.06696 10.614C9.14062 11.7233 10.0853 12.4383 11.5802 12.4383Z" fill="#78767F" fill-opacity="0.02"/>
<path d="M11.5802 12.4383C13.1402 12.4383 14.1022 11.654 14.1022 10.4147V10.4104C14.1022 9.43539 13.5259 8.90673 12.2042 8.63374L11.5412 8.49941C10.8046 8.34774 10.5013 8.10508 10.5013 7.69776V7.69342C10.5013 7.22543 10.9303 6.93077 11.5759 6.92644C12.2346 6.92644 12.6679 7.23843 12.7416 7.68476L12.7502 7.73676H13.9809L13.9765 7.68042C13.8942 6.63611 13.0362 5.86479 11.5759 5.86479C10.1893 5.86479 9.19262 6.63178 9.19262 7.79309V7.79742C9.19262 8.7464 9.75161 9.35306 11.0516 9.61739L11.7102 9.75172C12.4859 9.91205 12.7935 10.1417 12.7935 10.5534V10.5577C12.7935 11.0387 12.3126 11.3724 11.6149 11.3724C10.8826 11.3724 10.3756 11.056 10.3279 10.588L10.3236 10.5447H9.06262L9.06696 10.614C9.14062 11.7233 10.0853 12.4383 11.5802 12.4383Z" fill="#5D34F2" fill-opacity="0.05"/>
<path d="M15.164 12.278H17.6253C19.4973 12.278 20.5589 11.134 20.5589 9.11473V9.10606C20.5589 7.14743 19.4843 6.02512 17.6253 6.02512H15.164V12.278ZM16.4727 11.199V7.1041H17.4173C18.5526 7.1041 19.2243 7.84075 19.2243 9.12773V9.13639C19.2243 10.471 18.5743 11.199 17.4173 11.199H16.4727Z" fill="#F7F8F8"/>
<path d="M15.164 12.278H17.6253C19.4973 12.278 20.5589 11.134 20.5589 9.11473V9.10606C20.5589 7.14743 19.4843 6.02512 17.6253 6.02512H15.164V12.278ZM16.4727 11.199V7.1041H17.4173C18.5526 7.1041 19.2243 7.84075 19.2243 9.12773V9.13639C19.2243 10.471 18.5743 11.199 17.4173 11.199H16.4727Z" fill="#78767F" fill-opacity="0.02"/>
<path d="M15.164 12.278H17.6253C19.4973 12.278 20.5589 11.134 20.5589 9.11473V9.10606C20.5589 7.14743 19.4843 6.02512 17.6253 6.02512H15.164V12.278ZM16.4727 11.199V7.1041H17.4173C18.5526 7.1041 19.2243 7.84075 19.2243 9.12773V9.13639C19.2243 10.471 18.5743 11.199 17.4173 11.199H16.4727Z" fill="#5D34F2" fill-opacity="0.05"/>
<path d="M21.6251 12.278H22.9337V10.367L23.5534 9.62172L25.369 12.278H26.9376L24.498 8.76374L26.7773 6.02512H25.3213L23.0117 8.83307H22.9337V6.02512H21.6251V12.278Z" fill="#F7F8F8"/>
<path d="M21.6251 12.278H22.9337V10.367L23.5534 9.62172L25.369 12.278H26.9376L24.498 8.76374L26.7773 6.02512H25.3213L23.0117 8.83307H22.9337V6.02512H21.6251V12.278Z" fill="#78767F" fill-opacity="0.02"/>
<path d="M21.6251 12.278H22.9337V10.367L23.5534 9.62172L25.369 12.278H26.9376L24.498 8.76374L26.7773 6.02512H25.3213L23.0117 8.83307H22.9337V6.02512H21.6251V12.278Z" fill="#5D34F2" fill-opacity="0.05"/>
</g>
<g filter="url(#filter2_b_2782_13884)">
<path d="M4.01826 14.7731C4.15918 14.5477 4.42734 14.4361 4.6866 14.495L18 17.5208L15.1112 22.1429C14.9702 22.3684 14.7021 22.48 14.4428 22.421L1.98681 19.5901C1.56749 19.4948 1.36752 19.0143 1.59542 18.6497L4.01826 14.7731Z" fill="#9175FD"/>
<path d="M31.9817 14.7731C31.8408 14.5477 31.5727 14.4361 31.3134 14.495L18 17.5208L20.8888 22.1429C21.0298 22.3684 21.2979 22.48 21.5572 22.421L34.0132 19.5901C34.4325 19.4948 34.6325 19.0143 34.4046 18.6497L31.9817 14.7731Z" fill="#9175FD"/>
</g>
<defs>
<filter id="filter0_d_2782_13884" x="1.92094" y="13.5245" width="32.1582" height="23.2118" filterUnits="userSpaceOnUse" color-interpolation-filters="sRGB">
<feFlood flood-opacity="0" result="BackgroundImageFix"/>
<feColorMatrix in="SourceAlpha" type="matrix" values="0 0 0 0 0 0 0 0 0 0 0 0 0 0 0 0 0 0 127 0" result="hardAlpha"/>
<feOffset dy="1.16636"/>
<feGaussianBlur stdDeviation="1.16636"/>
<feComposite in2="hardAlpha" operator="out"/>
<feColorMatrix type="matrix" values="0 0 0 0 0.13941 0 0 0 0 0.174154 0 0 0 0 0.229167 0 0 0 0.16 0"/>
<feBlend mode="normal" in2="BackgroundImageFix" result="effect1_dropShadow_2782_13884"/>
<feBlend mode="normal" in="SourceGraphic" in2="effect1_dropShadow_2782_13884" result="shape"/>
</filter>
<filter id="filter1_d_2782_13884" x="6.30167" y="3.79408" width="23.3969" height="12.0954" filterUnits="userSpaceOnUse" color-interpolation-filters="sRGB">
<feFlood flood-opacity="0" result="BackgroundImageFix"/>
<feColorMatrix in="SourceAlpha" type="matrix" values="0 0 0 0 0 0 0 0 0 0 0 0 0 0 0 0 0 0 127 0" result="hardAlpha"/>
<feOffset dy="0.690238"/>
<feGaussianBlur stdDeviation="1.38048"/>
<feComposite in2="hardAlpha" operator="out"/>
<feColorMatrix type="matrix" values="0 0 0 0 0.102162 0 0 0 0 0.094375 0 0 0 0 0.15 0 0 0 0.16 0"/>
<feBlend mode="normal" in2="BackgroundImageFix" result="effect1_dropShadow_2782_13884"/>
<feBlend mode="normal" in="SourceGraphic" in2="effect1_dropShadow_2782_13884" result="shape"/>
</filter>
<filter id="filter2_b_2782_13884" x="-0.832721" y="12.1467" width="37.6654" height="12.6227" filterUnits="userSpaceOnUse" color-interpolation-filters="sRGB">
<feFlood flood-opacity="0" result="BackgroundImageFix"/>
<feGaussianBlur in="BackgroundImageFix" stdDeviation="1.16636"/>
<feComposite in2="SourceAlpha" operator="in" result="effect1_backgroundBlur_2782_13884"/>
<feBlend mode="normal" in="SourceGraphic" in2="effect1_backgroundBlur_2782_13884" result="shape"/>
</filter>
<linearGradient id="paint0_linear_2782_13884" x1="7.37793" y1="13.98" x2="23.351" y2="-5.72055" gradientUnits="userSpaceOnUse">
<stop stop-color="#492EF3"/>
<stop offset="1" stop-color="#CF69FF"/>
</linearGradient>
</defs>
</svg>
