<svg width="20" height="20" viewBox="0 0 20 20" fill="none" xmlns="http://www.w3.org/2000/svg">
  <path
    d="M17.0833 12.5834C16.8855 12.4851 16.6568 12.4694 16.4474 12.5397C16.238 12.6101 16.0651 12.7606 15.9667 12.9584C15.4392 14.0235 14.6366 14.9283 13.6419 15.579C12.6472 16.2297 11.4967 16.6026 10.3094 16.6591C9.12214 16.7157 7.94135 16.4538 6.88935 15.9005C5.83734 15.3473 4.95237 14.5228 4.32611 13.5126C3.69985 12.5024 3.35506 11.3431 3.32748 10.1548C3.29989 8.96647 3.59049 7.79242 4.1692 6.7542C4.7479 5.71598 5.59365 4.85136 6.61885 4.2499C7.64405 3.64843 8.81141 3.33199 10 3.33336C11.2426 3.32798 12.4616 3.67306 13.5169 4.32899C14.5723 4.98492 15.4214 5.92512 15.9667 7.04169C16.0661 7.24061 16.2405 7.39186 16.4515 7.46219C16.6625 7.53252 16.8928 7.51615 17.0917 7.41669C17.2906 7.31724 17.4419 7.14284 17.5122 6.93186C17.5825 6.72088 17.5661 6.49061 17.4667 6.29169C16.6305 4.60898 15.2502 3.25824 13.5498 2.45872C11.8494 1.65919 9.92863 1.45781 8.09935 1.88726C6.27007 2.3167 4.63962 3.35177 3.47262 4.82446C2.30563 6.29715 1.67059 8.12101 1.67059 10C1.67059 11.879 2.30563 13.7029 3.47262 15.1756C4.63962 16.6483 6.27007 17.6833 8.09935 18.1128C9.92863 18.5422 11.8494 18.3409 13.5498 17.5413C15.2502 16.7418 16.6305 15.3911 17.4667 13.7084C17.5163 13.6095 17.5458 13.5017 17.5534 13.3914C17.561 13.281 17.5465 13.1702 17.5108 13.0655C17.4751 12.9608 17.419 12.8642 17.3456 12.7814C17.2722 12.6987 17.183 12.6313 17.0833 12.5834ZM17.5 9.16669H9.50835L11.425 7.25836C11.5027 7.18066 11.5643 7.08842 11.6064 6.9869C11.6484 6.88538 11.6701 6.77658 11.6701 6.66669C11.6701 6.55681 11.6484 6.448 11.6064 6.34649C11.5643 6.24497 11.5027 6.15273 11.425 6.07503C11.3473 5.99733 11.2551 5.93569 11.1536 5.89364C11.052 5.85159 10.9432 5.82995 10.8333 5.82995C10.7235 5.82995 10.6147 5.85159 10.5131 5.89364C10.4116 5.93569 10.3194 5.99733 10.2417 6.07503L6.90835 9.40836C6.83248 9.48761 6.77301 9.58107 6.73335 9.68336C6.65 9.88624 6.65 10.1138 6.73335 10.3167C6.77301 10.419 6.83248 10.5124 6.90835 10.5917L10.2417 13.925C10.3192 14.0031 10.4113 14.0651 10.5129 14.1074C10.6144 14.1497 10.7233 14.1715 10.8333 14.1715C10.9434 14.1715 11.0523 14.1497 11.1538 14.1074C11.2554 14.0651 11.3475 14.0031 11.425 13.925C11.5031 13.8476 11.5651 13.7554 11.6074 13.6538C11.6497 13.5523 11.6715 13.4434 11.6715 13.3334C11.6715 13.2233 11.6497 13.1144 11.6074 13.0129C11.5651 12.9113 11.5031 12.8192 11.425 12.7417L9.50835 10.8334H17.5C17.721 10.8334 17.933 10.7456 18.0893 10.5893C18.2456 10.433 18.3333 10.221 18.3333 10C18.3333 9.77901 18.2456 9.56705 18.0893 9.41077C17.933 9.25449 17.721 9.16669 17.5 9.16669Z"
    fill="currentColor" />
</svg>