<svg width="20" height="20" viewBox="0 0 20 20" fill="none" xmlns="http://www.w3.org/2000/svg">
  <path fill-rule="evenodd" clip-rule="evenodd"
    d="M12.8484 3.65872C13.962 4.28151 14.8408 5.25228 15.35 6.42228C16.2096 6.6769 16.9642 7.20201 17.5017 7.91962C18.0391 8.63723 18.3308 9.50906 18.3333 10.4056C18.3341 11.1362 18.1429 11.8541 17.7787 12.4874C17.4145 13.1208 16.8901 13.6472 16.2583 14.0139C16.066 14.1245 15.8377 14.154 15.6236 14.0962C15.4095 14.0384 15.2271 13.8979 15.1166 13.7056C15.0061 13.5133 14.9765 13.285 15.0344 13.0709C15.0922 12.8568 15.2327 12.6745 15.425 12.5639C15.8626 12.3035 16.2102 11.9156 16.4214 11.4522C16.6325 10.9888 16.6971 10.4719 16.6065 9.97078C16.5159 9.46965 16.2744 9.00814 15.9143 8.64802C15.5542 8.28789 15.0927 8.04631 14.5916 7.95561C14.4429 7.93013 14.3039 7.86473 14.1894 7.76639C14.0749 7.66806 13.9893 7.54048 13.9416 7.39728C13.6221 6.4649 12.9825 5.67596 12.1363 5.17062C11.2901 4.66528 10.2921 4.47628 9.31976 4.63717C8.34738 4.79807 7.46351 5.29846 6.82519 6.04943C6.18687 6.80041 5.83543 7.75334 5.8333 8.73895C5.8333 8.95996 5.7455 9.17192 5.58922 9.3282C5.43294 9.48448 5.22098 9.57228 4.99997 9.57228C4.55794 9.57228 4.13402 9.74787 3.82146 10.0604C3.5089 10.373 3.3333 10.7969 3.3333 11.2389C3.34352 11.5729 3.45387 11.896 3.65001 12.1665C3.84616 12.4369 4.11906 12.6422 4.4333 12.7556C4.65432 12.791 4.85223 12.9127 4.9835 13.094C5.11478 13.2753 5.16866 13.5013 5.1333 13.7223C5.09794 13.9433 4.97623 14.1412 4.79494 14.2725C4.61366 14.4038 4.38765 14.4576 4.16663 14.4223C4.07621 14.4213 3.98639 14.4072 3.89997 14.3806C3.22207 14.1423 2.63933 13.6913 2.23861 13.0949C1.83788 12.4984 1.64061 11.7885 1.67621 11.0708C1.71182 10.3531 1.97838 9.66613 2.43618 9.11228C2.89397 8.55842 3.51848 8.16732 4.21663 7.99728C4.38129 6.73196 4.95629 5.55553 5.85351 4.64826C6.75074 3.74099 7.9207 3.15294 9.18411 2.9742C10.4475 2.79547 11.7347 3.03593 12.8484 3.65872ZM14.3393 10.1612C14.6647 9.83578 14.6647 9.30814 14.3393 8.98271C14.0138 8.65727 13.4862 8.65727 13.1608 8.98271L9.67887 12.4646C9.29041 12.216 8.82868 12.072 8.33329 12.072C6.95258 12.072 5.83329 13.1912 5.83329 14.572C5.83329 15.9527 6.95258 17.072 8.33329 17.072C9.714 17.072 10.8333 15.9527 10.8333 14.572C10.8333 14.2994 10.7897 14.037 10.709 13.7915L12.7083 11.7922L13.1608 12.2446C13.4862 12.57 14.0138 12.57 14.3393 12.2446C14.6647 11.9192 14.6647 11.3915 14.3393 11.0661L13.8868 10.6137L14.3393 10.1612ZM9.16663 14.572C9.16663 15.0322 8.79353 15.4053 8.33329 15.4053C7.87305 15.4053 7.49996 15.0322 7.49996 14.572C7.49996 14.1117 7.87305 13.7386 8.33329 13.7386C8.79353 13.7386 9.16663 14.1117 9.16663 14.572Z"
    fill="currentColor" />
</svg>