<svg width="764" height="157" viewBox="0 0 764 157" fill="none" xmlns="http://www.w3.org/2000/svg">
<rect width="764" height="156.231" rx="4" fill="#F7F8F8"/>
<rect x="305.5" y="20.5" width="163" height="33" rx="3.5" fill="white"/>
<rect x="305.5" y="20.5" width="163" height="33" rx="3.5" stroke="#747778"/>
<path d="M318.709 42V32.1357H319.939V40.8926H324.697V42H318.709ZM329.202 42.1299C327.104 42.1299 325.805 40.6807 325.805 38.3223V38.3086C325.805 35.9434 327.104 34.501 329.202 34.501C331.301 34.501 332.6 35.9434 332.6 38.3086V38.3223C332.6 40.6807 331.301 42.1299 329.202 42.1299ZM329.202 41.0771C330.597 41.0771 331.383 40.0586 331.383 38.3223V38.3086C331.383 36.5654 330.597 35.5537 329.202 35.5537C327.808 35.5537 327.021 36.5654 327.021 38.3086V38.3223C327.021 40.0586 327.808 41.0771 329.202 41.0771ZM337.48 44.5977C335.703 44.5977 334.568 43.7979 334.384 42.5879L334.397 42.5811H335.628L335.635 42.5879C335.765 43.1484 336.421 43.5449 337.48 43.5449C338.8 43.5449 339.586 42.9229 339.586 41.8359V40.3457H339.477C339.012 41.1592 338.178 41.6172 337.166 41.6172C335.259 41.6172 334.076 40.1406 334.076 38.0762V38.0625C334.076 35.998 335.266 34.501 337.193 34.501C338.232 34.501 339.039 35.0137 339.49 35.8477H339.572V34.6309H340.762V41.8975C340.762 43.5449 339.49 44.5977 337.48 44.5977ZM337.426 40.5645C338.793 40.5645 339.613 39.5391 339.613 38.0762V38.0625C339.613 36.5996 338.786 35.5537 337.426 35.5537C336.059 35.5537 335.293 36.5996 335.293 38.0625V38.0762C335.293 39.5391 336.059 40.5645 337.426 40.5645ZM345.595 42.0547C344.077 42.0547 343.441 41.4941 343.441 40.0859V35.6152H342.279V34.6309H343.441V32.7236H344.672V34.6309H346.285V35.6152H344.672V39.7852C344.672 40.6533 344.973 41.002 345.738 41.002C345.95 41.002 346.066 40.9951 346.285 40.9746V41.9863C346.053 42.0273 345.827 42.0547 345.595 42.0547ZM350.981 42.1299C348.883 42.1299 347.584 40.6807 347.584 38.3223V38.3086C347.584 35.9434 348.883 34.501 350.981 34.501C353.08 34.501 354.379 35.9434 354.379 38.3086V38.3223C354.379 40.6807 353.08 42.1299 350.981 42.1299ZM350.981 41.0771C352.376 41.0771 353.162 40.0586 353.162 38.3223V38.3086C353.162 36.5654 352.376 35.5537 350.981 35.5537C349.587 35.5537 348.801 36.5654 348.801 38.3086V38.3223C348.801 40.0586 349.587 41.0771 350.981 41.0771ZM363.177 42.1299C361.112 42.1299 359.793 40.6328 359.793 38.2949V38.2812C359.793 35.9912 361.105 34.501 363.17 34.501C364.961 34.501 366.034 35.5332 366.253 36.8457L366.26 36.8867H365.077L365.07 36.8662C364.886 36.1416 364.229 35.5537 363.17 35.5537C361.844 35.5537 361.01 36.6201 361.01 38.2812V38.2949C361.01 39.9902 361.857 41.0771 363.17 41.0771C364.161 41.0771 364.79 40.6396 365.063 39.8193L365.077 39.7783L366.253 39.7715L366.239 39.8467C365.938 41.1797 364.947 42.1299 363.177 42.1299ZM371.024 42.1299C368.926 42.1299 367.627 40.6807 367.627 38.3223V38.3086C367.627 35.9434 368.926 34.501 371.024 34.501C373.123 34.501 374.422 35.9434 374.422 38.3086V38.3223C374.422 40.6807 373.123 42.1299 371.024 42.1299ZM371.024 41.0771C372.419 41.0771 373.205 40.0586 373.205 38.3223V38.3086C373.205 36.5654 372.419 35.5537 371.024 35.5537C369.63 35.5537 368.844 36.5654 368.844 38.3086V38.3223C368.844 40.0586 369.63 41.0771 371.024 41.0771ZM376.268 42V34.6309H377.457V35.7383H377.566C377.936 34.959 378.626 34.501 379.713 34.501C381.367 34.501 382.29 35.4785 382.29 37.2285V42H381.101V37.5156C381.101 36.1895 380.554 35.5537 379.378 35.5537C378.202 35.5537 377.457 36.3467 377.457 37.6387V42H376.268ZM386.973 42.1299C385.332 42.1299 384.204 41.3369 384.067 40.1201H385.284C385.482 40.7354 386.07 41.1387 387.014 41.1387C388.005 41.1387 388.709 40.667 388.709 39.9971V39.9834C388.709 39.4844 388.333 39.1357 387.424 38.917L386.282 38.6436C384.901 38.3154 384.279 37.7139 384.279 36.6543V36.6475C384.279 35.4238 385.455 34.501 387.021 34.501C388.565 34.501 389.639 35.2734 389.803 36.4766H388.634C388.477 35.8955 387.902 35.4922 387.014 35.4922C386.139 35.4922 385.496 35.9434 385.496 36.5928V36.6064C385.496 37.1055 385.865 37.4199 386.733 37.6318L387.868 37.9053C389.256 38.2402 389.926 38.8418 389.926 39.8945V39.9082C389.926 41.2207 388.647 42.1299 386.973 42.1299ZM394.8 42.1299C392.701 42.1299 391.402 40.6807 391.402 38.3223V38.3086C391.402 35.9434 392.701 34.501 394.8 34.501C396.898 34.501 398.197 35.9434 398.197 38.3086V38.3223C398.197 40.6807 396.898 42.1299 394.8 42.1299ZM394.8 41.0771C396.194 41.0771 396.98 40.0586 396.98 38.3223V38.3086C396.98 36.5654 396.194 35.5537 394.8 35.5537C393.405 35.5537 392.619 36.5654 392.619 38.3086V38.3223C392.619 40.0586 393.405 41.0771 394.8 41.0771ZM400.111 42V31.7051H401.301V42H400.111ZM406.592 42.1299C404.486 42.1299 403.215 40.6533 403.215 38.3428V38.3359C403.215 36.0596 404.514 34.501 406.517 34.501C408.52 34.501 409.736 35.9912 409.736 38.1924V38.6572H404.432C404.466 40.1816 405.307 41.0703 406.619 41.0703C407.617 41.0703 408.232 40.5986 408.431 40.1543L408.458 40.0928H409.647L409.634 40.1475C409.381 41.1455 408.328 42.1299 406.592 42.1299ZM406.51 35.5605C405.416 35.5605 404.582 36.3057 404.452 37.707H408.526C408.403 36.251 407.597 35.5605 406.51 35.5605ZM418.138 42.0547C416.62 42.0547 415.984 41.4941 415.984 40.0859V35.6152H414.822V34.6309H415.984V32.7236H417.215V34.6309H418.828V35.6152H417.215V39.7852C417.215 40.6533 417.516 41.002 418.281 41.002C418.493 41.002 418.609 40.9951 418.828 40.9746V41.9863C418.596 42.0273 418.37 42.0547 418.138 42.0547ZM423.504 42.1299C421.398 42.1299 420.127 40.6533 420.127 38.3428V38.3359C420.127 36.0596 421.426 34.501 423.429 34.501C425.432 34.501 426.648 35.9912 426.648 38.1924V38.6572H421.344C421.378 40.1816 422.219 41.0703 423.531 41.0703C424.529 41.0703 425.145 40.5986 425.343 40.1543L425.37 40.0928H426.56L426.546 40.1475C426.293 41.1455 425.24 42.1299 423.504 42.1299ZM423.422 35.5605C422.328 35.5605 421.494 36.3057 421.364 37.707H425.438C425.315 36.251 424.509 35.5605 423.422 35.5605ZM428.494 42V34.6309H429.684V35.7383H429.793C430.162 34.959 430.853 34.501 431.939 34.501C433.594 34.501 434.517 35.4785 434.517 37.2285V42H433.327V37.5156C433.327 36.1895 432.78 35.5537 431.604 35.5537C430.429 35.5537 429.684 36.3467 429.684 37.6387V42H428.494ZM438.693 42.1299C437.292 42.1299 436.232 41.2822 436.232 39.9424V39.9287C436.232 38.6162 437.203 37.8574 438.919 37.7549L441.031 37.625V36.9551C441.031 36.0459 440.478 35.5537 439.377 35.5537C438.495 35.5537 437.914 35.8818 437.723 36.4561L437.716 36.4766H436.526L436.533 36.4355C436.725 35.2803 437.846 34.501 439.418 34.501C441.216 34.501 442.221 35.4238 442.221 36.9551V42H441.031V40.9131H440.922C440.457 41.6992 439.685 42.1299 438.693 42.1299ZM437.449 39.915C437.449 40.6602 438.085 41.0977 438.939 41.0977C440.149 41.0977 441.031 40.3047 441.031 39.252V38.582L439.062 38.7051C437.941 38.7734 437.449 39.1699 437.449 39.9014V39.915ZM444.395 42V34.6309H445.584V35.7383H445.693C446.062 34.959 446.753 34.501 447.84 34.501C449.494 34.501 450.417 35.4785 450.417 37.2285V42H449.228V37.5156C449.228 36.1895 448.681 35.5537 447.505 35.5537C446.329 35.5537 445.584 36.3467 445.584 37.6387V42H444.395ZM455.188 42.0547C453.671 42.0547 453.035 41.4941 453.035 40.0859V35.6152H451.873V34.6309H453.035V32.7236H454.266V34.6309H455.879V35.6152H454.266V39.7852C454.266 40.6533 454.566 41.002 455.332 41.002C455.544 41.002 455.66 40.9951 455.879 40.9746V41.9863C455.646 42.0273 455.421 42.0547 455.188 42.0547Z" fill="#191C1D"/>
<rect x="213.5" y="102.731" width="68" height="33" rx="16.5" fill="white"/>
<rect x="213.5" y="102.731" width="68" height="33" rx="16.5" stroke="#747778"/>
<path d="M230.492 124.464C228.045 124.464 226.568 122.987 226.568 120.841V114.367H227.799V120.759C227.799 122.276 228.783 123.329 230.492 123.329C232.201 123.329 233.172 122.276 233.172 120.759V114.367H234.402V120.841C234.402 122.987 232.939 124.464 230.492 124.464ZM239.283 124.361C237.643 124.361 236.515 123.568 236.378 122.351H237.595C237.793 122.967 238.381 123.37 239.324 123.37C240.315 123.37 241.02 122.898 241.02 122.228V122.215C241.02 121.716 240.644 121.367 239.734 121.148L238.593 120.875C237.212 120.547 236.59 119.945 236.59 118.886V118.879C236.59 117.655 237.766 116.732 239.331 116.732C240.876 116.732 241.949 117.505 242.113 118.708H240.944C240.787 118.127 240.213 117.724 239.324 117.724C238.449 117.724 237.807 118.175 237.807 118.824V118.838C237.807 119.337 238.176 119.651 239.044 119.863L240.179 120.137C241.566 120.472 242.236 121.073 242.236 122.126V122.14C242.236 123.452 240.958 124.361 239.283 124.361ZM247.09 124.361C244.984 124.361 243.713 122.885 243.713 120.574V120.567C243.713 118.291 245.012 116.732 247.015 116.732C249.018 116.732 250.234 118.223 250.234 120.424V120.889H244.93C244.964 122.413 245.805 123.302 247.117 123.302C248.115 123.302 248.73 122.83 248.929 122.386L248.956 122.324H250.146L250.132 122.379C249.879 123.377 248.826 124.361 247.09 124.361ZM247.008 117.792C245.914 117.792 245.08 118.537 244.95 119.938H249.024C248.901 118.482 248.095 117.792 247.008 117.792ZM252.08 124.231V116.862H253.27V117.956H253.379C253.659 117.183 254.35 116.732 255.348 116.732C255.573 116.732 255.826 116.76 255.942 116.78V117.935C255.696 117.894 255.471 117.867 255.211 117.867C254.076 117.867 253.27 118.585 253.27 119.665V124.231H252.08ZM260.714 124.231L264.351 114.367H265.567L269.204 124.231H267.912L266.921 121.408H262.997L262.006 124.231H260.714ZM264.904 115.96L263.359 120.362H266.559L265.014 115.96H264.904Z" fill="#191C1D"/>
<rect x="349.152" y="102.731" width="68" height="33" rx="16.5" fill="white"/>
<rect x="349.152" y="102.731" width="68" height="33" rx="16.5" stroke="#747778"/>
<path d="M366.261 124.464C363.813 124.464 362.337 122.987 362.337 120.841V114.367H363.567V120.759C363.567 122.276 364.552 123.329 366.261 123.329C367.97 123.329 368.94 122.276 368.94 120.759V114.367H370.171V120.841C370.171 122.987 368.708 124.464 366.261 124.464ZM375.052 124.361C373.411 124.361 372.283 123.568 372.146 122.351H373.363C373.562 122.967 374.149 123.37 375.093 123.37C376.084 123.37 376.788 122.898 376.788 122.228V122.215C376.788 121.716 376.412 121.367 375.503 121.148L374.361 120.875C372.98 120.547 372.358 119.945 372.358 118.886V118.879C372.358 117.655 373.534 116.732 375.1 116.732C376.645 116.732 377.718 117.505 377.882 118.708H376.713C376.556 118.127 375.981 117.724 375.093 117.724C374.218 117.724 373.575 118.175 373.575 118.824V118.838C373.575 119.337 373.944 119.651 374.812 119.863L375.947 120.137C377.335 120.472 378.005 121.073 378.005 122.126V122.14C378.005 123.452 376.727 124.361 375.052 124.361ZM382.858 124.361C380.753 124.361 379.481 122.885 379.481 120.574V120.567C379.481 118.291 380.78 116.732 382.783 116.732C384.786 116.732 386.003 118.223 386.003 120.424V120.889H380.698C380.732 122.413 381.573 123.302 382.886 123.302C383.884 123.302 384.499 122.83 384.697 122.386L384.725 122.324H385.914L385.9 122.379C385.647 123.377 384.595 124.361 382.858 124.361ZM382.776 117.792C381.683 117.792 380.849 118.537 380.719 119.938H384.793C384.67 118.482 383.863 117.792 382.776 117.792ZM387.849 124.231V116.862H389.038V117.956H389.147C389.428 117.183 390.118 116.732 391.116 116.732C391.342 116.732 391.595 116.76 391.711 116.78V117.935C391.465 117.894 391.239 117.867 390.979 117.867C389.845 117.867 389.038 118.585 389.038 119.665V124.231H387.849ZM397.269 124.231V114.367H401.042C402.854 114.367 403.961 115.317 403.961 116.821V116.835C403.961 117.853 403.209 118.783 402.259 118.954V119.063C403.605 119.234 404.46 120.157 404.46 121.456V121.47C404.46 123.199 403.216 124.231 401.117 124.231H397.269ZM400.782 115.454H398.499V118.619H400.468C401.958 118.619 402.717 118.086 402.717 117.047V117.033C402.717 116.035 402.006 115.454 400.782 115.454ZM400.816 119.679H398.499V123.144H400.933C402.416 123.144 403.195 122.543 403.195 121.408V121.394C403.195 120.26 402.389 119.679 400.816 119.679Z" fill="#191C1D"/>
<rect x="482.5" y="102.731" width="68" height="33" rx="16.5" fill="white"/>
<rect x="482.5" y="102.731" width="68" height="33" rx="16.5" stroke="#747778"/>
<path d="M499.198 124.464C496.751 124.464 495.274 122.987 495.274 120.841V114.367H496.505V120.759C496.505 122.276 497.489 123.329 499.198 123.329C500.907 123.329 501.878 122.276 501.878 120.759V114.367H503.108V120.841C503.108 122.987 501.646 124.464 499.198 124.464ZM507.989 124.361C506.349 124.361 505.221 123.568 505.084 122.351H506.301C506.499 122.967 507.087 123.37 508.03 123.37C509.021 123.37 509.726 122.898 509.726 122.228V122.215C509.726 121.716 509.35 121.367 508.44 121.148L507.299 120.875C505.918 120.547 505.296 119.945 505.296 118.886V118.879C505.296 117.655 506.472 116.732 508.037 116.732C509.582 116.732 510.655 117.505 510.819 118.708H509.65C509.493 118.127 508.919 117.724 508.03 117.724C507.155 117.724 506.513 118.175 506.513 118.824V118.838C506.513 119.337 506.882 119.651 507.75 119.863L508.885 120.137C510.272 120.472 510.942 121.073 510.942 122.126V122.14C510.942 123.452 509.664 124.361 507.989 124.361ZM515.796 124.361C513.69 124.361 512.419 122.885 512.419 120.574V120.567C512.419 118.291 513.718 116.732 515.721 116.732C517.724 116.732 518.94 118.223 518.94 120.424V120.889H513.636C513.67 122.413 514.511 123.302 515.823 123.302C516.821 123.302 517.437 122.83 517.635 122.386L517.662 122.324H518.852L518.838 122.379C518.585 123.377 517.532 124.361 515.796 124.361ZM515.714 117.792C514.62 117.792 513.786 118.537 513.656 119.938H517.73C517.607 118.482 516.801 117.792 515.714 117.792ZM520.786 124.231V116.862H521.976V117.956H522.085C522.365 117.183 523.056 116.732 524.054 116.732C524.279 116.732 524.532 116.76 524.648 116.78V117.935C524.402 117.894 524.177 117.867 523.917 117.867C522.782 117.867 521.976 118.585 521.976 119.665V124.231H520.786ZM534.178 124.464C531.498 124.464 529.823 122.481 529.823 119.309V119.296C529.823 116.117 531.491 114.135 534.171 114.135C536.249 114.135 537.869 115.44 538.163 117.334L538.156 117.348H536.919L536.912 117.334C536.584 116.069 535.531 115.269 534.171 115.269C532.277 115.269 531.088 116.828 531.088 119.296V119.309C531.088 121.777 532.277 123.329 534.178 123.329C535.552 123.329 536.598 122.625 536.905 121.49L536.919 121.476H538.163V121.49C537.835 123.295 536.276 124.464 534.178 124.464Z" fill="#191C1D"/>
<path d="M384.166 102.18C384.361 102.376 384.678 102.376 384.873 102.18L388.055 98.9984C388.25 98.8032 388.25 98.4866 388.055 98.2913C387.86 98.0961 387.543 98.0961 387.348 98.2913L384.519 101.12L381.691 98.2913C381.496 98.0961 381.179 98.0961 380.984 98.2913C380.788 98.4866 380.788 98.8032 380.984 98.9984L384.166 102.18ZM384.019 54L384.019 101.827L385.019 101.827L385.019 54L384.019 54Z" fill="#747778"/>
<path d="M246.146 102.354C246.342 102.549 246.658 102.549 246.854 102.354L250.036 99.1715C250.231 98.9763 250.231 98.6597 250.036 98.4644C249.84 98.2692 249.524 98.2692 249.328 98.4644L246.5 101.293L243.672 98.4644C243.476 98.2692 243.16 98.2692 242.964 98.4644C242.769 98.6597 242.769 98.9763 242.964 99.1715L246.146 102.354ZM516.12 101.854C516.315 102.049 516.631 102.049 516.827 101.854L520.009 98.6716C520.204 98.4763 520.204 98.1597 520.009 97.9645C519.813 97.7692 519.497 97.7692 519.301 97.9645L516.473 100.793L513.645 97.9645C513.449 97.7692 513.133 97.7692 512.938 97.9645C512.742 98.1597 512.742 98.4763 512.938 98.6716L516.12 101.854ZM514.473 78.0866L514.473 77.5866L514.473 78.0866ZM248.5 78.0865L248.5 78.5865L248.5 78.0865ZM246 80.0865L246 102L247 102L247 80.0865L246 80.0865ZM248.5 78.5865L514.473 78.5866L514.473 77.5866L248.5 77.5865L248.5 78.5865ZM515.973 80.0866L515.973 101.5L516.973 101.5L516.973 80.0866L515.973 80.0866ZM514.473 78.5866C515.301 78.5866 515.973 79.2581 515.973 80.0866L516.973 80.0866C516.973 78.7058 515.854 77.5866 514.473 77.5866L514.473 78.5866ZM247 80.0865C247 79.2581 247.672 78.5865 248.5 78.5865L248.5 77.5865C247.119 77.5865 246 78.7058 246 80.0865L247 80.0865Z" fill="#747778"/>
</svg>
