<svg width="20" height="20" viewBox="0 0 20 20" fill="none" xmlns="http://www.w3.org/2000/svg">
  <path fill-rule="evenodd" clip-rule="evenodd"
    d="M12.8486 3.65869C13.9623 4.28148 14.841 5.25225 15.3502 6.42225C16.2099 6.67687 16.9644 7.20198 17.5019 7.91959C18.0394 8.6372 18.331 9.50903 18.3335 10.4056C18.3344 11.1362 18.1431 11.8541 17.7789 12.4874C17.4147 13.1207 16.8904 13.6472 16.2585 14.0139C16.0663 14.1244 15.838 14.154 15.6239 14.0962C15.4098 14.0384 15.2274 13.8979 15.1169 13.7056C15.0064 13.5133 14.9768 13.285 15.0346 13.0709C15.0924 12.8568 15.2329 12.6744 15.4252 12.5639C15.8628 12.3035 16.2105 11.9156 16.4216 11.4522C16.6328 10.9887 16.6973 10.4719 16.6067 9.97075C16.5161 9.46962 16.2746 9.00811 15.9145 8.64799C15.5545 8.28786 15.093 8.04628 14.5919 7.95558C14.4431 7.9301 14.3041 7.86469 14.1896 7.76636C14.0751 7.66803 13.9895 7.54045 13.9419 7.39725C13.6224 6.46487 12.9827 5.67592 12.1365 5.17059C11.2903 4.66525 10.2924 4.47625 9.32 4.63714C8.34762 4.79804 7.46376 5.29843 6.82544 6.0494C6.18712 6.80038 5.83567 7.75331 5.83355 8.73892C5.83355 8.95993 5.74575 9.17189 5.58947 9.32817C5.43319 9.48445 5.22123 9.57225 5.00021 9.57225C4.55818 9.57225 4.13426 9.74784 3.8217 10.0604C3.50914 10.373 3.33355 10.7969 3.33355 11.2389C3.34377 11.5728 3.45411 11.896 3.65026 12.1664C3.84641 12.4369 4.1193 12.6421 4.43355 12.7556C4.65456 12.7909 4.85247 12.9127 4.98375 13.0939C5.11502 13.2752 5.16891 13.5012 5.13355 13.7222C5.09818 13.9433 4.97647 14.1412 4.79519 14.2725C4.6139 14.4037 4.38789 14.4576 4.16688 14.4222C4.07645 14.4212 3.98664 14.4072 3.90021 14.3806C3.22232 14.1423 2.63958 13.6913 2.23885 13.0948C1.83812 12.4984 1.64086 11.7884 1.67646 11.0707C1.71206 10.3531 1.97863 9.6661 2.43642 9.11225C2.89421 8.55839 3.51873 8.16729 4.21688 7.99725C4.38154 6.73193 4.95653 5.5555 5.85376 4.64823C6.75098 3.74096 7.92094 3.1529 9.18435 2.97417C10.4478 2.79544 11.7349 3.0359 12.8486 3.65869ZM14.3395 10.1612C14.665 9.83575 14.665 9.30811 14.3395 8.98268C14.0141 8.65724 13.4864 8.65724 13.161 8.98268L9.67912 12.4646C9.29066 12.216 8.82892 12.0719 8.33354 12.0719C6.95282 12.0719 5.83354 13.1912 5.83354 14.5719C5.83354 15.9526 6.95282 17.0719 8.33354 17.0719C9.71425 17.0719 10.8335 15.9526 10.8335 14.5719C10.8335 14.2994 10.7899 14.037 10.7093 13.7914L12.7086 11.7921L13.161 12.2446C13.4864 12.57 14.0141 12.57 14.3395 12.2446C14.665 11.9191 14.665 11.3915 14.3395 11.0661L13.8871 10.6136L14.3395 10.1612ZM9.16687 14.5719C9.16687 15.0322 8.79377 15.4053 8.33354 15.4053C7.8733 15.4053 7.5002 15.0322 7.5002 14.5719C7.5002 14.1117 7.8733 13.7386 8.33354 13.7386C8.79377 13.7386 9.16687 14.1117 9.16687 14.5719Z"
    fill="currentColor" />
</svg>