<svg width="48" height="48" viewBox="0 0 48 48" fill="none" xmlns="http://www.w3.org/2000/svg">
<path d="M35.8062 33.8802C22.5984 40.166 14.4016 34.9068 9.15447 31.7126C8.82978 31.5112 8.27793 31.7596 8.75674 32.3096C10.5048 34.4292 16.2336 39.5379 23.7113 39.5379C31.1942 39.5379 35.6458 35.4549 36.2027 34.7427C36.7558 34.0365 36.3651 33.6469 35.8061 33.8802H35.8062ZM39.5156 31.8317C39.1609 31.3698 37.3589 31.2837 36.2248 31.423C35.0889 31.5583 33.3841 32.2525 33.5323 32.6693C33.6083 32.8254 33.7636 32.7554 34.5439 32.6852C35.3263 32.6072 37.5181 32.3306 37.9749 32.9276C38.4337 33.5288 37.2758 36.3926 37.0643 36.8545C36.86 37.3163 37.1424 37.4354 37.5262 37.1278C37.9047 36.8203 38.59 36.024 39.0498 34.8971C39.5066 33.764 39.7852 32.1833 39.5156 31.8317Z" fill="#FF9900"/>
<path fill-rule="evenodd" clip-rule="evenodd" d="M26.9254 21.0542C26.9254 22.7035 26.967 24.079 26.1334 25.5436C25.4606 26.7346 24.3947 27.4669 23.2039 27.4669C21.5784 27.4669 20.6317 26.2284 20.6317 24.4005C20.6317 20.7922 23.8647 20.1373 26.9254 20.1373V21.0542ZM31.1945 31.3729C30.9146 31.623 30.5097 31.6409 30.1942 31.4741C28.789 30.3071 28.5389 29.7653 27.7649 28.6518C25.4427 31.0217 23.7993 31.7301 20.7865 31.7301C17.2259 31.7301 14.4512 29.533 14.4512 25.1328C14.4512 21.6973 16.315 19.3572 18.9644 18.2141C21.2628 17.2018 24.4722 17.0232 26.9254 16.7434V16.1956C26.9254 15.1893 27.0027 13.9985 26.4133 13.1292C25.8952 12.3492 24.9068 12.0276 24.0374 12.0276C22.4239 12.0276 20.983 12.8552 20.6317 14.57C20.5601 14.9512 20.2804 15.3263 19.8993 15.3441L15.7908 14.9036C15.4456 14.8261 15.0645 14.5463 15.1598 14.0163C16.1065 9.03865 20.6018 7.53809 24.6268 7.53809C26.687 7.53809 29.3783 8.08593 31.0038 9.64598C33.064 11.5691 32.8675 14.1354 32.8675 16.9279V23.5252C32.8675 25.508 33.6892 26.3773 34.4632 27.4491C34.7371 27.8301 34.7967 28.2887 34.4513 28.5744C33.5879 29.2948 32.0517 30.6346 31.2063 31.3849L31.1944 31.3729" fill="black"/>
<path d="M35.8062 33.8802C22.5984 40.166 14.4016 34.9068 9.15447 31.7126C8.82978 31.5112 8.27793 31.7596 8.75674 32.3096C10.5048 34.4292 16.2336 39.5379 23.7113 39.5379C31.1942 39.5379 35.6458 35.4549 36.2027 34.7427C36.7558 34.0365 36.3651 33.6469 35.8061 33.8802H35.8062ZM39.5156 31.8317C39.1609 31.3698 37.3589 31.2837 36.2248 31.423C35.0889 31.5583 33.3841 32.2525 33.5323 32.6693C33.6083 32.8254 33.7636 32.7554 34.5439 32.6852C35.3263 32.6072 37.5181 32.3306 37.9749 32.9276C38.4337 33.5288 37.2758 36.3926 37.0643 36.8545C36.86 37.3163 37.1424 37.4354 37.5262 37.1278C37.9047 36.8203 38.59 36.024 39.0498 34.8971C39.5066 33.764 39.7852 32.1833 39.5156 31.8317Z" fill="#FF9900"/>
<path fill-rule="evenodd" clip-rule="evenodd" d="M26.9254 21.0542C26.9254 22.7035 26.967 24.079 26.1334 25.5436C25.4606 26.7346 24.3947 27.4669 23.2039 27.4669C21.5784 27.4669 20.6317 26.2284 20.6317 24.4005C20.6317 20.7922 23.8647 20.1373 26.9254 20.1373V21.0542ZM31.1945 31.3729C30.9146 31.623 30.5097 31.6409 30.1942 31.4741C28.789 30.3071 28.5389 29.7653 27.7649 28.6518C25.4427 31.0217 23.7993 31.7301 20.7865 31.7301C17.2259 31.7301 14.4512 29.533 14.4512 25.1328C14.4512 21.6973 16.315 19.3572 18.9644 18.2141C21.2628 17.2018 24.4722 17.0232 26.9254 16.7434V16.1956C26.9254 15.1893 27.0027 13.9985 26.4133 13.1292C25.8952 12.3492 24.9068 12.0276 24.0374 12.0276C22.4239 12.0276 20.983 12.8552 20.6317 14.57C20.5601 14.9512 20.2804 15.3263 19.8993 15.3441L15.7908 14.9036C15.4456 14.8261 15.0645 14.5463 15.1598 14.0163C16.1065 9.03865 20.6018 7.53809 24.6268 7.53809C26.687 7.53809 29.3783 8.08593 31.0038 9.64598C33.064 11.5691 32.8675 14.1354 32.8675 16.9279V23.5252C32.8675 25.508 33.6892 26.3773 34.4632 27.4491C34.7371 27.8301 34.7967 28.2887 34.4513 28.5744C33.5879 29.2948 32.0517 30.6346 31.2063 31.3849L31.1944 31.3729" fill="black"/>
</svg>
