<svg width="48" height="48" viewBox="0 0 48 48" fill="none" xmlns="http://www.w3.org/2000/svg">
<path d="M32.7308 25.0006C32.7449 23.776 33.0696 22.575 33.6745 21.5101C34.2793 20.4452 35.1445 19.5512 36.189 18.9118C35.5251 17.9665 34.651 17.1879 33.6355 16.6371C32.62 16.0864 31.4907 15.7785 30.3362 15.7377C27.8439 15.4851 25.4732 17.2048 24.2104 17.2048C22.9468 17.2048 20.996 15.7748 18.929 15.8143C17.5724 15.852 16.249 16.2414 15.0883 16.9445C13.9275 17.6476 12.9694 18.6401 12.3076 19.8249C9.48777 24.7212 11.5879 31.9748 14.3359 35.9477C15.6806 37.89 17.2835 40.0776 19.3883 39.9979C21.4167 39.9182 22.1822 38.6878 24.6312 38.6878C27.0808 38.6878 27.7697 39.9979 29.9124 39.9583C32.0931 39.9181 33.4773 37.976 34.8111 36.0265C35.7658 34.6247 36.5117 33.0916 37.0257 31.4753C35.756 30.9331 34.6727 30.0311 33.9095 28.8805C33.1464 27.73 32.7366 26.3812 32.7308 25.0006ZM28.7038 13.1093C29.9116 11.6928 30.5099 9.85607 30.3683 8C28.545 8.17687 26.8584 9.04462 25.6544 10.4253C25.0537 11.0942 24.5938 11.8771 24.3021 12.7275C24.0104 13.5779 23.893 14.4784 23.9568 15.3751C24.869 15.3877 25.7718 15.1898 26.5951 14.7969C27.4184 14.4039 28.14 13.8264 28.7038 13.1093Z" fill="white"/>
</svg>
