<svg width="48" height="48" viewBox="0 0 48 48" fill="none" xmlns="http://www.w3.org/2000/svg">
<path d="M12.9828 14.7642L8.03882 19.7144L15.6633 27.3617L8 35.048L12.9285 40.0004L20.6073 32.312L28.2444 39.9454L33.1884 34.9952L12.9828 14.7642Z" fill="#53B9FF"/>
<path d="M25.5647 27.3618L20.6074 32.312L28.2445 39.9456L33.1885 34.9953L25.5647 27.3618Z" fill="#119EFF"/>
<path d="M25.5647 27.3618L20.6074 32.312L22.5157 34.2097L25.5647 27.3618Z" fill="black" fill-opacity="0.2"/>
<path d="M32.3212 20.6231L40 12.9347L35.0539 8L27.3773 15.6729L19.7396 8.03887L14.7956 12.9891L35.0012 33.2201L39.9452 28.2699L32.3212 20.6231Z" fill="#53B9FF"/>
<path d="M22.42 20.6233L27.3773 15.6731L19.7396 8.03906L14.7956 12.9893L22.42 20.6233Z" fill="#119EFF"/>
<path d="M22.4199 20.6233L27.3772 15.6731L25.4684 13.7749L22.4199 20.6233Z" fill="black" fill-opacity="0.2"/>
</svg>
