<svg width="49" height="48" viewBox="0 0 49 48" fill="none" xmlns="http://www.w3.org/2000/svg">
<g clip-path="url(#clip0_12216_24569)">
<path d="M40.3492 19.9324C40.0709 18.8335 39.6702 17.7693 39.1546 16.7597C39.0224 16.5028 38.8832 16.2494 38.7374 16H38.7368C38.045 14.8247 37.1824 13.7203 36.1489 12.6868C33.026 9.56326 29.2524 8 24.834 8C20.4156 8 16.6444 9.56326 13.5202 12.6874C10.3972 15.8104 8.83398 19.5816 8.83398 24C8.83398 28.4184 10.3967 32.1914 13.5202 35.315C15.8272 37.6219 18.4861 39.0762 21.4829 39.6759C22.5864 39.8946 23.709 40.0032 24.834 40C29.2529 40 33.0254 38.4391 36.1489 35.3156C37.7964 33.6682 39.01 31.8412 39.7875 29.8305C40.3641 28.3407 40.703 26.7526 40.8032 25.0596C40.8233 24.7135 40.834 24.3597 40.834 24C40.834 22.5849 40.674 21.2338 40.3492 19.9324Z" fill="#1791F5"/>
<path d="M15.8525 13.6943C15.8525 15.3222 16.0748 17.6327 17.2451 18.8932C17.8733 19.5693 18.9085 19.753 19.7399 20.0523C21.5562 20.7065 23.5669 21.7014 25.5035 21.8709L22.9565 21.497L17.193 20.3966C17.2048 20.9773 17.3228 21.4662 17.5426 22.0049C18.9826 25.545 22.4611 24.8197 25.6374 24.8197C24.4404 25.1835 23.1219 25.2268 21.8845 25.3933C21.4721 25.449 20.6774 25.4632 20.4196 25.852C19.9853 26.5062 21.2137 27.4057 21.6167 27.7334C23.3749 29.1622 25.1319 28.889 27.1118 28.0363L26.4422 31.3874H28.5862L27.5136 36.2129L30.0279 32.9963L32.8754 29.1089H30.0605C30.9838 27.3737 32.1204 25.7554 33.0389 24.0155C33.4419 23.2534 34.0019 22.3699 33.7559 21.4686C33.3719 20.0647 30.8665 19.4478 29.6588 19.033C26.3396 17.8952 23.1266 16.5619 19.8739 15.2564C18.6039 14.7468 17.2351 13.766 15.8525 13.6943Z" fill="white"/>
</g>
<defs>
<clipPath id="clip0_12216_24569">
<rect width="32" height="32" fill="white" transform="translate(8.83398 8)"/>
</clipPath>
</defs>
</svg>
