<svg width="48" height="48" viewBox="0 0 48 48" fill="none" xmlns="http://www.w3.org/2000/svg">
<path d="M45.907 17.0027C44.9503 23.0002 41.8973 28.4636 37.2911 32.4213C32.6848 36.3789 26.8242 38.574 20.7517 38.6161C19.5217 38.6634 18.29 38.5885 17.0748 38.3929C14.5332 37.9611 12.2166 36.6709 10.5112 34.7377C8.80581 32.8044 7.81477 30.3449 7.70337 27.7694C7.72792 24.8967 8.88097 22.1489 10.9137 20.1189C12.9463 18.0891 15.6956 16.9399 18.5682 16.9197C21.4407 16.8994 24.206 18.0095 26.2671 20.0105C28.3283 22.0115 29.5201 24.7427 29.5853 27.6147C29.6313 29.4286 28.8455 31.0197 27.2306 31.0657C25.5053 31.0657 24.6964 29.8345 24.6964 28.1752V23.5647C24.6971 22.8191 24.4029 22.1035 23.878 21.574C23.3531 21.0445 22.6401 20.744 21.8946 20.7381H18.0299C16.9057 20.7303 15.7976 21.0044 14.8067 21.5353C13.8158 22.0663 12.9738 22.8371 12.3576 23.7774C11.7414 24.7176 11.3706 25.7973 11.2791 26.9177C11.1876 28.0382 11.3783 29.1637 11.8338 30.1915C12.2893 31.2192 12.9951 32.1164 13.8867 32.8012C14.7783 33.4859 15.8272 33.9363 16.9377 34.1112C18.0482 34.286 19.1848 34.1796 20.2436 33.802C21.3024 33.4243 22.2496 32.7873 22.9988 31.9491L23.1339 31.7476L23.2692 31.9713C23.734 32.6028 24.3477 33.1097 25.0557 33.4469C25.7636 33.784 26.5439 33.941 27.3272 33.9039C28.7233 33.8024 30.0245 33.1592 30.9529 32.1115C31.8813 31.0639 32.3633 29.6948 32.2961 28.2966C32.3096 27.0968 32.1752 25.8999 31.8957 24.7329C31.179 21.4365 29.2674 18.522 26.5295 16.5516C23.7917 14.5812 20.4213 13.6942 17.0682 14.0615C13.715 14.4287 10.6166 16.0244 8.37023 18.5407C6.12367 21.0573 4.88815 24.3164 4.90181 27.6898C4.94491 31.2668 6.37279 34.6879 8.88541 37.2342C11.3978 39.7805 14.7995 41.2536 18.3754 41.3441C18.3754 41.3441 19.3875 41.4362 20.5285 41.4099C26.075 41.3748 31.4962 39.7573 36.1551 36.7475C36.2214 36.7014 36.2877 36.7934 36.2436 36.8606C33.9754 39.304 31.2018 41.2236 28.116 42.4856C25.0301 43.7476 21.7062 44.3218 18.3759 44.168C16.1986 44.2075 14.0359 43.8056 12.0183 42.9864C10.0007 42.1672 8.1699 40.9478 6.63645 39.4017C5.10286 37.8555 3.89833 36.0147 3.09551 33.9904C2.29269 31.966 1.9082 29.8001 1.96525 27.6231C1.9663 25.0277 2.57266 22.4683 3.73615 20.1483C4.89964 17.8283 6.58818 15.8116 8.66762 14.2585C11.4621 12.2005 14.8392 11.0856 18.3097 11.0753H23.4967C25.5229 11.0738 27.5266 10.6503 29.3801 9.83188C31.2337 9.01345 32.8964 7.81798 34.2626 6.32162C34.2914 6.28961 34.3298 6.26771 34.3721 6.25912C34.4142 6.24999 34.4582 6.25436 34.4978 6.27161C34.5373 6.28887 34.5705 6.31813 34.5925 6.35526C34.6146 6.39252 34.6246 6.43573 34.621 6.47909C34.4012 8.81049 33.625 11.0551 32.3578 13.0244C32.3391 13.0586 32.3306 13.0975 32.3336 13.1364C32.3366 13.1753 32.3508 13.2125 32.3745 13.2435C32.3981 13.2744 32.4302 13.2978 32.4669 13.3108C32.5035 13.3239 32.5432 13.326 32.581 13.317C34.9754 12.7761 37.2094 11.6807 39.1032 10.1189C40.997 8.55717 42.4978 6.57267 43.4848 4.32512C43.5099 4.28495 43.5444 4.2516 43.5855 4.22797C43.6269 4.20464 43.6736 4.19238 43.7211 4.19238C43.7685 4.19238 43.8152 4.20464 43.8566 4.22797C43.8977 4.25146 43.9324 4.28481 43.9572 4.32512C45.9901 8.21946 46.6757 12.6775 45.907 17.0027ZM18.3621 23.5071C17.7654 23.507 17.1762 23.6392 16.6368 23.8943C16.0974 24.1493 15.6213 24.5208 15.2428 24.982C14.8642 25.4432 14.5927 25.9826 14.4478 26.5614C14.3028 27.1402 14.2881 27.7439 14.4046 28.3291C14.5603 29.1118 14.9445 29.8307 15.5088 30.395C16.073 30.9593 16.7919 31.3437 17.5746 31.4995C18.1597 31.6159 18.7634 31.601 19.3422 31.456C19.9209 31.311 20.4602 31.0394 20.9214 30.6609C21.3825 30.2823 21.754 29.8062 22.009 29.2668C22.264 28.7274 22.3961 28.1382 22.396 27.5416V23.7749C22.3924 23.7029 22.3621 23.6347 22.3111 23.5837C22.2601 23.5327 22.192 23.5025 22.1199 23.4989L18.3621 23.5071Z" fill="#5C2D91"/>
<path d="M45.907 17.0027C44.9503 23.0002 41.8973 28.4636 37.2911 32.4213C32.6848 36.3789 26.8242 38.574 20.7517 38.6161C19.5217 38.6634 18.29 38.5885 17.0748 38.3929C14.5332 37.9611 12.2166 36.6709 10.5112 34.7377C8.80581 32.8044 7.81477 30.3449 7.70337 27.7694C7.72792 24.8967 8.88097 22.1489 10.9137 20.1189C12.9463 18.0891 15.6956 16.9399 18.5682 16.9197C21.4407 16.8994 24.206 18.0095 26.2671 20.0105C28.3283 22.0115 29.5201 24.7427 29.5853 27.6147C29.6313 29.4286 28.8455 31.0197 27.2306 31.0657C25.5053 31.0657 24.6964 29.8345 24.6964 28.1752V23.5647C24.6971 22.8191 24.4029 22.1035 23.878 21.574C23.3531 21.0445 22.6401 20.744 21.8946 20.7381H18.0299C16.9057 20.7303 15.7976 21.0044 14.8067 21.5353C13.8158 22.0663 12.9738 22.8371 12.3576 23.7774C11.7414 24.7176 11.3706 25.7973 11.2791 26.9177C11.1876 28.0382 11.3783 29.1637 11.8338 30.1915C12.2893 31.2192 12.9951 32.1164 13.8867 32.8012C14.7783 33.4859 15.8272 33.9363 16.9377 34.1112C18.0482 34.286 19.1848 34.1796 20.2436 33.802C21.3024 33.4243 22.2496 32.7873 22.9988 31.9491L23.1339 31.7476L23.2692 31.9713C23.734 32.6028 24.3477 33.1097 25.0557 33.4469C25.7636 33.784 26.5439 33.941 27.3272 33.9039C28.7233 33.8024 30.0245 33.1592 30.9529 32.1115C31.8813 31.0639 32.3633 29.6948 32.2961 28.2966C32.3096 27.0968 32.1752 25.8999 31.8957 24.7329C31.179 21.4365 29.2674 18.522 26.5295 16.5516C23.7917 14.5812 20.4213 13.6942 17.0682 14.0615C13.715 14.4287 10.6166 16.0244 8.37023 18.5407C6.12367 21.0573 4.88815 24.3164 4.90181 27.6898C4.94491 31.2668 6.37279 34.6879 8.88541 37.2342C11.3978 39.7805 14.7995 41.2536 18.3754 41.3441C18.3754 41.3441 19.3875 41.4362 20.5285 41.4099C26.075 41.3748 31.4962 39.7573 36.1551 36.7475C36.2214 36.7014 36.2877 36.7934 36.2436 36.8606C33.9754 39.304 31.2018 41.2236 28.116 42.4856C25.0301 43.7476 21.7062 44.3218 18.3759 44.168C16.1986 44.2075 14.0359 43.8056 12.0183 42.9864C10.0007 42.1672 8.1699 40.9478 6.63645 39.4017C5.10286 37.8555 3.89833 36.0147 3.09551 33.9904C2.29269 31.966 1.9082 29.8001 1.96525 27.6231C1.9663 25.0277 2.57266 22.4683 3.73615 20.1483C4.89964 17.8283 6.58818 15.8116 8.66762 14.2585C11.4621 12.2005 14.8392 11.0856 18.3097 11.0753H23.4967C25.5229 11.0738 27.5266 10.6503 29.3801 9.83188C31.2337 9.01345 32.8964 7.81798 34.2626 6.32162C34.2914 6.28961 34.3298 6.26771 34.3721 6.25912C34.4142 6.24999 34.4582 6.25436 34.4978 6.27161C34.5373 6.28887 34.5705 6.31813 34.5925 6.35526C34.6146 6.39252 34.6246 6.43573 34.621 6.47909C34.4012 8.81049 33.625 11.0551 32.3578 13.0244C32.3391 13.0586 32.3306 13.0975 32.3336 13.1364C32.3366 13.1753 32.3508 13.2125 32.3745 13.2435C32.3981 13.2744 32.4302 13.2978 32.4669 13.3108C32.5035 13.3239 32.5432 13.326 32.581 13.317C34.9754 12.7761 37.2094 11.6807 39.1032 10.1189C40.997 8.55717 42.4978 6.57267 43.4848 4.32512C43.5099 4.28495 43.5444 4.2516 43.5855 4.22797C43.6269 4.20464 43.6736 4.19238 43.7211 4.19238C43.7685 4.19238 43.8152 4.20464 43.8566 4.22797C43.8977 4.25146 43.9324 4.28481 43.9572 4.32512C45.9901 8.21946 46.6757 12.6775 45.907 17.0027ZM18.3621 23.5071C17.7654 23.507 17.1762 23.6392 16.6368 23.8943C16.0974 24.1493 15.6213 24.5208 15.2428 24.982C14.8642 25.4432 14.5927 25.9826 14.4478 26.5614C14.3028 27.1402 14.2881 27.7439 14.4046 28.3291C14.5603 29.1118 14.9445 29.8307 15.5088 30.395C16.073 30.9593 16.7919 31.3437 17.5746 31.4995C18.1597 31.6159 18.7634 31.601 19.3422 31.456C19.9209 31.311 20.4602 31.0394 20.9214 30.6609C21.3825 30.2823 21.754 29.8062 22.009 29.2668C22.264 28.7274 22.3961 28.1382 22.396 27.5416V23.7749C22.3924 23.7029 22.3621 23.6347 22.3111 23.5837C22.2601 23.5327 22.192 23.5025 22.1199 23.4989L18.3621 23.5071Z" fill="#5C2D91"/>
</svg>
