<svg width="48" height="48" viewBox="0 0 48 48" fill="none" xmlns="http://www.w3.org/2000/svg">
<g clip-path="url(#clip0_99_510)">
<path d="M40.0002 24C40.0002 15.1625 32.8377 8 24.0001 8C15.1626 8 8 15.1625 8 24C8 31.9875 13.85 38.6063 21.5001 39.8063V28.625H17.4375V24H21.5001V20.475C21.5001 16.4656 23.8877 14.25 27.5439 14.25C29.2939 14.25 31.1252 14.5625 31.1252 14.5625V18.5H29.1064C27.1189 18.5 26.5001 19.7344 26.5001 21V24H30.9376L30.2283 28.625H26.5001V39.8063C34.1502 38.6063 40.0002 31.9875 40.0002 24Z" fill="#1877F2"/>
<path d="M30.2283 28.625L30.9376 24H26.5001V21C26.5001 19.7344 27.1188 18.5 29.1064 18.5H31.1251V14.5625C31.1251 14.5625 29.2939 14.25 27.5438 14.25C23.8876 14.25 21.5001 16.4656 21.5001 20.475V24H17.4375V28.625H21.5001V39.8063C22.3157 39.9344 23.1501 40 24.0001 40C24.8501 40 25.6845 39.9344 26.5001 39.8063V28.625H30.2283Z" fill="white"/>
</g>
<defs>
<clipPath id="clip0_99_510">
<rect width="32.0002" height="32" fill="white" transform="translate(8 8)"/>
</clipPath>
</defs>
</svg>
