<svg width="48" height="48" viewBox="0 0 48 48" fill="none" xmlns="http://www.w3.org/2000/svg">
<g clip-path="url(#clip0_151_2488)">
<path d="M24.6275 24.5646C24.6543 24.5391 24.6811 24.5135 24.7077 24.4878C24.761 24.4364 24.8139 24.3847 24.8667 24.3327L24.9743 24.2263L25.3008 23.9036L25.744 23.4658L26.1249 23.0895L26.4825 22.7361L26.8557 22.3674L27.1979 22.0292L27.6746 21.5583C27.7652 21.4694 27.8575 21.382 27.9512 21.2963C28.124 21.1384 28.3019 20.9859 28.4849 20.8392C28.6525 20.7047 28.8241 20.5753 28.9999 20.4508C29.246 20.2765 29.4994 20.1124 29.7604 19.9585C30.0155 19.8082 30.2771 19.6682 30.5453 19.5386C30.797 19.4169 31.054 19.305 31.3163 19.2027C31.4624 19.1457 31.6101 19.092 31.7592 19.0412C31.8339 19.0158 31.9089 18.9913 31.9843 18.9675C31.3229 16.3646 30.1113 13.9338 28.4311 11.8388C28.2706 11.6391 28.0672 11.478 27.8361 11.3675C27.6049 11.2569 27.3518 11.1997 27.0956 11.2001L13.3702 11.2C13.316 11.1999 13.2631 11.217 13.2193 11.2488C13.1754 11.2806 13.1427 11.3255 13.1259 11.377C13.1091 11.4285 13.1091 11.4841 13.1257 11.5356C13.1424 11.5872 13.175 11.6321 13.2188 11.664C17.9041 15.098 21.7864 19.5101 24.5963 24.5942L24.6275 24.5646Z" fill="#00D6B9"/>
<path d="M35.6679 26.9538L35.6587 26.97L35.6691 26.9546L35.7324 26.8354C35.7108 26.8749 35.6897 26.9147 35.6679 26.9538Z" fill="#133C9A"/>
<path d="M35.9634 26.401L35.9803 26.3693L35.9884 26.353C35.9802 26.3692 35.9716 26.385 35.9634 26.401Z" fill="#133C9A"/>
<path d="M40.0003 19.5748C37.6088 18.4031 34.8695 18.153 32.3053 18.8721C32.1977 18.9023 32.0908 18.9342 31.9846 18.9677C31.9092 18.9915 31.8342 19.0161 31.7595 19.0414C31.6104 19.0921 31.4628 19.146 31.3166 19.2029C31.0545 19.305 30.7974 19.4171 30.5456 19.5388C30.2776 19.6682 30.0159 19.8082 29.7606 19.9587C29.4999 20.1124 29.2465 20.2765 29.0002 20.451C28.8245 20.5755 28.6529 20.705 28.4852 20.8395C28.3023 20.9861 28.1244 21.1385 27.9515 21.2966C27.8578 21.3823 27.7655 21.4695 27.6749 21.5585L27.1982 22.0294L26.856 22.3676L26.4828 22.7364L26.1252 23.0898L25.7443 23.466L25.3011 23.904L24.9746 24.2265L24.867 24.3329C24.8142 24.3849 24.7613 24.4366 24.708 24.4881C24.6814 24.5137 24.6546 24.5393 24.6278 24.5649C24.5877 24.6032 24.5473 24.6414 24.5067 24.6793C24.462 24.7212 24.417 24.7629 24.3719 24.8044C23.1917 25.8887 21.8783 26.8187 20.4636 27.5718C20.5481 27.6116 20.6328 27.6512 20.7176 27.6904C20.7847 27.7214 20.8519 27.7523 20.9192 27.7831C20.9842 27.8127 21.0493 27.8422 21.1145 27.8716C21.1788 27.9005 21.243 27.9292 21.3074 27.9577C21.3778 27.9889 21.4482 28.02 21.5188 28.0508C21.6001 28.0862 21.6816 28.1216 21.7632 28.1565C21.8414 28.19 21.9195 28.2232 21.998 28.2563C22.0993 28.2991 22.2011 28.3414 22.3031 28.3834C22.3849 28.4171 22.4668 28.4506 22.5489 28.4837C22.6752 28.5348 22.8017 28.5852 22.9287 28.635C23.0484 28.6819 23.1684 28.7284 23.2888 28.7744C23.3787 28.8087 23.4687 28.8427 23.559 28.8763C23.7141 28.9343 23.8698 28.9914 24.026 29.0475C24.1048 29.0759 24.1837 29.1041 24.2627 29.1319C24.3731 29.1709 24.4838 29.2094 24.5947 29.2474C24.6858 29.2787 24.7771 29.3097 24.8686 29.3404C25.0022 29.3853 25.1362 29.4295 25.2707 29.4731C25.4118 29.5188 25.5533 29.5639 25.6953 29.6083C25.8685 29.6623 26.0422 29.7154 26.2167 29.7674C26.3331 29.8022 26.4499 29.8364 26.5668 29.8702C26.8012 29.9379 27.0366 30.0037 27.2733 30.0676C27.3583 30.0906 27.4432 30.1122 27.528 30.1325C27.6893 30.1709 27.8502 30.2044 28.0107 30.2329C28.1953 30.2658 28.3793 30.2922 28.5623 30.3123C28.8121 30.3395 29.06 30.3552 29.306 30.3589C29.5305 30.3625 29.753 30.3564 29.9735 30.3409C30.1837 30.326 30.3916 30.3027 30.5973 30.2707C30.8808 30.2269 31.1613 30.1665 31.4376 30.09C31.6228 30.0387 31.8051 29.9802 31.9848 29.9146C32.1509 29.854 32.3143 29.7875 32.4752 29.715C32.6605 29.6315 32.842 29.5402 33.0196 29.4411C33.107 29.3924 33.1934 29.3419 33.2786 29.2894C33.3606 29.2391 33.4417 29.1871 33.5217 29.1334C33.648 29.0488 33.7717 28.9599 33.893 28.8668C33.9966 28.7875 34.0981 28.705 34.1978 28.6196C34.3768 28.4661 34.5493 28.3032 34.7149 28.1309C34.7962 28.0462 34.8758 27.9593 34.9536 27.8702C35.0521 27.7574 35.1478 27.6411 35.2405 27.5213C35.3143 27.4257 35.3862 27.3281 35.4562 27.2282C35.6537 26.9458 35.8326 26.651 35.9921 26.3455L36.1757 25.9793L37.8349 22.6715L37.8321 22.6783C38.3605 21.5208 39.0953 20.4692 40.0003 19.5748Z" fill="#133C9A"/>
<path d="M19.1847 36.6475C22.5469 36.6487 25.8482 35.7506 28.7464 34.0464C31.6447 32.3421 34.0343 29.8937 35.6676 26.9549C35.7807 26.752 35.8902 26.5467 35.9959 26.3392C35.8356 26.6471 35.6553 26.9444 35.4562 27.2288C35.3863 27.3288 35.3144 27.4264 35.2404 27.5219C35.1478 27.6417 35.0523 27.7581 34.9537 27.8709C34.8758 27.96 34.7962 28.0469 34.7149 28.1315C34.5495 28.3038 34.3771 28.4667 34.1978 28.6203C34.0982 28.7056 33.9966 28.7881 33.893 28.8675C33.7719 28.9605 33.6481 29.0493 33.5217 29.1341C33.4417 29.1878 33.3607 29.2398 33.2787 29.2901C33.1934 29.3425 33.107 29.393 33.0197 29.4418C32.8421 29.5408 32.6606 29.6321 32.4752 29.7157C32.3144 29.7882 32.1509 29.8547 31.9848 29.9153C31.8053 29.9808 31.6229 30.0392 31.4376 30.0907C31.1613 30.1672 30.8807 30.2276 30.5974 30.2713C30.3917 30.3032 30.1838 30.3266 29.9735 30.3415C29.7532 30.3571 29.5307 30.3631 29.306 30.3596C29.0602 30.3557 28.8124 30.3401 28.5624 30.3129C28.3793 30.2928 28.1954 30.2663 28.0107 30.2335C27.8503 30.205 27.6894 30.1715 27.528 30.1331C27.4433 30.1128 27.3583 30.0912 27.2732 30.0683C27.0367 30.0044 26.8012 29.9386 26.5668 29.8709C26.4498 29.8371 26.3332 29.8028 26.2167 29.7681C26.0423 29.7161 25.8685 29.663 25.6953 29.6089C25.5533 29.5646 25.4118 29.5194 25.2708 29.4737C25.1363 29.4302 25.0022 29.3859 24.8686 29.3411C24.7771 29.3104 24.6858 29.2794 24.5947 29.2481C24.4837 29.21 24.3731 29.1715 24.2627 29.1326C24.1837 29.1046 24.1048 29.0766 24.026 29.0482C23.8698 28.992 23.7142 28.935 23.559 28.877C23.4688 28.8433 23.3787 28.8093 23.2889 28.775C23.1685 28.7291 23.0485 28.6826 22.9288 28.6356C22.8017 28.5858 22.6752 28.5354 22.549 28.4844C22.4669 28.4512 22.3849 28.4177 22.3031 28.3841C22.2011 28.3421 22.0994 28.2997 21.9979 28.257C21.9196 28.224 21.8413 28.1907 21.7633 28.1572C21.6817 28.1222 21.6001 28.087 21.5188 28.0515C21.4483 28.0206 21.3778 27.9896 21.3074 27.9584C21.243 27.9298 21.1788 27.9011 21.1146 27.8722C21.0494 27.8428 20.9842 27.8134 20.9192 27.7837C20.8519 27.753 20.7847 27.7222 20.7176 27.6911C20.6328 27.6518 20.5481 27.6123 20.4637 27.5724C20.3749 27.5306 20.2865 27.4885 20.1983 27.4462C20.1037 27.4007 20.0094 27.3549 19.9152 27.3087C19.8348 27.2693 19.7548 27.2297 19.6748 27.1897C15.4631 25.0885 11.6599 22.253 8.44398 18.8163C8.40876 18.7787 8.36305 18.7526 8.31278 18.7413C8.26252 18.7301 8.21004 18.7342 8.16215 18.7532C8.11427 18.7721 8.0732 18.805 8.04428 18.8477C8.01536 18.8903 7.99993 18.9407 8 18.9921L8.00684 31.1039L8.00681 32.0865C8.00601 32.3676 8.07469 32.6445 8.20675 32.8927C8.3388 33.1409 8.53014 33.3526 8.76374 33.509C11.8512 35.5614 15.4773 36.6534 19.1847 36.6475Z" fill="#3370FF"/>
</g>
<defs>
<clipPath id="clip0_151_2488">
<rect width="32.0002" height="32" fill="white" transform="translate(8 8)"/>
</clipPath>
</defs>
</svg>
