<svg width="49" height="48" viewBox="0 0 49 48" fill="none" xmlns="http://www.w3.org/2000/svg">
<g clip-path="url(#clip0_12216_24566)">
<path d="M40.4139 20.7875L40.3689 20.6726L36.0138 9.30671C35.9252 9.08394 35.7683 8.89497 35.5656 8.7669C35.3628 8.64101 35.1263 8.58038 34.888 8.59319C34.6496 8.606 34.4209 8.69164 34.2328 8.83854C34.0468 8.98966 33.9118 9.19444 33.8463 9.425L30.9057 18.4217H18.9983L16.0578 9.425C15.994 9.19318 15.8587 8.98738 15.6712 8.83688C15.4831 8.68997 15.2544 8.60434 15.0161 8.59153C14.7777 8.57871 14.5412 8.63935 14.3384 8.76524C14.1362 8.89382 13.9794 9.08263 13.8902 9.30504L9.5268 20.6659L9.48348 20.7809C8.85655 22.4189 8.77917 24.2164 9.263 25.9023C9.74683 27.5882 10.7656 29.0711 12.1658 30.1274L12.1808 30.1391L12.2208 30.1674L18.8551 35.1356L22.1372 37.6197L24.1365 39.1292C24.3703 39.3067 24.6559 39.4028 24.9495 39.4028C25.2431 39.4028 25.5287 39.3067 25.7626 39.1292L27.7618 37.6197L31.044 35.1356L37.7182 30.1374L37.7349 30.1241C39.1319 29.0676 40.1484 27.5862 40.6314 25.9026C41.1145 24.219 41.0382 22.424 40.4139 20.7875Z" fill="#E24329"/>
<path d="M40.4143 20.7878L40.3693 20.6729C38.2472 21.1084 36.2475 22.0073 34.5131 23.3052L24.9482 30.5376C28.2054 33.0017 31.041 35.1426 31.041 35.1426L37.7153 30.1444L37.7319 30.1311C39.131 29.0746 40.149 27.5923 40.6328 25.9072C41.1165 24.2221 41.0398 22.4255 40.4143 20.7878Z" fill="#FC6D26"/>
<path d="M18.8555 35.1431L22.1376 37.6272L24.1369 39.1366C24.3707 39.3142 24.6563 39.4103 24.9499 39.4103C25.2435 39.4103 25.5291 39.3142 25.763 39.1366L27.7622 37.6272L31.0444 35.1431C31.0444 35.1431 28.2054 32.9955 24.9482 30.5381C21.6911 32.9955 18.8555 35.1431 18.8555 35.1431Z" fill="#FCA326"/>
<path d="M15.3813 23.3041C13.6483 22.0035 11.649 21.1023 9.5268 20.665L9.48348 20.78C8.85655 22.4181 8.77917 24.2156 9.263 25.9015C9.74683 27.5874 10.7656 29.0703 12.1658 30.1266L12.1808 30.1383L12.2208 30.1666L18.8551 35.1348C18.8551 35.1348 21.6874 32.9939 24.9478 30.5298L15.3813 23.3041Z" fill="#FC6D26"/>
</g>
<defs>
<clipPath id="clip0_12216_24566">
<rect width="32" height="32" fill="white" transform="translate(8.94922 8)"/>
</clipPath>
</defs>
</svg>
