<svg width="48" height="48" viewBox="0 0 48 48" fill="none" xmlns="http://www.w3.org/2000/svg">
<path fill-rule="evenodd" clip-rule="evenodd" d="M39.3602 24.3638C39.3602 23.2292 39.2584 22.1383 39.0693 21.0911H24.0001V27.2802H32.6111C32.2402 29.2802 31.1129 30.9747 29.4183 32.1092V36.1238H34.5893C37.6148 33.3383 39.3602 29.2365 39.3602 24.3638Z" fill="#4285F4"/>
<path fill-rule="evenodd" clip-rule="evenodd" d="M24.0001 39.9998C28.3201 39.9998 31.942 38.5671 34.5892 36.1234L29.4183 32.1089C27.9856 33.0689 26.1528 33.6362 24.0001 33.6362C19.8328 33.6362 16.3055 30.8216 15.0473 27.0398H9.70178V31.1852C12.3345 36.4143 17.7455 39.9998 24.0001 39.9998Z" fill="#34A853"/>
<path fill-rule="evenodd" clip-rule="evenodd" d="M15.0473 27.0399C14.7273 26.0799 14.5455 25.0545 14.5455 23.9999C14.5455 22.9454 14.7273 21.9199 15.0473 20.9599V16.8145H9.70183C8.61819 18.9745 8 21.4181 8 23.9999C8 26.5817 8.61819 29.0254 9.70183 31.1854L15.0473 27.0399Z" fill="#FBBC05"/>
<path fill-rule="evenodd" clip-rule="evenodd" d="M24.0001 14.3636C26.3492 14.3636 28.4583 15.1709 30.1165 16.7564L34.7056 12.1673C31.9347 9.58545 28.3128 8 24.0001 8C17.7455 8 12.3345 11.5855 9.70178 16.8145L15.0473 20.96C16.3055 17.1782 19.8328 14.3636 24.0001 14.3636Z" fill="#EA4335"/>
</svg>
