<svg width="48" height="48" viewBox="0 0 48 48" fill="none" xmlns="http://www.w3.org/2000/svg">
<g clip-path="url(#clip0_99_2213)">
<path d="M40.0002 37.5C40.0002 38.8808 38.881 40 37.5002 40H10.5C9.11926 40 8 38.8808 8 37.5V10.5C8 9.11925 9.11926 8 10.5 8H37.5002C38.881 8 40.0002 9.11925 40.0002 10.5V37.5Z" fill="#FFE812"/>
<path d="M24.0001 12.5C16.8203 12.5 11 17.0891 11 22.75C11 26.4099 13.4333 29.6213 17.0935 31.4346C16.8944 32.1214 15.8139 35.8526 15.7709 36.1458C15.7709 36.1458 15.745 36.366 15.8877 36.45C16.0303 36.534 16.198 36.4688 16.198 36.4688C16.607 36.4116 20.941 33.3674 21.6911 32.8388C22.4405 32.9449 23.2121 33 24.0001 33C31.1799 33 37.0002 28.411 37.0002 22.75C37.0002 17.0891 31.1799 12.5 24.0001 12.5Z" fill="black"/>
<path d="M16.8125 26.3281C16.3989 26.3281 16.0625 26.0069 16.0625 25.6119V21.1562H14.8923C14.4864 21.1562 14.1562 20.8268 14.1562 20.4219C14.1562 20.017 14.4865 19.6875 14.8923 19.6875H18.7328C19.1387 19.6875 19.4688 20.017 19.4688 20.4219C19.4688 20.8268 19.1385 21.1562 18.7328 21.1562H17.5625V25.6119C17.5625 26.0069 17.2261 26.3281 16.8125 26.3281ZM23.3891 26.3184C23.0763 26.3184 22.8371 26.1914 22.7649 25.9871L22.3936 25.0149L20.1065 25.0147L19.7349 25.9876C19.663 26.1915 19.4239 26.3184 19.1112 26.3184C18.9467 26.3185 18.784 26.2832 18.6344 26.2149C18.4277 26.1195 18.2289 25.8573 18.4567 25.1499L20.2507 20.4279C20.377 20.0687 20.7609 19.6987 21.2494 19.6876C21.7393 19.6986 22.1232 20.0688 22.2498 20.4286L24.0431 25.1485C24.2713 25.8575 24.0726 26.1199 23.8658 26.215C23.7162 26.2832 23.5536 26.3185 23.3891 26.3184ZM21.9992 23.6864L21.2501 21.5583L20.5009 23.6864H21.9992ZM25.2501 26.2188C24.8537 26.2188 24.5313 25.9103 24.5313 25.5312V20.4375C24.5313 20.0239 24.8748 19.6875 25.297 19.6875C25.7191 19.6875 26.0626 20.0239 26.0626 20.4375V24.8438H27.6564C28.0527 24.8438 28.3751 25.1522 28.3751 25.5312C28.3751 25.9103 28.0527 26.2188 27.6564 26.2188H25.2501ZM29.4169 26.3184C29.0032 26.3184 28.6669 25.982 28.6669 25.5684V20.4375C28.6669 20.0239 29.0032 19.6875 29.4169 19.6875C29.8305 19.6875 30.1669 20.0239 30.1669 20.4375V22.0495L32.2594 19.957C32.367 19.8494 32.5149 19.7901 32.6754 19.7901C32.8626 19.7901 33.0506 19.8709 33.1915 20.0116C33.3229 20.1429 33.4013 20.3118 33.412 20.4871C33.4229 20.664 33.364 20.8261 33.2465 20.9438L31.5374 22.6526L33.3835 25.0984C33.4431 25.1768 33.4866 25.2664 33.5113 25.3617C33.536 25.4571 33.5415 25.5565 33.5275 25.654C33.5142 25.7516 33.4816 25.8456 33.4316 25.9305C33.3816 26.0154 33.3153 26.0895 33.2365 26.1486C33.1068 26.2472 32.9483 26.3004 32.7854 26.3C32.6692 26.3005 32.5545 26.2739 32.4504 26.2221C32.3464 26.1703 32.2559 26.0949 32.1863 26.0019L30.4274 23.6714L30.1671 23.9316V25.568C30.1669 25.7669 30.0878 25.9576 29.9471 26.0983C29.8065 26.239 29.6158 26.3181 29.4169 26.3184Z" fill="#FFE812"/>
</g>
<defs>
<clipPath id="clip0_99_2213">
<rect width="32.0002" height="32" fill="white" transform="translate(8 8)"/>
</clipPath>
</defs>
</svg>
