<svg width="48" height="48" viewBox="0 0 48 48" fill="none" xmlns="http://www.w3.org/2000/svg">
<g clip-path="url(#clip0_12216_24563)">
<path d="M36 8H12C9.79086 8 8 9.79086 8 12V36C8 38.2091 9.79086 40 12 40H36C38.2091 40 40 38.2091 40 36V12C40 9.79086 38.2091 8 36 8Z" fill="#87EB00"/>
<path d="M32.375 14.875H15.8125V31.375H32.375V14.875Z" fill="white"/>
<path d="M15.6625 13.4175C15.6344 13.5156 14.8356 17.2487 13.8969 21.7225L12.1875 29.8463L12.9156 31.1881L13.6444 32.5444H17.8062H21.9681L22.9625 34.4044L23.9438 36.25H25.0506H26.1437L26.48 34.7119C26.6481 33.8588 26.83 33.0337 26.8725 32.8662C26.9425 32.5587 26.9844 32.5444 29.6325 32.5169L32.3231 32.4744L34.0744 24.2256L35.8125 15.9763L35.0837 14.6062L34.3406 13.25H25.0369C17.7081 13.25 15.7044 13.2919 15.6625 13.4175ZM23.6075 15.4169C23.6494 15.4587 23.5375 16.2 23.3413 17.0525C23.1588 17.9056 23.0331 18.6606 23.0469 18.7306C23.075 18.8144 23.7894 18.0731 24.63 17.1088L26.1575 15.3469H28.3013C30.74 15.3469 30.5856 15.2494 30.2913 16.6194C30.1513 17.2906 29.9131 17.5981 27.7131 20.1006L25.2887 22.855L26.6063 25.3162L27.9375 27.7769L27.755 28.5175L27.5731 29.2588L25.5831 29.3006L23.5931 29.3425L22.7525 27.7625C21.4775 25.3581 21.5756 25.4 21.1975 27.1756C20.6925 29.5662 20.9869 29.3288 18.5487 29.3288C17.4 29.3288 16.4187 29.2869 16.3906 29.2169C16.3631 29.1613 16.9231 26.3506 17.6381 22.9669C18.3525 19.5838 19.0112 16.4794 19.0956 16.0737L19.2494 15.3469H21.3931C22.5706 15.3469 23.5656 15.375 23.6075 15.4169Z" fill="black"/>
</g>
<defs>
<clipPath id="clip0_12216_24563">
<rect width="32" height="32" fill="white" transform="translate(8 8)"/>
</clipPath>
</defs>
</svg>
