<svg width="48" height="48" viewBox="0 0 48 48" fill="none" xmlns="http://www.w3.org/2000/svg">
<path fill-rule="evenodd" clip-rule="evenodd" d="M11.5556 40H36.4444C38.4081 40 40 38.4081 40 36.4444V11.5556C40 9.59188 38.4081 8 36.4444 8H11.5556C9.59188 8 8 9.59188 8 11.5556V36.4444C8 38.4081 9.59188 40 11.5556 40Z" fill="#007EBB"/>
<path fill-rule="evenodd" clip-rule="evenodd" d="M35.5554 35.5554H30.8068V27.4675C30.8068 25.25 29.9642 24.0108 28.2091 24.0108C26.2997 24.0108 25.3021 25.3004 25.3021 27.4675V35.5554H20.7258V20.148H25.3021V22.2234C25.3021 22.2234 26.6781 19.6773 29.9477 19.6773C33.2158 19.6773 35.5554 21.673 35.5554 25.8004V35.5554ZM15.2663 18.1306C13.7075 18.1306 12.4443 16.8575 12.4443 15.2875C12.4443 13.7174 13.7075 12.4443 15.2663 12.4443C16.8251 12.4443 18.0874 13.7174 18.0874 15.2875C18.0874 16.8575 16.8251 18.1306 15.2663 18.1306ZM12.9032 35.5554H17.6752V20.148H12.9032V35.5554Z" fill="white"/>
</svg>
