<svg width="40" height="40" viewBox="0 0 40 40" fill="none" xmlns="http://www.w3.org/2000/svg">
<path d="M12 9C12 6.79086 13.7909 5 16 5H24C26.2091 5 28 6.79086 28 9V31C28 33.2091 26.2091 35 24 35H16C13.7909 35 12 33.2091 12 31V9Z" fill="url(#paint0_linear_12898_20183)"/>
<circle cx="20" cy="31" r="1.5" stroke="#F5EEFF"/>
<path d="M16 6C16 5.44772 16.4477 5 17 5H23C23.5523 5 24 5.44772 24 6V7C24 7.55228 23.5523 8 23 8H17C16.4477 8 16 7.55228 16 7V6Z" fill="#4300DA"/>
<path opacity="0.8" d="M28.3509 3.00032C28.6075 2.55588 29.249 2.55588 29.5056 3.00033L35.2791 13.0003C35.5357 13.4448 35.2149 14.0003 34.7017 14.0003H23.1547C22.6415 14.0003 22.3208 13.4448 22.5774 13.0003L28.3509 3.00032Z" fill="#F4E560"/>
<g style="mix-blend-mode:multiply">
<circle cx="10" cy="26" r="6" fill="#F07EFF"/>
</g>
<defs>
<linearGradient id="paint0_linear_12898_20183" x1="10.6857" y1="22.1875" x2="29.3932" y2="18.5036" gradientUnits="userSpaceOnUse">
<stop stop-color="#492EF3"/>
<stop offset="1" stop-color="#CF69FF"/>
</linearGradient>
</defs>
</svg>
