<svg width="48" height="48" viewBox="0 0 48 48" fill="none" xmlns="http://www.w3.org/2000/svg">
<mask id="mask0_12353_24513" style="mask-type:luminance" maskUnits="userSpaceOnUse" x="6" y="0" width="29" height="40">
<path d="M34.2667 0H6V40H34.2667V0Z" fill="white"/>
</mask>
<g mask="url(#mask0_12353_24513)" transform="translate(4,4)">
<path d="M25.5888 0C24.6763 0 23.8807 1.95317 23.8807 4.96598C22.7167 4.69399 21.4689 4.54214 20.1341 4.54214C18.7993 4.54214 17.5515 4.69399 16.3875 4.96598C16.3875 1.95317 15.5904 0 14.6794 0C11.1241 0 6 15.1178 6 17.9709C6 20.824 11.6998 29.1302 20.1325 29.1302C28.5653 29.1302 34.265 20.8224 34.265 17.9709C34.265 15.1194 29.1425 0 25.5888 0Z" fill="url(#paint0_linear_12353_24513)"/>
<path d="M25.5888 0C24.6763 0 23.8807 1.95317 23.8807 4.96598C22.7167 4.69399 21.4689 4.54214 20.1341 4.54214C18.7993 4.54214 17.5515 4.69399 16.3875 4.96598C16.3875 1.95317 15.5904 0 14.6794 0C11.1241 0 6 15.1178 6 17.9709C6 20.824 11.6998 29.1302 20.1325 29.1302C28.5653 29.1302 34.265 20.8224 34.265 17.9709C34.265 15.1194 29.1425 0 25.5888 0Z" fill="#FF953F"/>
<path d="M25.5368 13.4814H25.3154C24.8882 13.4814 24.542 13.8277 24.542 14.2548V14.9982C24.542 15.4252 24.8882 15.7715 25.3154 15.7715H25.5368C25.9639 15.7715 26.3101 15.4252 26.3101 14.9982V14.2548C26.3101 13.8277 25.9639 13.4814 25.5368 13.4814Z" fill="#2F1708"/>
<path d="M14.9499 13.4814H14.7285C14.3013 13.4814 13.9551 13.8277 13.9551 14.2548V14.9982C13.9551 15.4252 14.3013 15.7715 14.7285 15.7715H14.9499C15.377 15.7715 15.7233 15.4252 15.7233 14.9982V14.2548C15.7233 13.8277 15.377 13.4814 14.9499 13.4814Z" fill="#2F1708"/>
<path d="M31.5874 25.8543L31.5811 25.8606C28.2899 29.0901 24.2254 30.8693 20.134 30.8693C16.0426 30.8693 11.9765 29.0901 8.68687 25.8606L8.68056 25.8543C8.4307 25.6107 8.01001 25.7863 8.01001 26.1358V27.2413C8.01001 28.3167 8.52082 29.3336 9.39543 29.9599C10.9311 31.0606 12.5696 31.921 14.2665 32.5251L14.276 32.5109C14.8628 32.726 15.4669 32.9111 16.0853 33.0644C16.2181 33.0961 16.3525 33.1293 16.487 33.1578C16.5661 33.1752 16.6452 33.1909 16.7258 33.2083C16.147 33.9849 15.8275 34.9654 15.8939 36.0235C16.0283 38.138 17.7506 39.8587 19.8651 39.99C22.3355 40.1434 24.3867 38.1838 24.3867 35.7467C24.3867 34.7946 24.0736 33.9169 23.5453 33.2083C23.6877 33.1783 23.8316 33.1467 23.9724 33.1135C24.0356 33.0992 24.0973 33.085 24.1606 33.0692C24.5638 32.9695 24.9592 32.8573 25.3499 32.7323L25.353 32.7402C27.2825 32.1345 29.1471 31.1982 30.8805 29.9551C31.7535 29.3289 32.2611 28.3136 32.2611 27.2397V26.1326C32.2611 25.7831 31.8404 25.606 31.5906 25.8511L31.5874 25.8543Z" fill="#974EF2"/>
<path d="M19.3117 13.7262L18.7677 12.5006C18.4451 11.7841 17.7255 11.3192 16.9363 11.3192H13.2877C12.0225 11.3192 10.9929 10.2896 10.9929 9.02437V8.25418C10.9929 7.83981 11.3282 7.50293 11.7441 7.50293C12.1601 7.50293 12.4954 7.83823 12.4954 8.25418V9.02437C12.4954 9.46246 12.8512 9.81827 13.2893 9.81827H16.9379C18.3138 9.81827 19.568 10.6265 20.1357 11.879C20.7067 10.6265 21.9592 9.81827 23.3336 9.81827H26.9822C27.4202 9.81827 27.7761 9.46246 27.7761 9.02437V8.25418C27.7761 7.83981 28.1114 7.50293 28.5273 7.50293C28.9433 7.50293 29.2786 7.83823 29.2786 8.25418V9.02437C29.2786 10.2896 28.249 11.3192 26.9837 11.3192H23.3352C22.546 11.3192 21.8264 11.7841 21.5022 12.5037L20.9597 13.7262H19.3165H19.3117Z" fill="#FFFAF6"/>
<path d="M18.6378 12.9698L14.5812 22.6661C14.1352 23.7337 14.918 24.9119 16.0757 24.9119H24.1905C25.3482 24.9119 26.1326 23.7337 25.6851 22.6661L21.6284 12.9698C21.0733 11.6429 19.1945 11.6429 18.6393 12.9698H18.6378Z" fill="#FFFAF6"/>
<path d="M19.5251 14.6279H17.9451L17.3378 15.8536C17.0152 16.5701 16.2956 17.035 15.5064 17.035H11.8578C10.5926 17.035 9.46021 18.2924 9.46021 19.5323C9.46021 20.7722 10.4756 22.3932 12.3813 24.2626C13.6924 25.55 16.4427 27.7072 20.134 27.7072C23.8252 27.7072 26.5755 25.5484 27.8866 24.2626C29.7923 22.3917 30.8077 20.7706 30.8077 19.5323C30.8077 18.2939 29.6753 17.035 28.4101 17.035H24.7615C23.9723 17.035 23.2527 16.5701 22.9301 15.8536L22.3228 14.6279H20.7428H19.5282H19.5251Z" fill="#FFFAF6"/>
<path d="M22.6994 34.9549L20.0108 37.6435C19.8099 37.8443 19.4826 37.8443 19.2801 37.6435L17.5404 35.9038C17.4139 35.7773 17.4139 35.5717 17.5404 35.4452L17.9437 35.0419C18.0703 34.9153 18.2759 34.9153 18.4024 35.0419L19.647 36.2865L21.8406 34.093C21.9672 33.9664 22.1727 33.9664 22.2993 34.093L22.7025 34.4962C22.8291 34.6228 22.8291 34.8283 22.7025 34.9549H22.6994Z" fill="#FFFAF6"/>
<path d="M21.7317 12.8974C21.7317 12.0259 22.4386 11.3206 23.3085 11.3206H23.6232V10.9126L23.7671 10.6152L22.2868 10.9885L20.7986 12.2759L21.2493 13.6391L21.8487 13.5C21.7712 13.3149 21.7285 13.1109 21.7285 12.8974H21.7317Z" fill="#FFFAF6"/>
<path d="M18.5352 12.8974C18.5352 12.0259 17.8282 11.3206 16.9584 11.3206H16.6437V10.9126L16.4998 10.6152L17.9801 10.9885L19.4683 12.2759L19.0176 13.6391L18.4182 13.5C18.4957 13.3149 18.5384 13.1109 18.5384 12.8974H18.5352Z" fill="#FFFAF6"/>
<path d="M23.2102 20.0772C23.0836 20.0772 22.9729 20.1595 22.9381 20.2812C22.8954 20.4315 22.8132 20.5675 22.6883 20.6719C21.6397 21.5449 20.4488 20.8111 20.4488 19.8036V19.258C20.4488 19.0856 20.5231 18.9212 20.6544 18.8088C21.1684 18.366 22.4684 17.2352 22.4684 17.2352C22.897 16.862 22.6329 16.1582 22.0651 16.1582H18.1983C17.6305 16.1582 17.3664 16.862 17.795 17.2352C17.795 17.2352 19.095 18.3644 19.609 18.8088C19.7403 18.9212 19.8146 19.0856 19.8146 19.258V19.7625C19.8146 20.4078 19.3449 20.9803 18.7028 21.053C18.1145 21.1195 17.5941 20.7763 17.3901 20.2733C17.3443 20.1579 17.2383 20.0788 17.1133 20.0788H17.0881C16.8682 20.0788 16.7212 20.3018 16.8034 20.5058C17.0817 21.2017 17.7618 21.6936 18.5557 21.6936C19.2121 21.6936 19.7909 21.3567 20.1294 20.849C20.4678 21.3583 21.0466 21.6936 21.703 21.6936C22.5175 21.6936 23.2102 21.1764 23.4758 20.4536C23.5423 20.2718 23.4015 20.0788 23.207 20.0788L23.2102 20.0772Z" fill="#2F1708"/>
</g>
<defs>
<linearGradient id="paint0_linear_12353_24513" x1="20.1325" y1="41.0707" x2="20.1325" y2="5.96552" gradientUnits="userSpaceOnUse">
<stop stop-color="#AA52E5"/>
<stop offset="1" stop-color="#FF9469"/>
</linearGradient>
</defs>
</svg>
