<svg width="48" height="48" viewBox="0 0 48 48" fill="none" xmlns="http://www.w3.org/2000/svg">
<path d="M8 34.7986C8 31.2844 11.3525 18.1737 18.284 9.38818C13.3912 18.6242 10.545 24.8779 12.621 29.7526C14.2519 33.5822 22.6331 32.3657 27.1635 30.8339C19.0994 34.4832 10.8239 34.9788 8 34.7986Z" fill="#C1272D"/>
<path d="M23.0141 9C26.0743 10.7571 35.8153 20.1998 40.0002 30.5623C34.4036 21.7303 30.3808 16.1522 25.0978 15.5028C20.9474 14.9927 17.8161 22.8192 16.8849 27.4869C17.739 18.7171 21.4452 11.342 23.0141 9Z" fill="#C1272D"/>
<path d="M38.0429 34.7678C34.9826 36.5249 21.8892 40.1929 10.7728 38.6159C21.2622 38.2118 28.1312 37.5363 31.3382 33.311C33.8576 29.9916 28.6077 23.3815 25.0085 20.2456C32.2185 25.3661 36.7879 32.2456 38.0429 34.7678Z" fill="#C1272D"/>
</svg>
