<svg width="40" height="40" viewBox="0 0 40 40" fill="none" xmlns="http://www.w3.org/2000/svg">
<path d="M25 4.5C25.8131 4.5 26.6836 5.17213 27.3809 6.56641C28.0632 7.93106 28.5 9.85165 28.5 12C28.5 14.1483 28.0632 16.0689 27.3809 17.4336C26.6836 18.8279 25.8131 19.5 25 19.5C24.1869 19.5 23.3164 18.8279 22.6191 17.4336C21.9368 16.0689 21.5 14.1483 21.5 12C21.5 9.85165 21.9368 7.93106 22.6191 6.56641C23.3164 5.17213 24.1869 4.5 25 4.5Z" stroke="#7958FF" stroke-miterlimit="16" stroke-linecap="round"/>
<path d="M18.5053 8.24977C18.9118 7.54562 19.9292 7.12778 21.4853 7.22108C23.0083 7.3125 24.8899 7.8945 26.7505 8.96868C28.611 10.0429 30.0559 11.3814 30.8965 12.6547C31.7554 13.9557 31.9022 15.0456 31.4957 15.7498C31.0891 16.4539 30.0718 16.8718 28.5157 16.7784C26.9927 16.687 25.111 16.105 23.2505 15.0309C21.3899 13.9567 19.9451 12.6181 19.1044 11.3449C18.2456 10.0439 18.0987 8.95391 18.5053 8.24977Z" stroke="#7958FF" stroke-miterlimit="16" stroke-linecap="round"/>
<path d="M31.4967 8.24977C31.0901 7.54562 30.0728 7.12778 28.5167 7.22108C26.9937 7.3125 25.112 7.8945 23.2515 8.96868C21.391 10.0429 19.9461 11.3814 19.1054 12.6547C18.2466 13.9557 18.0998 15.0456 18.5063 15.7498C18.9128 16.4539 19.9302 16.8718 21.4863 16.7784C23.0093 16.687 24.891 16.105 26.7515 15.0309C28.612 13.9567 30.0569 12.6181 30.8975 11.3449C31.7564 10.0439 31.9032 8.95391 31.4967 8.24977Z" stroke="#7958FF" stroke-miterlimit="16" stroke-linecap="round"/>
<circle cx="25" cy="12" r="1" fill="#F07EFF"/>
<path d="M4.7777 17.7404L9.68374 16.105C9.88901 16.0366 10.1109 16.0366 10.3162 16.105L15.2222 17.7404C15.6745 17.8911 15.9574 18.3401 15.8983 18.8131L15.0731 25.4143C15.028 25.7754 14.7902 26.0835 14.4522 26.2187L10.3714 27.8511C10.1329 27.9464 9.86699 27.9464 9.62858 27.8511L5.54769 26.2187C5.20975 26.0835 4.97194 25.7754 4.9268 25.4143L4.10165 18.8131C4.04253 18.3401 4.32548 17.8911 4.7777 17.7404Z" fill="url(#paint0_linear_12898_20184)"/>
<path d="M11.5817 25H13L10.782 19H9.21355L7 25H8.36966L8.85567 23.5447H11.0957L11.5817 25ZM9.96024 20.1476H9.99116L10.8085 22.605H9.14286L9.96024 20.1476Z" fill="#F5EEFF"/>
<path d="M18.4953 22.7704L26.5794 35.3457C26.7763 35.6519 27.2238 35.6519 27.4206 35.3457L35.5048 22.7704C35.7187 22.4376 35.4798 22 35.0842 22H29.2676C29.1004 22 28.9443 22.0836 28.8516 22.2226L27.416 24.376C27.2181 24.6728 26.7819 24.6728 26.584 24.376L25.1485 22.2226C25.0557 22.0836 24.8996 22 24.7324 22H18.9159C18.5203 22 18.2814 22.4376 18.4953 22.7704Z" fill="url(#paint1_linear_12898_20184)"/>
<mask id="mask0_12898_20184" style="mask-type:alpha" maskUnits="userSpaceOnUse" x="18" y="22" width="18" height="14">
<path opacity="0.7" d="M18.4952 22.7704L26.5794 35.3457C26.7762 35.6519 27.2238 35.6519 27.4206 35.3457L35.5048 22.7704C35.7187 22.4376 35.4797 22 35.0842 22H29.2676C29.1004 22 28.9443 22.0836 28.8516 22.2226L27 25L25.1484 22.2226C25.0557 22.0836 24.8996 22 24.7324 22H18.9158C18.5202 22 18.2813 22.4376 18.4952 22.7704Z" fill="#7958FF"/>
</mask>
<g mask="url(#mask0_12898_20184)">
<path d="M22 22L26.576 29.3216C26.7718 29.6349 27.2282 29.6349 27.424 29.3216L32 22H22Z" fill="#4300DA"/>
</g>
<defs>
<linearGradient id="paint0_linear_12898_20184" x1="0.999878" y1="24" x2="16.9427" y2="21.125" gradientUnits="userSpaceOnUse">
<stop stop-color="#FFF06A"/>
<stop offset="1" stop-color="#EC78FF"/>
</linearGradient>
<linearGradient id="paint1_linear_12898_20184" x1="16.5214" y1="30.0208" x2="34.3627" y2="21.5511" gradientUnits="userSpaceOnUse">
<stop stop-color="#492EF3"/>
<stop offset="1" stop-color="#CF69FF"/>
</linearGradient>
</defs>
</svg>
