<svg width="48" height="48" viewBox="0 0 48 48" fill="none" xmlns="http://www.w3.org/2000/svg">
<g clip-path="url(#clip0_99_1204)">
<path d="M26.0412 39.2309C25.2314 40.2506 23.5896 39.6919 23.57 38.3898L23.2847 19.3452H36.0904C38.4099 19.3452 39.7035 22.0242 38.2612 23.8407L26.0412 39.2309Z" fill="url(#paint0_linear_99_1204)"/>
<path d="M26.0412 39.2309C25.2314 40.2506 23.5896 39.6919 23.57 38.3898L23.2847 19.3452H36.0904C38.4099 19.3452 39.7035 22.0242 38.2612 23.8407L26.0412 39.2309Z" fill="url(#paint1_linear_99_1204)" fill-opacity="0.2"/>
<path d="M20.8332 8.58625C21.643 7.56639 23.2849 8.1252 23.3045 9.42731L23.4295 28.4719H10.7841C8.46454 28.4719 7.1709 25.7929 8.61325 23.9764L20.8332 8.58625Z" fill="#3ECF8E"/>
</g>
<defs>
<linearGradient id="paint0_linear_99_1204" x1="23.2847" y1="23.5679" x2="34.6659" y2="28.3412" gradientUnits="userSpaceOnUse">
<stop stop-color="#249361"/>
<stop offset="1" stop-color="#3ECF8E"/>
</linearGradient>
<linearGradient id="paint1_linear_99_1204" x1="18.2389" y1="16.6593" x2="23.4293" y2="26.43" gradientUnits="userSpaceOnUse">
<stop/>
<stop offset="1" stop-opacity="0"/>
</linearGradient>
<clipPath id="clip0_99_1204">
<rect width="30.8675" height="32" fill="white" transform="translate(8 8)"/>
</clipPath>
</defs>
</svg>
