<svg width="48" height="48" viewBox="0 0 48 48" fill="none" xmlns="http://www.w3.org/2000/svg">
<path fill-rule="evenodd" clip-rule="evenodd" d="M23.9767 8C15.1684 8 8 15.1788 8 23.9999C8 32.8209 15.1684 39.9998 23.9767 39.9998C32.8318 40.0467 40.0002 32.8679 40.0002 23.9999C40.0002 15.1319 32.8318 8 23.9767 8ZM23.9767 35.8238C17.5111 35.8238 12.2167 30.5218 12.2167 23.9999C12.2167 17.5249 17.5111 12.2228 23.9767 12.2228C30.4892 12.2228 35.7835 17.5249 35.7835 23.9999C35.7835 30.5218 30.4892 35.8238 23.9767 35.8238ZM27.9611 23.3424C29.7983 23.3424 31.2876 21.8509 31.2876 20.011C31.2876 18.1712 29.7983 16.6797 27.9611 16.6797C26.1239 16.6797 24.6346 18.1712 24.6346 20.011C24.6346 21.8509 26.1239 23.3424 27.9611 23.3424ZM31.2876 27.9876C31.2876 29.8275 29.7983 31.319 27.9611 31.319C26.1239 31.319 24.6346 29.8275 24.6346 27.9876C24.6346 26.1477 26.1239 24.6562 27.9611 24.6562C29.7983 24.6562 31.2876 26.1477 31.2876 27.9876ZM19.9952 31.319C21.8324 31.319 23.3217 29.8275 23.3217 27.9876C23.3217 26.1477 21.8324 24.6562 19.9952 24.6562C18.158 24.6562 16.6687 26.1477 16.6687 27.9876C16.6687 29.8275 18.158 31.319 19.9952 31.319ZM23.3217 20.011C23.3217 21.8509 21.8324 23.3424 19.9952 23.3424C18.158 23.3424 16.6687 21.8509 16.6687 20.011C16.6687 18.1712 18.158 16.6797 19.9952 16.6797C21.8324 16.6797 23.3217 18.1712 23.3217 20.011Z" fill="#E31E26"/>
</svg>
