<svg width="48" height="48" viewBox="0 0 48 48" fill="none" xmlns="http://www.w3.org/2000/svg">
<g clip-path="url(#clip0_99_2057)">
<path fill-rule="evenodd" clip-rule="evenodd" d="M30.7366 19.1544C30.5773 19.1456 30.4172 19.144 30.2555 19.144C24.5047 19.144 19.8395 23.0519 19.8395 27.8748C19.8395 28.6641 19.9684 29.4286 20.2029 30.1562C19.9483 30.169 19.6922 30.1794 19.4344 30.1794C18.1704 30.1794 16.9521 30.0081 15.8162 29.6919C15.7514 29.6727 15.6217 29.6359 15.6217 29.6359L11.4879 31.7412L12.5926 28.2807L12.4878 28.2142C9.75887 26.4668 7.99939 23.7139 7.99939 20.6168C7.99939 15.3353 13.1185 11.0535 19.4344 11.0535C25.1547 11.0535 29.8945 14.5652 30.7366 19.1544ZM15.4555 18.878C14.5685 18.878 13.8497 18.1808 13.8497 17.3227C13.8497 16.4638 14.5685 15.769 15.4555 15.769C16.3424 15.769 17.0629 16.4638 17.0629 17.3227C17.0629 18.1808 16.3424 18.878 15.4555 18.878ZM23.4147 15.769C24.3017 15.769 25.0197 16.4638 25.0197 17.3227C25.0197 18.1808 24.3017 18.878 23.4147 18.878C22.527 18.878 21.8097 18.1808 21.8097 17.3227C21.8097 16.4638 22.527 15.769 23.4147 15.769Z" fill="#1AAD19"/>
<path fill-rule="evenodd" clip-rule="evenodd" d="M30.341 36.0116C25.0049 36.0116 20.6782 32.3942 20.6782 27.9315C20.6782 23.4704 25.0049 19.853 30.341 19.853C35.6747 19.853 39.9997 23.4704 39.9997 27.9315C39.9997 30.5491 38.5124 32.8745 36.2078 34.3506L36.1189 34.4058L37.0523 37.3308L33.5614 35.5505C33.5614 35.5505 33.4517 35.5833 33.3964 35.5977C32.4375 35.8659 31.408 36.0116 30.341 36.0116ZM25.6223 25.1481C25.6223 24.4245 26.2306 23.8361 26.9791 23.8361C27.7292 23.8361 28.3367 24.4245 28.3367 25.1481C28.3367 25.8749 27.7292 26.4641 26.9791 26.4641C26.2306 26.4641 25.6223 25.8749 25.6223 25.1481ZM32.3443 25.1481C32.3443 24.4245 32.9511 23.8361 33.7004 23.8361C34.4504 23.8361 35.0572 24.4245 35.0572 25.1481C35.0572 25.8749 34.4504 26.4641 33.7004 26.4641C32.9511 26.4641 32.3443 25.8749 32.3443 25.1481Z" fill="#1AAD19"/>
</g>
<defs>
<clipPath id="clip0_99_2057">
<rect width="32.0002" height="32" fill="white" transform="translate(8 8)"/>
</clipPath>
</defs>
</svg>
