<svg width="48" height="48" viewBox="0 0 48 48" fill="none" xmlns="http://www.w3.org/2000/svg">
<g clip-path="url(#clip0_12216_24567)">
<path d="M36.6646 11.3435C33.6456 8.33613 29.3047 8 24 8C18.6886 8 14.3411 8.34 11.3234 11.3555C8.30606 14.3698 8 18.7102 8 24.0156C8 29.3217 8.30606 33.6636 11.3246 36.6789C14.3422 39.6948 18.6892 40.0001 24 40.0001C29.3109 40.0001 33.6571 39.6948 36.6747 36.6789C39.6931 33.663 40 29.3217 40 24.0156C40 18.7034 39.6898 14.3583 36.6646 11.3435Z" fill="#FF6900"/>
<path d="M33.2843 17.9131C33.3943 17.9131 33.4858 18.0016 33.4858 18.1106V29.9473C33.4858 30.0545 33.3943 30.1435 33.2843 30.1435H30.6908C30.5795 30.1435 30.4891 30.0545 30.4891 29.9473V18.1106C30.4891 18.0017 30.5795 17.9131 30.6908 17.9131H33.2843ZM22.0295 17.9131C23.9859 17.9131 26.0315 18.0028 27.0405 19.0124C28.0324 20.006 28.1398 21.9842 28.144 23.9053V29.9472C28.144 30.0544 28.0536 30.1434 27.9428 30.1434H25.3496C25.2386 30.1434 25.1478 30.0544 25.1478 29.9472V23.8013C25.1451 22.7284 25.0834 21.6257 24.5301 21.0706C24.0538 20.593 23.1651 20.4836 22.241 20.461H17.5404C17.4301 20.461 17.3399 20.5496 17.3399 20.657V29.9473C17.3399 30.0545 17.2485 30.1435 17.1376 30.1435H14.5428C14.432 30.1435 14.3428 30.0545 14.3428 29.9473V18.1106C14.3428 18.0017 14.4319 17.9131 14.5428 17.9131H22.0295ZM22.6099 22.6273C22.7203 22.6273 22.81 22.7156 22.81 22.8237V29.9473C22.81 30.0545 22.7202 30.1435 22.6099 30.1435H19.8859C19.7739 30.1435 19.6841 30.0545 19.6841 29.9473V22.8237C19.6841 22.7156 19.7739 22.6273 19.8859 22.6273H22.6099Z" fill="white"/>
</g>
<defs>
<clipPath id="clip0_12216_24567">
<rect width="32" height="32" fill="white" transform="translate(8 8)"/>
</clipPath>
</defs>
</svg>
