<svg width="28" height="17" viewBox="0 0 28 17" fill="none" xmlns="http://www.w3.org/2000/svg">
  <rect x="1.07187" y="1.07529" width="25.7996" height="15.1551" rx="1.35" stroke="currentColor" stroke-width="1.3" />
  <path
    d="M4.37485 12.8634L4.35066 12.9304H4.42188H5.79883H5.83478L5.84623 12.8963L6.60236 10.6452H9.76474L10.5151 12.8962L10.5265 12.9304H10.5625H11.9453H12.0165L11.9923 12.8634L8.93961 4.40831L8.92768 4.37529H8.89258H7.47461H7.4395L7.42758 4.40831L4.37485 12.8634ZM13.366 12.8804V12.9304H13.416H14.7285H14.7785V12.8804V10.0417H16.709C17.5497 10.0417 18.2645 9.75483 18.7693 9.25527C19.2741 8.75566 19.5656 8.04659 19.5656 7.2085V7.19678C19.5656 6.35577 19.2741 5.64954 18.7692 5.15354C18.2643 4.65762 17.5495 4.37529 16.709 4.37529H13.416H13.366V4.42529V12.8804ZM21.159 12.8804V12.9304H21.209H22.5215H22.5715V12.8804V4.42529V4.37529H22.5215H21.209H21.159V4.42529V12.8804ZM8.1945 5.95771L9.37971 9.49053H6.98738L8.16688 5.95771H8.1945ZM14.7785 8.84014V5.58271H16.3809C16.9405 5.58271 17.3767 5.7341 17.6725 6.00881C17.9678 6.28304 18.1297 6.68604 18.1297 7.20264V7.21436C18.1297 7.73396 17.9678 8.13842 17.6725 8.41335C17.3767 8.68875 16.9405 8.84014 16.3809 8.84014H14.7785Z"
    fill="currentColor" stroke="currentColor" stroke-width="0.1" />
</svg>