<svg width="20" height="20" viewBox="0 0 20 20" fill="none" xmlns="http://www.w3.org/2000/svg">
<path fill-rule="evenodd" clip-rule="evenodd" d="M13.0924 10.5914C13.9094 9.94857 14.5057 9.06712 14.7984 8.06964C15.0911 7.07216 15.0657 6.00824 14.7256 5.02591C14.3854 4.04358 13.7476 3.19168 12.9008 2.58873C12.054 1.98579 11.0403 1.66177 10.0007 1.66177C8.96119 1.66177 7.94749 1.98579 7.10067 2.58873C6.25385 3.19168 5.61602 4.04358 5.27591 5.02591C4.9358 6.00824 4.91032 7.07216 5.20303 8.06964C5.49574 9.06712 6.09207 9.94857 6.90906 10.5914C5.50913 11.1522 4.28764 12.0825 3.37481 13.283C2.46198 14.4834 1.89203 15.9091 1.72573 17.408C1.71369 17.5175 1.72333 17.6282 1.75408 17.7339C1.78484 17.8396 1.83612 17.9382 1.90499 18.0241C2.04408 18.1976 2.24638 18.3087 2.4674 18.333C2.68841 18.3573 2.91003 18.2929 3.0835 18.1538C3.25697 18.0147 3.36809 17.8124 3.3924 17.5914C3.57538 15.9623 4.35214 14.4579 5.57425 13.3653C6.79636 12.2728 8.37815 11.6689 10.0174 11.6689C11.0407 11.6689 12.0627 11.2973 12.9069 10.719C12.9698 10.6759 13.0337 10.6341 13.0986 10.5938L13.0924 10.5914ZM10.0007 9.99969C9.34146 9.99969 8.69699 9.80419 8.14883 9.43792C7.60067 9.07165 7.17342 8.55105 6.92113 7.94197C6.66884 7.33288 6.60283 6.66266 6.73145 6.01605C6.86006 5.36945 7.17753 4.77551 7.64371 4.30933C8.10988 3.84316 8.70383 3.52569 9.35043 3.39707C9.99703 3.26845 10.6673 3.33446 11.2763 3.58676C11.8854 3.83905 12.406 4.26629 12.7723 4.81445C13.1386 5.36262 13.3341 6.00708 13.3341 6.66635C13.3341 7.55041 12.9829 8.39826 12.3578 9.02338C11.7326 9.6485 10.8848 9.99969 10.0007 9.99969ZM19.571 15.4139C19.4752 16.373 19.0499 17.2693 18.3675 17.95C17.9798 18.3367 17.5198 18.6432 17.0136 18.8519C16.5074 19.0607 15.965 19.1676 15.4175 19.1667C14.4536 19.1649 13.5201 18.8291 12.7761 18.2163C12.032 17.6036 11.5235 16.7518 11.337 15.8061C11.1505 14.8604 11.2977 13.8793 11.7534 13.03C12.2091 12.1807 12.9452 11.5156 13.8363 11.1481C14.7274 10.7806 15.7183 10.7334 16.6403 11.0145C17.5622 11.2957 18.3582 11.8878 18.8926 12.6899C19.427 13.4921 19.6667 14.4548 19.571 15.4139ZM13.6497 13.2322C13.1809 13.7011 12.9175 14.3369 12.9175 15C12.9132 15.374 12.993 15.7442 13.1508 16.0833L16.4842 12.75C16.1515 12.5888 15.7872 12.5034 15.4175 12.5C14.7544 12.5 14.1186 12.7634 13.6497 13.2322ZM17.9175 15C17.9153 14.6275 17.8299 14.2602 17.6675 13.925L14.3508 17.25C14.731 17.4293 15.1503 17.5099 15.5699 17.4843C15.9895 17.4587 16.3958 17.3277 16.7514 17.1034C17.1069 16.8791 17.4002 16.5688 17.604 16.2011C17.8078 15.8335 17.9156 15.4204 17.9175 15Z" fill="#4300DA"/>
</svg>
