<svg width="18" height="18" viewBox="0 0 18 18" fill="none" xmlns="http://www.w3.org/2000/svg">
  <path
    d="M15.39 2.90251C15.0806 2.25619 14.5926 1.71203 13.9836 1.33443C13.3747 0.956834 12.6703 0.761611 11.9538 0.771869C11.2373 0.782127 10.5388 0.997436 9.94089 1.39231C9.34298 1.78719 8.87071 2.3451 8.57999 3.00001H5.25C4.65326 3.00001 4.08096 3.23707 3.659 3.65902C3.23705 4.08098 3 4.65328 3 5.25001V8.25001C3 8.44893 3.07901 8.63969 3.21967 8.78034C3.36032 8.921 3.55108 9.00001 3.75 9.00001C3.94891 9.00001 4.13967 8.921 4.28032 8.78034C4.42098 8.63969 4.49999 8.44893 4.49999 8.25001V5.25001C4.49999 5.0511 4.57901 4.86034 4.71967 4.71968C4.86032 4.57903 5.05108 4.50001 5.25 4.50001H7.33499C6.96165 4.91074 6.7533 5.44497 6.74999 6.00001C6.74999 6.59675 6.98705 7.16905 7.409 7.591C7.83096 8.01296 8.40326 8.25001 8.99999 8.25001H14.4975C15.1506 8.25472 15.7839 8.02643 16.2838 7.60615C16.7836 7.18587 17.1173 6.60114 17.2248 5.95698C17.3323 5.31281 17.2067 4.65141 16.8704 4.09158C16.5341 3.53174 16.0092 3.11015 15.39 2.90251ZM14.4975 6.75001H8.99999C8.80108 6.75001 8.61032 6.671 8.46966 6.53034C8.32901 6.38969 8.24999 6.19893 8.24999 6.00001C8.24999 5.8011 8.32901 5.61034 8.46966 5.46968C8.61032 5.32903 8.80108 5.25001 8.99999 5.25001C9.19891 5.25001 9.38967 5.171 9.53032 5.03034C9.67098 4.88969 9.74999 4.69893 9.74999 4.50001C9.74394 3.96478 9.9289 3.44492 10.2717 3.03379C10.6144 2.62266 11.0925 2.34719 11.6201 2.25685C12.1477 2.16651 12.6902 2.26722 13.1502 2.54089C13.6102 2.81456 13.9576 3.24326 14.13 3.75001C14.1729 3.87889 14.2499 3.99371 14.353 4.08221C14.456 4.17071 14.5811 4.22958 14.715 4.25251C15.0083 4.30111 15.2743 4.45366 15.4643 4.68227C15.6544 4.91089 15.7558 5.20028 15.75 5.49751C15.75 5.66199 15.7176 5.82486 15.6547 5.97682C15.5917 6.12879 15.4995 6.26686 15.3831 6.38316C15.2668 6.49947 15.1288 6.59173 14.9768 6.65467C14.8248 6.71762 14.662 6.75001 14.4975 6.75001ZM14.25 9.75001C14.0511 9.75001 13.8603 9.82903 13.7197 9.96968C13.579 10.1103 13.5 10.3011 13.5 10.5V12.75C13.5 12.9489 13.421 13.1397 13.2803 13.2803C13.1397 13.421 12.9489 13.5 12.75 13.5H11.055C10.91 13.1288 10.686 12.7937 10.3985 12.5178C10.111 12.242 9.76684 12.032 9.38999 11.9025C9.05013 11.1813 8.48921 10.5871 7.78869 10.2063C7.08817 9.8255 6.28451 9.6779 5.4944 9.78492C4.70429 9.89194 3.96885 10.248 3.39487 10.8014C2.82089 11.3549 2.43825 12.0768 2.3025 12.8625C1.79458 13.0295 1.36272 13.3718 1.08427 13.8282C0.805827 14.2846 0.699004 14.8253 0.782945 15.3533C0.866885 15.8813 1.1361 16.3622 1.54236 16.7097C1.94861 17.0573 2.46535 17.2488 3 17.25H8.49749C9.13965 17.25 9.76148 17.0249 10.2548 16.6138C10.7481 16.2027 11.0817 15.6316 11.1975 15H12.75C13.3467 15 13.919 14.763 14.341 14.341C14.7629 13.919 15 13.3468 15 12.75V10.5C15 10.3011 14.921 10.1103 14.7803 9.96968C14.6397 9.82903 14.4489 9.75001 14.25 9.75001ZM8.49749 15.75H3C2.80108 15.75 2.61032 15.671 2.46967 15.5303C2.32901 15.3897 2.25 15.1989 2.25 15C2.25 14.8011 2.32901 14.6103 2.46967 14.4697C2.61032 14.329 2.80108 14.25 3 14.25C3.19891 14.25 3.38967 14.171 3.53033 14.0303C3.67098 13.8897 3.75 13.6989 3.75 13.5C3.74394 12.9648 3.9289 12.4449 4.27166 12.0338C4.61442 11.6227 5.09252 11.3472 5.6201 11.2569C6.14769 11.1665 6.69021 11.2672 7.15022 11.5409C7.61024 11.8146 7.95762 12.2433 8.12999 12.75C8.17287 12.8789 8.24993 12.9937 8.35296 13.0822C8.45599 13.1707 8.58112 13.2296 8.71499 13.2525C9.00829 13.3011 9.27429 13.4537 9.46434 13.6823C9.65439 13.9109 9.75579 14.2003 9.74999 14.4975C9.74999 14.662 9.7176 14.8249 9.65465 14.9768C9.59171 15.1288 9.49945 15.2669 9.38315 15.3832C9.26684 15.4995 9.12877 15.5917 8.9768 15.6547C8.82484 15.7176 8.66197 15.75 8.49749 15.75Z"
    fill="currentColor" />
</svg>