<svg width="34" height="34" viewBox="0 0 34 34" fill="none" xmlns="http://www.w3.org/2000/svg">
<g id="Frame 158502266">
<g id="Group 4633">
<g id="Group 215">
<path id="Rectangle 3276" d="M6.28035 8.13776C5.91214 7.76955 5.91214 7.17257 6.28035 6.80436C6.64856 6.43615 7.24554 6.43615 7.61375 6.80436L16.2809 15.4715L14.9475 16.8049L6.28035 8.13776Z" fill="#7958FF"/>
<path id="Rectangle 3277" d="M2.94741 6.13807C2.211 5.40165 2.211 4.20768 2.94742 3.47126C3.68383 2.73485 4.8778 2.73485 5.61422 3.47126L8.28102 6.13807C9.01744 6.87448 9.01744 8.06845 8.28102 8.80487C7.5446 9.54129 6.35063 9.54129 5.61422 8.80487L2.94741 6.13807Z" fill="#7958FF"/>
<path id="Rectangle 3255" d="M10.9487 19.4721L18.9491 11.4717L30.9497 23.4723C33.1589 25.6816 33.1589 29.2635 30.9497 31.4727C28.7404 33.682 25.1585 33.682 22.9493 31.4727L10.9487 19.4721Z" fill="url(#paint0_linear_2881_12806)"/>
<rect id="Rectangle 3274" x="15.6151" y="20.1387" width="1.88571" height="15.0857" rx="0.942857" transform="rotate(-45 15.6151 20.1387)" fill="#AF9EFF"/>
<rect id="Rectangle 3275" x="18.2817" y="17.4723" width="1.88571" height="15.0857" rx="0.942857" transform="rotate(-45 18.2817 17.4723)" fill="#AF9EFF"/>
</g>
<g id="Group 214">
<path id="Rectangle 3255_2" d="M16.1396 11.5862C17.9806 9.74512 20.9655 9.74512 22.8066 11.5862C24.6476 13.4272 24.6476 16.4121 22.8066 18.2532L9.47257 31.5872C7.63153 33.4282 4.64661 33.4282 2.80557 31.5872C0.964523 29.7461 0.964524 26.7612 2.80557 24.9202L16.1396 11.5862Z" fill="url(#paint1_linear_2881_12806)"/>
<rect id="Rectangle 3278" x="14.8068" y="18.2531" width="1.88571" height="15.0857" rx="0.942857" transform="rotate(45 14.8068 18.2531)" fill="#B545CA"/>
<path id="Subtract" opacity="0.64" fill-rule="evenodd" clip-rule="evenodd" d="M17.473 16.9197C21.1551 20.6018 27.1249 20.6018 30.807 16.9197C32.1774 15.5494 33.0377 13.8621 33.3881 12.0939C33.8813 9.60457 30.9098 8.81654 29.1154 10.611L28.1402 11.5861C27.4038 12.3225 26.2098 12.3225 25.4734 11.5861L22.8066 8.91931C22.0702 8.18289 22.0702 6.98892 22.8066 6.25251L23.7818 5.27737C25.5762 3.48294 24.7882 0.511425 22.2988 1.00465C20.5306 1.355 18.8434 2.21535 17.473 3.5857C13.7909 7.26779 13.7909 13.2376 17.473 16.9197Z" fill="#F07EFF"/>
</g>
</g>
</g>
<defs>
<linearGradient id="paint0_linear_2881_12806" x1="26.1578" y1="31.9311" x2="30.3264" y2="18.1746" gradientUnits="userSpaceOnUse">
<stop stop-color="#5D34F2"/>
<stop offset="1" stop-color="#FAABFF"/>
</linearGradient>
<linearGradient id="paint1_linear_2881_12806" x1="21.9908" y1="11.0665" x2="-2.27442" y2="17.7238" gradientUnits="userSpaceOnUse">
<stop stop-color="#FFF06A"/>
<stop offset="0.5" stop-color="#FC85E9"/>
<stop offset="1" stop-color="#E264F7"/>
</linearGradient>
</defs>
</svg>
