<svg width="20" height="20" viewBox="0 0 20 20" fill="none" xmlns="http://www.w3.org/2000/svg">
<path fill-rule="evenodd" clip-rule="evenodd" d="M4.16602 4.16668C4.62625 4.16668 4.99935 3.79358 4.99935 3.33334C4.99935 2.87311 4.62625 2.50001 4.16602 2.50001C3.70578 2.50001 3.33268 2.87311 3.33268 3.33334C3.33268 3.79358 3.70578 4.16668 4.16602 4.16668ZM4.16602 5.83334C5.25453 5.83334 6.18056 5.13767 6.52376 4.16668H9.99935L9.99935 9.16668H6.52376C6.18056 8.19568 5.25453 7.50001 4.16602 7.50001C2.7853 7.50001 1.66602 8.6193 1.66602 10C1.66602 11.3807 2.7853 12.5 4.16602 12.5C5.25453 12.5 6.18056 11.8043 6.52376 10.8333H9.99935V15.8333H6.52376C6.18056 14.8623 5.25453 14.1667 4.16602 14.1667C2.7853 14.1667 1.66602 15.286 1.66602 16.6667C1.66602 18.0474 2.7853 19.1667 4.16602 19.1667C5.25453 19.1667 6.18056 18.471 6.52376 17.5H9.99935C10.9198 17.5 11.666 16.7538 11.666 15.8333V10.8333H15.3148L13.8208 12.3274C13.4953 12.6528 13.4953 13.1804 13.8208 13.5059C14.1462 13.8313 14.6738 13.8313 14.9993 13.5059L17.916 10.5892C18.2414 10.2638 18.2414 9.73613 17.916 9.41069L14.9993 6.49402C14.6738 6.16859 14.1462 6.16859 13.8208 6.49402C13.4953 6.81946 13.4953 7.3471 13.8208 7.67254L15.3149 9.16668H11.666V4.16668C11.666 3.2462 10.9198 2.50001 9.99935 2.50001H6.52376C6.18056 1.52902 5.25453 0.833344 4.16602 0.833344C2.7853 0.833344 1.66602 1.95263 1.66602 3.33334C1.66602 4.71406 2.7853 5.83334 4.16602 5.83334ZM4.99935 10C4.99935 10.4602 4.62625 10.8333 4.16602 10.8333C3.70578 10.8333 3.33268 10.4602 3.33268 10C3.33268 9.53977 3.70578 9.16668 4.16602 9.16668C4.62625 9.16668 4.99935 9.53977 4.99935 10ZM4.16602 17.5C4.62625 17.5 4.99935 17.1269 4.99935 16.6667C4.99935 16.2064 4.62625 15.8333 4.16602 15.8333C3.70578 15.8333 3.33268 16.2064 3.33268 16.6667C3.33268 17.1269 3.70578 17.5 4.16602 17.5Z" fill="#4300DA"/>
</svg>
