<svg width="20" height="21" viewBox="0 0 20 21" fill="none" xmlns="http://www.w3.org/2000/svg">
  <path id="Vector"
    d="M4.1665 15.6526H7.69984C7.80951 15.6533 7.91823 15.6322 8.01976 15.5908C8.12129 15.5493 8.21364 15.4882 8.2915 15.411L14.0582 9.63595L16.4248 7.31929C16.5029 7.24182 16.5649 7.14965 16.6072 7.0481C16.6496 6.94655 16.6713 6.83763 16.6713 6.72762C16.6713 6.61761 16.6496 6.50869 16.6072 6.40714C16.5649 6.30559 16.5029 6.21342 16.4248 6.13595L12.8915 2.56095C12.814 2.48284 12.7219 2.42085 12.6203 2.37854C12.5188 2.33623 12.4098 2.31445 12.2998 2.31445C12.1898 2.31445 12.0809 2.33623 11.9794 2.37854C11.8778 2.42085 11.7856 2.48284 11.7082 2.56095L9.35817 4.91929L3.57484 10.6943C3.4976 10.7722 3.4365 10.8645 3.39503 10.966C3.35356 11.0676 3.33254 11.1763 3.33317 11.286V14.8193C3.33317 15.0403 3.42097 15.2523 3.57725 15.4085C3.73353 15.5648 3.94549 15.6526 4.1665 15.6526ZM12.2998 4.32762L14.6582 6.68595L13.4748 7.86929L11.1165 5.51095L12.2998 4.32762ZM4.99984 11.6276L9.9415 6.68595L12.2998 9.04429L7.35817 13.986H4.99984V11.6276ZM17.4998 17.3193H2.49984C2.27882 17.3193 2.06686 17.4071 1.91058 17.5634C1.7543 17.7196 1.6665 17.9316 1.6665 18.1526C1.6665 18.3736 1.7543 18.5856 1.91058 18.7419C2.06686 18.8982 2.27882 18.986 2.49984 18.986H17.4998C17.7209 18.986 17.9328 18.8982 18.0891 18.7419C18.2454 18.5856 18.3332 18.3736 18.3332 18.1526C18.3332 17.9316 18.2454 17.7196 18.0891 17.5634C17.9328 17.4071 17.7209 17.3193 17.4998 17.3193Z"
    fill="currentColor" />
</svg>
