<svg width="18" height="18" viewBox="0 0 18 18" fill="none" xmlns="http://www.w3.org/2000/svg">
  <path
    d="M16.1175 3.54752L12.75 1.62752C12.636 1.56169 12.5067 1.52704 12.375 1.52704C12.2433 1.52704 12.114 1.56169 12 1.62752L9 3.33752L6 1.62752C5.88599 1.56169 5.75665 1.52704 5.625 1.52704C5.49335 1.52704 5.36401 1.56169 5.25 1.62752L1.8825 3.54752C1.76665 3.61264 1.67018 3.70737 1.60298 3.82202C1.53577 3.93667 1.50023 4.06712 1.5 4.20002V8.04002C1.50023 8.17292 1.53577 8.30337 1.60298 8.41802C1.67018 8.53267 1.76665 8.6274 1.8825 8.69252L4.8825 10.395V13.8C4.88273 13.9329 4.91827 14.0634 4.98548 14.178C5.05268 14.2927 5.14915 14.3874 5.265 14.4525L8.64 16.3725C8.75401 16.4383 8.88335 16.473 9.015 16.473C9.14665 16.473 9.27599 16.4383 9.39 16.3725L12.75 14.4525C12.8658 14.3874 12.9623 14.2927 13.0295 14.178C13.0967 14.0634 13.1323 13.9329 13.1325 13.8V10.395L16.1325 8.69252C16.2483 8.6274 16.3448 8.53267 16.412 8.41802C16.4792 8.30337 16.5148 8.17292 16.515 8.04002V4.20002C16.5133 4.06562 16.4755 3.93415 16.4056 3.81936C16.3356 3.70457 16.2361 3.61068 16.1175 3.54752ZM3 7.60502V4.60502L5.625 3.10502L8.25 4.60502V7.60502L5.625 9.10502L3 7.60502ZM11.625 13.365L9 14.865L6.375 13.365V10.365L9 8.86502L11.625 10.365V13.365ZM15 7.60502L12.375 9.10502L9.75 7.60502V4.60502L12.375 3.10502L15 4.60502V7.60502Z"
    fill="currentColor" />
</svg>