<svg width="17" height="14" viewBox="0 0 17 14" fill="none" xmlns="http://www.w3.org/2000/svg">
  <path fill-rule="evenodd" clip-rule="evenodd"
    d="M14.1788 0.546193C13.7893 0.408372 13.37 0.333374 12.9333 0.333374H4.39996C3.96354 0.333374 3.54462 0.408256 3.15533 0.545873L8.66724 6.05778L14.1788 0.546193ZM8.66724 7.63271C8.8489 7.64185 9.03359 7.57704 9.17234 7.4383L15.3713 1.2393C16.1646 1.92391 16.6666 2.93668 16.6666 4.06671V9.93338C16.6666 11.9952 14.9952 13.6667 12.9333 13.6667H4.39996C2.3381 13.6667 0.666626 11.9952 0.666626 9.93337V4.0667C0.666626 2.93636 1.16896 1.92335 1.96257 1.23874L8.16213 7.4383C8.30088 7.57704 8.48557 7.64185 8.66724 7.63271Z"
    fill="currentColor" />
</svg>