<svg width="34" height="34" viewBox="0 0 34 34" fill="none" xmlns="http://www.w3.org/2000/svg">
<g id="Frame 158502267">
<g id="Group 4632">
<g id="Group 205">
<path id="Rectangle 2769" d="M6 4.16666C6 2.14162 7.64162 0.499992 9.66667 0.499992H20.6667C22.6917 0.499992 24.3333 2.14162 24.3333 4.16666V29.8333C24.3333 31.8584 22.6917 33.5 20.6667 33.5H9.66666C7.64162 33.5 6 31.8584 6 29.8333V4.16666Z" fill="url(#paint0_linear_2881_440)"/>
<path id="Ellipse 32" d="M16.1445 29.8333C16.1445 30.3733 15.7067 30.8111 15.1667 30.8111C14.6267 30.8111 14.1889 30.3733 14.1889 29.8333C14.1889 29.2933 14.6267 28.8556 15.1667 28.8556C15.7067 28.8556 16.1445 29.2933 16.1445 29.8333Z" stroke="#CABEFF" stroke-width="1.71111"/>
<path id="Rectangle 3185" d="M12.4167 3.24999C12.4167 2.74373 12.8272 2.33333 13.3334 2.33333H17.0001C17.5063 2.33333 17.9167 2.74373 17.9167 3.24999V3.24999C17.9167 3.75626 17.5063 4.16666 17.0001 4.16666H13.3334C12.8272 4.16666 12.4167 3.75626 12.4167 3.24999V3.24999Z" fill="#302F38"/>
</g>
<path id="Ellipse 48" opacity="0.64" d="M33.5 17C33.5 18.4049 28.5751 23.4167 22.5 23.4167C16.4249 23.4167 11.5 18.4049 11.5 17C11.5 15.5951 16.4249 10.5833 22.5 10.5833C23.7138 10.5833 24.8818 10.7834 25.9737 11.1148C27.0359 11.4372 28.0261 11.8839 28.9167 12.3916C31.6925 13.9739 33.5 16.1488 33.5 17Z" fill="#FAABFF"/>
<circle id="Ellipse 49" cx="22.5002" cy="17" r="3.66667" fill="#302F38"/>
<circle id="Ellipse 50" cx="25.2501" cy="17" r="1.83333" fill="#F07EFF"/>
<rect id="Rectangle 3271" x="22.5001" y="5.08333" width="0.916667" height="3.66667" rx="0.458334" fill="#FFFBF7"/>
<rect id="Rectangle 3272" x="28.5138" y="6.21304" width="0.916667" height="3.66667" rx="0.458333" transform="rotate(45 28.5138 6.21304)" fill="#F07EFF"/>
<rect id="Rectangle 3273" width="0.916667" height="3.66667" rx="0.458333" transform="matrix(0.707107 -0.707107 -0.707107 -0.707107 19.3472 9.45361)" fill="#FFFBF7"/>
</g>
</g>
<defs>
<linearGradient id="paint0_linear_2881_440" x1="9.15104" y1="29.0312" x2="28.6706" y2="17.4304" gradientUnits="userSpaceOnUse">
<stop stop-color="#5D34F2"/>
<stop offset="1" stop-color="#FAABFF"/>
</linearGradient>
</defs>
</svg>
