<svg width="36" height="36" viewBox="0 0 36 36" fill="none" xmlns="http://www.w3.org/2000/svg">
<path d="M7 5.16666C7 3.14162 8.64162 1.49999 10.6667 1.49999H21.6667C23.6917 1.49999 25.3333 3.14162 25.3333 5.16666V30.8333C25.3333 32.8584 23.6917 34.5 21.6667 34.5H10.6667C8.64162 34.5 7 32.8584 7 30.8333V5.16666Z" fill="url(#paint0_linear_2782_13862)"/>
<path d="M17.1445 30.8333C17.1445 31.3733 16.7067 31.8111 16.1667 31.8111C15.6267 31.8111 15.1889 31.3733 15.1889 30.8333C15.1889 30.2933 15.6267 29.8556 16.1667 29.8556C16.7067 29.8556 17.1445 30.2933 17.1445 30.8333Z" stroke="#CABEFF" stroke-width="1.71111"/>
<path d="M13.4167 4.24999C13.4167 3.74373 13.8272 3.33333 14.3334 3.33333H18.0001C18.5063 3.33333 18.9167 3.74373 18.9167 4.24999V4.24999C18.9167 4.75626 18.5063 5.16666 18.0001 5.16666H14.3334C13.8272 5.16666 13.4167 4.75626 13.4167 4.24999V4.24999Z" fill="#302F38"/>
<path opacity="0.64" d="M34.5 18C34.5 19.4049 29.5751 24.4167 23.5 24.4167C17.4249 24.4167 12.5 19.4049 12.5 18C12.5 16.5951 17.4249 11.5833 23.5 11.5833C24.7138 11.5833 25.8818 11.7834 26.9737 12.1148C28.0359 12.4372 29.0261 12.8839 29.9167 13.3916C32.6925 14.9739 34.5 17.1488 34.5 18Z" fill="#FAABFF"/>
<circle cx="23.5002" cy="18" r="3.66667" fill="#302F38"/>
<circle cx="26.2501" cy="18" r="1.83333" fill="#F07EFF"/>
<rect x="23.5001" y="6.08333" width="0.916667" height="3.66667" rx="0.458334" fill="#FFFBF7"/>
<rect x="29.5138" y="7.21304" width="0.916667" height="3.66667" rx="0.458333" transform="rotate(45 29.5138 7.21304)" fill="#F07EFF"/>
<rect width="0.916667" height="3.66667" rx="0.458333" transform="matrix(0.707107 -0.707107 -0.707107 -0.707107 20.3472 10.4536)" fill="#FFFBF7"/>
<defs>
<linearGradient id="paint0_linear_2782_13862" x1="10.151" y1="30.0312" x2="29.6706" y2="18.4304" gradientUnits="userSpaceOnUse">
<stop stop-color="#5D34F2"/>
<stop offset="1" stop-color="#FAABFF"/>
</linearGradient>
</defs>
</svg>
