<svg width="20" height="20" viewBox="0 0 20 20" fill="none" xmlns="http://www.w3.org/2000/svg">
  <path
    d="M17.7667 7.95836L16.1917 7.43336L16.9334 5.95002C17.0085 5.79476 17.0337 5.61999 17.0053 5.44983C16.977 5.27967 16.8965 5.12251 16.775 5.00002L15 3.22502C14.8769 3.10176 14.7182 3.0202 14.5463 2.99179C14.3744 2.96339 14.1979 2.98959 14.0417 3.06669L12.5584 3.80836L12.0334 2.23336C11.9779 2.06918 11.8727 1.92638 11.7323 1.82481C11.5919 1.72325 11.4233 1.66798 11.25 1.66669H8.75002C8.57532 1.66624 8.40489 1.72071 8.26283 1.82239C8.12077 1.92408 8.01426 2.06784 7.95836 2.23336L7.43336 3.80836L5.95002 3.06669C5.79476 2.99151 5.61999 2.96636 5.44983 2.99472C5.27967 3.02308 5.12251 3.10355 5.00002 3.22502L3.22502 5.00002C3.10176 5.12316 3.0202 5.28184 2.99179 5.45374C2.96339 5.62564 2.98959 5.80212 3.06669 5.95836L3.80836 7.44169L2.23336 7.96669C2.06918 8.02214 1.92638 8.12738 1.82481 8.26778C1.72325 8.40818 1.66798 8.57674 1.66669 8.75002V11.25C1.66624 11.4247 1.72071 11.5952 1.82239 11.7372C1.92408 11.8793 2.06784 11.9858 2.23336 12.0417L3.80836 12.5667L3.06669 14.05C2.99151 14.2053 2.96636 14.3801 2.99472 14.5502C3.02308 14.7204 3.10355 14.8775 3.22502 15L5.00002 16.775C5.12316 16.8983 5.28184 16.9799 5.45374 17.0083C5.62564 17.0367 5.80212 17.0105 5.95836 16.9334L7.44169 16.1917L7.96669 17.7667C8.02259 17.9322 8.12911 18.076 8.27117 18.1777C8.41323 18.2793 8.58365 18.3338 8.75836 18.3334H11.2584C11.4331 18.3338 11.6035 18.2793 11.7455 18.1777C11.8876 18.076 11.9941 17.9322 12.05 17.7667L12.575 16.1917L14.0584 16.9334C14.2126 17.0066 14.3857 17.0308 14.5541 17.0024C14.7225 16.9741 14.8782 16.8947 15 16.775L16.775 15C16.8983 14.8769 16.9799 14.7182 17.0083 14.5463C17.0367 14.3744 17.0105 14.1979 16.9334 14.0417L16.1917 12.5584L17.7667 12.0334C17.9309 11.9779 18.0737 11.8727 18.1752 11.7323C18.2768 11.5919 18.3321 11.4233 18.3334 11.25V8.75002C18.3338 8.57532 18.2793 8.40489 18.1777 8.26283C18.076 8.12077 17.9322 8.01426 17.7667 7.95836ZM16.6667 10.65L15.6667 10.9834C15.4367 11.0579 15.2258 11.1817 15.0484 11.3459C14.871 11.5102 14.7315 11.7111 14.6396 11.9347C14.5476 12.1582 14.5054 12.3991 14.5158 12.6407C14.5263 12.8822 14.5891 13.1186 14.7 13.3334L15.175 14.2834L14.2584 15.2L13.3334 14.7C13.1197 14.5936 12.8856 14.5342 12.6469 14.5261C12.4083 14.518 12.1707 14.5612 11.9503 14.6529C11.7298 14.7445 11.5316 14.8825 11.3691 15.0574C11.2066 15.2323 11.0836 15.4401 11.0084 15.6667L10.675 16.6667H9.35002L9.01669 15.6667C8.9421 15.4367 8.81838 15.2258 8.65411 15.0484C8.48983 14.871 8.28895 14.7315 8.06537 14.6396C7.8418 14.5476 7.6009 14.5054 7.35938 14.5158C7.11785 14.5263 6.88149 14.5891 6.66669 14.7L5.71669 15.175L4.80002 14.2584L5.30002 13.3334C5.41093 13.1186 5.47379 12.8822 5.48423 12.6407C5.49467 12.3991 5.45244 12.1582 5.36047 11.9347C5.26851 11.7111 5.129 11.5102 4.95164 11.3459C4.77428 11.1817 4.56331 11.0579 4.33336 10.9834L3.33336 10.65V9.35002L4.33336 9.01669C4.56331 8.9421 4.77428 8.81838 4.95164 8.65411C5.129 8.48983 5.26851 8.28895 5.36047 8.06537C5.45244 7.8418 5.49467 7.6009 5.48423 7.35938C5.47379 7.11785 5.41093 6.88149 5.30002 6.66669L4.82502 5.74169L5.74169 4.82502L6.66669 5.30002C6.88149 5.41093 7.11785 5.47379 7.35938 5.48423C7.6009 5.49467 7.8418 5.45244 8.06537 5.36047C8.28895 5.26851 8.48983 5.129 8.65411 4.95164C8.81838 4.77428 8.9421 4.56331 9.01669 4.33336L9.35002 3.33336H10.65L10.9834 4.33336C11.0579 4.56331 11.1817 4.77428 11.3459 4.95164C11.5102 5.129 11.7111 5.26851 11.9347 5.36047C12.1582 5.45244 12.3991 5.49467 12.6407 5.48423C12.8822 5.47379 13.1186 5.41093 13.3334 5.30002L14.2834 4.82502L15.2 5.74169L14.7 6.66669C14.5936 6.88039 14.5342 7.11448 14.5261 7.3531C14.518 7.59172 14.5612 7.8293 14.6529 8.04976C14.7445 8.27022 14.8825 8.46841 15.0574 8.63092C15.2323 8.79343 15.4401 8.91647 15.6667 8.99169L16.6667 9.32502V10.65ZM10 6.66669C9.34075 6.66669 8.69629 6.86219 8.14812 7.22846C7.59996 7.59473 7.17272 8.11532 6.92042 8.72441C6.66813 9.3335 6.60212 10.0037 6.73074 10.6503C6.85936 11.2969 7.17683 11.8909 7.643 12.357C8.10918 12.8232 8.70312 13.1407 9.34972 13.2693C9.99633 13.3979 10.6665 13.3319 11.2756 13.0796C11.8847 12.8273 12.4053 12.4001 12.7716 11.8519C13.1379 11.3038 13.3334 10.6593 13.3334 10C13.3334 9.11597 12.9822 8.26812 12.357 7.643C11.7319 7.01788 10.8841 6.66669 10 6.66669ZM10 11.6667C9.67039 11.6667 9.34816 11.5689 9.07407 11.3858C8.79999 11.2027 8.58637 10.9424 8.46022 10.6378C8.33408 10.3333 8.30107 9.99817 8.36538 9.67487C8.42969 9.35157 8.58842 9.0546 8.82151 8.82151C9.0546 8.58842 9.35157 8.42969 9.67487 8.36538C9.99817 8.30107 10.3333 8.33408 10.6378 8.46022C10.9424 8.58637 11.2027 8.79999 11.3858 9.07407C11.5689 9.34816 11.6667 9.67039 11.6667 10C11.6667 10.4421 11.4911 10.866 11.1785 11.1785C10.866 11.4911 10.4421 11.6667 10 11.6667Z"
    fill="currentColor" />
</svg>