<svg width="20" height="20" viewBox="0 0 20 20" fill="none" xmlns="http://www.w3.org/2000/svg">
  <path
    d="M11.6667 9.16667H10.8334V8.33333C10.8334 8.11232 10.7456 7.90036 10.5893 7.74408C10.433 7.5878 10.221 7.5 10 7.5C9.77902 7.5 9.56706 7.5878 9.41078 7.74408C9.2545 7.90036 9.1667 8.11232 9.1667 8.33333V9.16667H8.33336C8.11235 9.16667 7.90039 9.25446 7.74411 9.41074C7.58783 9.56702 7.50003 9.77899 7.50003 10C7.50003 10.221 7.58783 10.433 7.74411 10.5893C7.90039 10.7455 8.11235 10.8333 8.33336 10.8333H9.1667V11.6667C9.1667 11.8877 9.2545 12.0996 9.41078 12.2559C9.56706 12.4122 9.77902 12.5 10 12.5C10.221 12.5 10.433 12.4122 10.5893 12.2559C10.7456 12.0996 10.8334 11.8877 10.8334 11.6667V10.8333H11.6667C11.8877 10.8333 12.0997 10.7455 12.256 10.5893C12.4122 10.433 12.5 10.221 12.5 10C12.5 9.77899 12.4122 9.56702 12.256 9.41074C12.0997 9.25446 11.8877 9.16667 11.6667 9.16667ZM18.0917 9.40833L16.1334 7.5V4.7C16.1334 4.47899 16.0456 4.26702 15.8893 4.11074C15.733 3.95446 15.521 3.86667 15.3 3.86667H12.5417L10.5917 1.90833C10.5142 1.83023 10.4221 1.76823 10.3205 1.72592C10.219 1.68362 10.11 1.66183 10 1.66183C9.89002 1.66183 9.7811 1.68362 9.67955 1.72592C9.578 1.76823 9.48583 1.83023 9.40836 1.90833L7.50003 3.86667H4.70003C4.47902 3.86667 4.26706 3.95446 4.11077 4.11074C3.95449 4.26702 3.8667 4.47899 3.8667 4.7V7.5L1.90836 9.40833C1.83026 9.4858 1.76826 9.57797 1.72595 9.67952C1.68365 9.78107 1.66187 9.88999 1.66187 10C1.66187 10.11 1.68365 10.2189 1.72595 10.3205C1.76826 10.422 1.83026 10.5142 1.90836 10.5917L3.8667 12.5417V15.3C3.8667 15.521 3.95449 15.733 4.11077 15.8893C4.26706 16.0455 4.47902 16.1333 4.70003 16.1333H7.50003L9.45003 18.0917C9.5275 18.1698 9.61967 18.2318 9.72122 18.2741C9.82277 18.3164 9.93169 18.3382 10.0417 18.3382C10.1517 18.3382 10.2606 18.3164 10.3622 18.2741C10.4637 18.2318 10.5559 18.1698 10.6334 18.0917L12.5834 16.1333H15.3417C15.5627 16.1333 15.7747 16.0455 15.931 15.8893C16.0872 15.733 16.175 15.521 16.175 15.3V12.5417L18.1334 10.5917C18.2088 10.5115 18.2676 10.4171 18.3064 10.3141C18.3452 10.211 18.3631 10.1013 18.3592 9.99131C18.3554 9.88128 18.3297 9.77311 18.2838 9.67305C18.2379 9.57299 18.1726 9.48301 18.0917 9.40833ZM14.7167 11.6083C14.638 11.6855 14.5753 11.7775 14.5324 11.8791C14.4895 11.9807 14.4672 12.0897 14.4667 12.2V14.4667H12.2C12.0898 14.4671 11.9807 14.4895 11.8791 14.5324C11.7776 14.5753 11.6855 14.6379 11.6084 14.7167L10 16.325L8.3917 14.7167C8.31452 14.6379 8.22248 14.5753 8.12092 14.5324C8.01936 14.4895 7.91029 14.4671 7.80003 14.4667H5.53336V12.2C5.53291 12.0897 5.51057 11.9807 5.46766 11.8791C5.42475 11.7775 5.3621 11.6855 5.28336 11.6083L3.67503 10L5.28336 8.39167C5.3621 8.31449 5.42475 8.22245 5.46766 8.12089C5.51057 8.01933 5.53291 7.91026 5.53336 7.8V5.53333H7.80003C7.91029 5.53288 8.01936 5.51054 8.12092 5.46763C8.22248 5.42472 8.31452 5.36207 8.3917 5.28333L10 3.675L11.6084 5.28333C11.6855 5.36207 11.7776 5.42472 11.8791 5.46763C11.9807 5.51054 12.0898 5.53288 12.2 5.53333H14.4667V7.8C14.4672 7.91026 14.4895 8.01933 14.5324 8.12089C14.5753 8.22245 14.638 8.31449 14.7167 8.39167L16.325 10L14.7167 11.6083Z"
    fill="currentColor" />
</svg>