<svg width="20" height="20" viewBox="0 0 20 20" fill="none" xmlns="http://www.w3.org/2000/svg">
  <path id="Vector"
    d="M17.8416 7.2C17.8416 7.2 17.8416 7.2 17.8416 7.15834C17.2545 5.55519 16.1891 4.17107 14.7895 3.19322C13.39 2.21537 11.7239 1.69098 10.0166 1.69098C8.30933 1.69098 6.64324 2.21537 5.24372 3.19322C3.8442 4.17107 2.77879 5.55519 2.19163 7.15834C2.19163 7.15834 2.19163 7.15834 2.19163 7.2C1.5359 9.00908 1.5359 10.9909 2.19163 12.8C2.19163 12.8 2.19163 12.8 2.19163 12.8417C2.77879 14.4448 3.8442 15.8289 5.24372 16.8068C6.64324 17.7846 8.30933 18.309 10.0166 18.309C11.7239 18.309 13.39 17.7846 14.7895 16.8068C16.1891 15.8289 17.2545 14.4448 17.8416 12.8417C17.8416 12.8417 17.8416 12.8417 17.8416 12.8C18.4974 10.9909 18.4974 9.00908 17.8416 7.2ZM3.54996 11.6667C3.26098 10.5743 3.26098 9.42566 3.54996 8.33334H5.09996C4.96665 9.44045 4.96665 10.5596 5.09996 11.6667H3.54996ZM4.23329 13.3333H5.39996C5.59556 14.0765 5.87514 14.7951 6.23329 15.475C5.41604 14.9183 4.73287 14.1867 4.23329 13.3333ZM5.39996 6.66667H4.23329C4.72568 5.81591 5.40012 5.08456 6.20829 4.525C5.85875 5.20604 5.58758 5.92452 5.39996 6.66667ZM9.16663 16.4167C8.1431 15.6656 7.42425 14.571 7.14163 13.3333H9.16663V16.4167ZM9.16663 11.6667H6.78329C6.62778 10.561 6.62778 9.43901 6.78329 8.33334H9.16663V11.6667ZM9.16663 6.66667H7.14163C7.42425 5.42898 8.1431 4.33443 9.16663 3.58334V6.66667ZM15.7666 6.66667H14.6C14.4044 5.92347 14.1248 5.20495 13.7666 4.525C14.5839 5.08173 15.267 5.81329 15.7666 6.66667ZM10.8333 3.58334C11.8568 4.33443 12.5757 5.42898 12.8583 6.66667H10.8333V3.58334ZM10.8333 16.4167V13.3333H12.8583C12.5757 14.571 11.8568 15.6656 10.8333 16.4167ZM13.2166 11.6667H10.8333V8.33334H13.2166C13.3721 9.43901 13.3721 10.561 13.2166 11.6667ZM13.7916 15.475C14.1498 14.7951 14.4294 14.0765 14.625 13.3333H15.7916C15.292 14.1867 14.6089 14.9183 13.7916 15.475ZM16.45 11.6667H14.9C14.9677 11.1137 15.0011 10.5571 15 10C15.0009 9.44292 14.9675 8.88631 14.9 8.33334H16.45C16.7389 9.42566 16.7389 10.5743 16.45 11.6667Z"
    fill="currentColor" />
</svg>
