<svg width="20" height="20" viewBox="0 0 20 20" fill="none" xmlns="http://www.w3.org/2000/svg">
<path d="M2.0835 7.38332L9.5835 11.7167C9.71018 11.7898 9.85389 11.8283 10.0002 11.8283C10.1464 11.8283 10.2902 11.7898 10.4168 11.7167L17.9168 7.38332C18.0428 7.3106 18.1475 7.2062 18.2206 7.08047C18.2937 6.95475 18.3326 6.81208 18.3335 6.66665C18.3341 6.51981 18.2959 6.37542 18.2227 6.24811C18.1495 6.12079 18.044 6.01507 17.9168 5.94165L10.4168 1.61665C10.2902 1.54351 10.1464 1.505 10.0002 1.505C9.85389 1.505 9.71018 1.54351 9.5835 1.61665L2.0835 5.94165C1.95633 6.01507 1.85082 6.12079 1.77765 6.24811C1.70448 6.37542 1.66625 6.51981 1.66683 6.66665C1.66771 6.81208 1.70663 6.95475 1.77973 7.08047C1.85283 7.2062 1.95755 7.3106 2.0835 7.38332ZM10.0002 3.33332L15.8335 6.66665L10.0002 9.99998L4.16683 6.66665L10.0002 3.33332ZM17.0835 9.30832L10.0002 13.3333L2.91683 9.27498C2.82172 9.21988 2.71665 9.18415 2.60767 9.16983C2.49869 9.15551 2.38795 9.16289 2.28183 9.19155C2.17571 9.22021 2.07632 9.26958 1.98936 9.33682C1.9024 9.40405 1.82961 9.48783 1.77517 9.58332C1.66652 9.77466 1.63797 10.0012 1.69573 10.2135C1.7535 10.4259 1.89289 10.6067 2.0835 10.7167L9.5835 15.05C9.71018 15.1231 9.85389 15.1616 10.0002 15.1616C10.1464 15.1616 10.2902 15.1231 10.4168 15.05L17.9168 10.7167C18.1074 10.6067 18.2468 10.4259 18.3046 10.2135C18.3624 10.0012 18.3338 9.77466 18.2252 9.58332C18.1707 9.48783 18.0979 9.40405 18.011 9.33682C17.924 9.26958 17.8246 9.22021 17.7185 9.19155C17.6124 9.16289 17.5016 9.15551 17.3927 9.16983C17.2837 9.18415 17.1786 9.21988 17.0835 9.27498V9.30832ZM17.0835 12.6417L10.0002 16.6667L2.91683 12.6083C2.82172 12.5532 2.71665 12.5175 2.60767 12.5032C2.49869 12.4888 2.38795 12.4962 2.28183 12.5249C2.17571 12.5535 2.07632 12.6029 1.98936 12.6701C1.9024 12.7374 1.82961 12.8212 1.77517 12.9167C1.66652 13.108 1.63797 13.3345 1.69573 13.5469C1.7535 13.7592 1.89289 13.9401 2.0835 14.05L9.5835 18.3833C9.71018 18.4565 9.85389 18.495 10.0002 18.495C10.1464 18.495 10.2902 18.4565 10.4168 18.3833L17.9168 14.05C18.1074 13.9401 18.2468 13.7592 18.3046 13.5469C18.3624 13.3345 18.3338 13.108 18.2252 12.9167C18.1707 12.8212 18.0979 12.7374 18.011 12.6701C17.924 12.6029 17.8246 12.5535 17.7185 12.5249C17.6124 12.4962 17.5016 12.4888 17.3927 12.5032C17.2837 12.5175 17.1786 12.5532 17.0835 12.6083V12.6417Z" fill="currentColor"/>
</svg>
