<svg width="20" height="20" viewBox="0 0 20 20" fill="none" xmlns="http://www.w3.org/2000/svg">
<path fill-rule="evenodd" clip-rule="evenodd" d="M3.08895 1.91076C2.76351 1.58533 2.23588 1.58533 1.91044 1.91076C1.585 2.2362 1.585 2.76384 1.91044 3.08928L4.32915 5.50798C2.83378 6.7294 1.81438 8.16474 1.3124 8.95936L1.29217 8.99126C1.19389 9.14592 1.06625 9.34676 1.00188 9.62751C0.949911 9.85415 0.949894 10.1457 1.00183 10.3723C1.06617 10.653 1.19344 10.8534 1.29147 11.0077L1.31154 11.0393C1.8055 11.8214 2.79178 13.2099 4.23032 14.4105C5.67082 15.6128 7.61497 16.6667 9.9997 16.6667C11.6427 16.6667 13.0783 16.1657 14.2823 15.4612L16.9104 18.0893C17.2359 18.4147 17.7635 18.4147 18.089 18.0893C18.4144 17.7638 18.4144 17.2362 18.089 16.9108L15.0671 13.8889C15.022 13.8302 14.9703 13.779 14.9138 13.7357L6.25465 5.07647C6.21466 5.02618 6.1698 4.98163 6.12123 4.94304L3.08895 1.91076ZM2.72147 9.84948C3.1944 9.10084 4.14861 7.77185 5.51459 6.69342L7.128 8.30684C6.83494 8.80304 6.66636 9.3822 6.66636 10C6.66636 11.841 8.15875 13.3334 9.9997 13.3334C10.6175 13.3334 11.1967 13.1648 11.6929 12.8717L13.0555 14.2344C12.1475 14.7012 11.1271 15 9.9997 15C8.13025 15 6.55154 14.1769 5.29826 13.1309C4.04302 12.0833 3.1646 10.8522 2.72071 10.1494C2.69126 10.1027 2.67065 10.07 2.65343 10.0417C2.64208 10.023 2.63457 10.01 2.62956 10.001L2.62956 10L2.62956 9.99904C2.63464 9.98989 2.64226 9.97675 2.65382 9.95771C2.67116 9.92918 2.69189 9.89631 2.72147 9.84948ZM8.33303 10C8.33303 9.85056 8.35259 9.70584 8.38935 9.56818L10.4315 11.6104C10.2939 11.6471 10.1492 11.6667 9.9997 11.6667C9.07922 11.6667 8.33303 10.9205 8.33303 10Z" fill="#4300DA"/>
<path d="M9.07369 5.06799C9.37284 5.02376 9.68148 5.00002 9.9997 5.00002C11.8691 5.00002 13.4479 5.8231 14.7011 6.86911C15.9564 7.91675 16.8348 9.14783 17.2787 9.85068C17.3081 9.89733 17.3287 9.93 17.346 9.95836C17.3573 9.97706 17.3648 9.99001 17.3698 9.99904L17.3698 10.0001L17.3698 10.001C17.3647 10.0102 17.357 10.0235 17.3454 10.0427C17.328 10.0713 17.3072 10.1043 17.2775 10.1512C17.043 10.5223 16.6836 11.0468 16.2075 11.6154C15.912 11.9683 15.9586 12.4939 16.3114 12.7893C16.6643 13.0848 17.1899 13.0383 17.4854 12.6854C18.0187 12.0484 18.4212 11.4613 18.6865 11.0414L18.7068 11.0094C18.8053 10.8545 18.9331 10.6534 18.9975 10.3726C19.0495 10.146 19.0495 9.85443 18.9976 9.62778C18.9332 9.34705 18.806 9.14669 18.7079 8.99238L18.6878 8.96073C18.1939 8.17859 17.2076 6.79017 15.7691 5.58955C14.3286 4.38729 12.3844 3.33335 9.9997 3.33335C9.59823 3.33335 9.20812 3.36333 8.82992 3.41925C8.37463 3.48656 8.06012 3.91021 8.12743 4.3655C8.19475 4.82079 8.6184 5.1353 9.07369 5.06799Z" fill="#4300DA"/>
</svg>
