<svg width="20" height="20" viewBox="0 0 20 20" fill="none" xmlns="http://www.w3.org/2000/svg">
  <path fill-rule="evenodd" clip-rule="evenodd"
    d="M5.1344 11.8516C4.37138 9.6716 4.20555 7.05972 4.1737 4.69715C6.08092 5.11663 8.41054 5.41631 10.0001 5.41631C11.5897 5.41631 13.9193 5.11663 15.8265 4.69716C15.7946 7.05972 15.6288 9.6716 14.8658 11.8516C14.438 13.0738 13.8487 14.0781 13.0603 14.8155C12.3281 15.5003 11.3552 16.021 10.0001 16.233C8.645 16.021 7.67205 15.5003 6.93986 14.8155C6.1515 14.0781 5.56217 13.0738 5.1344 11.8516ZM2.50024 3.7029C2.50703 8.87436 2.823 16.9919 10.0001 17.9163C17.1772 16.9919 17.4931 8.87436 17.4999 3.7029C17.5007 3.12018 16.9119 2.70903 16.3485 2.85776C14.4379 3.3621 11.6983 3.74964 10.0001 3.74964C8.3019 3.74964 5.56228 3.3621 3.65168 2.85776C3.08826 2.70903 2.49948 3.12018 2.50024 3.7029ZM12.2371 9.35752C12.2433 9.35173 12.2494 9.34583 12.2554 9.33983L12.2537 9.34149L12.2516 9.34357L12.2478 9.34734L12.2415 9.35327L12.2345 9.35964L12.2371 9.35752ZM14.7554 8.16016L14.7548 8.15957L14.7536 8.15836L14.751 8.15582L14.7453 8.15027L14.7318 8.13737C14.7218 8.12801 14.7098 8.11712 14.6959 8.10495C14.6681 8.08063 14.6324 8.05107 14.5886 8.01823C14.5011 7.95263 14.3806 7.87319 14.2269 7.79631C13.9166 7.64119 13.4773 7.5 12.9167 7.5C12.3561 7.5 11.9168 7.64119 11.6065 7.79631C11.4528 7.87319 11.3323 7.95263 11.2448 8.01823C11.201 8.05107 11.1653 8.08063 11.1375 8.10495C11.1236 8.11712 11.1116 8.12801 11.1016 8.13737L11.0881 8.15027L11.0824 8.15582L11.0798 8.15836L11.0786 8.15957L11.0775 8.16074C10.752 8.48618 10.752 9.01382 11.0775 9.33926C11.3967 9.65849 11.9105 9.66457 12.2371 9.35752L12.2448 9.35156C12.2615 9.33904 12.2973 9.31431 12.3519 9.28702C12.4583 9.23381 12.644 9.16667 12.9167 9.16667C13.1894 9.16667 13.3751 9.23381 13.4815 9.28702C13.5361 9.31431 13.5719 9.33904 13.5886 9.35156L13.5963 9.35752C13.9229 9.66457 14.4367 9.65849 14.756 9.33926C15.0814 9.01382 15.0808 8.4856 14.7554 8.16016ZM14.1667 8.75L14.7554 8.16016C14.7557 8.16045 14.756 8.16074 14.1667 8.75ZM11.0775 8.16074L11.6667 8.74996L11.1512 8.2347C11.0785 8.16204 11.0773 8.16091 11.0774 8.16075L11.0775 8.16074ZM6.42143 9.34045C6.41561 9.34624 6.40974 9.35193 6.4038 9.35752L6.40166 9.35924L6.40821 9.35327L6.41442 9.34734L6.41828 9.34357L6.42039 9.34149L6.42143 9.34045ZM7.76295 9.35752L7.75525 9.35156C7.73855 9.33904 7.70277 9.31431 7.6482 9.28702C7.54177 9.23381 7.35607 9.16667 7.08337 9.16667C6.81068 9.16667 6.62498 9.23381 6.51855 9.28702C6.46397 9.31431 6.4282 9.33904 6.4115 9.35156L6.4038 9.35752C6.07714 9.66457 5.56335 9.65849 5.24412 9.33926C4.91868 9.01382 4.91868 8.48618 5.24412 8.16074L5.83334 8.74996C5.24412 8.16074 5.24441 8.16045 5.2447 8.16016L5.24529 8.15957L5.24651 8.15836L5.24908 8.15582L5.25477 8.15027L5.26831 8.13737C5.2783 8.12801 5.29024 8.11712 5.30415 8.10495C5.33194 8.08063 5.36771 8.05107 5.4115 8.01823C5.49897 7.95263 5.61944 7.87319 5.7732 7.79631C6.08344 7.64119 6.52274 7.5 7.08337 7.5C7.64401 7.5 8.08331 7.64119 8.39355 7.79631C8.54731 7.87319 8.66778 7.95263 8.75525 8.01823C8.79904 8.05107 8.8348 8.08063 8.8626 8.10495C8.8765 8.11712 8.88845 8.12801 8.89844 8.13737L8.91198 8.15027L8.91767 8.15582L8.92024 8.15836L8.92146 8.15957L8.92205 8.16016C8.92234 8.16045 8.92263 8.16074 8.33337 8.75L8.92263 8.16074C9.24807 8.48618 9.24807 9.01382 8.92263 9.33926C8.6034 9.65849 8.0896 9.66457 7.76295 9.35752ZM11.4474 11.9611L11.4514 11.9568C11.7475 11.6121 12.2665 11.5679 12.6168 11.8598C12.9704 12.1545 13.0182 12.6799 12.7235 13.0335L12.0834 12.5C12.7235 13.0335 12.7233 13.0338 12.723 13.0341L12.7225 13.0348L12.7213 13.0361L12.7189 13.039L12.7131 13.0458L12.6981 13.063C12.6865 13.076 12.6719 13.092 12.6542 13.1105C12.6189 13.1476 12.5711 13.1952 12.5106 13.2496C12.39 13.3582 12.2171 13.4957 11.9913 13.6312C11.5363 13.9042 10.8691 14.1667 10 14.1667C9.13098 14.1667 8.4637 13.9042 8.00877 13.6312C7.78295 13.4957 7.61007 13.3582 7.48942 13.2496C7.42896 13.1952 7.38111 13.1476 7.34579 13.1105C7.32811 13.092 7.31351 13.076 7.30198 13.063L7.28697 13.0458L7.28117 13.039L7.27869 13.0361L7.27756 13.0348L7.27702 13.0341C7.27676 13.0338 7.2765 13.0335 7.90915 12.5063L7.2765 13.0335C6.98187 12.6799 7.02964 12.1545 7.3832 11.8598C7.73349 11.5679 8.25252 11.6121 8.54863 11.9568L8.55269 11.9611C8.56077 11.9696 8.57803 11.9871 8.60437 12.0108C8.65733 12.0585 8.74487 12.1293 8.86627 12.2021C9.10579 12.3458 9.48017 12.5 10 12.5C10.5199 12.5 10.8943 12.3458 11.1338 12.2021C11.2552 12.1293 11.3427 12.0585 11.3957 12.0108C11.422 11.9871 11.4393 11.9696 11.4474 11.9611Z"
    fill="currentColor" />
</svg>