<svg width="20" height="20" viewBox="0 0 20 20" fill="none" xmlns="http://www.w3.org/2000/svg">
  <path
    d="M16.1999 4.45L16.1499 4.39167C15.3691 3.53774 14.4191 2.85578 13.3602 2.38921C12.3014 1.92263 11.157 1.68167 9.99994 1.68167C8.84286 1.68167 7.69847 1.92263 6.63964 2.38921C5.5808 2.85578 4.63073 3.53774 3.84994 4.39167L3.79994 4.45C2.89637 5.4561 2.25122 6.66699 1.92018 7.97813C1.58914 9.28927 1.58215 10.6613 1.89982 11.9757C2.21748 13.2902 2.85026 14.5076 3.74353 15.5228C4.63679 16.5381 5.76372 17.3207 7.02702 17.8031C8.29033 18.2856 9.65206 18.4533 10.9947 18.2919C12.3373 18.1305 13.6205 17.6447 14.7334 16.8766C15.8464 16.1085 16.7557 15.0811 17.3829 13.883C18.01 12.685 18.3362 11.3523 18.3333 10C18.3343 7.94959 17.5741 5.9718 16.1999 4.45ZM9.99994 3.33333C11.1259 3.33037 12.2337 3.61736 13.2166 4.16667H6.78327C7.76618 3.61736 8.87396 3.33037 9.99994 3.33333ZM4.79994 5.83333H15.1999C15.9677 6.79335 16.4551 7.94696 16.6083 9.16667H3.39161C3.54475 7.94696 4.03215 6.79335 4.79994 5.83333ZM9.99994 16.6667C8.3772 16.6652 6.8107 16.0719 5.59413 14.998C4.37756 13.9241 3.59445 12.4433 3.39161 10.8333H16.6083C16.4054 12.4433 15.6223 13.9241 14.4057 14.998C13.1892 16.0719 11.6227 16.6652 9.99994 16.6667ZM6.66661 6.66667C6.50179 6.66667 6.34067 6.71554 6.20363 6.80711C6.06659 6.89867 5.95978 7.02882 5.89671 7.1811C5.83363 7.33337 5.81713 7.50092 5.84928 7.66257C5.88144 7.82422 5.96081 7.97271 6.07735 8.08925C6.19389 8.2058 6.34238 8.28516 6.50403 8.31732C6.66568 8.34947 6.83324 8.33297 6.98551 8.2699C7.13778 8.20682 7.26793 8.10001 7.3595 7.96297C7.45107 7.82593 7.49994 7.66482 7.49994 7.5C7.49994 7.27898 7.41214 7.06702 7.25586 6.91074C7.09958 6.75446 6.88762 6.66667 6.66661 6.66667ZM11.6666 6.66667C11.5018 6.66667 11.3407 6.71554 11.2036 6.80711C11.0666 6.89867 10.9598 7.02882 10.8967 7.1811C10.8336 7.33337 10.8171 7.50092 10.8493 7.66257C10.8814 7.82422 10.9608 7.97271 11.0774 8.08925C11.1939 8.2058 11.3424 8.28516 11.504 8.31732C11.6657 8.34947 11.8332 8.33297 11.9855 8.2699C12.1378 8.20682 12.2679 8.10001 12.3595 7.96297C12.4511 7.82593 12.4999 7.66482 12.4999 7.5C12.4999 7.27898 12.4121 7.06702 12.2559 6.91074C12.0996 6.75446 11.8876 6.66667 11.6666 6.66667Z"
    fill="currentColor" />
</svg>