<svg width="18" height="18" viewBox="0 0 18 18" fill="none" xmlns="http://www.w3.org/2000/svg">
  <path
    d="M14.9175 7.16247C14.8552 7.03879 14.7598 6.93477 14.642 6.86196C14.5242 6.78915 14.3885 6.75039 14.25 6.74997H10.5V2.24997C10.5081 2.08548 10.4617 1.92292 10.3682 1.78737C10.2747 1.65182 10.1391 1.55083 9.9825 1.49997C9.83192 1.45043 9.66952 1.44987 9.5186 1.49838C9.36768 1.54689 9.23602 1.64197 9.1425 1.76997L3.1425 10.02C3.06733 10.1286 3.02219 10.2552 3.01165 10.3869C3.00111 10.5186 3.02556 10.6508 3.0825 10.77C3.13494 10.9063 3.22604 11.0243 3.34462 11.1096C3.4632 11.1949 3.60409 11.2436 3.75 11.25H7.5V15.75C7.50012 15.9081 7.55023 16.0622 7.64317 16.1902C7.73612 16.3181 7.86714 16.4134 8.0175 16.4625C8.09286 16.4858 8.17113 16.4985 8.25 16.5C8.36834 16.5003 8.48507 16.4726 8.59066 16.4191C8.69624 16.3657 8.78768 16.288 8.8575 16.1925L14.8575 7.94247C14.9383 7.83057 14.9867 7.69854 14.9973 7.56091C15.0078 7.42329 14.9802 7.28542 14.9175 7.16247ZM9 13.44V10.5C9 10.3011 8.92098 10.1103 8.78033 9.96964C8.63968 9.82899 8.44892 9.74997 8.25 9.74997H5.25L9 4.55997V7.49997C9 7.69888 9.07902 7.88965 9.21967 8.0303C9.36033 8.17095 9.55109 8.24997 9.75 8.24997H12.75L9 13.44Z"
    fill="currentColor" />
</svg>