<svg width="18" height="18" viewBox="0 0 18 18" fill="none" xmlns="http://www.w3.org/2000/svg">
<path d="M12.8175 2.11499C12.1277 1.54768 11.3199 1.14151 10.4532 0.926123C9.58645 0.710734 8.68256 0.691557 7.80746 0.86999C6.64224 1.10536 5.5732 1.68155 4.73597 2.52545C3.89874 3.36936 3.33106 4.44294 3.10496 5.60999C2.93984 6.48503 2.96985 7.38573 3.19283 8.24784C3.41581 9.10995 3.82628 9.91224 4.39496 10.5975C4.92272 11.193 5.22523 11.9546 5.24996 12.75V15C5.24996 15.5967 5.48701 16.169 5.90897 16.591C6.33092 17.0129 6.90322 17.25 7.49996 17.25H10.5C11.0967 17.25 11.669 17.0129 12.0909 16.591C12.5129 16.169 12.75 15.5967 12.75 15V12.8925C12.7751 12.0144 13.0977 11.1708 13.665 10.5C14.6588 9.27058 15.1273 7.69861 14.9686 6.12571C14.8099 4.55281 14.0368 3.10611 12.8175 2.09999V2.11499ZM11.25 15C11.25 15.1989 11.1709 15.3897 11.0303 15.5303C10.8896 15.671 10.6989 15.75 10.5 15.75H7.49996C7.30104 15.75 7.11028 15.671 6.96963 15.5303C6.82897 15.3897 6.74996 15.1989 6.74996 15V14.25H11.25V15ZM12.5025 9.56999C11.7483 10.4644 11.3084 11.5815 11.25 12.75H9.74996V10.5C9.74996 10.3011 9.67094 10.1103 9.53029 9.96966C9.38963 9.82901 9.19887 9.74999 8.99996 9.74999C8.80104 9.74999 8.61028 9.82901 8.46963 9.96966C8.32897 10.1103 8.24996 10.3011 8.24996 10.5V12.75H6.74996C6.73017 11.6011 6.30517 10.4961 5.54996 9.62999C5.05169 9.03299 4.71663 8.31706 4.57744 7.552C4.43825 6.78695 4.49969 5.99888 4.75577 5.26464C5.01185 4.5304 5.45382 3.87505 6.0386 3.36248C6.62337 2.84992 7.33099 2.49764 8.09246 2.33999C8.74687 2.20525 9.42308 2.21792 10.072 2.37709C10.7209 2.53626 11.3262 2.83793 11.844 3.2602C12.3618 3.68248 12.779 4.21475 13.0655 4.81838C13.3519 5.42201 13.5003 6.08185 13.5 6.74999C13.5055 7.77739 13.1528 8.77459 12.5025 9.56999Z" fill="currentColor"/>
</svg>
