<svg width="20" height="20" viewBox="0 0 20 20" fill="none" xmlns="http://www.w3.org/2000/svg">
  <path
    d="M10 10.9166C9.75136 10.9166 9.5129 11.0132 9.33709 11.1851C9.16127 11.357 9.0625 11.5902 9.0625 11.8333V14.5833C9.0625 14.8264 9.16127 15.0596 9.33709 15.2315C9.5129 15.4034 9.75136 15.5 10 15.5C10.2486 15.5 10.4871 15.4034 10.6629 15.2315C10.8387 15.0596 10.9375 14.8264 10.9375 14.5833V11.8333C10.9375 11.5902 10.8387 11.357 10.6629 11.1851C10.4871 11.0132 10.2486 10.9166 10 10.9166ZM14.6875 7.24998V5.41665C14.6875 4.20107 14.1936 3.03528 13.3146 2.17574C12.4355 1.3162 11.2432 0.833313 10 0.833313C8.7568 0.833313 7.56451 1.3162 6.68544 2.17574C5.80636 3.03528 5.3125 4.20107 5.3125 5.41665V7.24998C4.56658 7.24998 3.85121 7.53971 3.32376 8.05544C2.79632 8.57116 2.5 9.27063 2.5 9.99998V16.4166C2.5 17.146 2.79632 17.8455 3.32376 18.3612C3.85121 18.8769 4.56658 19.1666 5.3125 19.1666H14.6875C15.4334 19.1666 16.1488 18.8769 16.6762 18.3612C17.2037 17.8455 17.5 17.146 17.5 16.4166V9.99998C17.5 9.27063 17.2037 8.57116 16.6762 8.05544C16.1488 7.53971 15.4334 7.24998 14.6875 7.24998ZM7.1875 5.41665C7.1875 4.6873 7.48382 3.98783 8.01126 3.4721C8.53871 2.95638 9.25408 2.66665 10 2.66665C10.7459 2.66665 11.4613 2.95638 11.9887 3.4721C12.5162 3.98783 12.8125 4.6873 12.8125 5.41665V7.24998H7.1875V5.41665ZM15.625 16.4166C15.625 16.6598 15.5262 16.8929 15.3504 17.0648C15.1746 17.2367 14.9361 17.3333 14.6875 17.3333H5.3125C5.06386 17.3333 4.8254 17.2367 4.64959 17.0648C4.47377 16.8929 4.375 16.6598 4.375 16.4166V9.99998C4.375 9.75686 4.47377 9.52371 4.64959 9.3518C4.8254 9.17989 5.06386 9.08331 5.3125 9.08331H14.6875C14.9361 9.08331 15.1746 9.17989 15.3504 9.3518C15.5262 9.52371 15.625 9.75686 15.625 9.99998V16.4166Z"
    fill="currentColor" />
</svg>