<svg width="20" height="20" viewBox="0 0 20 20" fill="none" xmlns="http://www.w3.org/2000/svg">
<path d="M13.666 2.75002C10.416 0.916687 6.41602 1.50002 3.83268 4.00002V2.50002C3.83268 2.00002 3.49935 1.66669 2.99935 1.66669C2.49935 1.66669 2.16602 2.00002 2.16602 2.50002V6.25002C2.16602 6.75002 2.49935 7.08335 2.99935 7.08335H6.74935C7.24935 7.08335 7.58268 6.75002 7.58268 6.25002C7.58268 5.75002 7.24935 5.41669 6.74935 5.41669H4.74935C5.91602 4.08335 7.66602 3.33335 9.58268 3.33335C13.2493 3.33335 16.2493 6.33335 16.2493 10C16.2493 13.6667 13.2493 16.6667 9.58268 16.6667C9.08268 16.6667 8.74935 17 8.74935 17.5C8.74935 18 9.08268 18.3334 9.58268 18.3334C12.5827 18.3334 15.3327 16.75 16.8327 14.1667C19.0827 10.1667 17.666 5.08335 13.666 2.75002ZM9.49935 6.66669C8.99935 6.66669 8.66602 7.00002 8.66602 7.50002V10C8.66602 10.5 8.99935 10.8334 9.49935 10.8334H11.166C11.666 10.8334 11.9993 10.5 11.9993 10C11.9993 9.50002 11.666 9.16669 11.166 9.16669H10.3327V7.50002C10.3327 7.00002 9.99935 6.66669 9.49935 6.66669Z" fill="currentColor"/>
</svg>
