<svg width="34" height="34" viewBox="0 0 34 34" fill="none" xmlns="http://www.w3.org/2000/svg">
<g id="Frame 158502268">
<g id="Group 4634">
<path id="Union (Stroke)" fill-rule="evenodd" clip-rule="evenodd" d="M18.4069 1.99775L15.5929 1.99775L14.9166 4.70294L16.9999 5.39738L19.0832 4.70294L18.4069 1.99775ZM20.462 5.4598L19.5265 1.71786C19.398 1.20412 18.9364 0.843727 18.4069 0.843727H15.5929C15.0634 0.843727 14.6018 1.20412 14.4733 1.71786L13.5378 5.4598L16.9999 6.61382L20.462 5.4598ZM19.0832 29.297L16.9999 28.6026L14.9166 29.297L15.5929 32.0022H18.4069L19.0832 29.297ZM13.5378 28.5402L16.9999 27.3861L20.462 28.5402L19.5265 32.2821C19.398 32.7958 18.9364 33.1562 18.4069 33.1562H15.5929C15.0633 33.1562 14.6018 32.7958 14.4733 32.2821L13.5378 28.5402Z" fill="#F07EFF"/>
<path id="Union (Stroke) (Stroke)" fill-rule="evenodd" clip-rule="evenodd" d="M15.5929 1.18748C15.2211 1.18748 14.897 1.44052 14.8069 1.80123L13.9486 5.23435L16.9999 6.25148L20.0513 5.23435L19.193 1.80123C19.1029 1.44052 18.7788 1.18748 18.407 1.18748H15.5929ZM14.1399 1.63448C14.3066 0.967727 14.9057 0.499977 15.5929 0.499977H18.407C19.0942 0.499977 19.6933 0.967727 19.86 1.63448L20.8727 5.68525L16.9999 6.97616L13.1272 5.68525L14.1399 1.63448ZM15.8613 2.3415L15.3273 4.4775L16.9999 5.03503L18.6726 4.4775L18.1386 2.3415L15.8613 2.3415ZM18.6753 1.654L19.4939 4.92839L16.9999 5.75972L14.5059 4.92839L15.3245 1.654L18.6753 1.654ZM16.9999 27.0238L20.8727 28.3147L19.86 32.3655C19.6933 33.0322 19.0942 33.5 18.4069 33.5H15.5929C14.9057 33.5 14.3066 33.0322 14.1399 32.3655L13.1272 28.3147L16.9999 27.0238ZM13.9486 28.7656L14.8069 32.1987C14.897 32.5594 15.2211 32.8125 15.5929 32.8125H18.4069C18.7788 32.8125 19.1028 32.5594 19.193 32.1987L20.0513 28.7656L16.9999 27.7485L13.9486 28.7656ZM16.9999 28.2402L19.4939 29.0716L18.6753 32.346H15.3245L14.5059 29.0716L16.9999 28.2402ZM15.3273 29.5225L15.8613 31.6585H18.1386L18.6726 29.5225L16.9999 28.9649L15.3273 29.5225Z" fill="#F07EFF"/>
<path id="Union (Stroke)_2" fill-rule="evenodd" clip-rule="evenodd" d="M26.0187 29.5925C26.4728 29.8649 27.054 29.7934 27.4284 29.4189L29.4182 27.4291C29.7927 27.0547 29.8642 26.4734 29.5918 26.0194L27.6073 22.7119L23.9234 23.924L22.7112 27.608L26.0187 29.5925ZM24.0956 27.0928L24.8375 24.8381L27.0921 24.0963L28.6022 26.6131L26.6124 28.6029L24.0956 27.0928ZM7.38585 5.39672L5.39604 7.38653L6.90615 9.90336L9.16095 9.16159L9.90269 6.90683L7.38585 5.39672ZM11.287 6.39163L7.97959 4.40716C7.52551 4.13471 6.94428 4.20627 6.56984 4.58071L4.58003 6.57051C4.20559 6.94496 4.13404 7.52619 4.40648 7.98027L6.39095 11.2877L10.0751 10.0757L11.287 6.39163Z" fill="#F07EFF"/>
<path id="Union (Stroke) (Stroke)_2" fill-rule="evenodd" clip-rule="evenodd" d="M4.82314 6.81358C4.56023 7.07649 4.50999 7.48458 4.70128 7.80341L6.54445 10.8753L9.80283 9.80343L10.8747 6.54509L7.80277 4.70192C7.48395 4.51063 7.07585 4.56087 6.81294 4.82377L4.82314 6.81358ZM4.11176 8.15712C3.75816 7.56779 3.85102 6.81342 4.337 6.32744L6.32681 4.33764C6.81279 3.85166 7.56715 3.75879 8.15648 4.11239L11.6994 6.23816L10.3474 10.348L6.23753 11.7001L4.11176 8.15712ZM7.3326 4.96387L10.3151 6.75336L9.43329 9.43389L6.75272 10.3157L4.96323 7.33324L7.3326 4.96387ZM5.82893 7.43981L7.05965 9.491L8.88869 8.8893L9.49037 7.06029L7.43918 5.82957L5.82893 7.43981ZM23.6511 23.6517L27.7608 22.2995L29.8866 25.8425C30.2402 26.4318 30.1473 27.1862 29.6613 27.6722L27.6715 29.662C27.1856 30.148 26.4312 30.2408 25.8419 29.8872L22.2989 27.7614L23.6511 23.6517ZM23.1236 27.4545L26.1956 29.2977C26.5144 29.489 26.9225 29.4387 27.1854 29.1758L29.1752 27.186C29.4381 26.9231 29.4884 26.515 29.2971 26.1962L27.4539 23.1243L24.1957 24.1963L23.1236 27.4545ZM24.5652 24.5658L27.2456 23.6839L29.0351 26.6664L26.6657 29.0357L23.6833 27.2463L24.5652 24.5658ZM24.508 26.9394L26.5592 28.17L28.1694 26.5598L26.9387 24.5087L25.1098 25.1104L24.508 26.9394Z" fill="#F07EFF"/>
<path id="Union (Stroke)_3" fill-rule="evenodd" clip-rule="evenodd" d="M26.614 5.39672L28.6038 7.38653L27.0937 9.90335L24.839 9.16159L24.0972 6.90681L26.614 5.39672ZM22.7128 6.39163L26.0202 4.40716C26.4743 4.13471 27.0555 4.20626 27.43 4.58071L29.4198 6.57051C29.7942 6.94496 29.8658 7.52619 29.5933 7.98027L27.6089 11.2877L23.9249 10.0757L22.7128 6.39163ZM7.3874 28.6029L5.39759 26.6131L6.90768 24.0963L9.16247 24.8381L9.90423 27.0928L7.3874 28.6029ZM11.2886 27.608L10.0766 23.924L6.3925 22.7119L4.40803 26.0194C4.13559 26.4734 4.20714 27.0547 4.58158 27.4291L6.57139 29.4189C6.94583 29.7934 7.52706 29.8649 7.98114 29.5925L11.2886 27.608Z" fill="#F07EFF"/>
<path id="Union (Stroke) (Stroke)_3" fill-rule="evenodd" clip-rule="evenodd" d="M29.1768 6.81358C29.4397 7.07649 29.4899 7.48458 29.2987 7.8034L27.4555 10.8753L24.1972 9.80343L23.1252 6.54508L26.1972 4.70192C26.516 4.51063 26.9241 4.56087 27.187 4.82377L29.1768 6.81358ZM29.8882 8.15712C30.2418 7.56779 30.1489 6.81342 29.6629 6.32744L27.6731 4.33764C27.1872 3.85166 26.4328 3.75879 25.8435 4.11239L22.3005 6.23817L23.6527 10.348L27.7624 11.7001L29.8882 8.15712ZM29.0367 7.33324L26.6673 4.96387L23.6849 6.75335L24.5668 9.43389L27.2472 10.3157L29.0367 7.33324ZM28.171 7.43981L26.9403 9.49099L25.1114 8.8893L24.5096 7.06027L26.5608 5.82957L28.171 7.43981ZM10.349 23.6517L6.23912 22.2995L4.11335 25.8425C3.75975 26.4318 3.85262 27.1862 4.33859 27.6722L6.3284 29.662C6.81438 30.148 7.56874 30.2408 8.15808 29.8872L11.701 27.7614L10.349 23.6517ZM9.80439 24.1963L10.8763 27.4545L7.80436 29.2977C7.48554 29.489 7.07744 29.4387 6.81454 29.1758L4.82473 27.186C4.56183 26.9231 4.51159 26.515 4.70288 26.1962L6.54604 23.1243L9.80439 24.1963ZM9.43485 24.5658L6.75431 23.6839L4.96483 26.6664L7.3342 29.0357L10.3167 27.2463L9.43485 24.5658ZM8.89026 25.1104L9.49195 26.9393L7.44077 28.17L5.83053 26.5598L7.06123 24.5086L8.89026 25.1104Z" fill="#F07EFF"/>
<path id="Union (Stroke)_4" fill-rule="evenodd" clip-rule="evenodd" d="M1.99771 15.593L1.99771 18.407L4.7029 19.0833L5.39734 17L4.7029 14.9167L1.99771 15.593ZM5.45976 13.5379L1.71782 14.4734C1.20409 14.6018 0.843689 15.0634 0.843689 15.593L0.843689 18.407C0.843689 18.9365 1.20409 19.3981 1.71782 19.5265L5.45976 20.462L6.61378 17L5.45976 13.5379ZM29.297 14.9167L28.6026 17L29.297 19.0833L32.0022 18.407V15.593L29.297 14.9167ZM28.5401 20.462L27.3861 17L28.5401 13.5379L32.2821 14.4734C32.7958 14.6018 33.1562 15.0634 33.1562 15.593V18.407C33.1562 18.9365 32.7958 19.3981 32.2821 19.5265L28.5401 20.462Z" fill="#F07EFF"/>
<path id="Union (Stroke) (Stroke)_4" fill-rule="evenodd" clip-rule="evenodd" d="M1.18744 18.407C1.18744 18.7788 1.44048 19.1029 1.80119 19.1931L5.23431 20.0514L6.25144 17L5.23431 13.9486L1.80119 14.8069C1.44048 14.8971 1.18744 15.2212 1.18744 15.593L1.18744 18.407ZM1.63445 19.8601C0.967689 19.6934 0.499939 19.0943 0.499939 18.407L0.499939 15.593C0.499939 14.9057 0.967689 14.3066 1.63444 14.1399L5.68521 13.1273L6.97612 17L5.68521 20.8727L1.63445 19.8601ZM2.34146 18.1386L4.47746 18.6726L5.03499 17L4.47745 15.3274L2.34146 15.8614L2.34146 18.1386ZM1.65396 15.3246L4.92835 14.506L5.75968 17L4.92835 19.494L1.65396 18.6754L1.65396 15.3246ZM27.0238 17L28.3147 13.1272L32.3654 14.1399C33.0322 14.3066 33.5 14.9057 33.5 15.593V18.407C33.5 19.0943 33.0322 19.6934 32.3654 19.86L28.3147 20.8727L27.0238 17ZM28.7656 20.0514L32.1987 19.1931C32.5594 19.1029 32.8125 18.7788 32.8125 18.407V15.593C32.8125 15.2212 32.5594 14.8971 32.1987 14.8069L28.7656 13.9486L27.7485 17L28.7656 20.0514ZM28.2402 17L29.0715 14.506L32.3459 15.3246V18.6754L29.0715 19.494L28.2402 17ZM29.5224 18.6726L31.6584 18.1386V15.8614L29.5224 15.3274L28.9649 17L29.5224 18.6726Z" fill="#F07EFF"/>
<path id="Subtract" fill-rule="evenodd" clip-rule="evenodd" d="M17 29.6942C24.0108 29.6942 29.6942 24.0108 29.6942 17C29.6942 9.98914 24.0108 4.30576 17 4.30576C9.98917 4.30576 4.30579 9.98914 4.30579 17C4.30579 24.0108 9.98917 29.6942 17 29.6942ZM17 25.0781C21.4614 25.0781 25.0781 21.4614 25.0781 17C25.0781 12.5385 21.4614 8.92184 17 8.92184C12.5385 8.92184 8.92184 12.5385 8.92184 17C8.92184 21.4614 12.5385 25.0781 17 25.0781Z" fill="url(#paint0_linear_2881_9958)"/>
<ellipse id="Ellipse 41" cx="16.9999" cy="17" rx="8.82616" ry="8.82616" fill="white"/>
<g id="Group 59">
<rect id="Rectangle 3196" x="11.3749" y="14.5" width="1.25" height="1.25" fill="#1B1B22"/>
<rect id="Rectangle 3227" x="10.1249" y="14.5" width="1.25" height="1.25" fill="#1B1B22"/>
<rect id="Rectangle 3204" x="10.1249" y="15.75" width="1.25" height="1.25" fill="#1B1B22"/>
<rect id="Rectangle 3205" x="10.1249" y="17" width="1.25" height="1.25" fill="#1B1B22"/>
<rect id="Rectangle 3208" x="11.3749" y="17" width="1.25" height="1.25" fill="#1B1B22"/>
<rect id="Rectangle 3209" x="12.6249" y="17" width="1.25" height="1.25" fill="#1B1B22"/>
<rect id="Rectangle 3206" x="10.1249" y="18.25" width="1.25" height="1.25" fill="#1B1B22"/>
<rect id="Rectangle 3197" x="12.6249" y="14.5" width="1.25" height="1.25" fill="#1B1B22"/>
<rect id="Rectangle 3226" x="13.8749" y="14.5" width="1.25" height="1.25" fill="#1B1B22"/>
<rect id="Rectangle 3210" x="16.3749" y="14.5" width="1.25" height="1.25" fill="#1B1B22"/>
<rect id="Rectangle 3211" x="17.6249" y="14.5" width="1.25" height="1.25" fill="#1B1B22"/>
<rect id="Rectangle 3212" x="18.8749" y="14.5" width="1.25" height="1.25" fill="#1B1B22"/>
<rect id="Rectangle 3228" x="20.1249" y="14.5" width="1.25" height="1.25" fill="#1B1B22"/>
<rect id="Rectangle 3214" x="20.1249" y="15.75" width="1.25" height="1.25" fill="#1B1B22"/>
<rect id="Rectangle 3222" x="22.6249" y="15.75" width="1.25" height="1.25" fill="#1B1B22"/>
<rect id="Rectangle 3224" x="22.6249" y="17" width="1.25" height="1.25" fill="#1B1B22"/>
<rect id="Rectangle 3225" x="22.6249" y="18.25" width="1.25" height="1.25" fill="#1B1B22"/>
<rect id="Rectangle 3223" x="22.6249" y="14.5" width="1.25" height="1.25" fill="#1B1B22"/>
<rect id="Rectangle 3215" x="20.1249" y="17" width="1.25" height="1.25" fill="#1B1B22"/>
<rect id="Rectangle 3216" x="18.8749" y="17" width="1.25" height="1.25" fill="#1B1B22"/>
<rect id="Rectangle 3217" x="17.6249" y="17" width="1.25" height="1.25" fill="#1B1B22"/>
<rect id="Rectangle 3218" x="16.3749" y="18.25" width="1.25" height="1.25" fill="#1B1B22"/>
<rect id="Rectangle 3219" x="16.3749" y="17" width="1.25" height="1.25" fill="#1B1B22"/>
<rect id="Rectangle 3220" x="16.3749" y="15.75" width="1.25" height="1.25" fill="#1B1B22"/>
<rect id="Rectangle 3199" x="13.8749" y="15.75" width="1.25" height="1.25" fill="#1B1B22"/>
<rect id="Rectangle 3200" x="13.8749" y="17" width="1.25" height="1.25" fill="#1B1B22"/>
<rect id="Rectangle 3201" x="13.8749" y="18.25" width="1.25" height="1.25" fill="#1B1B22"/>
</g>
</g>
</g>
<defs>
<linearGradient id="paint0_linear_2881_9958" x1="2.22031" y1="18.8512" x2="31.525" y2="4.408" gradientUnits="userSpaceOnUse">
<stop stop-color="#492EF3"/>
<stop offset="1" stop-color="#CF69FF"/>
</linearGradient>
</defs>
</svg>
