<svg width="37" height="36" viewBox="0 0 37 36" fill="none" xmlns="http://www.w3.org/2000/svg">
<g clip-path="url(#clip0_3764_26685)">
<path fill-rule="evenodd" clip-rule="evenodd" d="M3.5 5.62127C3.5 4.58692 3.5 4.06975 3.70057 3.65348C3.87731 3.28664 4.16158 2.97572 4.51948 2.75777C4.92562 2.51044 5.46557 2.43703 6.54547 2.29021L21.9469 0.196199C23.3449 0.00612588 24.0439 -0.0889106 24.587 0.111751C25.0639 0.2879 25.4618 0.61494 25.7134 1.03745C26 1.51875 26 2.18825 26 3.52724V3.52727V32.4727C26 33.8117 26 34.4812 25.7134 34.9626C25.4618 35.3851 25.0639 35.7121 24.587 35.8882C24.0439 36.0889 23.3449 35.9939 21.9469 35.8038L6.54547 33.7098C5.46557 33.563 4.92562 33.4896 4.51948 33.2422C4.16158 33.0243 3.87731 32.7134 3.70057 32.3465C3.5 31.9302 3.5 31.4131 3.5 30.3787V5.62127ZM19.9992 15.3809C19.9992 15.0659 19.9992 14.9084 20.0521 14.784C20.0987 14.6743 20.1734 14.5827 20.2667 14.5209C20.3727 14.4506 20.5128 14.4364 20.7929 14.4078L22.0475 14.2801C22.3776 14.2465 22.5426 14.2298 22.6701 14.2914C22.782 14.3455 22.8746 14.4401 22.9329 14.5601C22.9992 14.6966 22.9992 14.8821 22.9992 15.2532V20.7468C22.9992 21.1179 22.9992 21.3035 22.9329 21.44C22.8746 21.5599 22.782 21.6545 22.6701 21.7087C22.5426 21.7703 22.3776 21.7535 22.0475 21.7199L20.7929 21.5922C20.5128 21.5637 20.3727 21.5494 20.2667 21.4792C20.1734 21.4173 20.0987 21.3257 20.0521 21.2161C19.9992 21.0916 19.9992 20.9341 19.9992 20.6191V15.3809ZM30.2345 3.75002H28.2512V33H30.2345C31.3779 33 31.9497 33 32.3864 32.7769C32.7706 32.5806 33.0829 32.2673 33.2786 31.8821C33.5012 31.4441 33.5012 30.8707 33.5012 29.724V7.02602C33.5012 5.87932 33.5012 5.30596 33.2786 4.86798C33.0829 4.48272 32.7706 4.16949 32.3864 3.97319C31.9497 3.75002 31.3779 3.75002 30.2345 3.75002Z" fill="url(#paint0_linear_3764_26685)"/>
</g>
<defs>
<linearGradient id="paint0_linear_3764_26685" x1="-5.78608" y1="24.8965" x2="31.1678" y2="9.78924" gradientUnits="userSpaceOnUse">
<stop stop-color="#4B2EFB"/>
<stop offset="1" stop-color="#E65FFC"/>
</linearGradient>
<clipPath id="clip0_3764_26685">
<rect width="36" height="36" fill="white" transform="translate(0.5)"/>
</clipPath>
</defs>
</svg>
