<svg width="36" height="36" viewBox="0 0 36 36" fill="none" xmlns="http://www.w3.org/2000/svg">
<path fill-rule="evenodd" clip-rule="evenodd" d="M19.4069 2.99775L16.5929 2.99775L15.9166 5.70294L17.9999 6.39738L20.0832 5.70294L19.4069 2.99775ZM21.462 6.4598L20.5265 2.71786C20.398 2.20412 19.9364 1.84373 19.4069 1.84373H16.5929C16.0634 1.84373 15.6018 2.20412 15.4733 2.71786L14.5378 6.4598L17.9999 7.61382L21.462 6.4598ZM20.0832 30.297L17.9999 29.6026L15.9166 30.297L16.5929 33.0022H19.4069L20.0832 30.297ZM14.5378 29.5402L17.9999 28.3861L21.462 29.5402L20.5265 33.2821C20.398 33.7958 19.9364 34.1562 19.4069 34.1562H16.5929C16.0633 34.1562 15.6018 33.7958 15.4733 33.2821L14.5378 29.5402Z" fill="#F07EFF"/>
<path fill-rule="evenodd" clip-rule="evenodd" d="M16.5929 2.18748C16.2211 2.18748 15.897 2.44052 15.8069 2.80123L14.9486 6.23435L17.9999 7.25148L21.0513 6.23435L20.193 2.80123C20.1029 2.44052 19.7788 2.18748 19.407 2.18748H16.5929ZM15.1399 2.63448C15.3066 1.96773 15.9057 1.49998 16.5929 1.49998H19.407C20.0942 1.49998 20.6933 1.96773 20.86 2.63448L21.8727 6.68525L17.9999 7.97616L14.1272 6.68525L15.1399 2.63448ZM16.8613 3.3415L16.3273 5.4775L17.9999 6.03503L19.6726 5.4775L19.1386 3.3415L16.8613 3.3415ZM19.6753 2.654L20.4939 5.92839L17.9999 6.75972L15.5059 5.92839L16.3245 2.654L19.6753 2.654ZM17.9999 28.0238L21.8727 29.3147L20.86 33.3655C20.6933 34.0322 20.0942 34.5 19.4069 34.5H16.5929C15.9057 34.5 15.3066 34.0322 15.1399 33.3655L14.1272 29.3147L17.9999 28.0238ZM14.9486 29.7656L15.8069 33.1987C15.897 33.5594 16.2211 33.8125 16.5929 33.8125H19.4069C19.7788 33.8125 20.1028 33.5594 20.193 33.1987L21.0513 29.7656L17.9999 28.7485L14.9486 29.7656ZM17.9999 29.2402L20.4939 30.0716L19.6753 33.346H16.3245L15.5059 30.0716L17.9999 29.2402ZM16.3273 30.5225L16.8613 32.6585H19.1386L19.6726 30.5225L17.9999 29.9649L16.3273 30.5225Z" fill="#F07EFF"/>
<path fill-rule="evenodd" clip-rule="evenodd" d="M27.0187 30.5925C27.4728 30.8649 28.054 30.7934 28.4284 30.4189L30.4182 28.4291C30.7927 28.0547 30.8642 27.4734 30.5918 27.0194L28.6073 23.7119L24.9234 24.924L23.7112 28.608L27.0187 30.5925ZM25.0956 28.0928L25.8375 25.8381L28.0921 25.0963L29.6022 27.6131L27.6124 29.6029L25.0956 28.0928ZM8.38585 6.39672L6.39604 8.38653L7.90615 10.9034L10.161 10.1616L10.9027 7.90683L8.38585 6.39672ZM12.287 7.39163L8.97959 5.40716C8.52551 5.13471 7.94428 5.20627 7.56984 5.58071L5.58003 7.57051C5.20559 7.94496 5.13404 8.52619 5.40648 8.98027L7.39095 12.2877L11.0751 11.0757L12.287 7.39163Z" fill="#F07EFF"/>
<path fill-rule="evenodd" clip-rule="evenodd" d="M5.82314 7.81358C5.56023 8.07649 5.50999 8.48458 5.70128 8.80341L7.54445 11.8753L10.8028 10.8034L11.8747 7.54509L8.80277 5.70192C8.48395 5.51063 8.07585 5.56087 7.81294 5.82377L5.82314 7.81358ZM5.11176 9.15712C4.75816 8.56779 4.85102 7.81342 5.337 7.32744L7.32681 5.33764C7.81279 4.85166 8.56715 4.75879 9.15648 5.11239L12.6994 7.23816L11.3474 11.348L7.23753 12.7001L5.11176 9.15712ZM8.3326 5.96387L11.3151 7.75336L10.4333 10.4339L7.75272 11.3157L5.96323 8.33324L8.3326 5.96387ZM6.82893 8.43981L8.05965 10.491L9.88869 9.8893L10.4904 8.06029L8.43918 6.82957L6.82893 8.43981ZM24.6511 24.6517L28.7608 23.2995L30.8866 26.8425C31.2402 27.4318 31.1473 28.1862 30.6613 28.6722L28.6715 30.662C28.1856 31.148 27.4312 31.2408 26.8419 30.8872L23.2989 28.7614L24.6511 24.6517ZM24.1236 28.4545L27.1956 30.2977C27.5144 30.489 27.9225 30.4387 28.1854 30.1758L30.1752 28.186C30.4381 27.9231 30.4884 27.515 30.2971 27.1962L28.4539 24.1243L25.1957 25.1963L24.1236 28.4545ZM25.5652 25.5658L28.2456 24.6839L30.0351 27.6664L27.6657 30.0357L24.6833 28.2463L25.5652 25.5658ZM25.508 27.9394L27.5592 29.17L29.1694 27.5598L27.9387 25.5087L26.1098 26.1104L25.508 27.9394Z" fill="#F07EFF"/>
<path fill-rule="evenodd" clip-rule="evenodd" d="M27.614 6.39672L29.6038 8.38653L28.0937 10.9034L25.839 10.1616L25.0972 7.90681L27.614 6.39672ZM23.7128 7.39163L27.0202 5.40716C27.4743 5.13471 28.0555 5.20626 28.43 5.58071L30.4198 7.57051C30.7942 7.94496 30.8658 8.52619 30.5933 8.98027L28.6089 12.2877L24.9249 11.0757L23.7128 7.39163ZM8.3874 29.6029L6.39759 27.6131L7.90768 25.0963L10.1625 25.8381L10.9042 28.0928L8.3874 29.6029ZM12.2886 28.608L11.0766 24.924L7.3925 23.7119L5.40803 27.0194C5.13559 27.4734 5.20714 28.0547 5.58158 28.4291L7.57139 30.4189C7.94583 30.7934 8.52706 30.8649 8.98114 30.5925L12.2886 28.608Z" fill="#F07EFF"/>
<path fill-rule="evenodd" clip-rule="evenodd" d="M30.1768 7.81358C30.4397 8.07649 30.4899 8.48458 30.2987 8.8034L28.4555 11.8753L25.1972 10.8034L24.1252 7.54508L27.1972 5.70192C27.516 5.51063 27.9241 5.56087 28.187 5.82377L30.1768 7.81358ZM30.8882 9.15712C31.2418 8.56779 31.1489 7.81342 30.6629 7.32744L28.6731 5.33764C28.1872 4.85166 27.4328 4.75879 26.8435 5.11239L23.3005 7.23817L24.6527 11.348L28.7624 12.7001L30.8882 9.15712ZM30.0367 8.33324L27.6673 5.96387L24.6849 7.75335L25.5668 10.4339L28.2472 11.3157L30.0367 8.33324ZM29.171 8.43981L27.9403 10.491L26.1114 9.8893L25.5096 8.06027L27.5608 6.82957L29.171 8.43981ZM11.349 24.6517L7.23912 23.2995L5.11335 26.8425C4.75975 27.4318 4.85262 28.1862 5.33859 28.6722L7.3284 30.662C7.81438 31.148 8.56874 31.2408 9.15808 30.8872L12.701 28.7614L11.349 24.6517ZM10.8044 25.1963L11.8763 28.4545L8.80436 30.2977C8.48554 30.489 8.07744 30.4387 7.81454 30.1758L5.82473 28.186C5.56183 27.9231 5.51159 27.515 5.70288 27.1962L7.54604 24.1243L10.8044 25.1963ZM10.4348 25.5658L7.75431 24.6839L5.96483 27.6664L8.3342 30.0357L11.3167 28.2463L10.4348 25.5658ZM9.89026 26.1104L10.4919 27.9393L8.44077 29.17L6.83053 27.5598L8.06123 25.5086L9.89026 26.1104Z" fill="#F07EFF"/>
<path fill-rule="evenodd" clip-rule="evenodd" d="M2.99771 16.593L2.99771 19.407L5.7029 20.0833L6.39734 18L5.7029 15.9167L2.99771 16.593ZM6.45976 14.5379L2.71782 15.4734C2.20409 15.6018 1.84369 16.0634 1.84369 16.593V19.407C1.84369 19.9365 2.20409 20.3981 2.71782 20.5265L6.45976 21.462L7.61378 18L6.45976 14.5379ZM30.297 15.9167L29.6026 18L30.297 20.0833L33.0022 19.407V16.593L30.297 15.9167ZM29.5401 21.462L28.3861 18L29.5401 14.5379L33.2821 15.4734C33.7958 15.6018 34.1562 16.0634 34.1562 16.593V19.407C34.1562 19.9365 33.7958 20.3981 33.2821 20.5265L29.5401 21.462Z" fill="#F07EFF"/>
<path fill-rule="evenodd" clip-rule="evenodd" d="M2.18744 19.407C2.18744 19.7788 2.44048 20.1029 2.80119 20.1931L6.23431 21.0514L7.25144 18L6.23431 14.9486L2.80119 15.8069C2.44048 15.8971 2.18744 16.2212 2.18744 16.593L2.18744 19.407ZM2.63445 20.8601C1.96769 20.6934 1.49994 20.0943 1.49994 19.407V16.593C1.49994 15.9057 1.96769 15.3066 2.63444 15.1399L6.68521 14.1273L7.97612 18L6.68521 21.8727L2.63445 20.8601ZM3.34146 19.1386L5.47746 19.6726L6.03499 18L5.47745 16.3274L3.34146 16.8614L3.34146 19.1386ZM2.65396 16.3246L5.92835 15.506L6.75968 18L5.92835 20.494L2.65396 19.6754L2.65396 16.3246ZM28.0238 18L29.3147 14.1272L33.3654 15.1399C34.0322 15.3066 34.5 15.9057 34.5 16.593V19.407C34.5 20.0943 34.0322 20.6934 33.3654 20.86L29.3147 21.8727L28.0238 18ZM29.7656 21.0514L33.1987 20.1931C33.5594 20.1029 33.8125 19.7788 33.8125 19.407V16.593C33.8125 16.2212 33.5594 15.8971 33.1987 15.8069L29.7656 14.9486L28.7485 18L29.7656 21.0514ZM29.2402 18L30.0715 15.506L33.3459 16.3246V19.6754L30.0715 20.494L29.2402 18ZM30.5224 19.6726L32.6584 19.1386V16.8614L30.5224 16.3274L29.9649 18L30.5224 19.6726Z" fill="#F07EFF"/>
<path fill-rule="evenodd" clip-rule="evenodd" d="M18 30.6942C25.0108 30.6942 30.6942 25.0108 30.6942 18C30.6942 10.9891 25.0108 5.30576 18 5.30576C10.9892 5.30576 5.30579 10.9891 5.30579 18C5.30579 25.0108 10.9892 30.6942 18 30.6942ZM18 26.0781C22.4614 26.0781 26.0781 22.4614 26.0781 18C26.0781 13.5385 22.4614 9.92184 18 9.92184C13.5385 9.92184 9.92184 13.5385 9.92184 18C9.92184 22.4614 13.5385 26.0781 18 26.0781Z" fill="url(#paint0_linear_2782_13902)"/>
<ellipse cx="17.9999" cy="18" rx="8.82616" ry="8.82616" fill="white"/>
<rect x="12.3749" y="15.5" width="1.25" height="1.25" fill="#1B1B22"/>
<rect x="11.1249" y="15.5" width="1.25" height="1.25" fill="#1B1B22"/>
<rect x="11.1249" y="16.75" width="1.25" height="1.25" fill="#1B1B22"/>
<rect x="11.1249" y="18" width="1.25" height="1.25" fill="#1B1B22"/>
<rect x="12.3749" y="18" width="1.25" height="1.25" fill="#1B1B22"/>
<rect x="13.6249" y="18" width="1.25" height="1.25" fill="#1B1B22"/>
<rect x="11.1249" y="19.25" width="1.25" height="1.25" fill="#1B1B22"/>
<rect x="13.6249" y="15.5" width="1.25" height="1.25" fill="#1B1B22"/>
<rect x="14.8749" y="15.5" width="1.25" height="1.25" fill="#1B1B22"/>
<rect x="17.3749" y="15.5" width="1.25" height="1.25" fill="#1B1B22"/>
<rect x="18.6249" y="15.5" width="1.25" height="1.25" fill="#1B1B22"/>
<rect x="19.8749" y="15.5" width="1.25" height="1.25" fill="#1B1B22"/>
<rect x="21.1249" y="15.5" width="1.25" height="1.25" fill="#1B1B22"/>
<rect x="21.1249" y="16.75" width="1.25" height="1.25" fill="#1B1B22"/>
<rect x="23.6249" y="16.75" width="1.25" height="1.25" fill="#1B1B22"/>
<rect x="23.6249" y="18" width="1.25" height="1.25" fill="#1B1B22"/>
<rect x="23.6249" y="19.25" width="1.25" height="1.25" fill="#1B1B22"/>
<rect x="23.6249" y="15.5" width="1.25" height="1.25" fill="#1B1B22"/>
<rect x="21.1249" y="18" width="1.25" height="1.25" fill="#1B1B22"/>
<rect x="19.8749" y="18" width="1.25" height="1.25" fill="#1B1B22"/>
<rect x="18.6249" y="18" width="1.25" height="1.25" fill="#1B1B22"/>
<rect x="17.3749" y="19.25" width="1.25" height="1.25" fill="#1B1B22"/>
<rect x="17.3749" y="18" width="1.25" height="1.25" fill="#1B1B22"/>
<rect x="17.3749" y="16.75" width="1.25" height="1.25" fill="#1B1B22"/>
<rect x="14.8749" y="16.75" width="1.25" height="1.25" fill="#1B1B22"/>
<rect x="14.8749" y="18" width="1.25" height="1.25" fill="#1B1B22"/>
<rect x="14.8749" y="19.25" width="1.25" height="1.25" fill="#1B1B22"/>
<defs>
<linearGradient id="paint0_linear_2782_13902" x1="3.22031" y1="19.8512" x2="32.525" y2="5.408" gradientUnits="userSpaceOnUse">
<stop stop-color="#492EF3"/>
<stop offset="1" stop-color="#CF69FF"/>
</linearGradient>
</defs>
</svg>
