<svg width="20" height="21" viewBox="0 0 20 21" fill="none" xmlns="http://www.w3.org/2000/svg">
<g clip-path="url(#clip0_3002_4754)">
<path d="M20 11.8336L19.5 7.33362L18.05 8.28362C16.7 7.43362 15 6.83362 13.1 6.53362C13.1 6.53362 12.15 6.33362 10.9 6.33362C9.65 6.33362 8.5 6.48362 8.5 6.48362C3.65 7.08362 0 9.83362 0 13.1336C0 16.5336 3.75 19.3336 9.5 19.8336V17.8836C5.55 17.3336 3.05 15.4836 3.05 13.1336C3.05 10.9336 5.35 9.08362 8.5 8.48362C8.5 8.48362 10.95 7.93362 13.1 8.58362C14.15 8.83362 15.1 9.18362 15.9 9.68362L14 10.8336L20 11.8336Z" fill="#9E9E9E"/>
<path d="M9.5 2.3335V19.8335L12.5 18.3335V0.833496L9.5 2.3335Z" fill="#FF9800"/>
</g>
<defs>
<clipPath id="clip0_3002_4754">
<rect width="20" height="20" fill="white" transform="translate(0 0.333374)"/>
</clipPath>
</defs>
</svg>
