<svg width="37" height="36" viewBox="0 0 37 36" fill="none" xmlns="http://www.w3.org/2000/svg">
<g clip-path="url(#clip0_3781_28127)">
<path d="M0.667203 15.4042C0.581443 16.0053 0.52564 16.6103 0.5 17.2169H27.8445C27.749 17.0303 27.6207 16.8622 27.4914 16.6976C22.8166 10.658 20.302 11.1817 16.7047 11.0283C15.5054 10.9789 14.6921 10.9591 9.91829 10.9591C7.36324 10.9591 4.58551 10.9656 1.88059 10.9728C1.53043 11.918 1.19272 12.8341 1.02829 13.5793H15.0406V15.4042H0.667203ZM28.06 19.0436H0.514027C0.542855 19.5306 0.588277 20.011 0.653879 20.485H26.0856C27.2193 20.485 27.8539 19.8418 28.06 19.0436ZM2.08263 25.4635C2.08263 25.4635 6.29871 35.8158 18.481 35.9996C25.7623 35.9996 32.0187 31.6752 34.8606 25.4635H2.08263Z" fill="#100F13"/>
<path d="M18.4819 0C11.7495 0 5.89097 3.69703 2.79719 9.16214C5.21492 9.15708 9.9235 9.15419 9.9235 9.15419H9.92459V9.1524C15.4901 9.1524 15.697 9.17726 16.7842 9.22264L17.4574 9.24747C19.8023 9.32565 22.6845 9.57737 24.9524 11.2932C26.1834 12.2238 27.9607 14.2778 29.0202 15.7412C29.9997 17.0947 30.2815 18.6506 29.6155 20.1413C29.0025 21.5113 27.6836 22.3285 26.0864 22.3285H1.08789C1.08789 22.3285 1.23671 22.9594 1.45984 23.6557H35.5836C36.1896 21.8342 36.4994 19.9273 36.5011 18.0077C36.5015 8.06326 28.4339 0 18.4819 0Z" fill="#100F13"/>
</g>
<defs>
<clipPath id="clip0_3781_28127">
<rect width="36" height="36" fill="white" transform="translate(0.5)"/>
</clipPath>
</defs>
</svg>
