<svg width="37" height="36" viewBox="0 0 37 36" fill="none" xmlns="http://www.w3.org/2000/svg">
<g clip-path="url(#clip0_3764_26692)">
<path d="M26.0701 3.03884V4.04819C26.0785 4.24165 26.1122 4.38464 26.1542 4.55286C26.363 5.28234 26.7053 5.9668 27.1636 6.57155C27.3318 6.76501 27.643 6.908 27.7523 7.16034C28.0888 7.44632 28.5598 7.7323 28.9299 7.91735C29.0729 7.96782 29.4093 8.00987 29.5187 8.08557C29.6785 8.19492 29.7626 8.27903 29.5187 8.42202V8.50613C29.4682 8.65753 29.3589 8.80053 29.2664 8.92669C29.0981 9.15099 28.9019 9.34725 28.6776 9.51548C28.3159 9.78464 27.8785 10.0874 27.4159 10.1043H27.3318C27.2196 10.194 27.0794 10.2501 26.9112 10.2725H26.5748C26.1374 10.3314 25.4897 10.4575 25.0607 10.2725H24.5561C24.4215 10.2725 24.3037 10.2052 24.2196 10.1884H23.9673C23.79 10.1644 23.6188 10.1073 23.4626 10.0202H23.3785C23.1682 10.0117 23.0421 9.91922 22.8738 9.85193L22.5374 9.76782C21.8308 9.59959 20.8299 9.21268 20.2664 8.75847H20.1822C19.7953 8.67436 19.3832 8.39679 19.0299 8.22856C18.6766 8.06034 18.1467 7.97623 17.9112 7.66501H17.8271C17.4907 7.5809 17.0785 7.37062 16.8178 7.16034H16.7336C16.1617 7.02576 15.5897 6.65567 15.0514 6.40333C14.5047 6.16782 13.8234 5.92389 13.3692 5.56221H13.285C12.6963 5.46127 11.9897 5.22576 11.4346 5.05753H3.2757C2.82991 5.41922 2.12336 5.41922 1.7028 5.92389C1.28224 6.42856 0.903738 6.82389 0.668224 7.41268C0.634579 7.53884 0.600935 7.60613 0.584112 7.74912C0.56729 7.8837 0.516822 8.08557 0.5 8.16968V12.4594C0.516822 12.5603 0.56729 12.7286 0.584112 12.88C0.600935 13.0482 0.626168 13.1491 0.668224 13.3005C0.807523 13.6507 0.976356 13.9883 1.1729 14.3099C1.24019 14.3687 1.29065 14.4949 1.34112 14.5622C1.49252 14.7304 1.75327 14.8482 1.84579 15.0669C2.64486 15.765 3.82243 15.9332 4.6215 16.5809H4.70561C5.13458 16.6818 5.71495 16.9846 6.0514 17.2538H6.13551C6.47196 17.3379 6.88411 17.5482 7.14486 17.7585H7.22897C7.48692 17.8258 7.71122 17.9379 7.90187 18.0949H7.98598C8.15421 18.1033 8.20467 18.2043 8.32243 18.2631C8.45701 18.3304 8.54953 18.322 8.65888 18.4314H8.74299C8.88318 18.4482 8.99533 18.5043 9.07944 18.5996H9.16355C9.41589 18.6585 9.7271 18.7678 9.92056 18.936H10.0047C10.4 19.0033 11.1318 19.1968 11.4346 19.4407H11.5187C11.729 19.4491 11.8551 19.5501 12.0234 19.6089C12.1748 19.6426 12.2757 19.6762 12.4439 19.693C12.6122 19.7155 12.7523 19.7435 12.8645 19.7772C12.9991 19.7603 13.0327 19.7772 13.1168 19.8613H13.2009C13.3411 19.8332 13.4533 19.8613 13.5374 19.9454H13.6215C13.7617 19.9173 13.8738 19.9454 13.9579 20.0295H14.0421C14.2271 20.0127 14.4206 20.0043 14.5467 20.1136H14.6308C14.8551 20.0912 15.0514 20.1192 15.2196 20.1977H19.0047C19.1056 20.1809 19.2654 20.1136 19.4252 20.1136H19.9299C20.0561 20.0631 20.1738 20.0043 20.3505 20.0295H20.4346C20.5187 19.951 20.6308 19.923 20.771 19.9454H20.8551C20.9393 19.8669 21.0514 19.8388 21.1916 19.8613H21.2757C21.4776 19.7519 21.6963 19.7267 21.9486 19.693L22.3692 19.6089C22.5374 19.5501 22.672 19.4744 22.8738 19.4407C23.2103 19.3818 23.4794 19.2977 23.7991 19.1884C23.9925 19.1043 24.1523 18.9781 24.3879 18.936H24.472C24.5561 18.8407 24.6682 18.7846 24.8084 18.7678H24.8925C25.0523 18.6416 25.2206 18.5996 25.3972 18.5155C25.5598 18.4258 25.728 18.3416 25.9019 18.2631C26.2189 18.1427 26.5279 18.0023 26.8271 17.8426C27.1972 17.6071 27.5757 17.3379 28.0047 17.1697C28.0047 17.1697 28.0551 17.1865 28.0888 17.1697C28.2402 16.9342 28.6776 16.7659 28.9299 16.665C28.9299 16.665 28.9804 16.6818 29.014 16.665C29.1402 16.4631 29.4598 16.3286 29.6869 16.2445C29.6869 16.2445 29.7374 16.2613 29.771 16.2445C29.8972 16.0426 30.2168 15.908 30.4439 15.8239C30.4439 15.8239 30.4944 15.8407 30.528 15.8239C30.6374 15.6557 30.8477 15.5631 31.0327 15.4874C31.0327 15.4874 31.0832 15.5043 31.1168 15.4874C31.285 15.2351 31.7645 15.0164 32.0421 14.8987L32.4626 14.7304C32.9925 14.4108 33.4551 13.923 33.9766 13.5529V13.4688C33.9766 13.3089 33.943 13.1155 33.9766 12.9641C33.8925 12.5856 33.6486 12.5015 33.3879 12.2912H33.3037C33.2028 12.2912 33.0682 12.2744 32.9673 12.2912C32.2187 12.4342 31.5794 13.2416 30.8477 13.536C30.1075 13.822 29.4262 14.436 28.6776 14.7304H28.5935C27.6766 15.622 26.1374 16.0762 25.0019 16.6902C23.8664 17.3043 22.1757 18.0613 20.8551 18.0949H20.771C20.6869 18.1734 20.5748 18.2015 20.4346 18.179H20.3505C20.2664 18.2575 20.1542 18.2856 20.014 18.2631H19.9299C19.8037 18.3725 19.6019 18.3641 19.4252 18.3473H19.3411C19.1981 18.4566 18.9542 18.4482 18.7523 18.4314C18.6682 18.4482 18.5505 18.5155 18.4159 18.5155H17.9953C17.4402 18.5155 16.8682 18.5491 16.3131 18.5155C16.1533 18.5071 16.086 18.5407 15.9766 18.4314H15.3037C15.0682 18.4145 14.8243 18.322 14.6308 18.2631H14.4626C14.143 18.2856 13.8626 18.2295 13.6215 18.0949H13.5374C13.285 18.0949 13.0607 18.0388 12.8645 17.9267H12.7804C12.5984 17.9267 12.4213 17.8677 12.2757 17.7585H12.1916C11.6953 17.7416 11.1822 17.4388 10.7617 17.2538L10.4252 17.1697C10.2822 17.1276 10.1897 17.1108 10.0888 17.0015H10.0047C9.86449 16.9902 9.75234 16.9342 9.66822 16.8332H9.58411C9.39346 16.7828 9.22523 16.6987 9.07944 16.5809H8.99533C8.70093 16.5136 8.38131 16.337 8.15421 16.1603H8.07009C7.9271 16.1603 7.88505 16.1015 7.81776 15.9921H7.73364C6.75794 15.765 5.78224 15.0248 4.85701 14.6631C3.93178 14.3099 2.6785 13.8893 2.35047 12.88H2.68692C4.04953 12.88 5.44579 12.7959 6.80841 12.88C6.9514 12.8884 7.06075 12.9473 7.14486 12.9641C7.3215 12.9977 7.43084 12.922 7.56542 13.0482H7.64953C7.95234 13.0566 8.35607 13.1996 8.57477 13.3846H8.65888C9.20705 13.4944 9.72411 13.7242 10.1729 14.0575H10.257C10.515 14.1248 10.7393 14.237 10.9299 14.394H11.014C11.3673 14.4781 11.7121 14.68 12.0234 14.8145C12.214 14.8818 12.4103 14.9379 12.6122 14.9828C13.0916 15.0921 13.7056 15.1762 14.1262 15.4033H14.2103C14.5215 15.3865 14.7991 15.4959 15.0514 15.5716H15.8084C15.943 15.5716 16.0607 15.6388 16.1449 15.6557H18.8364C19.0215 15.5211 19.3411 15.5716 19.5935 15.5716H19.6776C20.2694 15.35 20.8961 15.236 21.528 15.2351C21.7397 15.1371 21.968 15.08 22.2009 15.0669C22.3439 14.9491 22.5121 14.9323 22.7056 14.8987C23.048 14.8404 23.3854 14.756 23.715 14.6463C23.9084 14.5622 24.0682 14.436 24.3037 14.394H24.3879C24.472 14.2987 24.5841 14.2426 24.7243 14.2258H24.8084C24.9682 14.0996 25.1112 14.0407 25.3131 13.9734L25.5654 13.8893C25.9103 13.6959 26.272 13.4519 26.6589 13.3005C26.6589 13.3005 26.7093 13.3173 26.743 13.3005C26.8692 13.0987 27.2729 12.88 27.5 12.7959C27.5 12.7959 27.5505 12.8127 27.5841 12.7959C28.0299 12.1145 29.0645 11.7445 29.6701 11.0968C30.2673 10.4407 30.6963 9.51548 31.285 8.92669V8.84258C31.3085 8.69146 31.3661 8.54765 31.4533 8.42202C31.6299 8.23697 32.2019 8.33791 32.4626 8.33791C32.5748 8.34912 32.6869 8.34912 32.7991 8.33791C32.8832 8.32109 32.9925 8.23697 33.1355 8.2538H33.2196C33.3374 8.16968 33.4776 8.11361 33.6402 8.08557H33.7243C33.8421 7.97903 33.9822 7.89492 34.1449 7.83324C34.1449 7.83324 34.1953 7.85006 34.229 7.83324C34.986 7.05099 35.743 6.53791 36.1636 5.4781C36.2561 5.24258 36.4579 4.93978 36.5 4.72109C36.5168 4.63697 36.5168 4.46875 36.5 4.38464C36.3738 3.87996 35.4654 4.18277 35.1794 4.5781C34.8935 4.97342 34.0355 5.05753 33.5561 5.05753H32.9673C32.3112 5.41922 31.3439 5.53697 31.0327 6.40333C30.8986 5.94801 30.6622 5.5294 30.3414 5.17951C30.0207 4.82962 29.6242 4.55773 29.1822 4.38464C29.0561 4.34258 28.972 4.32576 28.8458 4.30053C28.6692 4.25847 28.543 4.2837 28.4252 4.1323H28.3411C27.9386 4.02779 27.5831 3.79074 27.3318 3.4594C27.1636 3.21548 27.0458 2.91268 26.8271 2.70239H26.743C26.415 2.65193 26.2299 2.78651 26.0701 3.03884ZM10.8458 6.82389H10.9299C11.115 6.80707 11.3084 6.79866 11.4346 6.908H11.5187C11.6589 6.87996 11.771 6.908 11.8551 6.99211H11.9393C12.462 7.04896 12.9579 7.25315 13.3692 7.5809H13.4533C13.8234 7.66501 14.143 7.92576 14.4626 8.08557C14.6393 8.16968 14.8075 8.21174 14.9673 8.33791H15.0514C15.3879 8.42202 15.8 8.6323 16.0607 8.84258H16.1449C16.4813 8.92669 16.8935 9.13697 17.1542 9.34725H17.2383C17.5748 9.43137 17.9869 9.64165 18.2477 9.85193H18.3318C18.9691 10.0164 19.5687 10.302 20.0981 10.693H20.1822C20.4766 10.7603 20.7963 10.937 21.0234 11.1136H21.1075C21.6206 11.2314 22.1421 11.5342 22.6215 11.7024C22.7729 11.736 22.8738 11.7697 23.0421 11.7865C23.1935 11.8033 23.3533 11.8538 23.4626 11.8706C23.6028 11.8426 23.715 11.8706 23.7991 11.9547H24.3037C24.514 11.9547 24.6402 11.98 24.8084 12.0388H25.0607C25.0215 12.1566 24.9374 12.2127 24.8084 12.2071C24.4015 12.4875 23.9447 12.6873 23.4626 12.7959L22.6215 13.0482C22.4533 13.1155 22.3355 13.208 22.1168 13.2164H22.0327C21.814 13.393 21.4019 13.4688 21.1075 13.4688H21.0234C20.7626 13.679 20.1234 13.7631 19.7617 13.7211H19.6776C19.5514 13.8304 19.3495 13.822 19.1729 13.8052C19.0888 13.822 18.971 13.8893 18.8364 13.8893H17.9112C17.5916 13.923 17.2131 13.923 16.9019 13.8893H16.1449C15.9514 13.8893 15.7832 13.8304 15.6402 13.8052H15.3879C15.2364 13.8052 15.1439 13.7463 15.0514 13.7211C14.757 13.6538 14.4626 13.6622 14.2103 13.5529H14.1262C13.7813 13.494 13.3019 13.4351 13.0327 13.2164H12.9486C12.7243 13.1828 12.528 13.0987 12.3598 12.9641H12.2757C12.1355 12.9529 12.0234 12.8968 11.9393 12.7959H11.8551C11.6645 12.7454 11.4963 12.6613 11.3505 12.5435H11.2664C10.6607 12.4005 10.1477 12.0473 9.56729 11.8033C8.97851 11.5678 8.20467 11.4416 7.64953 11.1977H6.7243C5.54673 11.1977 4.29346 11.223 3.19159 11.1136C2.99813 11.1136 2.78785 11.1388 2.6028 11.1136C2.4972 11.0971 2.39957 11.0474 2.32399 10.9719C2.24841 10.8963 2.19877 10.7987 2.18224 10.693C2.03084 10.2893 2.1486 9.81828 2.18224 9.43137C2.18224 9.06968 2.1486 8.69959 2.18224 8.33791C2.19907 8.06875 2.36729 7.72389 2.51869 7.49679C2.63084 7.32856 2.77103 7.18838 2.93925 7.07623C3.11589 6.908 3.39346 6.88277 3.61215 6.82389C4.9243 6.49585 6.66542 6.73978 8.07009 6.73978C8.50748 6.73978 9.07944 6.69772 9.5 6.73978C9.92056 6.78183 10.5262 6.58838 10.8458 6.82389Z" fill="black"/>
<path d="M6.89299 9.43147V9.51558C7.04439 9.75951 7.27149 9.96138 7.56589 10.0203C7.59112 10.0034 7.8771 10.0034 7.90234 10.0203C8.49112 9.9025 8.67617 9.28007 8.49112 8.75857V8.67446C8.3321 8.507 8.12734 8.39 7.90234 8.33801C7.8771 8.35484 7.59112 8.35484 7.56589 8.33801C7.01916 8.44736 6.84252 8.90998 6.89299 9.43147Z" fill="black"/>
<path d="M32.3785 16.0762H32.2944C30.7635 17.3042 28.829 18.1453 27.2477 19.3566C25.6495 20.551 23.6561 21.821 21.6963 22.2164L21.3598 22.3005C21.1579 22.3846 21.0234 22.4687 20.771 22.4687H20.6869C20.4907 22.5809 20.2664 22.6369 20.014 22.6369H19.9299C19.8206 22.7379 19.6776 22.7295 19.5093 22.721H19.3411C19.1953 22.7827 19.0271 22.8108 18.8364 22.8052H18.6682C18.4159 22.9061 18.1215 22.8893 17.8271 22.8893C17.2972 22.9397 16.6664 22.9397 16.1449 22.8893C15.8589 22.8893 15.4383 22.965 15.2196 22.8052H15.1355C14.9505 22.822 14.757 22.8304 14.6308 22.721H14.5467C14.3785 22.7379 14.2355 22.7379 14.1262 22.6369H14.0421C13.4028 22.679 12.6542 22.351 12.1075 22.1323L11.771 22.0481C10.6939 21.7641 9.66688 21.3158 8.72617 20.7192C7.8514 20.164 6.77477 19.6425 5.99252 18.9949C5.21869 18.3472 3.99065 17.9182 3.44393 17.0855H3.35981C3.16635 16.9678 2.98131 16.8584 2.85514 16.665H2.77103C2.43458 16.4547 2.05607 16.2276 1.76168 15.9921H1.00467C0.875279 16.0356 0.760061 16.1133 0.671219 16.2169C0.582376 16.3206 0.523215 16.4463 0.5 16.5809C0.525234 16.8584 0.5 17.1444 0.5 17.422V18.179C0.516822 18.3136 0.584112 18.4986 0.584112 18.6837V18.936C0.600935 19.0201 0.685047 19.121 0.668224 19.2724V19.3566C0.769159 19.4575 0.735514 19.5416 0.752336 19.693C0.819626 20.2566 1.00467 20.7528 1.1729 21.2911C1.31589 21.6528 1.52617 22.0566 1.59346 22.4687V22.5528C1.69439 22.6369 1.75047 22.7491 1.76168 22.8893V22.9734C1.94482 23.2301 2.08671 23.5139 2.18224 23.8145C2.24112 23.9827 2.26636 24.0668 2.35047 24.2351C3.02336 25.3033 3.67103 26.3799 4.52056 27.3724C5.36168 28.3566 6.27009 29.1052 7.24579 29.9295C8.22991 30.7622 9.62617 31.107 10.5935 31.8893H10.6776C10.8178 31.9061 10.9299 31.9622 11.014 32.0575H11.0981C11.3336 32.0911 11.5019 32.2257 11.6869 32.3098L12.2757 32.4781C12.7551 32.5874 13.3692 32.6715 13.7897 32.8986H13.8738C14.0505 32.8734 14.1766 32.9659 14.2944 32.9827H14.5467C14.7822 32.9995 15.0346 33.0668 15.2196 33.151H15.8925C16.0692 33.151 16.2794 33.2182 16.3972 33.2351H18.1636C18.2645 33.2182 18.4327 33.151 18.5841 33.151H19.3411C19.6187 33.0668 19.9299 32.9491 20.2664 32.9827H20.3505C20.5776 32.7977 20.9729 32.7809 21.2757 32.7304C21.5039 32.6912 21.7288 32.635 21.9486 32.5622C22.4953 32.3435 23.1178 32.0323 23.715 31.8893H23.7991C24.514 31.3173 25.5318 31.0734 26.2551 30.4762C26.9869 29.8874 27.7944 29.3995 28.5093 28.7771C28.8794 28.4575 29.2664 28.0201 29.6028 27.6837C30.8477 26.4388 31.3439 24.7734 32.3785 23.4781V23.3939C32.429 23.2033 32.5131 23.0351 32.6308 22.8893V22.8052C32.6477 22.665 32.7037 22.5528 32.7991 22.4687V22.3846C32.8411 22.107 32.9673 21.6612 33.1355 21.4594V21.3752C33.1355 21.179 33.1916 21.0108 33.3037 20.8706V20.7865C33.3963 20.2229 33.5056 19.5248 33.7243 19.0201V18.936C33.7075 18.7678 33.7075 18.6248 33.8084 18.5154V17.8425C33.8084 17.3967 33.7664 16.9341 33.8084 16.4967C33.7423 16.302 33.6263 16.128 33.472 15.9921C33.3878 15.95 33.3794 15.9584 33.3037 15.908H32.7991C32.6813 15.9921 32.5411 16.0481 32.3785 16.0762ZM31.8738 19.2724C31.6972 20.3995 30.0907 20.9799 29.2664 21.7958C28.4252 22.5949 27.2729 23.3939 26.3224 24.0668C25.3551 24.7397 24.2112 25.7238 23.0421 26.0014H22.9579C22.7098 26.1815 22.4207 26.2971 22.1168 26.3379H22.0327C21.7307 26.5347 21.3831 26.6505 21.0234 26.6743H20.9393C20.743 26.7865 20.5187 26.8425 20.2664 26.8425H20.1822C20.0897 26.9351 19.9888 26.9267 19.8458 26.9267H19.6776C19.5766 26.9603 19.4925 27.0108 19.3411 27.0108H19.1729C19.0215 27.0696 18.8701 27.1201 18.6682 27.0949H18.5841C18.4832 27.1958 18.3907 27.179 18.2477 27.179H17.8271C17.3477 27.2295 16.7925 27.2463 16.3131 27.179H15.9766C15.8168 27.179 15.7495 27.1285 15.6402 27.0949H15.1355C14.9757 27.0949 14.9084 27.1201 14.7991 27.0108H14.715C14.5748 27.0388 14.4626 27.0108 14.3785 26.9267H14.2944C13.6131 26.9687 12.8813 26.6238 12.2589 26.4388C11.6364 26.2538 10.9299 26.0687 10.4252 25.665H10.3411C9.26449 25.2444 8.06168 24.3528 7.17009 23.621C6.2785 22.8893 4.94112 22.2332 4.28505 21.2911C4.25981 21.2743 4.20093 21.2911 4.20093 21.2911C3.7215 20.921 2.80467 20.45 2.6028 19.8612C2.5271 19.6425 2.51869 19.407 2.43458 19.1883C2.36729 19.0033 2.2243 18.7678 2.26636 18.5154C4.60691 20.2763 7.08176 21.8512 9.66822 23.2257H9.75234C9.94299 23.2762 10.1112 23.3603 10.257 23.4781H10.3411C10.5766 23.5117 10.7449 23.6463 10.9299 23.7304C11.2103 23.8313 11.4907 23.9154 11.771 23.9827L12.2757 24.151C12.4383 24.1846 12.6065 24.2126 12.7804 24.2351C12.9486 24.2575 13.0888 24.2855 13.2009 24.3192C13.3355 24.3024 13.3692 24.3192 13.4533 24.4033H13.5374C13.7056 24.3865 13.8486 24.3865 13.9579 24.4874H14.0421C14.2271 24.4622 14.328 24.521 14.4626 24.5715H15.1355C15.2701 24.5715 15.3878 24.6472 15.472 24.6556H18.8364C18.9879 24.5463 19.2234 24.5547 19.4252 24.5715H19.5093C19.6103 24.4706 19.7785 24.4706 19.9299 24.4874H20.014C20.115 24.3865 20.2832 24.3865 20.4346 24.4033H20.5187C20.6112 24.3108 20.7121 24.3192 20.8551 24.3192H21.0234C21.3178 24.1762 21.6037 24.1257 21.9486 24.0668L22.285 23.9827C22.571 23.865 22.8822 23.7304 23.2103 23.6463C23.3364 23.6126 23.4206 23.6042 23.5467 23.5622C23.6645 23.5033 23.715 23.4024 23.8832 23.3939H23.9673C24.1131 23.2762 24.2813 23.1921 24.472 23.1416H24.5561C24.7664 22.9734 25.0607 22.822 25.3131 22.721L25.5654 22.6369C25.6832 22.5612 25.7336 22.4267 25.9019 22.3846H25.986C26.0645 22.2612 26.1766 22.1771 26.3224 22.1323H26.4065C27.0206 21.4846 28.0047 21.022 28.7364 20.5089C29.4766 19.9958 30.2673 19.2472 31.1168 18.936C31.1505 18.9192 31.2009 18.936 31.2009 18.936C31.414 18.7173 31.6664 18.5491 31.9579 18.4313C32.0673 18.6416 31.9159 18.9949 31.8738 19.2724ZM30.1916 23.8986C30.1748 23.9323 30.1916 23.9827 30.1916 23.9827C29.9056 24.7902 29.1234 25.5809 28.5935 26.2538C28.2903 26.6219 27.9523 26.96 27.5841 27.2631C26.8813 27.8901 26.1304 28.461 25.3383 28.9706C24.5392 29.4584 23.6561 30.2154 22.7056 30.3753H22.6215C22.3733 30.5554 22.0843 30.671 21.7804 30.7117H21.6963C21.4271 30.9304 20.9477 30.9893 20.6028 31.0481H20.5187C20.4346 31.1267 20.3224 31.1547 20.1822 31.1323H20.0981C20.014 31.2108 19.9019 31.2388 19.7617 31.2164H19.6776C19.2654 31.4098 18.7944 31.3005 18.3318 31.3846C18.2477 31.4014 18.1215 31.4687 17.9953 31.4687C17.4738 31.5024 16.9187 31.4939 16.3972 31.4687C16.2458 31.4687 16.0776 31.4014 15.9766 31.3846H15.6402C15.5056 31.3846 15.3878 31.3089 15.3037 31.3005H14.9673C14.6393 31.2753 14.2271 31.1911 13.9579 31.0481H13.8738C13.5963 31.0061 13.243 30.964 13.0327 30.7958H12.9486C12.6458 30.7874 12.2421 30.6444 12.0234 30.4594H11.9393C11.6112 30.4089 11.2664 30.2407 11.014 30.0388H10.9299C9.5757 29.7192 8.2215 28.4491 7.14486 27.5995C5.79758 26.3621 4.66117 24.9132 3.78037 23.3098C5.26916 24.2771 6.7243 25.4547 8.15421 26.5061H8.23832C8.57477 26.6407 9.31495 26.9603 9.5 27.2631H9.58411C9.97103 27.3472 10.4589 27.608 10.7617 27.8519H10.8458C10.986 27.8687 11.0981 27.9248 11.1822 28.0201H11.2664C11.5439 28.0622 11.9897 28.1883 12.1916 28.3566H12.2757C12.472 28.3566 12.6402 28.4126 12.7804 28.5248H12.8645C13.0047 28.4967 13.1168 28.5248 13.2009 28.6089H13.285C13.4252 28.5809 13.5374 28.6089 13.6215 28.693H13.7056C14.0252 28.6762 14.3701 28.7771 14.6308 28.8612H15.3878C15.5224 28.8612 15.6402 28.9285 15.7243 28.9453H18.4159C18.5168 28.9285 18.685 28.8612 18.8364 28.8612H19.5093C20.0611 28.708 20.6234 28.5956 21.1916 28.5248L21.6121 28.4407C21.7804 28.3818 21.9234 28.3145 22.1168 28.2724L22.4533 28.1883C22.5794 28.1379 22.7056 28.0453 22.8738 28.0201H22.9579C23.1262 27.8855 23.3224 27.8014 23.5467 27.7678H23.6308C23.7766 27.65 23.9449 27.5659 24.1355 27.5154H24.2196C25.2037 26.7248 26.5411 26.2874 27.5 25.4126C28.4757 24.5463 29.6028 23.8566 30.6121 23.0575C30.5856 23.3816 30.4349 23.6829 30.1916 23.8986Z" fill="black"/>
</g>
<defs>
<clipPath id="clip0_3764_26692">
<rect width="36" height="36" fill="white" transform="translate(0.5)"/>
</clipPath>
</defs>
</svg>
