<svg width="20" height="21" viewBox="0 0 20 21" fill="none" xmlns="http://www.w3.org/2000/svg">
  <path
    d="M17.5003 10.332C17.2793 10.332 17.0674 10.4198 16.9111 10.5761C16.7548 10.7324 16.667 10.9444 16.667 11.1654V16.1654C16.667 16.3864 16.5792 16.5983 16.4229 16.7546C16.2666 16.9109 16.0547 16.9987 15.8337 16.9987H4.16699C3.94598 16.9987 3.73402 16.9109 3.57774 16.7546C3.42146 16.5983 3.33366 16.3864 3.33366 16.1654V4.4987C3.33366 4.27768 3.42146 4.06572 3.57774 3.90944C3.73402 3.75316 3.94598 3.66536 4.16699 3.66536H9.16699C9.38801 3.66536 9.59997 3.57757 9.75625 3.42129C9.91253 3.26501 10.0003 3.05305 10.0003 2.83203C10.0003 2.61102 9.91253 2.39906 9.75625 2.24278C9.59997 2.0865 9.38801 1.9987 9.16699 1.9987H4.16699C3.50395 1.9987 2.86807 2.26209 2.39923 2.73093C1.93038 3.19977 1.66699 3.83566 1.66699 4.4987V16.1654C1.66699 16.8284 1.93038 17.4643 2.39923 17.9331C2.86807 18.402 3.50395 18.6654 4.16699 18.6654H15.8337C16.4967 18.6654 17.1326 18.402 17.6014 17.9331C18.0703 17.4643 18.3337 16.8284 18.3337 16.1654V11.1654C18.3337 10.9444 18.2459 10.7324 18.0896 10.5761C17.9333 10.4198 17.7213 10.332 17.5003 10.332ZM5.00033 10.9654V14.4987C5.00033 14.7197 5.08812 14.9317 5.2444 15.088C5.40068 15.2442 5.61265 15.332 5.83366 15.332H9.36699C9.47666 15.3327 9.58538 15.3116 9.68691 15.2702C9.78845 15.2287 9.88079 15.1676 9.95866 15.0904L15.7253 9.31536L18.092 6.9987C18.1701 6.92123 18.2321 6.82906 18.2744 6.72751C18.3167 6.62596 18.3385 6.51704 18.3385 6.40703C18.3385 6.29702 18.3167 6.1881 18.2744 6.08655C18.2321 5.985 18.1701 5.89283 18.092 5.81536L14.5587 2.24036C14.4812 2.16226 14.389 2.10026 14.2875 2.05796C14.1859 2.01565 14.077 1.99387 13.967 1.99387C13.857 1.99387 13.7481 2.01565 13.6465 2.05796C13.545 2.10026 13.4528 2.16226 13.3753 2.24036L11.0253 4.5987L5.24199 10.3737C5.16476 10.4516 5.10365 10.5439 5.06218 10.6454C5.02071 10.747 4.99969 10.8557 5.00033 10.9654ZM13.967 4.00703L16.3253 6.36536L15.142 7.5487L12.7837 5.19036L13.967 4.00703ZM6.66699 11.307L11.6087 6.36536L13.967 8.7237L9.02533 13.6654H6.66699V11.307Z"
    fill="currentColor" />
</svg>