<svg width="20" height="20" viewBox="0 0 20 20" fill="none" xmlns="http://www.w3.org/2000/svg">
<path fill-rule="evenodd" clip-rule="evenodd" d="M16.3583 3.04193C16.2615 2.96362 16.1484 2.908 16.0273 2.87915C15.9061 2.85031 15.7801 2.84898 15.6583 2.87527C14.7679 3.06189 13.8486 3.06426 12.9572 2.88225C12.0658 2.70024 11.221 2.3377 10.475 1.81693C10.3355 1.72016 10.1698 1.6683 10 1.6683C9.83023 1.6683 9.6645 1.72016 9.525 1.81693C8.77897 2.3377 7.93423 2.70024 7.04281 2.88225C6.15139 3.06426 5.23214 3.06189 4.34167 2.87527C4.21995 2.84898 4.09389 2.85031 3.97276 2.87915C3.85162 2.908 3.73848 2.96362 3.64167 3.04193C3.54499 3.12037 3.46711 3.21946 3.41375 3.33195C3.36039 3.44443 3.33291 3.56744 3.33334 3.69193V6.66668C3.33334 7.12691 3.70643 7.50001 4.16667 7.50001C4.62691 7.50001 5 7.12691 5 6.66668V4.65027C6.74703 4.79979 8.49671 4.39445 10 3.49193C11.5033 4.39445 13.253 4.79979 15 4.65027V9.90027C15.0006 10.8292 14.7794 11.7449 14.3547 12.5711C13.93 13.3973 13.3141 14.1101 12.5583 14.6503L10 16.4753L7.44167 14.6503C6.68587 14.1101 6.06999 13.3973 5.6453 12.5711C5.59231 12.468 5.54249 12.3636 5.49587 12.2578C5.34399 11.9134 5.01681 11.6667 4.64037 11.6667C4.08132 11.6667 3.66874 12.1921 3.87787 12.7105C3.96339 12.9226 4.05875 13.131 4.16378 13.3352C4.71025 14.3977 5.50265 15.3143 6.475 16.0086L9.51667 18.1753C9.65781 18.2758 9.82675 18.3298 10 18.3298C10.1733 18.3298 10.3422 18.2758 10.4833 18.1753L13.525 16.0086C14.4974 15.3143 15.2898 14.3977 15.8362 13.3352C16.3827 12.2727 16.6674 11.0951 16.6667 9.90027V3.69193C16.6671 3.56744 16.6396 3.44443 16.5863 3.33195C16.5329 3.21946 16.455 3.12037 16.3583 3.04193ZM11.8417 8.99509C11.9175 9.07434 11.977 9.16779 12.0167 9.27009C12.1 9.47297 12.1 9.70053 12.0167 9.90342C11.977 10.0057 11.9175 10.0992 11.8417 10.1784L9.75833 12.2618C9.68086 12.3399 9.5887 12.4019 9.48715 12.4442C9.3856 12.4865 9.27668 12.5083 9.16667 12.5083C9.05666 12.5083 8.94774 12.4865 8.84619 12.4442C8.74464 12.4019 8.65247 12.3399 8.575 12.2618C8.49689 12.1843 8.4349 12.0921 8.39259 11.9906C8.35028 11.889 8.3285 11.7801 8.3285 11.6701C8.3285 11.5601 8.35028 11.4512 8.39259 11.3496C8.4349 11.2481 8.49689 11.1559 8.575 11.0784L9.24167 10.4201H2.08333C1.86232 10.4201 1.65036 10.3323 1.49408 10.176C1.3378 10.0197 1.25 9.80777 1.25 9.58675C1.25 9.36574 1.3378 9.15378 1.49408 8.9975C1.65036 8.84122 1.86232 8.75342 2.08333 8.75342H9.24167L8.575 8.09509C8.41808 7.93817 8.32992 7.72534 8.32992 7.50342C8.32992 7.2815 8.41808 7.06867 8.575 6.91175C8.73192 6.75483 8.94475 6.66668 9.16667 6.66668C9.38859 6.66668 9.60141 6.75483 9.75833 6.91175L11.8417 8.99509Z" fill="#4300DA"/>
</svg>
