<svg width="17" height="16" viewBox="0 0 17 16" fill="none" xmlns="http://www.w3.org/2000/svg">
  <path
    d="M14.8796 3.3665L10.8796 2.03317H10.833C10.8019 2.03005 10.7707 2.03005 10.7396 2.03317H10.5863H10.4996H10.453L6.6663 3.33317L2.87964 2.03317C2.77938 2.00011 2.6727 1.99133 2.56839 2.00756C2.46408 2.02378 2.36511 2.06455 2.27964 2.1265C2.19347 2.18784 2.12315 2.26881 2.07446 2.3627C2.02577 2.4566 2.00013 2.56073 1.99964 2.6665V11.9998C1.99928 12.1396 2.04285 12.2759 2.1242 12.3896C2.20555 12.5032 2.32056 12.5884 2.45297 12.6332L6.45297 13.9665C6.58727 14.0103 6.732 14.0103 6.8663 13.9665L10.6663 12.6998L14.453 13.9998C14.5238 14.0094 14.5955 14.0094 14.6663 13.9998C14.8057 14.0018 14.9418 13.9572 15.053 13.8732C15.1391 13.8118 15.2095 13.7309 15.2581 13.637C15.3068 13.5431 15.3325 13.4389 15.333 13.3332V3.99983C15.3333 3.86007 15.2898 3.72373 15.2084 3.61008C15.1271 3.49643 15.012 3.41122 14.8796 3.3665ZM5.99964 12.4065L3.33297 11.5198V3.59317L5.99964 4.47983V12.4065ZM9.99963 11.5198L7.33297 12.4065V4.47983L9.99963 3.59317V11.5198ZM13.9996 12.4065L11.333 11.5198V3.59317L13.9996 4.47983V12.4065Z"
    fill="currentColor" />
</svg>