<svg width="21" height="20" viewBox="0 0 21 20" fill="none" xmlns="http://www.w3.org/2000/svg">
  <path
    d="M12.9849 8.75511C12.9849 9.51884 12.3658 10.138 11.6021 10.138C10.8383 10.138 10.2192 9.51884 10.2192 8.75511C10.2192 7.99138 10.8383 7.37225 11.6021 7.37225C12.3658 7.37225 12.9849 7.99138 12.9849 8.75511Z"
    fill="currentColor" />
  <path fill-rule="evenodd" clip-rule="evenodd"
    d="M18.75 1.167C19 1.25033 19.25 1.50033 19.3333 1.75033C20.25 5.167 19.0833 8.917 16.3333 11.2503L15.3333 12.167L15.9167 14.5003C16.1667 15.5837 15.6667 16.7503 14.75 17.2503L11.5 19.0837C11.3333 19.167 11.25 19.167 11.0833 19.167C11 19.167 10.8333 19.167 10.75 19.0837C10.5 19.0003 10.3333 18.7503 10.25 18.5003L9.75 16.0003C9.08333 16.2503 8.41667 16.3337 7.66667 16.417H7.58333C7.33333 16.417 7.16667 16.3337 7 16.167L4.41667 13.5837C4.25 13.417 4.16667 13.167 4.16667 12.917C4.22222 12.6948 4.26852 12.4726 4.31482 12.2503C4.40741 11.8059 4.5 11.3614 4.66667 10.917L2.08333 10.3337C1.83333 10.2503 1.58333 10.0837 1.5 9.83366C1.33333 9.58366 1.33333 9.33366 1.5 9.08366L3.33333 5.83366C3.83333 4.83366 5 4.33366 6.08333 4.75033L8.33333 5.25033L9.25 4.167C11.6667 1.33366 15.25 0.250329 18.75 1.167ZM6.58333 7.33366L7.08333 6.667L5.66667 6.33366C5.25 6.25033 4.91667 6.33366 4.75 6.667L3.5 8.917L5.25 9.33366C5.58333 8.667 6.08334 8.00032 6.58333 7.33366ZM11.5833 17.0003L13.8333 15.7503C14.0833 15.667 14.3333 15.2503 14.1667 14.8337L13.8333 13.417L13.25 14.0003C12.6667 14.5003 12 15.0003 11.25 15.3337L11.5833 17.0003ZM5.85227 12.9732L7.81083 14.7588C7.90694 14.8465 8.03845 14.8852 8.16561 14.8578C9.20544 14.6344 11.1794 13.9269 14.8104 10.5684C15.346 10.0729 15.8104 9.60132 16.209 9.14291L11.3514 4.28534C8.15005 6.80706 5.89412 11.0555 5.72636 12.6696C5.71424 12.7861 5.76567 12.8942 5.85227 12.9732ZM17.2172 7.79026C18.1546 6.26593 18.38 4.77061 18.1229 2.86806C18.1018 2.71184 17.9889 2.58061 17.8369 2.53867C16.0542 2.04662 14.3261 2.44794 12.7601 3.33313L17.2172 7.79026Z"
    fill="currentColor" />
</svg>