<svg width="20" height="21" viewBox="0 0 20 21" fill="none" xmlns="http://www.w3.org/2000/svg">
<path d="M12.342 10.7943C12.8695 10.2278 13.1666 9.48496 13.1753 8.71098C13.1753 7.87555 12.8435 7.07433 12.2527 6.48359C11.662 5.89285 10.8608 5.56098 10.0253 5.56098C9.18989 5.56098 8.38868 5.89285 7.79794 6.48359C7.2072 7.07433 6.87533 7.87555 6.87533 8.71098C6.88402 9.48496 7.18118 10.2278 7.70866 10.7943C6.9742 11.16 6.34218 11.7026 5.86942 12.3732C5.39667 13.0438 5.09801 13.8213 5.00033 14.636C4.97601 14.857 5.0405 15.0786 5.17959 15.2521C5.31867 15.4256 5.52098 15.5367 5.74199 15.561C5.96301 15.5853 6.18463 15.5208 6.3581 15.3817C6.53157 15.2426 6.64268 15.0403 6.66699 14.8193C6.76644 14.0119 7.1577 13.2688 7.76706 12.7299C8.37643 12.1909 9.16184 11.8935 9.97533 11.8935C10.7888 11.8935 11.5742 12.1909 12.1836 12.7299C12.793 13.2688 13.1842 14.0119 13.2837 14.8193C13.3068 15.033 13.4117 15.2295 13.5763 15.3677C13.7409 15.5059 13.9525 15.5751 14.167 15.561H14.2587C14.4771 15.5358 14.6768 15.4254 14.8141 15.2537C14.9515 15.082 15.0154 14.8629 14.992 14.6443C14.9015 13.834 14.6123 13.0585 14.15 12.3869C13.6877 11.7152 13.0666 11.1681 12.342 10.7943V10.7943ZM10.0003 10.1943C9.70695 10.1943 9.42016 10.1073 9.17623 9.94433C8.9323 9.78134 8.74217 9.54967 8.6299 9.27863C8.51763 9.00758 8.48826 8.70933 8.54549 8.4216C8.60273 8.13386 8.744 7.86955 8.95145 7.6621C9.1589 7.45466 9.4232 7.31338 9.71094 7.25615C9.99868 7.19891 10.2969 7.22829 10.568 7.34056C10.839 7.45283 11.0707 7.64295 11.2337 7.88688C11.3967 8.13082 11.4837 8.4176 11.4837 8.71098C11.4837 9.10438 11.3274 9.48168 11.0492 9.75985C10.771 10.038 10.3937 10.1943 10.0003 10.1943V10.1943ZM15.8337 2.22765H4.16699C3.50395 2.22765 2.86807 2.49104 2.39923 2.95988C1.93038 3.42872 1.66699 4.0646 1.66699 4.72765V16.3943C1.66699 17.0574 1.93038 17.6932 2.39923 18.1621C2.86807 18.6309 3.50395 18.8943 4.16699 18.8943H15.8337C16.4967 18.8943 17.1326 18.6309 17.6014 18.1621C18.0703 17.6932 18.3337 17.0574 18.3337 16.3943V4.72765C18.3337 4.0646 18.0703 3.42872 17.6014 2.95988C17.1326 2.49104 16.4967 2.22765 15.8337 2.22765ZM16.667 16.3943C16.667 16.6153 16.5792 16.8273 16.4229 16.9836C16.2666 17.1398 16.0547 17.2276 15.8337 17.2276H4.16699C3.94598 17.2276 3.73402 17.1398 3.57774 16.9836C3.42146 16.8273 3.33366 16.6153 3.33366 16.3943V4.72765C3.33366 4.50663 3.42146 4.29467 3.57774 4.13839C3.73402 3.98211 3.94598 3.89431 4.16699 3.89431H15.8337C16.0547 3.89431 16.2666 3.98211 16.4229 4.13839C16.5792 4.29467 16.667 4.50663 16.667 4.72765V16.3943Z" fill="currentColor"/>
</svg>
