<svg width="20" height="21" viewBox="0 0 20 21" fill="none" xmlns="http://www.w3.org/2000/svg">
<path d="M0 17.0824C0 14.8861 2.09529 6.69188 6.42743 1.20093C3.36944 6.97346 1.59059 10.882 2.8881 13.9287C3.90742 16.3222 9.14564 15.5619 11.9771 14.6045C6.93709 16.8853 1.76495 17.1951 0 17.0824Z" fill="#C1272D"/>
<path d="M9.38391 0.958374C11.2966 2.05656 17.3846 7.95823 20.0002 14.4348C16.5023 8.91482 13.9881 5.42851 10.6862 5.02265C8.09227 4.70381 6.13523 9.59539 5.55322 12.5127C6.08701 7.03154 8.40335 2.42213 9.38391 0.958374Z" fill="#C1272D"/>
<path d="M18.7766 17.0632C16.8639 18.1614 8.68062 20.4539 1.73291 19.4683C8.28875 19.2157 12.5818 18.7935 14.5862 16.1527C16.1608 14.078 12.8796 9.94673 10.6302 7.98682C15.1364 11.1871 17.9922 15.4868 18.7766 17.0632Z" fill="#C1272D"/>
</svg>
