<svg width="34" height="35" viewBox="0 0 34 35" fill="none" xmlns="http://www.w3.org/2000/svg">
<g id="Fully Integrated SDK">
<g id="Group 4635">
<path id="Rectangle 789" d="M3.25366 13.3276C3.25366 12.783 3.6305 12.3109 4.16153 12.1902L16.7416 9.33114C16.9117 9.29247 17.0884 9.29247 17.2585 9.33114L29.8386 12.1902C30.3696 12.3109 30.7465 12.783 30.7465 13.3276V25.8368C30.7465 26.3814 30.3696 26.8535 29.8386 26.9741L17.2585 29.8332C17.0884 29.8719 16.9117 29.8719 16.7416 29.8332L4.16153 26.9741C3.6305 26.8535 3.25366 26.3814 3.25366 25.8368V13.3276Z" fill="#6C48FA"/>
<g id="Rectangle 796" filter="url(#filter0_d_2881_861)">
<path d="M3.25366 13.8578C3.25366 13.1093 3.94865 12.5545 4.67851 12.7204L16.7416 15.462C16.9117 15.5007 17.0884 15.5007 17.2585 15.462L29.3216 12.7204C30.0515 12.5545 30.7465 13.1093 30.7465 13.8578V27.2118C30.7465 27.7564 30.3696 28.2285 29.8386 28.3491L17.2585 31.2082C17.0884 31.2469 16.9117 31.2469 16.7416 31.2082L4.16153 28.3491C3.6305 28.2285 3.25366 27.7564 3.25366 27.2118V13.8578Z" fill="#C2B2FC"/>
</g>
<path id="Vector 1783" d="M16.9852 31.199V15.5943L30.6486 12.495L30.7483 26.912C30.7534 27.6463 30.2443 28.284 29.5272 28.4417L16.9852 31.199Z" fill="#AA95FD"/>
<path id="Rectangle 793" d="M6.37793 3.23231C6.37793 1.85196 7.49692 0.732964 8.87727 0.732964H25.123C26.5034 0.732964 27.6224 1.85196 27.6224 3.23231V10.7303C27.6224 12.1107 26.5034 13.2297 25.123 13.2297H8.87727C7.49692 13.2297 6.37793 12.1107 6.37793 10.7303V3.23231Z" fill="url(#paint0_linear_2881_861)"/>
<g id="SDK" filter="url(#filter1_d_2881_861)">
<path d="M10.5802 10.4383C12.1402 10.4383 13.1022 9.65401 13.1022 8.4147V8.41037C13.1022 7.43539 12.5259 6.90673 11.2042 6.63374L10.5412 6.49941C9.80459 6.34774 9.50126 6.10508 9.50126 5.69776V5.69342C9.50126 5.22543 9.93025 4.93077 10.5759 4.92644C11.2346 4.92644 11.6679 5.23843 11.7416 5.68476L11.7502 5.73676H12.9809L12.9765 5.68042C12.8942 4.63611 12.0362 3.86479 10.5759 3.86479C9.18927 3.86479 8.19262 4.63178 8.19262 5.79309V5.79742C8.19262 6.7464 8.75161 7.35306 10.0516 7.61739L10.7102 7.75172C11.4859 7.91205 11.7935 8.14171 11.7935 8.55337V8.5577C11.7935 9.03869 11.3126 9.37235 10.6149 9.37235C9.88259 9.37235 9.3756 9.05602 9.32793 8.58803L9.3236 8.5447H8.06262L8.06696 8.61403C8.14062 9.72334 9.08527 10.4383 10.5802 10.4383Z" fill="#F7F8F8"/>
<path d="M10.5802 10.4383C12.1402 10.4383 13.1022 9.65401 13.1022 8.4147V8.41037C13.1022 7.43539 12.5259 6.90673 11.2042 6.63374L10.5412 6.49941C9.80459 6.34774 9.50126 6.10508 9.50126 5.69776V5.69342C9.50126 5.22543 9.93025 4.93077 10.5759 4.92644C11.2346 4.92644 11.6679 5.23843 11.7416 5.68476L11.7502 5.73676H12.9809L12.9765 5.68042C12.8942 4.63611 12.0362 3.86479 10.5759 3.86479C9.18927 3.86479 8.19262 4.63178 8.19262 5.79309V5.79742C8.19262 6.7464 8.75161 7.35306 10.0516 7.61739L10.7102 7.75172C11.4859 7.91205 11.7935 8.14171 11.7935 8.55337V8.5577C11.7935 9.03869 11.3126 9.37235 10.6149 9.37235C9.88259 9.37235 9.3756 9.05602 9.32793 8.58803L9.3236 8.5447H8.06262L8.06696 8.61403C8.14062 9.72334 9.08527 10.4383 10.5802 10.4383Z" fill="#78767F" fill-opacity="0.02"/>
<path d="M10.5802 10.4383C12.1402 10.4383 13.1022 9.65401 13.1022 8.4147V8.41037C13.1022 7.43539 12.5259 6.90673 11.2042 6.63374L10.5412 6.49941C9.80459 6.34774 9.50126 6.10508 9.50126 5.69776V5.69342C9.50126 5.22543 9.93025 4.93077 10.5759 4.92644C11.2346 4.92644 11.6679 5.23843 11.7416 5.68476L11.7502 5.73676H12.9809L12.9765 5.68042C12.8942 4.63611 12.0362 3.86479 10.5759 3.86479C9.18927 3.86479 8.19262 4.63178 8.19262 5.79309V5.79742C8.19262 6.7464 8.75161 7.35306 10.0516 7.61739L10.7102 7.75172C11.4859 7.91205 11.7935 8.14171 11.7935 8.55337V8.5577C11.7935 9.03869 11.3126 9.37235 10.6149 9.37235C9.88259 9.37235 9.3756 9.05602 9.32793 8.58803L9.3236 8.5447H8.06262L8.06696 8.61403C8.14062 9.72334 9.08527 10.4383 10.5802 10.4383Z" fill="#5D34F2" fill-opacity="0.05"/>
<path d="M14.164 10.278H16.6253C18.4973 10.278 19.5589 9.13402 19.5589 7.11473V7.10606C19.5589 5.14743 18.4843 4.02512 16.6253 4.02512H14.164V10.278ZM15.4727 9.19902V5.1041H16.4173C17.5526 5.1041 18.2243 5.84075 18.2243 7.12773V7.13639C18.2243 8.47104 17.5743 9.19902 16.4173 9.19902H15.4727Z" fill="#F7F8F8"/>
<path d="M14.164 10.278H16.6253C18.4973 10.278 19.5589 9.13402 19.5589 7.11473V7.10606C19.5589 5.14743 18.4843 4.02512 16.6253 4.02512H14.164V10.278ZM15.4727 9.19902V5.1041H16.4173C17.5526 5.1041 18.2243 5.84075 18.2243 7.12773V7.13639C18.2243 8.47104 17.5743 9.19902 16.4173 9.19902H15.4727Z" fill="#78767F" fill-opacity="0.02"/>
<path d="M14.164 10.278H16.6253C18.4973 10.278 19.5589 9.13402 19.5589 7.11473V7.10606C19.5589 5.14743 18.4843 4.02512 16.6253 4.02512H14.164V10.278ZM15.4727 9.19902V5.1041H16.4173C17.5526 5.1041 18.2243 5.84075 18.2243 7.12773V7.13639C18.2243 8.47104 17.5743 9.19902 16.4173 9.19902H15.4727Z" fill="#5D34F2" fill-opacity="0.05"/>
<path d="M20.6251 10.278H21.9337V8.36704L22.5534 7.62172L24.369 10.278H25.9376L23.498 6.76374L25.7773 4.02512H24.3213L22.0117 6.83307H21.9337V4.02512H20.6251V10.278Z" fill="#F7F8F8"/>
<path d="M20.6251 10.278H21.9337V8.36704L22.5534 7.62172L24.369 10.278H25.9376L23.498 6.76374L25.7773 4.02512H24.3213L22.0117 6.83307H21.9337V4.02512H20.6251V10.278Z" fill="#78767F" fill-opacity="0.02"/>
<path d="M20.6251 10.278H21.9337V8.36704L22.5534 7.62172L24.369 10.278H25.9376L23.498 6.76374L25.7773 4.02512H24.3213L22.0117 6.83307H21.9337V4.02512H20.6251V10.278Z" fill="#5D34F2" fill-opacity="0.05"/>
</g>
<g id="Vector" filter="url(#filter2_b_2881_861)">
<path d="M3.01826 12.7731C3.15918 12.5477 3.42734 12.4361 3.6866 12.495L17 15.5207L14.1112 20.1429C13.9702 20.3684 13.7021 20.48 13.4428 20.421L0.986807 17.5901C0.567492 17.4948 0.367521 17.0143 0.595424 16.6497L3.01826 12.7731Z" fill="#9175FD"/>
<path d="M30.9817 12.7731C30.8408 12.5477 30.5727 12.4361 30.3134 12.495L17 15.5207L19.8888 20.1429C20.0298 20.3684 20.2979 20.48 20.5572 20.421L33.0132 17.5901C33.4325 17.4948 33.6325 17.0143 33.4046 16.6497L30.9817 12.7731Z" fill="#9175FD"/>
</g>
</g>
</g>
<defs>
<filter id="filter0_d_2881_861" x="0.920941" y="11.5245" width="32.1582" height="23.2118" filterUnits="userSpaceOnUse" color-interpolation-filters="sRGB">
<feFlood flood-opacity="0" result="BackgroundImageFix"/>
<feColorMatrix in="SourceAlpha" type="matrix" values="0 0 0 0 0 0 0 0 0 0 0 0 0 0 0 0 0 0 127 0" result="hardAlpha"/>
<feOffset dy="1.16636"/>
<feGaussianBlur stdDeviation="1.16636"/>
<feComposite in2="hardAlpha" operator="out"/>
<feColorMatrix type="matrix" values="0 0 0 0 0.13941 0 0 0 0 0.174154 0 0 0 0 0.229167 0 0 0 0.16 0"/>
<feBlend mode="normal" in2="BackgroundImageFix" result="effect1_dropShadow_2881_861"/>
<feBlend mode="normal" in="SourceGraphic" in2="effect1_dropShadow_2881_861" result="shape"/>
</filter>
<filter id="filter1_d_2881_861" x="5.30167" y="1.79408" width="23.3969" height="12.0954" filterUnits="userSpaceOnUse" color-interpolation-filters="sRGB">
<feFlood flood-opacity="0" result="BackgroundImageFix"/>
<feColorMatrix in="SourceAlpha" type="matrix" values="0 0 0 0 0 0 0 0 0 0 0 0 0 0 0 0 0 0 127 0" result="hardAlpha"/>
<feOffset dy="0.690238"/>
<feGaussianBlur stdDeviation="1.38048"/>
<feComposite in2="hardAlpha" operator="out"/>
<feColorMatrix type="matrix" values="0 0 0 0 0.102162 0 0 0 0 0.094375 0 0 0 0 0.15 0 0 0 0.16 0"/>
<feBlend mode="normal" in2="BackgroundImageFix" result="effect1_dropShadow_2881_861"/>
<feBlend mode="normal" in="SourceGraphic" in2="effect1_dropShadow_2881_861" result="shape"/>
</filter>
<filter id="filter2_b_2881_861" x="-1.83272" y="10.1467" width="37.6654" height="12.6227" filterUnits="userSpaceOnUse" color-interpolation-filters="sRGB">
<feFlood flood-opacity="0" result="BackgroundImageFix"/>
<feGaussianBlur in="BackgroundImageFix" stdDeviation="1.16636"/>
<feComposite in2="SourceAlpha" operator="in" result="effect1_backgroundBlur_2881_861"/>
<feBlend mode="normal" in="SourceGraphic" in2="effect1_backgroundBlur_2881_861" result="shape"/>
</filter>
<linearGradient id="paint0_linear_2881_861" x1="6.37793" y1="11.98" x2="22.351" y2="-7.72055" gradientUnits="userSpaceOnUse">
<stop stop-color="#492EF3"/>
<stop offset="1" stop-color="#CF69FF"/>
</linearGradient>
</defs>
</svg>
