<svg width="20" height="20" viewBox="0 0 20 20" fill="none" xmlns="http://www.w3.org/2000/svg">
<path d="M17.0833 11.6667C16.8623 11.6667 16.6504 11.7545 16.4941 11.9107C16.3378 12.067 16.25 12.279 16.25 12.5V15.8333C16.25 16.0543 16.1622 16.2663 16.0059 16.4226C15.8496 16.5789 15.6377 16.6667 15.4167 16.6667H3.75C3.52899 16.6667 3.31702 16.5789 3.16074 16.4226C3.00446 16.2663 2.91667 16.0543 2.91667 15.8333V7.84167L7.81667 12.75C8.28542 13.2182 8.92083 13.4811 9.58333 13.4811C10.2458 13.4811 10.8812 13.2182 11.35 12.75L12.7167 11.3833C12.8736 11.2264 12.9617 11.0136 12.9617 10.7917C12.9617 10.5697 12.8736 10.3569 12.7167 10.2C12.5597 10.0431 12.3469 9.95492 12.125 9.95492C11.9031 9.95492 11.6903 10.0431 11.5333 10.2L10.1667 11.5667C10.0109 11.7194 9.80146 11.8049 9.58333 11.8049C9.36521 11.8049 9.15577 11.7194 9 11.5667L4.09167 6.66667H9.58333C9.80435 6.66667 10.0163 6.57887 10.1726 6.42259C10.3289 6.26631 10.4167 6.05435 10.4167 5.83333C10.4167 5.61232 10.3289 5.40036 10.1726 5.24408C10.0163 5.0878 9.80435 5 9.58333 5H3.75C3.08696 5 2.45107 5.26339 1.98223 5.73223C1.51339 6.20107 1.25 6.83696 1.25 7.5V15.8333C1.25 16.4964 1.51339 17.1323 1.98223 17.6011C2.45107 18.0699 3.08696 18.3333 3.75 18.3333H15.4167C16.0797 18.3333 16.7156 18.0699 17.1844 17.6011C17.6533 17.1323 17.9167 16.4964 17.9167 15.8333V12.5C17.9167 12.279 17.8289 12.067 17.6726 11.9107C17.5163 11.7545 17.3043 11.6667 17.0833 11.6667ZM18.5083 4.40833L16.0083 1.90833C15.9291 1.83247 15.8356 1.773 15.7333 1.73333C15.5304 1.64999 15.3029 1.64999 15.1 1.73333C14.9977 1.773 14.9043 1.83247 14.825 1.90833L12.325 4.40833C12.1681 4.56525 12.0799 4.77808 12.0799 5C12.0799 5.22192 12.1681 5.43475 12.325 5.59167C12.4819 5.74859 12.6947 5.83674 12.9167 5.83674C13.1386 5.83674 13.3514 5.74859 13.5083 5.59167L14.5833 4.50833V9.16667C14.5833 9.38768 14.6711 9.59964 14.8274 9.75592C14.9837 9.9122 15.1957 10 15.4167 10C15.6377 10 15.8496 9.9122 16.0059 9.75592C16.1622 9.59964 16.25 9.38768 16.25 9.16667V4.50833L17.325 5.59167C17.4025 5.66977 17.4946 5.73177 17.5962 5.77408C17.6977 5.81638 17.8067 5.83817 17.9167 5.83817C18.0267 5.83817 18.1356 5.81638 18.2371 5.77408C18.3387 5.73177 18.4309 5.66977 18.5083 5.59167C18.5864 5.5142 18.6484 5.42203 18.6907 5.32048C18.7331 5.21893 18.7548 5.11001 18.7548 5C18.7548 4.88999 18.7331 4.78107 18.6907 4.67952C18.6484 4.57797 18.5864 4.4858 18.5083 4.40833Z" fill="#4300DA"/>
</svg>
