<svg width="18" height="18" viewBox="0 0 18 18" fill="none" xmlns="http://www.w3.org/2000/svg">
  <path
    d="M3 1.5C2.40326 1.5 1.83097 1.73705 1.40901 2.15901C0.987053 2.58097 0.75 3.15326 0.75 3.75V14.25C0.75 14.8467 0.987053 15.419 1.40901 15.841C1.83097 16.2629 2.40326 16.5 3 16.5H15C15.5967 16.5 16.169 16.2629 16.591 15.841C17.0129 15.419 17.25 14.8467 17.25 14.25V3.75C17.25 3.15326 17.0129 2.58097 16.591 2.15901C16.169 1.73705 15.5967 1.5 15 1.5H3ZM2.25 6.75H15.75V14.25C15.75 14.4489 15.671 14.6397 15.5303 14.7803C15.3897 14.921 15.1989 15 15 15H3C2.80109 15 2.61032 14.921 2.46967 14.7803C2.32902 14.6397 2.25 14.4489 2.25 14.25V6.75ZM3 3H15C15.1989 3 15.3897 3.07902 15.5303 3.21967C15.671 3.36032 15.75 3.55109 15.75 3.75V5.25H2.25V3.75C2.25 3.55109 2.32902 3.36032 2.46967 3.21967C2.61032 3.07902 2.80109 3 3 3ZM10.875 8.25C9.3332 8.25 8.08301 9.5002 8.08301 11.042C8.08301 12.5838 9.3332 13.834 10.875 13.834C12.4168 13.834 13.667 12.5838 13.667 11.042C13.667 9.5002 12.4168 8.25 10.875 8.25ZM10.875 9.75C11.5884 9.75 12.167 10.3286 12.167 11.042C12.167 11.7554 11.5884 12.334 10.875 12.334C10.1616 12.334 9.58301 11.7554 9.58301 11.042C9.58301 10.3286 10.1616 9.75 10.875 9.75ZM10.875 10.125C10.6761 10.125 10.4853 10.204 10.3447 10.3447C10.204 10.4853 10.125 10.6761 10.125 10.875V11.042C10.125 11.439 10.419 11.733 10.816 11.778L11.191 12.153C11.2603 12.2262 11.3435 12.2849 11.4357 12.325C11.5278 12.3651 11.627 12.3858 11.7275 12.3859C11.828 12.386 11.9272 12.3655 12.0194 12.3255C12.1117 12.2855 12.195 12.2269 12.2645 12.1537C12.334 12.0806 12.3883 11.9944 12.4242 11.9001C12.4601 11.8058 12.4769 11.7053 12.4737 11.6044C12.4705 11.5036 12.4474 11.4043 12.4056 11.3125C12.3638 11.2207 12.3043 11.1381 12.2307 11.0698L11.625 10.464V10.875C11.625 10.6761 11.546 10.4853 11.4053 10.3447C11.2647 10.204 11.0739 10.125 10.875 10.125ZM4.5 3.75C4.08579 3.75 3.75 4.08579 3.75 4.5C3.75 4.91421 4.08579 5.25 4.5 5.25C4.91421 5.25 5.25 4.91421 5.25 4.5C5.25 4.08579 4.91421 3.75 4.5 3.75ZM7.125 3.75C6.71079 3.75 6.375 4.08579 6.375 4.5C6.375 4.91421 6.71079 5.25 7.125 5.25C7.53921 5.25 7.875 4.91421 7.875 4.5C7.875 4.08579 7.53921 3.75 7.125 3.75Z"
    fill="currentColor"
  />
</svg>
