<svg width="20" height="20" viewBox="0 0 20 20" fill="none" xmlns="http://www.w3.org/2000/svg">
  <path
    d="M15.4502 7.5L7.40018 2.88333C6.96458 2.6318 6.47017 2.50003 5.96717 2.50141C5.46417 2.5028 4.97049 2.63728 4.53628 2.8912C4.10208 3.14512 3.74281 3.50944 3.49497 3.94715C3.24713 4.38486 3.11954 4.88036 3.12518 5.38333V14.65C3.12518 15.4059 3.42545 16.1308 3.95992 16.6653C4.4944 17.1997 5.21931 17.5 5.97518 17.5C6.47554 17.4992 6.96692 17.367 7.40018 17.1167L15.4502 12.5C15.8827 12.2497 16.2418 11.89 16.4915 11.457C16.7412 11.0241 16.8726 10.5331 16.8726 10.0333C16.8726 9.53356 16.7412 9.04258 16.4915 8.60964C16.2418 8.17669 15.8827 7.81701 15.4502 7.56667V7.5ZM14.6168 10.9917L6.56685 15.675C6.38642 15.7773 6.18257 15.831 5.97518 15.831C5.76779 15.831 5.56394 15.7773 5.38351 15.675C5.20359 15.5711 5.05419 15.4217 4.95033 15.2418C4.84647 15.0619 4.79181 14.8578 4.79185 14.65V5.35C4.79181 5.14225 4.84647 4.93815 4.95033 4.75822C5.05419 4.57829 5.20359 4.42888 5.38351 4.325C5.56468 4.2243 5.76793 4.16991 5.97518 4.16667C6.18229 4.17092 6.38529 4.22524 6.56685 4.325L14.6168 8.975C14.7968 9.07883 14.9463 9.22823 15.0502 9.40816C15.1542 9.58809 15.2089 9.79221 15.2089 10C15.2089 10.2078 15.1542 10.4119 15.0502 10.5918C14.9463 10.7718 14.7968 10.9212 14.6168 11.025V10.9917Z"
    fill="currentColor" />
</svg>