<svg width="20" height="20" viewBox="0 0 20 20" fill="none" xmlns="http://www.w3.org/2000/svg">
  <path
    d="M3.7 10C3.7 9.7613 3.60518 9.53239 3.4364 9.3636C3.26761 9.19482 3.03869 9.1 2.8 9.1H1.9C1.66131 9.1 1.43239 9.19482 1.2636 9.3636C1.09482 9.53239 1 9.7613 1 10C1 10.2387 1.09482 10.4676 1.2636 10.6364C1.43239 10.8052 1.66131 10.9 1.9 10.9H2.8C3.03869 10.9 3.26761 10.8052 3.4364 10.6364C3.60518 10.4676 3.7 10.2387 3.7 10ZM4.276 14.5L3.637 15.139C3.46937 15.3076 3.37529 15.5357 3.37529 15.7735C3.37529 16.0113 3.46937 16.2394 3.637 16.408C3.80563 16.5756 4.03373 16.6697 4.2715 16.6697C4.50927 16.6697 4.73737 16.5756 4.906 16.408L5.545 15.769C5.69244 15.5968 5.76949 15.3754 5.76074 15.1489C5.75199 14.9223 5.65809 14.7075 5.49781 14.5472C5.33752 14.3869 5.12266 14.293 4.89615 14.2843C4.66964 14.2755 4.44817 14.3526 4.276 14.5ZM10 3.7C10.2387 3.7 10.4676 3.60518 10.6364 3.4364C10.8052 3.26761 10.9 3.03869 10.9 2.8V1.9C10.9 1.66131 10.8052 1.43239 10.6364 1.2636C10.4676 1.09482 10.2387 1 10 1C9.7613 1 9.53239 1.09482 9.3636 1.2636C9.19482 1.43239 9.1 1.66131 9.1 1.9V2.8C9.1 3.03869 9.19482 3.26761 9.3636 3.4364C9.53239 3.60518 9.7613 3.7 10 3.7ZM15.094 5.806C15.3301 5.80501 15.5564 5.71127 15.724 5.545L16.363 4.906C16.4572 4.82532 16.5337 4.72603 16.5878 4.61437C16.6418 4.50271 16.6721 4.3811 16.6769 4.25715C16.6817 4.1332 16.6608 4.0096 16.6156 3.89411C16.5703 3.77862 16.5017 3.67372 16.414 3.58601C16.3263 3.49831 16.2214 3.42967 16.1059 3.38443C15.9904 3.33918 15.8668 3.31829 15.7429 3.32308C15.6189 3.32787 15.4973 3.35823 15.3856 3.41225C15.274 3.46627 15.1747 3.54279 15.094 3.637L14.5 4.276C14.3324 4.44463 14.2383 4.67273 14.2383 4.9105C14.2383 5.14827 14.3324 5.37637 14.5 5.545C14.6587 5.70283 14.8704 5.79588 15.094 5.806ZM4.294 5.545C4.46163 5.71127 4.68789 5.80501 4.924 5.806C5.04245 5.80668 5.15986 5.78398 5.26952 5.73919C5.37917 5.69441 5.4789 5.62841 5.563 5.545C5.73063 5.37637 5.82471 5.14827 5.82471 4.9105C5.82471 4.67273 5.73063 4.44463 5.563 4.276L4.924 3.637C4.84068 3.55249 4.74152 3.48523 4.6322 3.43904C4.52288 3.39286 4.40554 3.36865 4.28686 3.36782C4.16819 3.36698 4.05051 3.38953 3.94056 3.43417C3.8306 3.47881 3.73051 3.54468 3.646 3.628C3.56149 3.71132 3.49423 3.81048 3.44804 3.9198C3.40185 4.02912 3.37765 4.14646 3.37682 4.26514C3.37513 4.50481 3.46872 4.73533 3.637 4.906L4.294 5.545ZM18.1 9.1H17.2C16.9613 9.1 16.7324 9.19482 16.5636 9.3636C16.3948 9.53239 16.3 9.7613 16.3 10C16.3 10.2387 16.3948 10.4676 16.5636 10.6364C16.7324 10.8052 16.9613 10.9 17.2 10.9H18.1C18.3387 10.9 18.5676 10.8052 18.7364 10.6364C18.9052 10.4676 19 10.2387 19 10C19 9.7613 18.9052 9.53239 18.7364 9.3636C18.5676 9.19482 18.3387 9.1 18.1 9.1ZM15.724 14.5C15.553 14.4049 15.3557 14.3681 15.1619 14.3952C14.9681 14.4223 14.7885 14.5118 14.6501 14.6501C14.5118 14.7885 14.4223 14.9681 14.3952 15.1619C14.3681 15.3557 14.4049 15.553 14.5 15.724L15.139 16.363C15.3076 16.5306 15.5357 16.6247 15.7735 16.6247C16.0113 16.6247 16.2394 16.5306 16.408 16.363C16.5756 16.1944 16.6697 15.9663 16.6697 15.7285C16.6697 15.4907 16.5756 15.2626 16.408 15.094L15.724 14.5ZM10 5.05C9.02098 5.05 8.06395 5.34031 7.24993 5.88423C6.4359 6.42814 5.80145 7.20122 5.4268 8.10572C5.05214 9.01021 4.95412 10.0055 5.14511 10.9657C5.33611 11.9259 5.80755 12.8079 6.49982 13.5002C7.19209 14.1924 8.0741 14.6639 9.0343 14.8549C9.99451 15.0459 10.9898 14.9479 11.8943 14.5732C12.7988 14.1985 13.5719 13.5641 14.1158 12.7501C14.6597 11.936 14.95 10.979 14.95 10C14.9476 8.68791 14.4253 7.43024 13.4976 6.50245C12.5698 5.57466 11.3121 5.05238 10 5.05ZM10 13.15C9.37699 13.15 8.76797 12.9653 8.24995 12.6191C7.73194 12.273 7.3282 11.781 7.08978 11.2055C6.85136 10.6299 6.78898 9.9965 6.91053 9.38546C7.03207 8.77442 7.33208 8.21315 7.77261 7.77261C8.21315 7.33208 8.77442 7.03207 9.38546 6.91053C9.9965 6.78898 10.6299 6.85136 11.2055 7.08978C11.781 7.3282 12.273 7.73194 12.6191 8.24995C12.9653 8.76797 13.15 9.37699 13.15 10C13.15 10.8354 12.8181 11.6366 12.2274 12.2274C11.6366 12.8181 10.8354 13.15 10 13.15ZM10 16.3C9.7613 16.3 9.53239 16.3948 9.3636 16.5636C9.19482 16.7324 9.1 16.9613 9.1 17.2V18.1C9.1 18.3387 9.19482 18.5676 9.3636 18.7364C9.53239 18.9052 9.7613 19 10 19C10.2387 19 10.4676 18.9052 10.6364 18.7364C10.8052 18.5676 10.9 18.3387 10.9 18.1V17.2C10.9 16.9613 10.8052 16.7324 10.6364 16.5636C10.4676 16.3948 10.2387 16.3 10 16.3Z"
    fill="currentColor" />
</svg>
