<svg width="20" height="20" viewBox="0 0 20 20" fill="none" xmlns="http://www.w3.org/2000/svg">
<path d="M8.33269 5.83333C8.11167 5.83333 7.89971 5.92113 7.74343 6.07741C7.58715 6.23369 7.49935 6.44565 7.49935 6.66667V13.3333C7.49935 13.5543 7.58715 13.7663 7.74343 13.9226C7.89971 14.0789 8.11167 14.1667 8.33269 14.1667C8.5537 14.1667 8.76566 14.0789 8.92194 13.9226C9.07822 13.7663 9.16602 13.5543 9.16602 13.3333V6.66667C9.16602 6.44565 9.07822 6.23369 8.92194 6.07741C8.76566 5.92113 8.5537 5.83333 8.33269 5.83333ZM9.99935 1.66667C8.35118 1.66667 6.74001 2.15541 5.3696 3.07109C3.99919 3.98677 2.93109 5.28825 2.30036 6.81097C1.66963 8.33369 1.5046 10.0092 1.82614 11.6258C2.14769 13.2423 2.94136 14.7271 4.1068 15.8926C5.27223 17.058 6.75709 17.8517 8.3736 18.1732C9.99011 18.4948 11.6657 18.3297 13.1884 17.699C14.7111 17.0683 16.0126 16.0002 16.9283 14.6298C17.8439 13.2593 18.3327 11.6482 18.3327 10C18.3327 8.90565 18.1171 7.82202 17.6983 6.81097C17.2796 5.79993 16.6657 4.88127 15.8919 4.10744C15.1181 3.33362 14.1994 2.71979 13.1884 2.30101C12.1773 1.88222 11.0937 1.66667 9.99935 1.66667V1.66667ZM9.99935 16.6667C8.68081 16.6667 7.39188 16.2757 6.29555 15.5431C5.19922 14.8106 4.34474 13.7694 3.84016 12.5512C3.33557 11.3331 3.20355 9.99261 3.46078 8.6994C3.71802 7.40619 4.35296 6.21831 5.28531 5.28596C6.21766 4.35361 7.40554 3.71867 8.69875 3.46143C9.99196 3.2042 11.3324 3.33622 12.5506 3.8408C13.7687 4.34539 14.8099 5.19987 15.5425 6.2962C16.275 7.39253 16.666 8.68146 16.666 10C16.666 11.7681 15.9636 13.4638 14.7134 14.714C13.4632 15.9643 11.7675 16.6667 9.99935 16.6667V16.6667ZM11.666 5.83333C11.445 5.83333 11.233 5.92113 11.0768 6.07741C10.9205 6.23369 10.8327 6.44565 10.8327 6.66667V13.3333C10.8327 13.5543 10.9205 13.7663 11.0768 13.9226C11.233 14.0789 11.445 14.1667 11.666 14.1667C11.887 14.1667 12.099 14.0789 12.2553 13.9226C12.4116 13.7663 12.4994 13.5543 12.4994 13.3333V6.66667C12.4994 6.44565 12.4116 6.23369 12.2553 6.07741C12.099 5.92113 11.887 5.83333 11.666 5.83333Z" fill="#4300DA"/>
</svg>
