<svg width="20" height="21" viewBox="0 0 20 21" fill="none" xmlns="http://www.w3.org/2000/svg">
  <path id="Icon"
    d="M14.1665 2.31934V11.486M18.3332 8.81934V4.986C18.3332 4.05258 18.3332 3.58587 18.1516 3.22935C17.9918 2.91575 17.7368 2.66078 17.4232 2.50099C17.0667 2.31934 16.6 2.31934 15.6665 2.31934H6.76489C5.54699 2.31934 4.93804 2.31934 4.4462 2.5422C4.01271 2.73862 3.6443 3.05469 3.38425 3.45327C3.08919 3.9055 2.99659 4.50737 2.8114 5.71111L2.37551 8.54444C2.13125 10.1321 2.00912 10.9259 2.24472 11.5436C2.4515 12.0857 2.84042 12.5391 3.34482 12.8259C3.91949 13.1527 4.72266 13.1527 6.32899 13.1527H6.99988C7.46659 13.1527 7.69995 13.1527 7.87821 13.2435C8.03501 13.3234 8.16249 13.4509 8.24239 13.6077C8.33321 13.7859 8.33321 14.0193 8.33321 14.486V16.9311C8.33321 18.066 9.25321 18.986 10.3881 18.986C10.6588 18.986 10.9041 18.8266 11.014 18.5792L13.8146 12.2778C13.942 11.9912 14.0057 11.8479 14.1064 11.7428C14.1954 11.6499 14.3047 11.5789 14.4257 11.5353C14.5626 11.486 14.7194 11.486 15.033 11.486H15.6665C16.6 11.486 17.0667 11.486 17.4232 11.3043C17.7368 11.1446 17.9918 10.8896 18.1516 10.576C18.3332 10.2195 18.3332 9.75276 18.3332 8.81934Z"
    stroke="currentColor" stroke-width="2" stroke-linecap="round" stroke-linejoin="round" />
</svg>
