<svg width="20" height="21" viewBox="0 0 20 21" fill="none" xmlns="http://www.w3.org/2000/svg">
  <path id="Icon"
    d="M14.1668 2.31966L14.1668 11.4863M18.3335 9.81966L18.3335 3.98633C18.3335 3.06585 17.5873 2.31966 16.6668 2.31966L5.47829 2.31966C4.24436 2.31966 3.19499 3.21994 3.00736 4.43952L2.10993 10.2729C1.87694 11.7872 3.04864 13.153 4.58086 13.153L7.50016 13.153C7.9604 13.153 8.3335 13.5261 8.3335 13.9863L8.3335 16.9315C8.3335 18.0663 9.25349 18.9863 10.3884 18.9863C10.659 18.9863 10.9043 18.8269 11.0143 18.5796L13.9469 11.9812C14.0806 11.6803 14.3791 11.4863 14.7084 11.4863L16.6668 11.4863C17.5873 11.4863 18.3335 10.7401 18.3335 9.81966Z"
    stroke="currentColor" stroke-width="1.66667" stroke-linecap="round" stroke-linejoin="round" />
</svg>
