<svg width="20" height="21" viewBox="0 0 20 21" fill="none" xmlns="http://www.w3.org/2000/svg">
  <path id="Icon"
    d="M5.83317 18.986V9.81934M1.6665 11.486V17.3193C1.6665 18.2398 2.4127 18.986 3.33317 18.986H14.5217C15.7556 18.986 16.805 18.0857 16.9926 16.8661L17.8901 11.0328C18.1231 9.51842 16.9514 8.15267 15.4191 8.15267H12.4998C12.0396 8.15267 11.6665 7.77957 11.6665 7.31934V4.3742C11.6665 3.23933 10.7465 2.31934 9.61164 2.31934C9.34095 2.31934 9.09565 2.47875 8.98572 2.7261L6.05312 9.32445C5.91937 9.62539 5.62093 9.81934 5.29161 9.81934H3.33317C2.4127 9.81934 1.6665 10.5655 1.6665 11.486Z"
    stroke="currentColor" stroke-width="1.66667" stroke-linecap="round" stroke-linejoin="round" />
</svg>
