<svg width="21" height="20" viewBox="0 0 21 20" fill="none" xmlns="http://www.w3.org/2000/svg">
  <path
    d="M17.091 12.925H13.316C13.095 12.925 12.883 13.0128 12.7268 13.1691C12.5705 13.3254 12.4827 13.5373 12.4827 13.7583C12.4827 13.9793 12.5705 14.1913 12.7268 14.3476C12.883 14.5039 13.095 14.5917 13.316 14.5917H15.316C14.3968 15.5523 13.2114 16.2161 11.912 16.4978C10.6126 16.7796 9.25869 16.6663 8.02416 16.1727C6.78964 15.6791 5.73091 14.8276 4.98401 13.7276C4.23711 12.6277 3.83616 11.3296 3.83268 10C3.83268 9.77899 3.74489 9.56703 3.5886 9.41075C3.43232 9.25447 3.22036 9.16667 2.99935 9.16667C2.77834 9.16667 2.56637 9.25447 2.41009 9.41075C2.25381 9.56703 2.16602 9.77899 2.16602 10C2.17042 11.6273 2.6512 13.2178 3.54902 14.575C4.44684 15.9323 5.7224 16.997 7.2183 17.6377C8.7142 18.2784 10.365 18.4671 11.9669 18.1805C13.5688 17.894 15.0517 17.1446 16.2327 16.025V17.5C16.2327 17.721 16.3205 17.933 16.4768 18.0893C16.633 18.2455 16.845 18.3333 17.066 18.3333C17.287 18.3333 17.499 18.2455 17.6553 18.0893C17.8116 17.933 17.8993 17.721 17.8993 17.5V13.75C17.8973 13.5347 17.812 13.3285 17.6613 13.1747C17.5106 13.021 17.3062 12.9315 17.091 12.925ZM10.4993 1.66667C8.363 1.67276 6.31059 2.4991 4.76602 3.975V2.5C4.76602 2.27899 4.67822 2.06703 4.52194 1.91075C4.36566 1.75447 4.1537 1.66667 3.93268 1.66667C3.71167 1.66667 3.49971 1.75447 3.34343 1.91075C3.18715 2.06703 3.09935 2.27899 3.09935 2.5V6.25C3.09935 6.47102 3.18715 6.68298 3.34343 6.83926C3.49971 6.99554 3.71167 7.08333 3.93268 7.08333H7.68268C7.9037 7.08333 8.11566 6.99554 8.27194 6.83926C8.42822 6.68298 8.51602 6.47102 8.51602 6.25C8.51602 6.02899 8.42822 5.81703 8.27194 5.66075C8.11566 5.50447 7.9037 5.41667 7.68268 5.41667H5.68268C6.6014 4.45656 7.78609 3.79292 9.08468 3.51092C10.3833 3.22893 11.7365 3.34146 12.9707 3.83405C14.2049 4.32665 15.2637 5.17684 16.0112 6.2755C16.7587 7.37416 17.1609 8.67116 17.166 10C17.166 10.221 17.2538 10.433 17.4101 10.5893C17.5664 10.7455 17.7783 10.8333 17.9993 10.8333C18.2204 10.8333 18.4323 10.7455 18.5886 10.5893C18.7449 10.433 18.8327 10.221 18.8327 10C18.8327 8.90565 18.6171 7.82202 18.1983 6.81097C17.7796 5.79993 17.1657 4.88127 16.3919 4.10744C15.6181 3.33362 14.6994 2.71979 13.6884 2.30101C12.6773 1.88222 11.5937 1.66667 10.4993 1.66667V1.66667Z"
    fill="currentColor" />
</svg>