<svg width="18" height="18" viewBox="0 0 18 18" fill="none" xmlns="http://www.w3.org/2000/svg">
  <path
    d="M9.00001 1.5C7.54536 1.50276 6.12292 1.92848 4.90593 2.7253C3.68894 3.52212 2.72993 4.65566 2.14571 5.98783C1.5615 7.32 1.37729 8.79331 1.61553 10.2283C1.85376 11.6633 2.50416 12.9981 3.48751 14.07C4.18982 14.8313 5.04221 15.4389 5.99096 15.8544C6.93971 16.27 7.96424 16.4845 9.00001 16.4845C10.0358 16.4845 11.0603 16.27 12.0091 15.8544C12.9578 15.4389 13.8102 14.8313 14.5125 14.07C15.4958 12.9981 16.1462 11.6633 16.3845 10.2283C16.6227 8.79331 16.4385 7.32 15.8543 5.98783C15.2701 4.65566 14.3111 3.52212 13.0941 2.7253C11.8771 1.92848 10.4546 1.50276 9.00001 1.5ZM9.00001 15C7.44635 14.9976 5.95419 14.3927 4.83751 13.3125C5.17654 12.4872 5.75328 11.7812 6.49445 11.2844C7.23561 10.7876 8.10774 10.5224 9.00001 10.5224C9.89227 10.5224 10.7644 10.7876 11.5056 11.2844C12.2467 11.7812 12.8235 12.4872 13.1625 13.3125C12.0458 14.3927 10.5537 14.9976 9.00001 15ZM7.50001 7.5C7.50001 7.20333 7.58798 6.91332 7.7528 6.66665C7.91762 6.41997 8.15189 6.22771 8.42598 6.11418C8.70007 6.00065 9.00167 5.97094 9.29264 6.02882C9.58361 6.0867 9.85089 6.22956 10.0607 6.43934C10.2704 6.64912 10.4133 6.91639 10.4712 7.20737C10.5291 7.49834 10.4994 7.79994 10.3858 8.07403C10.2723 8.34811 10.08 8.58238 9.83336 8.7472C9.58669 8.91203 9.29668 9 9.00001 9C8.60218 9 8.22065 8.84197 7.93935 8.56066C7.65804 8.27936 7.50001 7.89783 7.50001 7.5ZM14.1825 12C13.5124 10.8538 12.4811 9.96227 11.25 9.465C11.6319 9.03199 11.8807 8.49799 11.9666 7.92708C12.0525 7.35616 11.9719 6.77258 11.7343 6.24637C11.4968 5.72016 11.1124 5.27367 10.6274 4.96047C10.1424 4.64728 9.57735 4.48069 9.00001 4.48069C8.42266 4.48069 7.85758 4.64728 7.37258 4.96047C6.88757 5.27367 6.50323 5.72016 6.26569 6.24637C6.02815 6.77258 5.9475 7.35616 6.0334 7.92708C6.11931 8.49799 6.36813 9.03199 6.75001 9.465C5.51895 9.96227 4.48761 10.8538 3.81751 12C3.28346 11.0903 3.0013 10.0548 3.00001 9C3.00001 7.4087 3.63215 5.88258 4.75737 4.75736C5.88258 3.63214 7.40871 3 9.00001 3C10.5913 3 12.1174 3.63214 13.2426 4.75736C14.3679 5.88258 15 7.4087 15 9C14.9987 10.0548 14.7165 11.0903 14.1825 12Z"
    fill="currentColor" />
</svg>