<svg width="18" height="18" viewBox="0 0 18 18" fill="none" xmlns="http://www.w3.org/2000/svg">
  <path
    d="M7.5 3.75C7.35166 3.75 7.20666 3.79399 7.08332 3.8764C6.95999 3.95881 6.86386 4.07594 6.80709 4.21299C6.75032 4.35003 6.73547 4.50083 6.76441 4.64632C6.79335 4.7918 6.86478 4.92544 6.96967 5.03033C7.07456 5.13522 7.2082 5.20665 7.35368 5.23559C7.49917 5.26453 7.64997 5.24968 7.78701 5.19291C7.92406 5.13614 8.04119 5.04001 8.1236 4.91668C8.20601 4.79334 8.25 4.64834 8.25 4.5C8.25 4.30109 8.17098 4.11032 8.03033 3.96967C7.88968 3.82902 7.69891 3.75 7.5 3.75ZM4.5 3.75C4.35166 3.75 4.20666 3.79399 4.08332 3.8764C3.95999 3.95881 3.86386 4.07594 3.80709 4.21299C3.75032 4.35003 3.73547 4.50083 3.76441 4.64632C3.79335 4.7918 3.86478 4.92544 3.96967 5.03033C4.07456 5.13522 4.2082 5.20665 4.35368 5.23559C4.49917 5.26453 4.64997 5.24968 4.78701 5.19291C4.92406 5.13614 5.04119 5.04001 5.1236 4.91668C5.20601 4.79334 5.25 4.64834 5.25 4.5C5.25 4.30109 5.17098 4.11032 5.03033 3.96967C4.88968 3.82902 4.69891 3.75 4.5 3.75ZM10.5 3.75C10.3517 3.75 10.2067 3.79399 10.0833 3.8764C9.95998 3.95881 9.86386 4.07594 9.80709 4.21299C9.75032 4.35003 9.73547 4.50083 9.76441 4.64632C9.79335 4.7918 9.86478 4.92544 9.96967 5.03033C10.0746 5.13522 10.2082 5.20665 10.3537 5.23559C10.4992 5.26453 10.65 5.24968 10.787 5.19291C10.9241 5.13614 11.0412 5.04001 11.1236 4.91668C11.206 4.79334 11.25 4.64834 11.25 4.5C11.25 4.30109 11.171 4.11032 11.0303 3.96967C10.8897 3.82902 10.6989 3.75 10.5 3.75ZM15 0.75H3C2.40326 0.75 1.83097 0.987053 1.40901 1.40901C0.987053 1.83097 0.75 2.40326 0.75 3V15C0.75 15.5967 0.987053 16.169 1.40901 16.591C1.83097 17.0129 2.40326 17.25 3 17.25H15C15.5967 17.25 16.169 17.0129 16.591 16.591C17.0129 16.169 17.25 15.5967 17.25 15V3C17.25 2.40326 17.0129 1.83097 16.591 1.40901C16.169 0.987053 15.5967 0.75 15 0.75ZM15.75 15C15.75 15.1989 15.671 15.3897 15.5303 15.5303C15.3897 15.671 15.1989 15.75 15 15.75H3C2.80109 15.75 2.61032 15.671 2.46967 15.5303C2.32902 15.3897 2.25 15.1989 2.25 15V8.25H15.75V15ZM15.75 6.75H2.25V3C2.25 2.80109 2.32902 2.61032 2.46967 2.46967C2.61032 2.32902 2.80109 2.25 3 2.25H15C15.1989 2.25 15.3897 2.32902 15.5303 2.46967C15.671 2.61032 15.75 2.80109 15.75 3V6.75Z"
    fill="currentColor" />
</svg>