<svg width="18" height="18" viewBox="0 0 18 18" fill="none"
  xmlns="http://www.w3.org/2000/svg">
  <path d="M14.25 1.5C14.8467 1.5 15.4189 1.75672 15.8408 2.21289C16.2627 2.66905 16.5 3.28757 16.5 3.93262V14.0674C16.5 14.7124 16.2627 15.331 15.8408 15.7871C15.4189 16.2433 14.8467 16.5 14.25 16.5H3.75C3.15326 16.5 2.58114 16.2433 2.15918 15.7871C1.73731 15.331 1.5 14.7124 1.5 14.0674V3.93262C1.5 3.28757 1.73731 2.66905 2.15918 2.21289C2.58114 1.75672 3.15326 1.5 3.75 1.5H14.25ZM3.75 3.12207C3.55109 3.12207 3.36038 3.20732 3.21973 3.35938C3.07914 3.51142 3 3.71763 3 3.93262V14.0674C3 14.2824 3.07914 14.4886 3.21973 14.6406C3.36038 14.7927 3.55109 14.8779 3.75 14.8779H14.25C14.4489 14.8779 14.6396 14.7927 14.7803 14.6406C14.9209 14.4886 15 14.2824 15 14.0674V9.75H13.4365C13.0794 11.8782 11.2297 13.5 9 13.5C6.51472 13.5 4.5 11.4853 4.5 9C4.5 6.51472 6.51472 4.5 9 4.5C11.2297 4.5 13.0794 6.12182 13.4365 8.25H15V3.93262C15 3.71763 14.9209 3.51142 14.7803 3.35938C14.6396 3.20732 14.4489 3.12207 14.25 3.12207H3.75ZM9 6C7.34315 6 6 7.34315 6 9C6 10.6569 7.34315 12 9 12C10.3976 12 11.569 11.0435 11.9023 9.75H10.2979C10.0384 10.198 9.55495 10.5 9 10.5C8.17157 10.5 7.5 9.82843 7.5 9C7.5 8.17157 8.17157 7.5 9 7.5C9.55495 7.5 10.0384 7.802 10.2979 8.25H11.9023C11.569 6.95646 10.3976 6 9 6Z" fill="currentColor"/>
</svg>
