<svg width="21" height="21" viewBox="0 0 21 21" fill="none" xmlns="http://www.w3.org/2000/svg">
  <path
    d="M10.4217 2.31934C8.77354 2.31934 7.16237 2.80808 5.79196 3.72376C4.42155 4.63943 3.35345 5.94092 2.72272 7.46364C2.09199 8.98636 1.92696 10.6619 2.24851 12.2784C2.57005 13.8949 3.36372 15.3798 4.52916 16.5452C5.6946 17.7107 7.17946 18.5043 8.79596 18.8259C10.4125 19.1474 12.088 18.9824 13.6107 18.3517C15.1335 17.7209 16.4349 16.6528 17.3506 15.2824C18.2663 13.912 18.755 12.3008 18.755 10.6527C18.755 9.55832 18.5395 8.47469 18.1207 7.46364C17.7019 6.45259 17.0881 5.53393 16.3143 4.76011C15.5405 3.98629 14.6218 3.37246 13.6107 2.95367C12.5997 2.53488 11.5161 2.31934 10.4217 2.31934ZM10.4217 17.3193C9.10317 17.3193 7.81424 16.9283 6.71791 16.1958C5.62159 15.4633 4.7671 14.4221 4.26252 13.2039C3.75794 11.9857 3.62591 10.6453 3.88315 9.35207C4.14038 8.05886 4.77532 6.87097 5.70767 5.93862C6.64002 5.00627 7.82791 4.37134 9.12111 4.1141C10.4143 3.85687 11.7548 3.98889 12.9729 4.49347C14.1911 4.99806 15.2323 5.85254 15.9648 6.94887C16.6974 8.0452 17.0884 9.33413 17.0884 10.6527C17.0884 12.4208 16.386 14.1165 15.1358 15.3667C13.8855 16.617 12.1898 17.3193 10.4217 17.3193Z"
    fill="currentColor" />
  <path fill-rule="evenodd" clip-rule="evenodd"
    d="M7.50537 8.75556C7.50537 7.47585 8.88784 6.67357 9.99894 7.30848L13.3193 9.20583C14.439 9.84566 14.439 11.4602 13.3193 12.1L9.99894 13.9973C8.88784 14.6322 7.50537 13.83 7.50537 12.5503V8.75556ZM12.4924 10.6529L9.17204 8.75556V12.5503L12.4924 10.6529Z"
    fill="currentColor" />
</svg>
