<svg width="20" height="20" viewBox="0 0 20 20" fill="none" xmlns="http://www.w3.org/2000/svg">
  <path
    d="M12.5489 6.14861C12.5666 6.61138 12.9561 6.97218 13.4188 6.95449C13.8816 6.9368 14.2424 6.54731 14.2247 6.08455C14.1713 4.68809 13.4231 3.34515 12.1203 2.59297C10.1048 1.42933 7.52759 2.11989 6.36394 4.13537C5.34386 5.90221 5.74869 8.1007 7.22188 9.40018L5.07584 13.1172C4.84429 13.5183 4.9817 14.0311 5.38276 14.2627C5.78382 14.4942 6.29666 14.3568 6.52821 13.9557L9.05179 9.58477C9.28334 9.18371 9.14593 8.67088 8.74487 8.43932C7.53151 7.73879 7.11578 6.18726 7.81631 4.9739C8.51685 3.76053 10.0684 3.3448 11.2817 4.04534C12.0648 4.49743 12.5166 5.3038 12.5489 6.14861Z"
    fill="currentColor" />
  <path
    d="M11.8106 16.3542C12.0266 15.9446 12.5339 15.7877 12.9435 16.0037C13.6912 16.3982 14.6155 16.4101 15.3985 15.958C16.6119 15.2574 17.0276 13.7059 16.3271 12.4925C15.6266 11.2792 14.075 10.8635 12.8617 11.564C12.4606 11.7955 11.9478 11.6581 11.7162 11.2571L9.19263 6.88609C8.96108 6.48503 9.09849 5.9722 9.49955 5.74064C9.90061 5.50909 10.4134 5.6465 10.645 6.04757L12.791 9.76461C14.653 9.13853 16.7594 9.88719 17.7795 11.654C18.9431 13.6695 18.2525 16.2467 16.2371 17.4103C14.9342 18.1625 13.3971 18.1391 12.161 17.4871C11.7514 17.271 11.5945 16.7638 11.8106 16.3542Z"
    fill="currentColor" />
  <path
    d="M4.79459 10.4559C5.0413 10.8479 4.92357 11.3656 4.53165 11.6123C3.81617 12.0626 3.34374 12.8571 3.34374 13.7613C3.34374 15.1624 4.47953 16.2982 5.88061 16.2982C7.28168 16.2982 8.41748 15.1624 8.41748 13.7613C8.41748 13.2982 8.7929 12.9228 9.256 12.9228H14.3032C14.7663 12.9228 15.1417 13.2982 15.1417 13.7613C15.1417 14.2244 14.7663 14.5998 14.3032 14.5998H10.0111C9.62231 16.5254 7.92077 17.9752 5.88061 17.9752C3.55332 17.9752 1.66669 16.0886 1.66669 13.7613C1.66669 12.2569 2.45558 10.9375 3.63826 10.193C4.03018 9.94629 4.54789 10.064 4.79459 10.4559Z"
    fill="currentColor" />
</svg>