<svg width="20" height="20" viewBox="0 0 20 20" fill="none" xmlns="http://www.w3.org/2000/svg">
<path d="M15.8327 1.66666H7.49935C6.83631 1.66666 6.20042 1.93005 5.73158 2.39889C5.26274 2.86773 4.99935 3.50362 4.99935 4.16666V4.99999H4.16602C3.50297 4.99999 2.86709 5.26338 2.39825 5.73222C1.92941 6.20106 1.66602 6.83695 1.66602 7.49999V15.8333C1.66602 16.4964 1.92941 17.1323 2.39825 17.6011C2.86709 18.0699 3.50297 18.3333 4.16602 18.3333H12.4993C13.1624 18.3333 13.7983 18.0699 14.2671 17.6011C14.736 17.1323 14.9993 16.4964 14.9993 15.8333V15H15.8327C16.4957 15 17.1316 14.7366 17.6005 14.2678C18.0693 13.7989 18.3327 13.163 18.3327 12.5V4.16666C18.3327 3.50362 18.0693 2.86773 17.6005 2.39889C17.1316 1.93005 16.4957 1.66666 15.8327 1.66666ZM13.3327 15.8333C13.3327 16.0543 13.2449 16.2663 13.0886 16.4226C12.9323 16.5789 12.7204 16.6667 12.4993 16.6667H4.16602C3.945 16.6667 3.73304 16.5789 3.57676 16.4226C3.42048 16.2663 3.33268 16.0543 3.33268 15.8333V9.99999H13.3327V15.8333ZM13.3327 8.33332H3.33268V7.49999C3.33268 7.27898 3.42048 7.06701 3.57676 6.91073C3.73304 6.75445 3.945 6.66666 4.16602 6.66666H12.4993C12.7204 6.66666 12.9323 6.75445 13.0886 6.91073C13.2449 7.06701 13.3327 7.27898 13.3327 7.49999V8.33332ZM16.666 12.5C16.666 12.721 16.5782 12.933 16.4219 13.0892C16.2657 13.2455 16.0537 13.3333 15.8327 13.3333H14.9993V7.49999C14.9971 7.2157 14.9464 6.93389 14.8493 6.66666H16.666V12.5ZM16.666 4.99999H6.66602V4.16666C6.66602 3.94564 6.75381 3.73368 6.91009 3.5774C7.06637 3.42112 7.27834 3.33332 7.49935 3.33332H15.8327C16.0537 3.33332 16.2657 3.42112 16.4219 3.5774C16.5782 3.73368 16.666 3.94564 16.666 4.16666V4.99999Z" fill="currentColor"/>
</svg>
