<svg width="18" height="18" viewBox="0 0 18 18" fill="none" xmlns="http://www.w3.org/2000/svg">
  <path
    d="M12.75 6.75H6.75V5.25C6.74891 4.80464 6.88001 4.36898 7.12669 3.99818C7.37338 3.62738 7.72456 3.33814 8.13576 3.16707C8.54696 2.99601 8.99967 2.95082 9.43657 3.03724C9.87346 3.12365 10.2749 3.33778 10.59 3.6525C10.872 3.94055 11.0736 4.29737 11.175 4.6875C11.1996 4.78304 11.2428 4.87279 11.3021 4.95163C11.3614 5.03047 11.4357 5.09686 11.5207 5.147C11.6056 5.19715 11.6996 5.23006 11.7973 5.24388C11.895 5.25769 11.9945 5.25212 12.09 5.2275C12.1855 5.20288 12.2753 5.15968 12.3541 5.10037C12.433 5.04106 12.4994 4.9668 12.5495 4.88184C12.5996 4.79687 12.6326 4.70286 12.6464 4.60518C12.6602 4.50749 12.6546 4.40804 12.63 4.3125C12.4591 3.6636 12.1203 3.0712 11.6475 2.595C11.1226 2.07178 10.4545 1.7158 9.72747 1.57203C9.00043 1.42826 8.2471 1.50314 7.56259 1.78722C6.87809 2.07129 6.2931 2.55182 5.88151 3.16813C5.46991 3.78444 5.25016 4.50889 5.25 5.25V6.75C4.65326 6.75 4.08097 6.98705 3.65901 7.40901C3.23705 7.83097 3 8.40326 3 9V14.25C3 14.8467 3.23705 15.419 3.65901 15.841C4.08097 16.2629 4.65326 16.5 5.25 16.5H12.75C13.3467 16.5 13.919 16.2629 14.341 15.841C14.7629 15.419 15 14.8467 15 14.25V9C15 8.40326 14.7629 7.83097 14.341 7.40901C13.919 6.98705 13.3467 6.75 12.75 6.75ZM13.5 14.25C13.5 14.4489 13.421 14.6397 13.2803 14.7803C13.1397 14.921 12.9489 15 12.75 15H5.25C5.05109 15 4.86032 14.921 4.71967 14.7803C4.57902 14.6397 4.5 14.4489 4.5 14.25V9C4.5 8.80109 4.57902 8.61032 4.71967 8.46967C4.86032 8.32902 5.05109 8.25 5.25 8.25H12.75C12.9489 8.25 13.1397 8.32902 13.2803 8.46967C13.421 8.61032 13.5 8.80109 13.5 9V14.25Z"
    fill="currentColor" />
</svg>