<svg width="18" height="18" viewBox="0 0 18 18" fill="none" xmlns="http://www.w3.org/2000/svg">
  <path
    d="M14.7225 2.73749C14.6354 2.667 14.5336 2.61694 14.4245 2.59098C14.3155 2.56503 14.2021 2.56383 14.0925 2.58749C13.2911 2.75545 12.4638 2.75758 11.6615 2.59377C10.8592 2.42997 10.0989 2.10367 9.4275 1.63499C9.30196 1.54789 9.1528 1.50122 9 1.50122C8.8472 1.50122 8.69805 1.54789 8.5725 1.63499C7.90107 2.10367 7.14081 2.42997 6.33853 2.59377C5.53625 2.75758 4.70893 2.75545 3.9075 2.58749C3.79796 2.56383 3.6845 2.56503 3.57548 2.59098C3.46646 2.61694 3.36464 2.667 3.2775 2.73749C3.19049 2.80808 3.1204 2.89726 3.07237 2.9985C3.02435 3.09973 2.99962 3.21044 3 3.32249V8.90999C2.99934 9.9853 3.25558 11.0452 3.74741 12.0015C4.23923 12.9577 4.95239 13.7826 5.8275 14.4075L8.565 16.3575C8.69203 16.4479 8.84408 16.4965 9 16.4965C9.15593 16.4965 9.30798 16.4479 9.435 16.3575L12.1725 14.4075C13.0476 13.7826 13.7608 12.9577 14.2526 12.0015C14.7444 11.0452 15.0007 9.9853 15 8.90999V3.32249C15.0004 3.21044 14.9757 3.09973 14.9276 2.9985C14.8796 2.89726 14.8095 2.80808 14.7225 2.73749ZM13.5 8.90999C13.5006 9.74605 13.3015 10.5702 12.9192 11.3138C12.537 12.0573 11.9827 12.6989 11.3025 13.185L9 14.8275L6.6975 13.185C6.01728 12.6989 5.46299 12.0573 5.08077 11.3138C4.69854 10.5702 4.49943 9.74605 4.5 8.90999V4.18499C6.07233 4.31956 7.64703 3.95475 9 3.14249C10.353 3.95475 11.9277 4.31956 13.5 4.18499V8.90999ZM10.155 7.19249L8.1375 9.21749L7.47 8.54249C7.32878 8.40126 7.13723 8.32192 6.9375 8.32192C6.73778 8.32192 6.54623 8.40126 6.405 8.54249C6.26378 8.68371 6.18444 8.87526 6.18444 9.07499C6.18444 9.27471 6.26378 9.46626 6.405 9.60749L7.605 10.8075C7.67473 10.8778 7.75768 10.9336 7.84907 10.9717C7.94047 11.0097 8.0385 11.0293 8.1375 11.0293C8.23651 11.0293 8.33454 11.0097 8.42594 10.9717C8.51733 10.9336 8.60028 10.8778 8.67 10.8075L11.25 8.24999C11.3912 8.10876 11.4706 7.91721 11.4706 7.71749C11.4706 7.51776 11.3912 7.32621 11.25 7.18499C11.1088 7.04376 10.9172 6.96442 10.7175 6.96442C10.5178 6.96442 10.3262 7.04376 10.185 7.18499L10.155 7.19249Z"
    fill="currentColor" />
</svg>