<svg width="48" height="48" viewBox="0 0 48 48" fill="none" xmlns="http://www.w3.org/2000/svg">
<g clip-path="url(#clip0_99_1356)">
<path d="M24 44C35.0457 44 44 35.0457 44 24C44 12.9543 35.0457 4 24 4C12.9543 4 4 12.9543 4 24C4 35.0457 12.9543 44 24 44Z" fill="#5C2D91"/>
<path opacity="0.1" d="M10.1375 9.625C8.10435 11.4368 6.46262 13.6446 5.31295 16.1133C4.16327 18.582 3.52987 21.2595 3.45156 23.9816C3.37326 26.7038 3.8517 29.4132 4.85756 31.9439C5.86343 34.4746 7.37552 36.7732 9.30116 38.6988C11.2268 40.6245 13.5254 42.1366 16.0561 43.1424C18.5868 44.1483 21.2962 44.6267 24.0184 44.5484C26.7405 44.4701 29.418 43.8367 31.8867 42.6871C34.3554 41.5374 36.5632 39.8956 38.375 37.8625L10.1375 9.625Z" fill="white"/>
<path d="M8.625 27.2813C8.50834 27.2831 8.39256 27.2608 8.28498 27.2156C8.1774 27.1704 8.08037 27.1034 8 27.0188C7.91743 26.9372 7.85218 26.8398 7.80815 26.7324C7.76411 26.625 7.74221 26.5099 7.74375 26.3938C7.74292 26.2779 7.76514 26.1629 7.80913 26.0556C7.85312 25.9483 7.918 25.8508 8 25.7688C8.07958 25.6828 8.17632 25.6144 8.28398 25.5681C8.39164 25.5218 8.50782 25.4986 8.625 25.5001C8.74201 25.4998 8.85784 25.5235 8.96534 25.5697C9.07283 25.6159 9.16972 25.6837 9.25 25.7688C9.33341 25.8501 9.39963 25.9473 9.44473 26.0546C9.48982 26.162 9.51287 26.2774 9.5125 26.3938C9.51359 26.5104 9.49087 26.6259 9.44574 26.7334C9.4006 26.8409 9.33399 26.938 9.25 27.0188C9.16895 27.1025 9.07179 27.1689 8.96437 27.214C8.85695 27.2592 8.74151 27.282 8.625 27.2813Z" fill="white"/>
<path d="M21.0438 27.125H19.4063L13.55 18.0375C13.4041 17.8135 13.2826 17.5747 13.1875 17.325H13.1375C13.1932 17.8438 13.214 18.3658 13.2 18.8875V27.125H11.8688V15.7312H13.6L19.3 24.6562C19.5375 25.027 19.6917 25.2812 19.7625 25.4187H19.7938C19.7278 24.8629 19.7007 24.3032 19.7125 23.7437V15.7312H21.0438V27.125Z" fill="white"/>
<path d="M30.0562 27.125H24V15.7312H29.775V16.9375H25.3625V20.725H29.475V21.925H25.3625V25.875H30.0625L30.0562 27.125Z" fill="white"/>
<path d="M39 16.9375H35.6875V27.125H34.3563V16.9375H31.0813V15.7312H39V16.9375Z" fill="white"/>
<path d="M20.325 34.875C19.8738 35.0935 19.3761 35.1986 18.875 35.1812C18.5421 35.1962 18.2098 35.1399 17.9004 35.0159C17.591 34.8919 17.3117 34.7032 17.0813 34.4625C16.622 33.9484 16.3801 33.2763 16.4063 32.5875C16.3894 32.2145 16.4477 31.842 16.5776 31.492C16.7075 31.142 16.9064 30.8217 17.1625 30.55C17.4121 30.2943 17.7121 30.0934 18.0435 29.96C18.3749 29.8266 18.7304 29.7636 19.0875 29.775C19.5148 29.7604 19.9405 29.8349 20.3375 29.9937V30.6187C19.9553 30.4071 19.5243 30.2994 19.0875 30.3062C18.8121 30.2985 18.5383 30.3503 18.2848 30.4582C18.0313 30.5661 17.8041 30.7274 17.6188 30.9312C17.229 31.3753 17.0272 31.9536 17.0563 32.5437C17.0271 33.1028 17.2152 33.6515 17.5813 34.075C17.7568 34.2638 17.9712 34.4124 18.2096 34.5106C18.448 34.6087 18.7049 34.6542 18.9625 34.6437C19.4424 34.6563 19.9163 34.5351 20.3313 34.2937L20.325 34.875Z" fill="#F2F2F2"/>
<path d="M22.8813 35.1813C22.6325 35.1893 22.3848 35.1438 22.1552 35.0479C21.9255 34.9519 21.7191 34.8077 21.55 34.625C21.2082 34.2436 21.0308 33.7428 21.0563 33.2313C21.0406 32.9633 21.0785 32.6949 21.1675 32.4417C21.2566 32.1885 21.3951 31.9555 21.575 31.7563C21.7586 31.5771 21.977 31.4375 22.2168 31.3461C22.4565 31.2547 22.7125 31.2135 22.9688 31.225C23.211 31.2121 23.4532 31.2518 23.6787 31.3414C23.9042 31.4309 24.1076 31.5682 24.275 31.7438C24.6072 32.1441 24.7748 32.6558 24.7438 33.175C24.77 33.702 24.5882 34.2183 24.2375 34.6125C24.0652 34.7988 23.855 34.9459 23.6211 35.044C23.3871 35.1421 23.1348 35.1889 22.8813 35.1813ZM22.925 31.7625C22.7531 31.7553 22.5817 31.7869 22.4237 31.8551C22.2658 31.9233 22.1252 32.0262 22.0125 32.1563C21.772 32.4659 21.6521 32.8524 21.675 33.2438C21.6532 33.6236 21.7735 33.9979 22.0125 34.2938C22.1264 34.422 22.2673 34.5233 22.4251 34.5903C22.5829 34.6573 22.7537 34.6884 22.925 34.6813C23.0927 34.6912 23.2605 34.6625 23.4154 34.5975C23.5703 34.5325 23.7083 34.4329 23.8188 34.3063C24.046 33.9958 24.1566 33.6152 24.1313 33.2313C24.156 32.8455 24.0455 32.4632 23.8188 32.15C23.7098 32.0208 23.5725 31.9185 23.4174 31.8513C23.2623 31.7841 23.0938 31.7537 22.925 31.7625Z" fill="#F2F2F2"/>
<path d="M27.6625 31.95C27.5275 31.8616 27.3672 31.8199 27.2062 31.8313C27.0803 31.8358 26.9575 31.8713 26.8485 31.9345C26.7395 31.9977 26.6477 32.0868 26.5812 32.1938C26.3952 32.4883 26.3057 32.8335 26.325 33.1813V35.0938H25.7V31.3438H26.325V32.125C26.3937 31.8833 26.5304 31.6664 26.7187 31.5C26.8817 31.3586 27.0904 31.2809 27.3062 31.2813C27.4271 31.2758 27.5478 31.2928 27.6625 31.3313V31.95Z" fill="#F2F2F2"/>
<path d="M31.325 33.375H28.6812C28.6635 33.7244 28.7772 34.0678 29 34.3375C29.1158 34.4531 29.2548 34.5428 29.4077 34.601C29.5607 34.6592 29.7241 34.6844 29.8875 34.675C30.3112 34.6708 30.7209 34.5232 31.05 34.2563V34.8188C30.6636 35.0735 30.206 35.1983 29.7437 35.175C29.5105 35.1868 29.2776 35.147 29.0615 35.0584C28.8454 34.9698 28.6516 34.8346 28.4937 34.6625C28.1684 34.2567 28.0057 33.7442 28.0375 33.225C28.015 32.7045 28.1916 32.195 28.5312 31.8C28.6858 31.6214 28.8782 31.4795 29.0944 31.3843C29.3105 31.2892 29.5452 31.2433 29.7812 31.25C29.9944 31.2381 30.2075 31.2746 30.4045 31.3569C30.6016 31.4392 30.7774 31.565 30.9187 31.725C31.2065 32.1045 31.3485 32.5747 31.3187 33.05L31.325 33.375ZM30.7 32.8688C30.7127 32.5792 30.6243 32.2941 30.45 32.0625C30.3645 31.9659 30.2582 31.8898 30.1392 31.8401C30.0201 31.7903 29.8913 31.768 29.7625 31.775C29.628 31.7734 29.4946 31.7997 29.3709 31.8525C29.2471 31.9052 29.1357 31.9831 29.0437 32.0813C28.838 32.2989 28.7086 32.5775 28.675 32.875L30.7 32.8688Z" fill="#F2F2F2"/>
</g>
<defs>
<clipPath id="clip0_99_1356">
<rect width="40" height="40" fill="white" transform="translate(4 4)"/>
</clipPath>
</defs>
</svg>
