<svg width="48" height="48" viewBox="0 0 48 48" fill="none" xmlns="http://www.w3.org/2000/svg">
<path d="M36.4612 22.6924H26.0003L16.8475 31.847L22.0761 37.0766L36.4612 22.6924Z" fill="#54C5F8"/>
<path d="M14.2314 29.2317L9 24.0003L26.0004 7H36.4612L14.2314 29.2317Z" fill="#54C5F8"/>
<path d="M22.0762 37.0762L26.0004 41.0004H36.4612L27.3084 31.8467L22.0762 37.0762Z" fill="#01579B"/>
<path d="M22.0762 37.0762L29.8348 34.3915L27.3084 31.8467L22.0762 37.0762Z" fill="url(#paint0_linear_99_2287)"/>
<path d="M22.0769 26.6157L16.8463 31.8464L22.0769 37.0769L27.3074 31.8464L22.0769 26.6157Z" fill="#29B6F6"/>
<path d="M36.4612 22.6923L27.3074 31.8459L36.4612 40.9997H26.0004L22.077 37.0765L16.8456 31.8451L25.9994 22.6913L36.4612 22.6923ZM26.0004 7L9 24.0003L14.2314 29.2317L36.4612 7H26.0004Z" fill="url(#paint1_radial_99_2287)"/>
<defs>
<linearGradient id="paint0_linear_99_2287" x1="23.6025" y1="38.0868" x2="27.4984" y2="34.1907" gradientUnits="userSpaceOnUse">
<stop stop-color="#1A237E" stop-opacity="0.4"/>
<stop offset="1" stop-color="#1A237E" stop-opacity="0"/>
</linearGradient>
<radialGradient id="paint1_radial_99_2287" cx="0" cy="0" r="1" gradientUnits="userSpaceOnUse" gradientTransform="translate(9.7728 9.31795) scale(41.5973)">
<stop stop-color="white" stop-opacity="0.1"/>
<stop offset="1" stop-color="white" stop-opacity="0"/>
</radialGradient>
</defs>
</svg>
