<svg width="48" height="48" viewBox="0 0 48 48" fill="none" xmlns="http://www.w3.org/2000/svg">
<g clip-path="url(#clip0_99_407)">
<path d="M24.0001 8.39453C20.2008 8.39469 16.5256 9.74672 13.632 12.2087C10.7384 14.6707 8.81525 18.082 8.20666 21.8322C7.59807 25.5824 8.34375 29.4267 10.3103 32.6774C12.2768 35.9281 15.3359 38.373 18.9401 39.5746C19.7401 39.7147 20.0401 39.2347 20.0401 38.8146C20.0401 38.4347 20.0201 37.1746 20.0201 35.8346C16 36.5746 14.96 34.8547 14.64 33.9547C14.285 33.0794 13.7221 32.3037 13 31.6946C12.44 31.3946 11.64 30.6546 12.98 30.6347C13.4917 30.6902 13.9824 30.8682 14.4107 31.1537C14.8389 31.4392 15.192 31.8237 15.44 32.2746C15.6589 32.6677 15.9531 33.0138 16.306 33.293C16.6588 33.5722 17.0632 33.7791 17.4961 33.9017C17.929 34.0243 18.3818 34.0603 18.8287 34.0076C19.2755 33.9549 19.7075 33.8146 20.1 33.5946C20.1693 32.7812 20.5318 32.0207 21.1201 31.4547C17.5601 31.0547 13.84 29.6746 13.84 23.5546C13.8176 21.9645 14.4043 20.426 15.48 19.2546C14.9909 17.8726 15.0481 16.3559 15.64 15.0146C15.64 15.0146 16.98 14.5946 20.0401 16.6546C22.6581 15.9346 25.422 15.9346 28.0401 16.6546C31.1 14.5746 32.4401 15.0146 32.4401 15.0146C33.0321 16.3558 33.0893 17.8726 32.6001 19.2546C33.679 20.4239 34.2663 21.9638 34.2401 23.5546C34.2401 29.6946 30.5 31.0547 26.9401 31.4547C27.3219 31.8417 27.616 32.3064 27.8023 32.8171C27.9887 33.3278 28.0629 33.8727 28.0201 34.4147C28.0201 36.5547 28 38.2747 28 38.8147C28 39.2347 28.3 39.7347 29.1 39.5747C32.6979 38.3633 35.7482 35.9127 37.7063 32.6603C39.6645 29.4079 40.4031 25.5655 39.7903 21.819C39.1775 18.0724 37.2531 14.6656 34.3608 12.2066C31.4685 9.74758 27.7964 8.39651 24.0001 8.39453Z" fill="black"/>
</g>
<defs>
<clipPath id="clip0_99_407">
<rect width="32.0002" height="32" fill="white" transform="translate(8 8)"/>
</clipPath>
</defs>
</svg>
