<svg width="48" height="48" viewBox="0 0 48 48" fill="none" xmlns="http://www.w3.org/2000/svg">
<path fill-rule="evenodd" clip-rule="evenodd" d="M26.6471 21.5553C26.176 21.687 25.6982 21.8207 25.1452 21.971C24.8751 22.0475 24.8136 22.0648 24.5622 21.7593C24.2607 21.3993 24.0396 21.1663 23.6173 20.9545C22.3508 20.298 21.1245 20.4887 19.9786 21.2722C18.6116 22.204 17.908 23.5806 17.9281 25.2959C17.9481 26.9901 19.0538 28.3878 20.6421 28.6208C22.0091 28.8114 23.155 28.303 24.0596 27.223C24.2405 26.9902 24.4015 26.7358 24.6025 26.4396H20.7225C20.3002 26.4396 20.1997 26.1642 20.3405 25.8042C20.6018 25.1477 21.0843 24.0464 21.3657 23.4958C21.4261 23.3688 21.5668 23.1569 21.8683 23.1569H28.3377C28.6283 22.1869 29.0998 21.2704 29.7288 20.4032C31.1965 18.3702 32.9656 17.3113 35.3578 16.8665C37.4085 16.4854 39.3383 16.6972 41.0873 17.9465C42.6756 19.0902 43.6606 20.6362 43.922 22.6692C44.2637 25.5282 43.4797 27.8577 41.6101 29.8483C40.2832 31.2673 38.6548 32.1567 36.7852 32.559C36.4286 32.6287 36.072 32.6617 35.721 32.6942C35.5378 32.7111 35.3562 32.7279 35.177 32.7497C33.3475 32.7073 31.679 32.1567 30.2716 30.886C29.282 29.9849 28.6003 28.8774 28.2615 27.5881C28.0263 28.0883 27.7452 28.5674 27.417 29.0232C25.9695 31.0351 24.0797 32.2844 21.6875 32.6233C19.7172 32.8987 17.8878 32.4963 16.2795 31.2256C14.7919 30.0397 13.9475 28.4725 13.7264 26.5242C13.465 24.2158 14.1083 22.1404 15.4352 20.3192C16.8626 18.3497 18.7523 17.1002 21.0642 16.6555C22.954 16.2955 24.7632 16.5284 26.3917 17.6932C27.4571 18.4344 28.2211 19.4509 28.7237 20.6792C28.8443 20.8698 28.7638 20.9757 28.5226 21.0392C27.8181 21.2277 27.2378 21.39 26.6471 21.5553ZM39.9476 23.9674C39.9516 24.0385 39.9557 24.1135 39.9616 24.1939C39.8611 26.0152 38.9966 27.3705 37.4085 28.2389C36.343 28.8107 35.2372 28.8742 34.1316 28.3659C32.6841 27.6883 31.9201 26.0152 32.282 24.3634C32.7243 22.3727 33.9305 21.1232 35.8001 20.6785C37.71 20.2125 39.5395 21.3985 39.9013 23.495C39.9297 23.645 39.9381 23.7949 39.9476 23.9674Z" fill="#00ACD7"/>
<path d="M7.0556 21.3152C7.01539 21.3787 7.03549 21.4211 7.1159 21.4211L13.1031 21.4422C13.1634 21.4422 13.2639 21.3787 13.3041 21.3152L13.6459 20.7646C13.6861 20.701 13.666 20.6375 13.5856 20.6375H7.69891C7.6185 20.6375 7.51798 20.6798 7.47778 20.7433L7.0556 21.3152Z" fill="#00ACD7"/>
<path d="M4.0201 23.2626C3.9799 23.3262 4 23.3686 4.08041 23.3686L12.2991 23.3473C12.3795 23.3473 12.4599 23.305 12.48 23.2203L12.6409 22.7121C12.661 22.6485 12.6208 22.585 12.5403 22.585H4.66342C4.58301 22.585 4.48249 22.6273 4.44228 22.6908L4.0201 23.2626Z" fill="#00ACD7"/>
<path d="M8.88528 25.1904C8.84507 25.2541 8.86517 25.3176 8.94559 25.3176L12.0379 25.3387C12.0982 25.3387 12.1786 25.2752 12.1786 25.1904L12.2188 24.6822C12.2188 24.5976 12.1786 24.5339 12.0982 24.5339H9.36777C9.28734 24.5339 9.20693 24.5976 9.16673 24.6611L8.88528 25.1904Z" fill="#00ACD7"/>
</svg>
