<svg width="48" height="48" viewBox="0 0 48 48" fill="none" xmlns="http://www.w3.org/2000/svg">
<mask id="mask0_11852_24701" style="mask-type:luminance" maskUnits="userSpaceOnUse" x="8" y="8" width="33" height="32">
<path d="M40.0005 8H8.00024V40H40.0005V8Z" fill="white"/>
</mask>
<g mask="url(#mask0_11852_24701)">
<path d="M31.7494 38.0052C31.6304 38.0682 31.6404 38.0882 31.7544 38.0302C31.7914 38.0152 31.8224 37.9942 31.8494 37.9692C31.8494 37.9482 31.8494 37.9482 31.7494 38.0052ZM31.9894 37.8752C31.9324 37.9222 31.9324 37.9222 32.0004 37.8912C32.0364 37.8702 32.0684 37.8502 32.0684 37.8442C32.0684 37.8172 32.0524 37.8232 31.9894 37.8752ZM32.1454 37.7812C32.0884 37.8282 32.0884 37.8282 32.1564 37.7972C32.1934 37.7762 32.2244 37.7542 32.2244 37.7492C32.2244 37.7242 32.2084 37.7292 32.1454 37.7812ZM32.3034 37.6882C32.2464 37.7352 32.2464 37.7352 32.3124 37.7032C32.3494 37.6832 32.3804 37.6622 32.3804 37.6562C32.3804 37.6312 32.3644 37.6362 32.3034 37.6882ZM32.5164 37.5472C32.4074 37.6202 32.3694 37.6672 32.4694 37.6152C32.5364 37.5742 32.6504 37.4842 32.6304 37.4842C32.5874 37.5002 32.5524 37.5272 32.5164 37.5472ZM22.9534 8.01126C22.8804 8.01626 22.6614 8.03626 22.4694 8.05226C17.9213 8.46426 13.6663 10.9122 10.9693 14.6832C9.47826 16.7502 8.51025 19.1512 8.14525 21.6722C8.01624 22.5522 8.00024 22.8122 8.00024 24.0052C8.00024 25.1972 8.01624 25.4532 8.14525 26.3332C9.01625 32.3442 13.2923 37.3902 19.0883 39.2602C20.1313 39.5932 21.2243 39.8232 22.4694 39.9642C22.9534 40.0162 25.0464 40.0162 25.5304 39.9642C27.6824 39.7242 29.4994 39.1932 31.2974 38.2762C31.5734 38.1362 31.6254 38.0992 31.5884 38.0682C30.7084 36.9072 29.8444 35.7452 28.9794 34.5732L26.4224 31.1202L23.2194 26.3752C22.1514 24.7872 21.0793 23.2032 19.9903 21.6312C19.9793 21.6312 19.9653 23.7402 19.9593 26.3122C19.9483 30.8172 19.9483 31.0002 19.8913 31.1042C19.8343 31.2292 19.7403 31.3332 19.6153 31.3912C19.5163 31.4382 19.4273 31.4482 18.9543 31.4482H18.4133L18.2723 31.3602C18.1843 31.3032 18.1113 31.2242 18.0643 31.1312L17.9963 30.9902L18.0013 24.7192L18.0123 18.4482L18.1113 18.3232C18.1743 18.2462 18.2523 18.1832 18.3403 18.1362C18.4713 18.0732 18.5233 18.0632 19.0643 18.0632C19.6993 18.0632 19.8043 18.0882 19.9713 18.2712C21.2673 20.2032 22.5594 22.1402 23.8304 24.0832C25.9094 27.2352 28.7474 31.5362 30.1424 33.6462L32.6794 37.4852L32.8044 37.4022C34.0234 36.5892 35.1325 35.6212 36.0895 34.5172C38.1055 32.2092 39.4135 29.3702 39.8565 26.3402C39.9855 25.4602 40.0015 25.1992 40.0015 24.0072C40.0015 22.8142 39.9855 22.5592 39.8565 21.6792C38.9855 15.6682 34.7095 10.6222 28.9134 8.75126C27.8294 8.40826 26.7144 8.17426 25.5854 8.05426C25.2824 8.02326 23.2144 7.98626 22.9544 8.01326L22.9534 8.01126ZM29.5004 17.6882C29.6514 17.7602 29.7654 17.8962 29.8174 18.0522C29.8444 18.1362 29.8494 19.8752 29.8444 23.7922L29.8334 29.4162L28.8444 27.8962L27.8494 26.3752V22.2922C27.8494 19.6452 27.8604 18.1612 27.8744 18.0882C27.9214 17.9212 28.0354 17.7812 28.1874 17.6932C28.3114 17.6302 28.3594 17.6252 28.8544 17.6252C29.3174 17.6252 29.3954 17.6302 29.4994 17.6882H29.5004Z" fill="white"/>
</g>
</svg>
