<svg width="48" height="48" viewBox="0 0 48 48" fill="none" xmlns="http://www.w3.org/2000/svg">
<path d="M8 20.4495C8 19.6663 8.38211 18.9324 9.02369 18.4833L23.312 8.48147C23.7252 8.19224 24.2751 8.19224 24.6883 8.48147L38.9766 18.4833C39.6181 18.9324 40.0002 19.6663 40.0002 20.4495V35.2001C40.0002 37.8511 37.8512 40.0001 35.2002 40.0001H12.8C10.149 40.0001 8 37.8511 8 35.2001V20.4495Z" fill="#F7F8F8"/>
<path d="M8 20.4495C8 19.6663 8.38211 18.9324 9.02369 18.4833L23.312 8.48147C23.7252 8.19224 24.2751 8.19224 24.6883 8.48147L38.9766 18.4833C39.6181 18.9324 40.0002 19.6663 40.0002 20.4495V35.2001C40.0002 37.8511 37.8512 40.0001 35.2002 40.0001H12.8C10.149 40.0001 8 37.8511 8 35.2001V20.4495Z" fill="#78767F" fill-opacity="0.02"/>
<path d="M8 20.4495C8 19.6663 8.38211 18.9324 9.02369 18.4833L23.312 8.48147C23.7252 8.19224 24.2751 8.19224 24.6883 8.48147L38.9766 18.4833C39.6181 18.9324 40.0002 19.6663 40.0002 20.4495V35.2001C40.0002 37.8511 37.8512 40.0001 35.2002 40.0001H12.8C10.149 40.0001 8 37.8511 8 35.2001V20.4495Z" fill="#5D34F2" fill-opacity="0.16"/>
<path fill-rule="evenodd" clip-rule="evenodd" d="M22.3998 14.9994C22.3998 14.668 22.6684 14.3994 22.9998 14.3994H24.9998C25.3312 14.3994 25.5998 14.668 25.5998 14.9994V19.1995H22.3998V14.9994ZM22.3998 29.7994C22.3998 30.1308 22.6684 30.3994 22.9998 30.3994H24.9998C25.3312 30.3994 25.5998 30.1308 25.5998 29.7994V25.5994H22.3998V29.7994ZM16.5998 23.9997C16.2684 23.9997 15.9998 23.731 15.9998 23.3997V21.3996C15.9998 21.0683 16.2684 20.7996 16.5998 20.7996H20.7998V23.9997H16.5998ZM31.3999 23.9997C31.7312 23.9997 31.9999 23.731 31.9999 23.3997V21.3996C31.9999 21.0683 31.7312 20.7996 31.3999 20.7996H27.1998V23.9997H31.3999Z" fill="#E67EF7"/>
<path fill-rule="evenodd" clip-rule="evenodd" d="M17.6368 18.2985C17.4025 18.0642 17.4025 17.6843 17.6368 17.45L19.0511 16.0358C19.2854 15.8015 19.6653 15.8015 19.8996 16.0358L22.8695 19.0057L20.6067 21.2684L17.6368 18.2985ZM28.1006 28.7638C28.3349 28.9981 28.7148 28.9981 28.9491 28.7638L30.3633 27.3496C30.5977 27.1153 30.5977 26.7354 30.3633 26.501L27.3935 23.5312L25.1307 25.7939L28.1006 28.7638ZM19.8989 28.7638C19.6646 28.9981 19.2847 28.9981 19.0504 28.7638L17.6361 27.3496C17.4018 27.1153 17.4018 26.7354 17.6361 26.501L20.606 23.5312L22.8688 25.7939L19.8989 28.7638ZM30.3636 18.2985C30.5979 18.0642 30.5979 17.6843 30.3636 17.45L28.9494 16.0358C28.7151 15.8015 28.3352 15.8015 28.1009 16.0358L25.131 19.0057L27.3937 21.2684L30.3636 18.2985Z" fill="#E67EF7"/>
<path fill-rule="evenodd" clip-rule="evenodd" d="M23.9999 28.7999C27.5346 28.7999 30.4 25.9345 30.4 22.3998C30.4 18.8652 27.5346 15.9998 23.9999 15.9998C20.4653 15.9998 17.5999 18.8652 17.5999 22.3998C17.5999 25.9345 20.4653 28.7999 23.9999 28.7999ZM23.9998 25.6003C25.7671 25.6003 27.1998 24.1676 27.1998 22.4003C27.1998 20.633 25.7671 19.2003 23.9998 19.2003C22.2324 19.2003 20.7997 20.633 20.7997 22.4003C20.7997 24.1676 22.2324 25.6003 23.9998 25.6003Z" fill="#F099FE"/>
<path d="M8 19.9034C8 18.9326 9.09283 18.3636 9.88817 18.9204L23.312 28.317C23.7252 28.6063 24.2751 28.6063 24.6883 28.317L38.1121 18.9204C38.9074 18.3636 40.0002 18.9326 40.0002 19.9034V37.5989C40.0002 38.9244 38.9257 39.9989 37.6002 39.9989H10.4C9.07452 39.9989 8 38.9244 8 37.5989V19.9034Z" fill="#7958FF"/>
<path d="M10.5385 40.0001C9.07607 40.0001 8.38012 38.1999 9.46225 37.2162L22.9238 24.9784C23.5341 24.4236 24.4661 24.4236 25.0764 24.9784L38.5379 37.2162C39.62 38.1999 38.9241 40.0001 37.4616 40.0001H10.5385Z" fill="#957BFF"/>
</svg>
