<svg width="48" height="48" viewBox="0 0 48 48" fill="none" xmlns="http://www.w3.org/2000/svg">
<g clip-path="url(#clip0_99_768)">
<path d="M6.8429 23.9996C6.8429 30.7908 10.7896 36.6598 16.5126 39.441L8.32833 17.0171C7.37635 19.1509 6.8429 21.5122 6.8429 23.9996Z" fill="#21759B"/>
<path d="M35.5826 23.1336C35.5826 21.0132 34.821 19.5447 34.1677 18.4017C33.298 16.9885 32.4828 15.7916 32.4828 14.3783C32.4828 12.8012 33.679 11.333 35.3639 11.333C35.44 11.333 35.5121 11.3425 35.5862 11.3467C32.5338 8.55021 28.4669 6.84277 24.0002 6.84277C18.0062 6.84277 12.7327 9.91811 9.6649 14.5762C10.0674 14.5883 10.4468 14.5967 10.769 14.5967C12.5636 14.5967 15.3416 14.379 15.3416 14.379C16.2664 14.3245 16.3755 15.6829 15.4516 15.7923C15.4516 15.7923 14.5221 15.9016 13.4879 15.9558L19.7358 34.5401L23.4906 23.2792L20.8174 15.9552C19.8935 15.901 19.0182 15.7916 19.0182 15.7916C18.0937 15.7374 18.2021 14.3238 19.1266 14.3783C19.1266 14.3783 21.9601 14.5961 23.6459 14.5961C25.4402 14.5961 28.2185 14.3783 28.2185 14.3783C29.144 14.3238 29.2527 15.6823 28.3285 15.7916C28.3285 15.7916 27.3971 15.901 26.3648 15.9552L32.5651 34.3987L34.2764 28.68C35.0182 26.3069 35.5826 24.6024 35.5826 23.1336Z" fill="#21759B"/>
<path d="M24.3012 25.5002L19.1534 40.4587C20.6904 40.9106 22.3159 41.1577 24.0002 41.1577C25.9982 41.1577 27.9142 40.8123 29.6977 40.1852C29.6517 40.1117 29.6099 40.0337 29.5756 39.9488L24.3012 25.5002Z" fill="#21759B"/>
<path d="M39.055 15.7678C39.1287 16.3143 39.1705 16.901 39.1705 17.5321C39.1705 19.2731 38.8454 21.2303 37.866 23.6775L32.6252 38.8299C37.7259 35.8555 41.1568 30.3293 41.1568 23.9997C41.1571 21.0168 40.3951 18.2118 39.055 15.7678Z" fill="#21759B"/>
<path d="M24.0002 4C12.9724 4 4 12.9717 4 23.9995C4 35.0286 12.9724 44 24.0002 44C35.0276 44 44.0013 35.0286 44.0013 23.9995C44.001 12.9717 35.0276 4 24.0002 4ZM24.0002 43.0833C13.4781 43.0833 4.91705 34.5223 4.91705 23.9995C4.91705 13.4774 13.4777 4.91705 24.0002 4.91705C34.5219 4.91705 43.0823 13.4774 43.0823 23.9995C43.0823 34.5223 34.5219 43.0833 24.0002 43.0833Z" fill="#21759B"/>
</g>
<defs>
<clipPath id="clip0_99_768">
<rect width="39.999" height="40" fill="white" transform="translate(4 4)"/>
</clipPath>
</defs>
</svg>
