<svg width="102" height="32" viewBox="0 0 102 32" fill="none" xmlns="http://www.w3.org/2000/svg">
<path d="M0 4.53543C0 3.42216 0.902481 2.51968 2.01575 2.51968H21.6693C22.7826 2.51968 23.685 3.42217 23.685 4.53543V25.7008C23.685 26.8141 22.7826 27.7165 21.6693 27.7165H2.01575C0.902481 27.7165 0 26.8141 0 25.7008V4.53543Z" fill="url(#paint0_linear_370_3362)"/>
<path d="M27.0866 32L4.09448 27.5276L37.2913 27.9055L27.0866 32Z" fill="url(#paint1_linear_370_3362)"/>
<path d="M0 4.26793C0 3.26479 0.737623 2.4143 1.73068 2.27244L15.337 0.328682C16.5513 0.155203 17.6378 1.09749 17.6378 2.32417V27.912C17.6378 29.1387 16.5513 30.081 15.337 29.9075L1.73068 27.9638C0.737622 27.8219 0 26.9714 0 25.9683V4.26793Z" fill="url(#paint2_linear_370_3362)"/>
<g filter="url(#filter0_d_370_3362)">
<path d="M15.1181 15.1181C15.1181 15.9531 14.4412 16.6299 13.6063 16.6299C12.7713 16.6299 12.0945 15.9531 12.0945 15.1181C12.0945 14.2832 12.7713 13.6063 13.6063 13.6063C14.4412 13.6063 15.1181 14.2832 15.1181 15.1181Z" fill="url(#paint3_linear_370_3362)"/>
</g>
<g filter="url(#filter1_d_370_3362)">
<path d="M12.8503 15.2441C12.8503 14.8266 13.1888 14.4882 13.6062 14.4882C14.0237 14.4882 14.3622 14.8266 14.3622 15.2441V17.7638C14.3622 18.1813 14.0237 18.5197 13.6062 18.5197C13.1888 18.5197 12.8503 18.1813 12.8503 17.7638V15.2441Z" fill="url(#paint4_linear_370_3362)"/>
</g>
<path fill-rule="evenodd" clip-rule="evenodd" d="M54.4343 7.29999H51.092C48.0925 7.29999 46.5928 8.76697 46.5928 11.7009V18.4909C46.5928 21.4249 48.0925 22.8919 51.092 22.8919H54.4343C57.4338 22.8919 58.9335 21.4249 58.9335 18.4909V11.7009C58.9335 8.76697 57.4338 7.29999 54.4343 7.29999ZM56.1055 18.4909C56.1055 20.0837 55.2913 20.88 53.663 20.88H51.8633C50.235 20.88 49.4209 20.0837 49.4209 18.4909V11.7009C49.4209 10.1082 50.235 9.31185 51.8633 9.31185H53.663C55.2913 9.31185 56.1055 10.1082 56.1055 11.7009V18.4909ZM44.1908 22.9C44.4488 22.9 44.5778 22.7701 44.5778 22.5102V21.2109C44.5778 20.951 44.4488 20.8211 44.1908 20.8211H36.8379V7.6979C36.8379 7.43804 36.7089 7.30811 36.4509 7.30811H34.387C34.129 7.30811 34 7.43804 34 7.6979V22.5102C34 22.7701 34.129 22.9 34.387 22.9H44.1908ZM94.1585 7.29999H97.5008C100.5 7.29999 102 8.76697 102 11.7009V18.4909C102 21.4249 100.5 22.8919 97.5008 22.8919H94.1585C91.159 22.8919 89.6593 21.4249 89.6593 18.4909V11.7009C89.6593 8.76697 91.159 7.29999 94.1585 7.29999ZM96.7295 20.88C98.3578 20.88 99.1719 20.0837 99.1719 18.4909V11.7009C99.1719 10.1082 98.3578 9.31185 96.7295 9.31185H94.9298C93.3015 9.31185 92.4874 10.1082 92.4874 11.7009V18.4909C92.4874 20.0837 93.3015 20.88 94.9298 20.88H96.7295ZM72.8949 13.6901H67.6435C67.3809 13.6901 67.2496 13.8179 67.2496 14.0735V15.3515C67.2496 15.6071 67.3809 15.7349 67.6435 15.7349H70.4005V18.4188C70.4005 20.0376 69.569 20.847 67.906 20.847H66.3306C64.6677 20.847 63.8362 20.0376 63.8362 18.4188V11.7731C63.8362 10.1542 64.6677 9.34483 66.3306 9.34483H71.8446C72.1071 9.34483 72.2384 9.21702 72.2384 8.96142V7.6834C72.2384 7.42779 72.1071 7.29999 71.8446 7.29999H65.5429C62.4796 7.29999 60.948 8.79102 60.948 11.7731V18.4188C60.948 21.4009 62.4796 22.8919 65.5429 22.8919H68.6937C71.7571 22.8919 73.2887 21.4009 73.2887 18.4188V14.0735C73.2887 13.8179 73.1574 13.6901 72.8949 13.6901ZM75.6975 7.29999H87.2505C87.5131 7.29999 87.6444 7.42992 87.6444 7.68979V8.98911C87.6444 9.24897 87.5131 9.37891 87.2505 9.37891H82.9181V22.5021C82.9181 22.762 82.7868 22.8919 82.5243 22.8919H80.4237C80.1612 22.8919 80.0299 22.762 80.0299 22.5021V9.37891H75.6975C75.4349 9.37891 75.3036 9.24897 75.3036 8.98911V7.68979C75.3036 7.42992 75.4349 7.29999 75.6975 7.29999Z" fill="black"/>
<defs>
<filter id="filter0_d_370_3362" x="11.0945" y="13.6063" width="5.02368" height="5.02362" filterUnits="userSpaceOnUse" color-interpolation-filters="sRGB">
<feFlood flood-opacity="0" result="BackgroundImageFix"/>
<feColorMatrix in="SourceAlpha" type="matrix" values="0 0 0 0 0 0 0 0 0 0 0 0 0 0 0 0 0 0 127 0" result="hardAlpha"/>
<feOffset dy="1"/>
<feGaussianBlur stdDeviation="0.5"/>
<feComposite in2="hardAlpha" operator="out"/>
<feColorMatrix type="matrix" values="0 0 0 0 0.104304 0 0 0 0 0.0825 0 0 0 0 0.2 0 0 0 0.02 0"/>
<feBlend mode="normal" in2="BackgroundImageFix" result="effect1_dropShadow_370_3362"/>
<feBlend mode="normal" in="SourceGraphic" in2="effect1_dropShadow_370_3362" result="shape"/>
</filter>
<filter id="filter1_d_370_3362" x="8.85034" y="14.4882" width="7.51172" height="11.0315" filterUnits="userSpaceOnUse" color-interpolation-filters="sRGB">
<feFlood flood-opacity="0" result="BackgroundImageFix"/>
<feColorMatrix in="SourceAlpha" type="matrix" values="0 0 0 0 0 0 0 0 0 0 0 0 0 0 0 0 0 0 127 0" result="hardAlpha"/>
<feOffset dx="-1" dy="4"/>
<feGaussianBlur stdDeviation="1.5"/>
<feComposite in2="hardAlpha" operator="out"/>
<feColorMatrix type="matrix" values="0 0 0 0 0.104304 0 0 0 0 0.0825 0 0 0 0 0.2 0 0 0 0.08 0"/>
<feBlend mode="normal" in2="BackgroundImageFix" result="effect1_dropShadow_370_3362"/>
<feBlend mode="normal" in="SourceGraphic" in2="effect1_dropShadow_370_3362" result="shape"/>
</filter>
<linearGradient id="paint0_linear_370_3362" x1="0.566929" y1="16" x2="24.016" y2="8.49829" gradientUnits="userSpaceOnUse">
<stop stop-color="#FFF06A"/>
<stop offset="1" stop-color="#EC78FF"/>
</linearGradient>
<linearGradient id="paint1_linear_370_3362" x1="13.9213" y1="28.2835" x2="28.1575" y2="31.1811" gradientUnits="userSpaceOnUse">
<stop stop-color="#ECB6FF"/>
<stop offset="1" stop-color="#FFF4F4" stop-opacity="0"/>
</linearGradient>
<linearGradient id="paint2_linear_370_3362" x1="-1.44882" y1="17.3228" x2="19.0236" y2="12.9134" gradientUnits="userSpaceOnUse">
<stop stop-color="#492EF3"/>
<stop offset="1" stop-color="#CF69FF"/>
</linearGradient>
<linearGradient id="paint3_linear_370_3362" x1="13.6063" y1="13.6063" x2="12.9764" y2="16.6299" gradientUnits="userSpaceOnUse">
<stop stop-color="#E1BFFF"/>
<stop offset="1" stop-color="#AF68EE"/>
</linearGradient>
<linearGradient id="paint4_linear_370_3362" x1="13.6062" y1="14.4882" x2="11.8205" y2="17.7026" gradientUnits="userSpaceOnUse">
<stop stop-color="#F8F2FF"/>
<stop offset="1" stop-color="#D185F5"/>
</linearGradient>
</defs>
</svg>
