<svg width="16" height="16" viewBox="0 0 16 16" fill="none" xmlns="http://www.w3.org/2000/svg">
  <path
    d="M7.52667 6.11333L4.7 8.94C4.63751 9.00198 4.58792 9.07571 4.55407 9.15695C4.52023 9.23819 4.5028 9.32533 4.5028 9.41333C4.5028 9.50134 4.52023 9.58848 4.55407 9.66972C4.58792 9.75096 4.63751 9.82469 4.7 9.88667C4.82491 10.0108 4.99388 10.0805 5.17 10.0805C5.34612 10.0805 5.51509 10.0108 5.64 9.88667L8 7.52667L10.36 9.88667C10.4849 10.0108 10.6539 10.0805 10.83 10.0805C11.0061 10.0805 11.1751 10.0108 11.3 9.88667C11.3618 9.82437 11.4107 9.7505 11.4438 9.66927C11.477 9.58805 11.4938 9.50107 11.4933 9.41333C11.4938 9.3256 11.477 9.23862 11.4438 9.1574C11.4107 9.07617 11.3618 9.00229 11.3 8.94L8.47333 6.11333C8.41136 6.05085 8.33762 6.00125 8.25638 5.96741C8.17514 5.93356 8.08801 5.91613 8 5.91613C7.91199 5.91613 7.82485 5.93356 7.74362 5.96741C7.66238 6.00125 7.58864 6.05085 7.52667 6.11333Z"
    fill="currentColor" />
</svg>